<?xml version="1.0" encoding="utf-8" standalone="no"?>
<!DOCTYPE svg PUBLIC "-//W3C//DTD SVG 1.1//EN"
  "http://www.w3.org/Graphics/SVG/1.1/DTD/svg11.dtd">
<svg xmlns:xlink="http://www.w3.org/1999/xlink" width="877.735438pt" height="370.537812pt" viewBox="0 0 877.735438 370.537812" xmlns="http://www.w3.org/2000/svg" version="1.1">
 <metadata>
  <rdf:RDF xmlns:dc="http://purl.org/dc/elements/1.1/" xmlns:cc="http://creativecommons.org/ns#" xmlns:rdf="http://www.w3.org/1999/02/22-rdf-syntax-ns#">
   <cc:Work>
    <dc:type rdf:resource="http://purl.org/dc/dcmitype/StillImage"/>
    <dc:date>2026-02-04T11:46:06.844788</dc:date>
    <dc:format>image/svg+xml</dc:format>
    <dc:creator>
     <cc:Agent>
      <dc:title>Matplotlib v3.10.7, https://matplotlib.org/</dc:title>
     </cc:Agent>
    </dc:creator>
   </cc:Work>
  </rdf:RDF>
 </metadata>
 <defs>
  <style type="text/css">*{stroke-linejoin: round; stroke-linecap: butt}</style>
 </defs>
 <g id="figure_1">
  <g id="patch_1">
   <path d="M 0 370.537812 
L 877.735438 370.537812 
L 877.735438 0 
L 0 0 
z
" style="fill: #ffffff"/>
  </g>
  <g id="axes_1">
   <g id="patch_2">
    <path d="M 79.791687 320.4 
L 419.443861 320.4 
L 419.443861 43.2 
L 79.791687 43.2 
z
" style="fill: #ffffff"/>
   </g>
   <g id="matplotlib.axis_1">
    <g id="xtick_1">
     <g id="line2d_1">
      <defs>
       <path id="m6d8043b2c4" d="M 0 0 
L 0 3.5 
" style="stroke: #000000; stroke-width: 0.8"/>
      </defs>
      <g>
       <use xlink:href="#m6d8043b2c4" x="79.791687" y="320.4" style="stroke: #000000; stroke-width: 0.8"/>
      </g>
     </g>
     <g id="text_1">
      <!-- −5 -->
      <g transform="translate(68.735047 338.797656) scale(0.15 -0.15)">
       <defs>
        <path id="DejaVuSans-2212" d="M 678 2272 
L 4684 2272 
L 4684 1741 
L 678 1741 
L 678 2272 
z
" transform="scale(0.015625)"/>
        <path id="DejaVuSans-35" d="M 691 4666 
L 3169 4666 
L 3169 4134 
L 1269 4134 
L 1269 2991 
Q 1406 3038 1543 3061 
Q 1681 3084 1819 3084 
Q 2600 3084 3056 2656 
Q 3513 2228 3513 1497 
Q 3513 744 3044 326 
Q 2575 -91 1722 -91 
Q 1428 -91 1123 -41 
Q 819 9 494 109 
L 494 744 
Q 775 591 1075 516 
Q 1375 441 1709 441 
Q 2250 441 2565 725 
Q 2881 1009 2881 1497 
Q 2881 1984 2565 2268 
Q 2250 2553 1709 2553 
Q 1456 2553 1204 2497 
Q 953 2441 691 2322 
L 691 4666 
z
" transform="scale(0.015625)"/>
       </defs>
       <use xlink:href="#DejaVuSans-2212"/>
       <use xlink:href="#DejaVuSans-35" transform="translate(83.789062 0)"/>
      </g>
     </g>
    </g>
    <g id="xtick_2">
     <g id="line2d_2">
      <g>
       <use xlink:href="#m6d8043b2c4" x="136.400383" y="320.4" style="stroke: #000000; stroke-width: 0.8"/>
      </g>
     </g>
     <g id="text_2">
      <!-- 0 -->
      <g transform="translate(131.628508 338.797656) scale(0.15 -0.15)">
       <defs>
        <path id="DejaVuSans-30" d="M 2034 4250 
Q 1547 4250 1301 3770 
Q 1056 3291 1056 2328 
Q 1056 1369 1301 889 
Q 1547 409 2034 409 
Q 2525 409 2770 889 
Q 3016 1369 3016 2328 
Q 3016 3291 2770 3770 
Q 2525 4250 2034 4250 
z
M 2034 4750 
Q 2819 4750 3233 4129 
Q 3647 3509 3647 2328 
Q 3647 1150 3233 529 
Q 2819 -91 2034 -91 
Q 1250 -91 836 529 
Q 422 1150 422 2328 
Q 422 3509 836 4129 
Q 1250 4750 2034 4750 
z
" transform="scale(0.015625)"/>
       </defs>
       <use xlink:href="#DejaVuSans-30"/>
      </g>
     </g>
    </g>
    <g id="xtick_3">
     <g id="line2d_3">
      <g>
       <use xlink:href="#m6d8043b2c4" x="193.009079" y="320.4" style="stroke: #000000; stroke-width: 0.8"/>
      </g>
     </g>
     <g id="text_3">
      <!-- 5 -->
      <g transform="translate(188.237204 338.797656) scale(0.15 -0.15)">
       <use xlink:href="#DejaVuSans-35"/>
      </g>
     </g>
    </g>
    <g id="xtick_4">
     <g id="line2d_4">
      <g>
       <use xlink:href="#m6d8043b2c4" x="249.617774" y="320.4" style="stroke: #000000; stroke-width: 0.8"/>
      </g>
     </g>
     <g id="text_4">
      <!-- 10 -->
      <g transform="translate(240.074024 338.797656) scale(0.15 -0.15)">
       <defs>
        <path id="DejaVuSans-31" d="M 794 531 
L 1825 531 
L 1825 4091 
L 703 3866 
L 703 4441 
L 1819 4666 
L 2450 4666 
L 2450 531 
L 3481 531 
L 3481 0 
L 794 0 
L 794 531 
z
" transform="scale(0.015625)"/>
       </defs>
       <use xlink:href="#DejaVuSans-31"/>
       <use xlink:href="#DejaVuSans-30" transform="translate(63.623047 0)"/>
      </g>
     </g>
    </g>
    <g id="xtick_5">
     <g id="line2d_5">
      <g>
       <use xlink:href="#m6d8043b2c4" x="306.22647" y="320.4" style="stroke: #000000; stroke-width: 0.8"/>
      </g>
     </g>
     <g id="text_5">
      <!-- 15 -->
      <g transform="translate(296.68272 338.797656) scale(0.15 -0.15)">
       <use xlink:href="#DejaVuSans-31"/>
       <use xlink:href="#DejaVuSans-35" transform="translate(63.623047 0)"/>
      </g>
     </g>
    </g>
    <g id="xtick_6">
     <g id="line2d_6">
      <g>
       <use xlink:href="#m6d8043b2c4" x="362.835166" y="320.4" style="stroke: #000000; stroke-width: 0.8"/>
      </g>
     </g>
     <g id="text_6">
      <!-- 20 -->
      <g transform="translate(353.291416 338.797656) scale(0.15 -0.15)">
       <defs>
        <path id="DejaVuSans-32" d="M 1228 531 
L 3431 531 
L 3431 0 
L 469 0 
L 469 531 
Q 828 903 1448 1529 
Q 2069 2156 2228 2338 
Q 2531 2678 2651 2914 
Q 2772 3150 2772 3378 
Q 2772 3750 2511 3984 
Q 2250 4219 1831 4219 
Q 1534 4219 1204 4116 
Q 875 4013 500 3803 
L 500 4441 
Q 881 4594 1212 4672 
Q 1544 4750 1819 4750 
Q 2544 4750 2975 4387 
Q 3406 4025 3406 3419 
Q 3406 3131 3298 2873 
Q 3191 2616 2906 2266 
Q 2828 2175 2409 1742 
Q 1991 1309 1228 531 
z
" transform="scale(0.015625)"/>
       </defs>
       <use xlink:href="#DejaVuSans-32"/>
       <use xlink:href="#DejaVuSans-30" transform="translate(63.623047 0)"/>
      </g>
     </g>
    </g>
    <g id="xtick_7">
     <g id="line2d_7">
      <g>
       <use xlink:href="#m6d8043b2c4" x="419.443861" y="320.4" style="stroke: #000000; stroke-width: 0.8"/>
      </g>
     </g>
     <g id="text_7">
      <!-- 25 -->
      <g transform="translate(409.900111 338.797656) scale(0.15 -0.15)">
       <use xlink:href="#DejaVuSans-32"/>
       <use xlink:href="#DejaVuSans-35" transform="translate(63.623047 0)"/>
      </g>
     </g>
    </g>
    <g id="text_8">
     <!-- Time [hr] -->
     <g transform="translate(202.705274 359.594375) scale(0.18 -0.18)">
      <defs>
       <path id="DejaVuSans-Bold-54" d="M 31 4666 
L 4331 4666 
L 4331 3756 
L 2784 3756 
L 2784 0 
L 1581 0 
L 1581 3756 
L 31 3756 
L 31 4666 
z
" transform="scale(0.015625)"/>
       <path id="DejaVuSans-Bold-69" d="M 538 3500 
L 1656 3500 
L 1656 0 
L 538 0 
L 538 3500 
z
M 538 4863 
L 1656 4863 
L 1656 3950 
L 538 3950 
L 538 4863 
z
" transform="scale(0.015625)"/>
       <path id="DejaVuSans-Bold-6d" d="M 3781 2919 
Q 3994 3244 4286 3414 
Q 4578 3584 4928 3584 
Q 5531 3584 5847 3212 
Q 6163 2841 6163 2131 
L 6163 0 
L 5038 0 
L 5038 1825 
Q 5041 1866 5042 1909 
Q 5044 1953 5044 2034 
Q 5044 2406 4934 2573 
Q 4825 2741 4581 2741 
Q 4263 2741 4089 2478 
Q 3916 2216 3909 1719 
L 3909 0 
L 2784 0 
L 2784 1825 
Q 2784 2406 2684 2573 
Q 2584 2741 2328 2741 
Q 2006 2741 1831 2477 
Q 1656 2213 1656 1722 
L 1656 0 
L 531 0 
L 531 3500 
L 1656 3500 
L 1656 2988 
Q 1863 3284 2130 3434 
Q 2397 3584 2719 3584 
Q 3081 3584 3359 3409 
Q 3638 3234 3781 2919 
z
" transform="scale(0.015625)"/>
       <path id="DejaVuSans-Bold-65" d="M 4031 1759 
L 4031 1441 
L 1416 1441 
Q 1456 1047 1700 850 
Q 1944 653 2381 653 
Q 2734 653 3104 758 
Q 3475 863 3866 1075 
L 3866 213 
Q 3469 63 3072 -14 
Q 2675 -91 2278 -91 
Q 1328 -91 801 392 
Q 275 875 275 1747 
Q 275 2603 792 3093 
Q 1309 3584 2216 3584 
Q 3041 3584 3536 3087 
Q 4031 2591 4031 1759 
z
M 2881 2131 
Q 2881 2450 2695 2645 
Q 2509 2841 2209 2841 
Q 1884 2841 1681 2658 
Q 1478 2475 1428 2131 
L 2881 2131 
z
" transform="scale(0.015625)"/>
       <path id="DejaVuSans-Bold-20" transform="scale(0.015625)"/>
       <path id="DejaVuSans-Bold-5b" d="M 550 4863 
L 2491 4863 
L 2491 4159 
L 1613 4159 
L 1613 -141 
L 2491 -141 
L 2491 -844 
L 550 -844 
L 550 4863 
z
" transform="scale(0.015625)"/>
       <path id="DejaVuSans-Bold-68" d="M 4056 2131 
L 4056 0 
L 2931 0 
L 2931 347 
L 2931 1625 
Q 2931 2084 2911 2256 
Q 2891 2428 2841 2509 
Q 2775 2619 2662 2680 
Q 2550 2741 2406 2741 
Q 2056 2741 1856 2470 
Q 1656 2200 1656 1722 
L 1656 0 
L 538 0 
L 538 4863 
L 1656 4863 
L 1656 2988 
Q 1909 3294 2193 3439 
Q 2478 3584 2822 3584 
Q 3428 3584 3742 3212 
Q 4056 2841 4056 2131 
z
" transform="scale(0.015625)"/>
       <path id="DejaVuSans-Bold-72" d="M 3138 2547 
Q 2991 2616 2845 2648 
Q 2700 2681 2553 2681 
Q 2122 2681 1889 2404 
Q 1656 2128 1656 1613 
L 1656 0 
L 538 0 
L 538 3500 
L 1656 3500 
L 1656 2925 
Q 1872 3269 2151 3426 
Q 2431 3584 2822 3584 
Q 2878 3584 2943 3579 
Q 3009 3575 3134 3559 
L 3138 2547 
z
" transform="scale(0.015625)"/>
       <path id="DejaVuSans-Bold-5d" d="M 2375 -844 
L 434 -844 
L 434 -141 
L 1313 -141 
L 1313 4159 
L 434 4159 
L 434 4863 
L 2375 4863 
L 2375 -844 
z
" transform="scale(0.015625)"/>
      </defs>
      <use xlink:href="#DejaVuSans-Bold-54"/>
      <use xlink:href="#DejaVuSans-Bold-69" transform="translate(68.212891 0)"/>
      <use xlink:href="#DejaVuSans-Bold-6d" transform="translate(102.490234 0)"/>
      <use xlink:href="#DejaVuSans-Bold-65" transform="translate(206.689453 0)"/>
      <use xlink:href="#DejaVuSans-Bold-20" transform="translate(274.511719 0)"/>
      <use xlink:href="#DejaVuSans-Bold-5b" transform="translate(309.326172 0)"/>
      <use xlink:href="#DejaVuSans-Bold-68" transform="translate(355.029297 0)"/>
      <use xlink:href="#DejaVuSans-Bold-72" transform="translate(426.220703 0)"/>
      <use xlink:href="#DejaVuSans-Bold-5d" transform="translate(475.537109 0)"/>
     </g>
    </g>
   </g>
   <g id="matplotlib.axis_2">
    <g id="ytick_1">
     <g id="line2d_8">
      <defs>
       <path id="m5b6ee9283d" d="M 0 0 
L -3.5 0 
" style="stroke: #000000; stroke-width: 0.8"/>
      </defs>
      <g>
       <use xlink:href="#m5b6ee9283d" x="79.791687" y="307.8" style="stroke: #000000; stroke-width: 0.8"/>
      </g>
     </g>
     <g id="text_9">
      <!-- 0.0 -->
      <g transform="translate(48.937 313.498828) scale(0.15 -0.15)">
       <defs>
        <path id="DejaVuSans-2e" d="M 684 794 
L 1344 794 
L 1344 0 
L 684 0 
L 684 794 
z
" transform="scale(0.015625)"/>
       </defs>
       <use xlink:href="#DejaVuSans-30"/>
       <use xlink:href="#DejaVuSans-2e" transform="translate(63.623047 0)"/>
       <use xlink:href="#DejaVuSans-30" transform="translate(95.410156 0)"/>
      </g>
     </g>
    </g>
    <g id="ytick_2">
     <g id="line2d_9">
      <g>
       <use xlink:href="#m5b6ee9283d" x="79.791687" y="268.814634" style="stroke: #000000; stroke-width: 0.8"/>
      </g>
     </g>
     <g id="text_10">
      <!-- 0.2 -->
      <g transform="translate(48.937 274.513462) scale(0.15 -0.15)">
       <use xlink:href="#DejaVuSans-30"/>
       <use xlink:href="#DejaVuSans-2e" transform="translate(63.623047 0)"/>
       <use xlink:href="#DejaVuSans-32" transform="translate(95.410156 0)"/>
      </g>
     </g>
    </g>
    <g id="ytick_3">
     <g id="line2d_10">
      <g>
       <use xlink:href="#m5b6ee9283d" x="79.791687" y="229.829268" style="stroke: #000000; stroke-width: 0.8"/>
      </g>
     </g>
     <g id="text_11">
      <!-- 0.4 -->
      <g transform="translate(48.937 235.528096) scale(0.15 -0.15)">
       <defs>
        <path id="DejaVuSans-34" d="M 2419 4116 
L 825 1625 
L 2419 1625 
L 2419 4116 
z
M 2253 4666 
L 3047 4666 
L 3047 1625 
L 3713 1625 
L 3713 1100 
L 3047 1100 
L 3047 0 
L 2419 0 
L 2419 1100 
L 313 1100 
L 313 1709 
L 2253 4666 
z
" transform="scale(0.015625)"/>
       </defs>
       <use xlink:href="#DejaVuSans-30"/>
       <use xlink:href="#DejaVuSans-2e" transform="translate(63.623047 0)"/>
       <use xlink:href="#DejaVuSans-34" transform="translate(95.410156 0)"/>
      </g>
     </g>
    </g>
    <g id="ytick_4">
     <g id="line2d_11">
      <g>
       <use xlink:href="#m5b6ee9283d" x="79.791687" y="190.843902" style="stroke: #000000; stroke-width: 0.8"/>
      </g>
     </g>
     <g id="text_12">
      <!-- 0.6 -->
      <g transform="translate(48.937 196.542731) scale(0.15 -0.15)">
       <defs>
        <path id="DejaVuSans-36" d="M 2113 2584 
Q 1688 2584 1439 2293 
Q 1191 2003 1191 1497 
Q 1191 994 1439 701 
Q 1688 409 2113 409 
Q 2538 409 2786 701 
Q 3034 994 3034 1497 
Q 3034 2003 2786 2293 
Q 2538 2584 2113 2584 
z
M 3366 4563 
L 3366 3988 
Q 3128 4100 2886 4159 
Q 2644 4219 2406 4219 
Q 1781 4219 1451 3797 
Q 1122 3375 1075 2522 
Q 1259 2794 1537 2939 
Q 1816 3084 2150 3084 
Q 2853 3084 3261 2657 
Q 3669 2231 3669 1497 
Q 3669 778 3244 343 
Q 2819 -91 2113 -91 
Q 1303 -91 875 529 
Q 447 1150 447 2328 
Q 447 3434 972 4092 
Q 1497 4750 2381 4750 
Q 2619 4750 2861 4703 
Q 3103 4656 3366 4563 
z
" transform="scale(0.015625)"/>
       </defs>
       <use xlink:href="#DejaVuSans-30"/>
       <use xlink:href="#DejaVuSans-2e" transform="translate(63.623047 0)"/>
       <use xlink:href="#DejaVuSans-36" transform="translate(95.410156 0)"/>
      </g>
     </g>
    </g>
    <g id="ytick_5">
     <g id="line2d_12">
      <g>
       <use xlink:href="#m5b6ee9283d" x="79.791687" y="151.858537" style="stroke: #000000; stroke-width: 0.8"/>
      </g>
     </g>
     <g id="text_13">
      <!-- 0.8 -->
      <g transform="translate(48.937 157.557365) scale(0.15 -0.15)">
       <defs>
        <path id="DejaVuSans-38" d="M 2034 2216 
Q 1584 2216 1326 1975 
Q 1069 1734 1069 1313 
Q 1069 891 1326 650 
Q 1584 409 2034 409 
Q 2484 409 2743 651 
Q 3003 894 3003 1313 
Q 3003 1734 2745 1975 
Q 2488 2216 2034 2216 
z
M 1403 2484 
Q 997 2584 770 2862 
Q 544 3141 544 3541 
Q 544 4100 942 4425 
Q 1341 4750 2034 4750 
Q 2731 4750 3128 4425 
Q 3525 4100 3525 3541 
Q 3525 3141 3298 2862 
Q 3072 2584 2669 2484 
Q 3125 2378 3379 2068 
Q 3634 1759 3634 1313 
Q 3634 634 3220 271 
Q 2806 -91 2034 -91 
Q 1263 -91 848 271 
Q 434 634 434 1313 
Q 434 1759 690 2068 
Q 947 2378 1403 2484 
z
M 1172 3481 
Q 1172 3119 1398 2916 
Q 1625 2713 2034 2713 
Q 2441 2713 2670 2916 
Q 2900 3119 2900 3481 
Q 2900 3844 2670 4047 
Q 2441 4250 2034 4250 
Q 1625 4250 1398 4047 
Q 1172 3844 1172 3481 
z
" transform="scale(0.015625)"/>
       </defs>
       <use xlink:href="#DejaVuSans-30"/>
       <use xlink:href="#DejaVuSans-2e" transform="translate(63.623047 0)"/>
       <use xlink:href="#DejaVuSans-38" transform="translate(95.410156 0)"/>
      </g>
     </g>
    </g>
    <g id="ytick_6">
     <g id="line2d_13">
      <g>
       <use xlink:href="#m5b6ee9283d" x="79.791687" y="112.873171" style="stroke: #000000; stroke-width: 0.8"/>
      </g>
     </g>
     <g id="text_14">
      <!-- 1.0 -->
      <g transform="translate(48.937 118.571999) scale(0.15 -0.15)">
       <use xlink:href="#DejaVuSans-31"/>
       <use xlink:href="#DejaVuSans-2e" transform="translate(63.623047 0)"/>
       <use xlink:href="#DejaVuSans-30" transform="translate(95.410156 0)"/>
      </g>
     </g>
    </g>
    <g id="ytick_7">
     <g id="line2d_14">
      <g>
       <use xlink:href="#m5b6ee9283d" x="79.791687" y="73.887805" style="stroke: #000000; stroke-width: 0.8"/>
      </g>
     </g>
     <g id="text_15">
      <!-- 1.2 -->
      <g transform="translate(48.937 79.586633) scale(0.15 -0.15)">
       <use xlink:href="#DejaVuSans-31"/>
       <use xlink:href="#DejaVuSans-2e" transform="translate(63.623047 0)"/>
       <use xlink:href="#DejaVuSans-32" transform="translate(95.410156 0)"/>
      </g>
     </g>
    </g>
    <g id="text_16">
     <!-- Empagliflozin Plasma -->
     <g transform="translate(20.877187 290.065781) rotate(-90) scale(0.18 -0.18)">
      <defs>
       <path id="DejaVuSans-Bold-45" d="M 588 4666 
L 3834 4666 
L 3834 3756 
L 1791 3756 
L 1791 2888 
L 3713 2888 
L 3713 1978 
L 1791 1978 
L 1791 909 
L 3903 909 
L 3903 0 
L 588 0 
L 588 4666 
z
" transform="scale(0.015625)"/>
       <path id="DejaVuSans-Bold-70" d="M 1656 506 
L 1656 -1331 
L 538 -1331 
L 538 3500 
L 1656 3500 
L 1656 2988 
Q 1888 3294 2169 3439 
Q 2450 3584 2816 3584 
Q 3463 3584 3878 3070 
Q 4294 2556 4294 1747 
Q 4294 938 3878 423 
Q 3463 -91 2816 -91 
Q 2450 -91 2169 54 
Q 1888 200 1656 506 
z
M 2400 2772 
Q 2041 2772 1848 2508 
Q 1656 2244 1656 1747 
Q 1656 1250 1848 986 
Q 2041 722 2400 722 
Q 2759 722 2948 984 
Q 3138 1247 3138 1747 
Q 3138 2247 2948 2509 
Q 2759 2772 2400 2772 
z
" transform="scale(0.015625)"/>
       <path id="DejaVuSans-Bold-61" d="M 2106 1575 
Q 1756 1575 1579 1456 
Q 1403 1338 1403 1106 
Q 1403 894 1545 773 
Q 1688 653 1941 653 
Q 2256 653 2472 879 
Q 2688 1106 2688 1447 
L 2688 1575 
L 2106 1575 
z
M 3816 1997 
L 3816 0 
L 2688 0 
L 2688 519 
Q 2463 200 2181 54 
Q 1900 -91 1497 -91 
Q 953 -91 614 226 
Q 275 544 275 1050 
Q 275 1666 698 1953 
Q 1122 2241 2028 2241 
L 2688 2241 
L 2688 2328 
Q 2688 2594 2478 2717 
Q 2269 2841 1825 2841 
Q 1466 2841 1156 2769 
Q 847 2697 581 2553 
L 581 3406 
Q 941 3494 1303 3539 
Q 1666 3584 2028 3584 
Q 2975 3584 3395 3211 
Q 3816 2838 3816 1997 
z
" transform="scale(0.015625)"/>
       <path id="DejaVuSans-Bold-67" d="M 2919 594 
Q 2688 288 2409 144 
Q 2131 0 1766 0 
Q 1125 0 706 504 
Q 288 1009 288 1791 
Q 288 2575 706 3076 
Q 1125 3578 1766 3578 
Q 2131 3578 2409 3434 
Q 2688 3291 2919 2981 
L 2919 3500 
L 4044 3500 
L 4044 353 
Q 4044 -491 3511 -936 
Q 2978 -1381 1966 -1381 
Q 1638 -1381 1331 -1331 
Q 1025 -1281 716 -1178 
L 716 -306 
Q 1009 -475 1290 -558 
Q 1572 -641 1856 -641 
Q 2406 -641 2662 -400 
Q 2919 -159 2919 353 
L 2919 594 
z
M 2181 2772 
Q 1834 2772 1640 2515 
Q 1447 2259 1447 1791 
Q 1447 1309 1634 1061 
Q 1822 813 2181 813 
Q 2531 813 2725 1069 
Q 2919 1325 2919 1791 
Q 2919 2259 2725 2515 
Q 2531 2772 2181 2772 
z
" transform="scale(0.015625)"/>
       <path id="DejaVuSans-Bold-6c" d="M 538 4863 
L 1656 4863 
L 1656 0 
L 538 0 
L 538 4863 
z
" transform="scale(0.015625)"/>
       <path id="DejaVuSans-Bold-66" d="M 2841 4863 
L 2841 4128 
L 2222 4128 
Q 1984 4128 1890 4042 
Q 1797 3956 1797 3744 
L 1797 3500 
L 2753 3500 
L 2753 2700 
L 1797 2700 
L 1797 0 
L 678 0 
L 678 2700 
L 122 2700 
L 122 3500 
L 678 3500 
L 678 3744 
Q 678 4316 997 4589 
Q 1316 4863 1984 4863 
L 2841 4863 
z
" transform="scale(0.015625)"/>
       <path id="DejaVuSans-Bold-6f" d="M 2203 2784 
Q 1831 2784 1636 2517 
Q 1441 2250 1441 1747 
Q 1441 1244 1636 976 
Q 1831 709 2203 709 
Q 2569 709 2762 976 
Q 2956 1244 2956 1747 
Q 2956 2250 2762 2517 
Q 2569 2784 2203 2784 
z
M 2203 3584 
Q 3106 3584 3614 3096 
Q 4122 2609 4122 1747 
Q 4122 884 3614 396 
Q 3106 -91 2203 -91 
Q 1297 -91 786 396 
Q 275 884 275 1747 
Q 275 2609 786 3096 
Q 1297 3584 2203 3584 
z
" transform="scale(0.015625)"/>
       <path id="DejaVuSans-Bold-7a" d="M 366 3500 
L 3419 3500 
L 3419 2719 
L 1575 800 
L 3419 800 
L 3419 0 
L 288 0 
L 288 781 
L 2131 2700 
L 366 2700 
L 366 3500 
z
" transform="scale(0.015625)"/>
       <path id="DejaVuSans-Bold-6e" d="M 4056 2131 
L 4056 0 
L 2931 0 
L 2931 347 
L 2931 1631 
Q 2931 2084 2911 2256 
Q 2891 2428 2841 2509 
Q 2775 2619 2662 2680 
Q 2550 2741 2406 2741 
Q 2056 2741 1856 2470 
Q 1656 2200 1656 1722 
L 1656 0 
L 538 0 
L 538 3500 
L 1656 3500 
L 1656 2988 
Q 1909 3294 2193 3439 
Q 2478 3584 2822 3584 
Q 3428 3584 3742 3212 
Q 4056 2841 4056 2131 
z
" transform="scale(0.015625)"/>
       <path id="DejaVuSans-Bold-50" d="M 588 4666 
L 2584 4666 
Q 3475 4666 3951 4270 
Q 4428 3875 4428 3144 
Q 4428 2409 3951 2014 
Q 3475 1619 2584 1619 
L 1791 1619 
L 1791 0 
L 588 0 
L 588 4666 
z
M 1791 3794 
L 1791 2491 
L 2456 2491 
Q 2806 2491 2997 2661 
Q 3188 2831 3188 3144 
Q 3188 3456 2997 3625 
Q 2806 3794 2456 3794 
L 1791 3794 
z
" transform="scale(0.015625)"/>
       <path id="DejaVuSans-Bold-73" d="M 3272 3391 
L 3272 2541 
Q 2913 2691 2578 2766 
Q 2244 2841 1947 2841 
Q 1628 2841 1473 2761 
Q 1319 2681 1319 2516 
Q 1319 2381 1436 2309 
Q 1553 2238 1856 2203 
L 2053 2175 
Q 2913 2066 3209 1816 
Q 3506 1566 3506 1031 
Q 3506 472 3093 190 
Q 2681 -91 1863 -91 
Q 1516 -91 1145 -36 
Q 775 19 384 128 
L 384 978 
Q 719 816 1070 734 
Q 1422 653 1784 653 
Q 2113 653 2278 743 
Q 2444 834 2444 1013 
Q 2444 1163 2330 1236 
Q 2216 1309 1875 1350 
L 1678 1375 
Q 931 1469 631 1722 
Q 331 1975 331 2491 
Q 331 3047 712 3315 
Q 1094 3584 1881 3584 
Q 2191 3584 2531 3537 
Q 2872 3491 3272 3391 
z
" transform="scale(0.015625)"/>
      </defs>
      <use xlink:href="#DejaVuSans-Bold-45"/>
      <use xlink:href="#DejaVuSans-Bold-6d" transform="translate(68.310547 0)"/>
      <use xlink:href="#DejaVuSans-Bold-70" transform="translate(172.509766 0)"/>
      <use xlink:href="#DejaVuSans-Bold-61" transform="translate(244.091797 0)"/>
      <use xlink:href="#DejaVuSans-Bold-67" transform="translate(311.572266 0)"/>
      <use xlink:href="#DejaVuSans-Bold-6c" transform="translate(383.154297 0)"/>
      <use xlink:href="#DejaVuSans-Bold-69" transform="translate(417.431641 0)"/>
      <use xlink:href="#DejaVuSans-Bold-66" transform="translate(451.708984 0)"/>
      <use xlink:href="#DejaVuSans-Bold-6c" transform="translate(495.214844 0)"/>
      <use xlink:href="#DejaVuSans-Bold-6f" transform="translate(529.492188 0)"/>
      <use xlink:href="#DejaVuSans-Bold-7a" transform="translate(598.193359 0)"/>
      <use xlink:href="#DejaVuSans-Bold-69" transform="translate(656.396484 0)"/>
      <use xlink:href="#DejaVuSans-Bold-6e" transform="translate(690.673828 0)"/>
      <use xlink:href="#DejaVuSans-Bold-20" transform="translate(761.865234 0)"/>
      <use xlink:href="#DejaVuSans-Bold-50" transform="translate(796.679688 0)"/>
      <use xlink:href="#DejaVuSans-Bold-6c" transform="translate(869.970703 0)"/>
      <use xlink:href="#DejaVuSans-Bold-61" transform="translate(904.248047 0)"/>
      <use xlink:href="#DejaVuSans-Bold-73" transform="translate(971.728516 0)"/>
      <use xlink:href="#DejaVuSans-Bold-6d" transform="translate(1031.25 0)"/>
      <use xlink:href="#DejaVuSans-Bold-61" transform="translate(1135.449219 0)"/>
     </g>
     <!--  [µM] -->
     <g transform="translate(41.173875 208.738125) rotate(-90) scale(0.18 -0.18)">
      <defs>
       <path id="DejaVuSans-Bold-b5" d="M 544 -1338 
L 544 3500 
L 1672 3500 
L 1672 1466 
Q 1672 1103 1828 926 
Q 1984 750 2303 750 
Q 2625 750 2781 926 
Q 2938 1103 2938 1466 
L 2938 3500 
L 4063 3500 
L 4063 1159 
Q 4063 938 4114 850 
Q 4166 763 4288 763 
Q 4344 763 4395 778 
Q 4447 794 4506 831 
L 4506 50 
Q 4341 -22 4195 -56 
Q 4050 -91 3909 -91 
Q 3631 -91 3454 26 
Q 3278 144 3169 403 
Q 3022 156 2811 32 
Q 2600 -91 2322 -91 
Q 2091 -91 1928 -17 
Q 1766 56 1672 206 
L 1672 -1338 
L 544 -1338 
z
" transform="scale(0.015625)"/>
       <path id="DejaVuSans-Bold-4d" d="M 588 4666 
L 2119 4666 
L 3181 2169 
L 4250 4666 
L 5778 4666 
L 5778 0 
L 4641 0 
L 4641 3413 
L 3566 897 
L 2803 897 
L 1728 3413 
L 1728 0 
L 588 0 
L 588 4666 
z
" transform="scale(0.015625)"/>
      </defs>
      <use xlink:href="#DejaVuSans-Bold-20"/>
      <use xlink:href="#DejaVuSans-Bold-5b" transform="translate(34.814453 0)"/>
      <use xlink:href="#DejaVuSans-Bold-b5" transform="translate(80.517578 0)"/>
      <use xlink:href="#DejaVuSans-Bold-4d" transform="translate(154.101562 0)"/>
      <use xlink:href="#DejaVuSans-Bold-5d" transform="translate(253.613281 0)"/>
     </g>
    </g>
   </g>
   <g id="LineCollection_1">
    <path clip-path="url(#p885d8db928)" style="fill: none; stroke: #1f77b4"/>
    <path clip-path="url(#p885d8db928)" style="fill: none; stroke: #1f77b4"/>
    <path clip-path="url(#p885d8db928)" style="fill: none; stroke: #1f77b4"/>
    <path clip-path="url(#p885d8db928)" style="fill: none; stroke: #1f77b4"/>
    <path clip-path="url(#p885d8db928)" style="fill: none; stroke: #1f77b4"/>
    <path clip-path="url(#p885d8db928)" style="fill: none; stroke: #1f77b4"/>
    <path clip-path="url(#p885d8db928)" style="fill: none; stroke: #1f77b4"/>
    <path clip-path="url(#p885d8db928)" style="fill: none; stroke: #1f77b4"/>
    <path clip-path="url(#p885d8db928)" style="fill: none; stroke: #1f77b4"/>
    <path clip-path="url(#p885d8db928)" style="fill: none; stroke: #1f77b4"/>
    <path clip-path="url(#p885d8db928)" style="fill: none; stroke: #1f77b4"/>
    <path clip-path="url(#p885d8db928)" style="fill: none; stroke: #1f77b4"/>
    <path clip-path="url(#p885d8db928)" style="fill: none; stroke: #1f77b4"/>
    <path clip-path="url(#p885d8db928)" style="fill: none; stroke: #1f77b4"/>
   </g>
   <g id="LineCollection_2">
    <path clip-path="url(#p885d8db928)" style="fill: none; stroke: #ff7f0e"/>
    <path clip-path="url(#p885d8db928)" style="fill: none; stroke: #ff7f0e"/>
    <path clip-path="url(#p885d8db928)" style="fill: none; stroke: #ff7f0e"/>
    <path clip-path="url(#p885d8db928)" style="fill: none; stroke: #ff7f0e"/>
    <path clip-path="url(#p885d8db928)" style="fill: none; stroke: #ff7f0e"/>
    <path clip-path="url(#p885d8db928)" style="fill: none; stroke: #ff7f0e"/>
    <path clip-path="url(#p885d8db928)" style="fill: none; stroke: #ff7f0e"/>
    <path clip-path="url(#p885d8db928)" style="fill: none; stroke: #ff7f0e"/>
    <path clip-path="url(#p885d8db928)" style="fill: none; stroke: #ff7f0e"/>
    <path clip-path="url(#p885d8db928)" style="fill: none; stroke: #ff7f0e"/>
    <path clip-path="url(#p885d8db928)" style="fill: none; stroke: #ff7f0e"/>
    <path clip-path="url(#p885d8db928)" style="fill: none; stroke: #ff7f0e"/>
    <path clip-path="url(#p885d8db928)" style="fill: none; stroke: #ff7f0e"/>
    <path clip-path="url(#p885d8db928)" style="fill: none; stroke: #ff7f0e"/>
   </g>
   <g id="line2d_15">
    <path d="M 79.338818 282.279239 
L 89.664244 284.649184 
L 100.533114 286.905514 
L 111.945427 289.037738 
L 123.901183 291.038106 
L 136.400383 292.901499 
L 136.400383 292.901499 
L 136.96647 291.459349 
L 137.532557 286.279366 
L 138.098644 278.15232 
L 139.230818 256.162696 
L 144.325601 144.548708 
L 145.457774 125.719287 
L 146.589948 109.928597 
L 147.722122 97.066921 
L 148.854296 86.919532 
L 149.98647 79.217611 
L 151.118644 73.671937 
L 151.684731 71.617228 
L 152.250818 69.994469 
L 152.816905 68.769996 
L 153.382992 67.911538 
L 153.949079 67.388343 
L 154.515166 67.171265 
L 155.081253 67.232802 
L 155.64734 67.547114 
L 156.213427 68.090006 
L 156.779514 68.838903 
L 157.911688 70.87221 
L 159.043861 73.496818 
L 160.742122 78.26772 
L 163.00647 85.662887 
L 166.402992 97.813501 
L 172.063861 118.142684 
L 175.460383 129.506655 
L 178.290818 138.316574 
L 181.121253 146.503288 
L 183.951688 154.083151 
L 186.782122 161.091039 
L 189.612557 167.570274 
L 192.442992 173.566725 
L 195.839514 180.188506 
L 199.236035 186.252786 
L 202.632557 191.825391 
L 206.029079 196.964602 
L 209.425601 201.721421 
L 212.822122 206.140193 
L 216.784731 210.919121 
L 220.74734 215.342149 
L 224.709948 219.453267 
L 229.238644 223.817108 
L 233.76734 227.868196 
L 238.862122 232.099323 
L 243.956905 236.027876 
L 249.051688 239.690491 
L 254.712557 243.484567 
L 260.373427 247.021158 
L 266.600383 250.64686 
L 272.82734 254.024508 
L 279.620383 257.455296 
L 286.413427 260.646869 
L 293.772557 263.860061 
L 301.697774 267.062569 
L 309.622992 270.022047 
L 318.114296 272.947522 
L 326.605601 275.641423 
L 335.662992 278.282159 
L 345.28647 280.848088 
L 354.909948 283.18922 
L 365.099514 285.445612 
L 375.855166 287.602511 
L 387.176905 289.647962 
L 399.064731 291.572794 
L 412.084731 293.447342 
L 419.443861 294.409348 
L 419.443861 294.409348 
" clip-path="url(#p885d8db928)" style="fill: none; stroke: #000000; stroke-width: 2; stroke-linecap: square"/>
   </g>
   <g id="line2d_16">
    <path d="M 142.061253 290.590244 
L 147.722122 189.790244 
L 153.382992 55.8 
L 159.043861 57.029268 
L 164.704731 76.697561 
L 170.365601 84.073171 
L 181.68734 109.887805 
L 204.330818 145.536585 
L 226.974296 200.853659 
L 249.617774 246.336585 
L 272.261253 261.087805 
L 294.904731 269.692683 
L 408.122122 290.590244 
" clip-path="url(#p885d8db928)" style="fill: none; stroke-dasharray: 3.7,1.6; stroke-dashoffset: 0; stroke: #1f77b4"/>
    <defs>
     <path id="mb80a809c2e" d="M -3 3 
L 3 3 
L 3 -3 
L -3 -3 
z
" style="stroke: #000000; stroke-linejoin: miter"/>
    </defs>
    <g clip-path="url(#p885d8db928)">
     <use xlink:href="#mb80a809c2e" x="142.061253" y="290.590244" style="fill: #1f77b4; stroke: #000000; stroke-linejoin: miter"/>
     <use xlink:href="#mb80a809c2e" x="147.722122" y="189.790244" style="fill: #1f77b4; stroke: #000000; stroke-linejoin: miter"/>
     <use xlink:href="#mb80a809c2e" x="153.382992" y="55.8" style="fill: #1f77b4; stroke: #000000; stroke-linejoin: miter"/>
     <use xlink:href="#mb80a809c2e" x="159.043861" y="57.029268" style="fill: #1f77b4; stroke: #000000; stroke-linejoin: miter"/>
     <use xlink:href="#mb80a809c2e" x="164.704731" y="76.697561" style="fill: #1f77b4; stroke: #000000; stroke-linejoin: miter"/>
     <use xlink:href="#mb80a809c2e" x="170.365601" y="84.073171" style="fill: #1f77b4; stroke: #000000; stroke-linejoin: miter"/>
     <use xlink:href="#mb80a809c2e" x="181.68734" y="109.887805" style="fill: #1f77b4; stroke: #000000; stroke-linejoin: miter"/>
     <use xlink:href="#mb80a809c2e" x="204.330818" y="145.536585" style="fill: #1f77b4; stroke: #000000; stroke-linejoin: miter"/>
     <use xlink:href="#mb80a809c2e" x="226.974296" y="200.853659" style="fill: #1f77b4; stroke: #000000; stroke-linejoin: miter"/>
     <use xlink:href="#mb80a809c2e" x="249.617774" y="246.336585" style="fill: #1f77b4; stroke: #000000; stroke-linejoin: miter"/>
     <use xlink:href="#mb80a809c2e" x="272.261253" y="261.087805" style="fill: #1f77b4; stroke: #000000; stroke-linejoin: miter"/>
     <use xlink:href="#mb80a809c2e" x="294.904731" y="269.692683" style="fill: #1f77b4; stroke: #000000; stroke-linejoin: miter"/>
     <use xlink:href="#mb80a809c2e" x="408.122122" y="290.590244" style="fill: #1f77b4; stroke: #000000; stroke-linejoin: miter"/>
    </g>
   </g>
   <g id="line2d_17">
    <path d="M 136.400383 288.307317 
L 142.061253 198.395122 
L 147.722122 100.053659 
L 153.382992 82.843902 
L 159.043861 92.678049 
L 164.704731 100.053659 
L 170.365601 107.429268 
L 181.68734 136.931707 
L 204.330818 191.019512 
L 226.974296 221.75122 
L 249.617774 240.190244 
L 272.261253 256.170732 
L 294.904731 267.234146 
L 408.122122 289.360976 
" clip-path="url(#p885d8db928)" style="fill: none; stroke-dasharray: 3.7,1.6; stroke-dashoffset: 0; stroke: #ff7f0e"/>
    <defs>
     <path id="mca265ad50d" d="M -3 3 
L 3 3 
L 3 -3 
L -3 -3 
z
" style="stroke: #000000; stroke-linejoin: miter"/>
    </defs>
    <g clip-path="url(#p885d8db928)">
     <use xlink:href="#mca265ad50d" x="136.400383" y="288.307317" style="fill: #ff7f0e; stroke: #000000; stroke-linejoin: miter"/>
     <use xlink:href="#mca265ad50d" x="142.061253" y="198.395122" style="fill: #ff7f0e; stroke: #000000; stroke-linejoin: miter"/>
     <use xlink:href="#mca265ad50d" x="147.722122" y="100.053659" style="fill: #ff7f0e; stroke: #000000; stroke-linejoin: miter"/>
     <use xlink:href="#mca265ad50d" x="153.382992" y="82.843902" style="fill: #ff7f0e; stroke: #000000; stroke-linejoin: miter"/>
     <use xlink:href="#mca265ad50d" x="159.043861" y="92.678049" style="fill: #ff7f0e; stroke: #000000; stroke-linejoin: miter"/>
     <use xlink:href="#mca265ad50d" x="164.704731" y="100.053659" style="fill: #ff7f0e; stroke: #000000; stroke-linejoin: miter"/>
     <use xlink:href="#mca265ad50d" x="170.365601" y="107.429268" style="fill: #ff7f0e; stroke: #000000; stroke-linejoin: miter"/>
     <use xlink:href="#mca265ad50d" x="181.68734" y="136.931707" style="fill: #ff7f0e; stroke: #000000; stroke-linejoin: miter"/>
     <use xlink:href="#mca265ad50d" x="204.330818" y="191.019512" style="fill: #ff7f0e; stroke: #000000; stroke-linejoin: miter"/>
     <use xlink:href="#mca265ad50d" x="226.974296" y="221.75122" style="fill: #ff7f0e; stroke: #000000; stroke-linejoin: miter"/>
     <use xlink:href="#mca265ad50d" x="249.617774" y="240.190244" style="fill: #ff7f0e; stroke: #000000; stroke-linejoin: miter"/>
     <use xlink:href="#mca265ad50d" x="272.261253" y="256.170732" style="fill: #ff7f0e; stroke: #000000; stroke-linejoin: miter"/>
     <use xlink:href="#mca265ad50d" x="294.904731" y="267.234146" style="fill: #ff7f0e; stroke: #000000; stroke-linejoin: miter"/>
     <use xlink:href="#mca265ad50d" x="408.122122" y="289.360976" style="fill: #ff7f0e; stroke: #000000; stroke-linejoin: miter"/>
    </g>
   </g>
   <g id="patch_3">
    <path d="M 79.791687 320.4 
L 79.791687 43.2 
" style="fill: none; stroke: #000000; stroke-width: 0.8; stroke-linejoin: miter; stroke-linecap: square"/>
   </g>
   <g id="patch_4">
    <path d="M 419.443861 320.4 
L 419.443861 43.2 
" style="fill: none; stroke: #000000; stroke-width: 0.8; stroke-linejoin: miter; stroke-linecap: square"/>
   </g>
   <g id="patch_5">
    <path d="M 79.791687 320.4 
L 419.443861 320.4 
" style="fill: none; stroke: #000000; stroke-width: 0.8; stroke-linejoin: miter; stroke-linecap: square"/>
   </g>
   <g id="patch_6">
    <path d="M 79.791687 43.2 
L 419.443861 43.2 
" style="fill: none; stroke: #000000; stroke-width: 0.8; stroke-linejoin: miter; stroke-linecap: square"/>
   </g>
   <g id="legend_1">
    <g id="patch_7">
     <path d="M 255.217768 90.030937 
L 413.143861 90.030937 
Q 414.943861 90.030937 414.943861 88.230937 
L 414.943861 49.5 
Q 414.943861 47.7 413.143861 47.7 
L 255.217768 47.7 
Q 253.417768 47.7 253.417768 49.5 
L 253.417768 88.230937 
Q 253.417768 90.030937 255.217768 90.030937 
z
" style="fill: #ffffff; opacity: 0.8; stroke: #cccccc; stroke-linejoin: miter"/>
    </g>
    <g id="line2d_18">
     <path d="M 257.017768 54.988594 
L 275.017768 54.988594 
" style="fill: none; stroke: #000000; stroke-width: 2; stroke-linecap: square"/>
    </g>
    <g id="line2d_19"/>
    <g id="text_17">
     <!-- 50 mg Emp -->
     <g transform="translate(282.217768 58.138594) scale(0.09 -0.09)">
      <defs>
       <path id="DejaVuSans-20" transform="scale(0.015625)"/>
       <path id="DejaVuSans-6d" d="M 3328 2828 
Q 3544 3216 3844 3400 
Q 4144 3584 4550 3584 
Q 5097 3584 5394 3201 
Q 5691 2819 5691 2113 
L 5691 0 
L 5113 0 
L 5113 2094 
Q 5113 2597 4934 2840 
Q 4756 3084 4391 3084 
Q 3944 3084 3684 2787 
Q 3425 2491 3425 1978 
L 3425 0 
L 2847 0 
L 2847 2094 
Q 2847 2600 2669 2842 
Q 2491 3084 2119 3084 
Q 1678 3084 1418 2786 
Q 1159 2488 1159 1978 
L 1159 0 
L 581 0 
L 581 3500 
L 1159 3500 
L 1159 2956 
Q 1356 3278 1631 3431 
Q 1906 3584 2284 3584 
Q 2666 3584 2933 3390 
Q 3200 3197 3328 2828 
z
" transform="scale(0.015625)"/>
       <path id="DejaVuSans-67" d="M 2906 1791 
Q 2906 2416 2648 2759 
Q 2391 3103 1925 3103 
Q 1463 3103 1205 2759 
Q 947 2416 947 1791 
Q 947 1169 1205 825 
Q 1463 481 1925 481 
Q 2391 481 2648 825 
Q 2906 1169 2906 1791 
z
M 3481 434 
Q 3481 -459 3084 -895 
Q 2688 -1331 1869 -1331 
Q 1566 -1331 1297 -1286 
Q 1028 -1241 775 -1147 
L 775 -588 
Q 1028 -725 1275 -790 
Q 1522 -856 1778 -856 
Q 2344 -856 2625 -561 
Q 2906 -266 2906 331 
L 2906 616 
Q 2728 306 2450 153 
Q 2172 0 1784 0 
Q 1141 0 747 490 
Q 353 981 353 1791 
Q 353 2603 747 3093 
Q 1141 3584 1784 3584 
Q 2172 3584 2450 3431 
Q 2728 3278 2906 2969 
L 2906 3500 
L 3481 3500 
L 3481 434 
z
" transform="scale(0.015625)"/>
       <path id="DejaVuSans-45" d="M 628 4666 
L 3578 4666 
L 3578 4134 
L 1259 4134 
L 1259 2753 
L 3481 2753 
L 3481 2222 
L 1259 2222 
L 1259 531 
L 3634 531 
L 3634 0 
L 628 0 
L 628 4666 
z
" transform="scale(0.015625)"/>
       <path id="DejaVuSans-70" d="M 1159 525 
L 1159 -1331 
L 581 -1331 
L 581 3500 
L 1159 3500 
L 1159 2969 
Q 1341 3281 1617 3432 
Q 1894 3584 2278 3584 
Q 2916 3584 3314 3078 
Q 3713 2572 3713 1747 
Q 3713 922 3314 415 
Q 2916 -91 2278 -91 
Q 1894 -91 1617 61 
Q 1341 213 1159 525 
z
M 3116 1747 
Q 3116 2381 2855 2742 
Q 2594 3103 2138 3103 
Q 1681 3103 1420 2742 
Q 1159 2381 1159 1747 
Q 1159 1113 1420 752 
Q 1681 391 2138 391 
Q 2594 391 2855 752 
Q 3116 1113 3116 1747 
z
" transform="scale(0.015625)"/>
      </defs>
      <use xlink:href="#DejaVuSans-35"/>
      <use xlink:href="#DejaVuSans-30" transform="translate(63.623047 0)"/>
      <use xlink:href="#DejaVuSans-20" transform="translate(127.246094 0)"/>
      <use xlink:href="#DejaVuSans-6d" transform="translate(159.033203 0)"/>
      <use xlink:href="#DejaVuSans-67" transform="translate(256.445312 0)"/>
      <use xlink:href="#DejaVuSans-20" transform="translate(319.921875 0)"/>
      <use xlink:href="#DejaVuSans-45" transform="translate(351.708984 0)"/>
      <use xlink:href="#DejaVuSans-6d" transform="translate(414.892578 0)"/>
      <use xlink:href="#DejaVuSans-70" transform="translate(512.304688 0)"/>
     </g>
    </g>
    <g id="LineCollection_3">
     <path d="M 266.017768 72.698906 
L 266.017768 63.698906 
" style="fill: none; stroke: #1f77b4"/>
    </g>
    <g id="line2d_20">
     <path d="M 257.017768 68.198906 
L 275.017768 68.198906 
" style="fill: none; stroke-dasharray: 3.7,1.6; stroke-dashoffset: 0; stroke: #1f77b4"/>
    </g>
    <g id="line2d_21">
     <g>
      <use xlink:href="#mb80a809c2e" x="266.017768" y="68.198906" style="fill: #1f77b4; stroke: #000000; stroke-linejoin: miter"/>
     </g>
    </g>
    <g id="text_18">
     <!-- 50 mg Emp (D5)±SD (n=16) -->
     <g transform="translate(282.217768 71.348906) scale(0.09 -0.09)">
      <defs>
       <path id="DejaVuSans-28" d="M 1984 4856 
Q 1566 4138 1362 3434 
Q 1159 2731 1159 2009 
Q 1159 1288 1364 580 
Q 1569 -128 1984 -844 
L 1484 -844 
Q 1016 -109 783 600 
Q 550 1309 550 2009 
Q 550 2706 781 3412 
Q 1013 4119 1484 4856 
L 1984 4856 
z
" transform="scale(0.015625)"/>
       <path id="DejaVuSans-44" d="M 1259 4147 
L 1259 519 
L 2022 519 
Q 2988 519 3436 956 
Q 3884 1394 3884 2338 
Q 3884 3275 3436 3711 
Q 2988 4147 2022 4147 
L 1259 4147 
z
M 628 4666 
L 1925 4666 
Q 3281 4666 3915 4102 
Q 4550 3538 4550 2338 
Q 4550 1131 3912 565 
Q 3275 0 1925 0 
L 628 0 
L 628 4666 
z
" transform="scale(0.015625)"/>
       <path id="DejaVuSans-29" d="M 513 4856 
L 1013 4856 
Q 1481 4119 1714 3412 
Q 1947 2706 1947 2009 
Q 1947 1309 1714 600 
Q 1481 -109 1013 -844 
L 513 -844 
Q 928 -128 1133 580 
Q 1338 1288 1338 2009 
Q 1338 2731 1133 3434 
Q 928 4138 513 4856 
z
" transform="scale(0.015625)"/>
       <path id="DejaVuSans-b1" d="M 2944 4013 
L 2944 2803 
L 4684 2803 
L 4684 2272 
L 2944 2272 
L 2944 1063 
L 2419 1063 
L 2419 2272 
L 678 2272 
L 678 2803 
L 2419 2803 
L 2419 4013 
L 2944 4013 
z
M 678 531 
L 4684 531 
L 4684 0 
L 678 0 
L 678 531 
z
" transform="scale(0.015625)"/>
       <path id="DejaVuSans-53" d="M 3425 4513 
L 3425 3897 
Q 3066 4069 2747 4153 
Q 2428 4238 2131 4238 
Q 1616 4238 1336 4038 
Q 1056 3838 1056 3469 
Q 1056 3159 1242 3001 
Q 1428 2844 1947 2747 
L 2328 2669 
Q 3034 2534 3370 2195 
Q 3706 1856 3706 1288 
Q 3706 609 3251 259 
Q 2797 -91 1919 -91 
Q 1588 -91 1214 -16 
Q 841 59 441 206 
L 441 856 
Q 825 641 1194 531 
Q 1563 422 1919 422 
Q 2459 422 2753 634 
Q 3047 847 3047 1241 
Q 3047 1584 2836 1778 
Q 2625 1972 2144 2069 
L 1759 2144 
Q 1053 2284 737 2584 
Q 422 2884 422 3419 
Q 422 4038 858 4394 
Q 1294 4750 2059 4750 
Q 2388 4750 2728 4690 
Q 3069 4631 3425 4513 
z
" transform="scale(0.015625)"/>
       <path id="DejaVuSans-6e" d="M 3513 2113 
L 3513 0 
L 2938 0 
L 2938 2094 
Q 2938 2591 2744 2837 
Q 2550 3084 2163 3084 
Q 1697 3084 1428 2787 
Q 1159 2491 1159 1978 
L 1159 0 
L 581 0 
L 581 3500 
L 1159 3500 
L 1159 2956 
Q 1366 3272 1645 3428 
Q 1925 3584 2291 3584 
Q 2894 3584 3203 3211 
Q 3513 2838 3513 2113 
z
" transform="scale(0.015625)"/>
       <path id="DejaVuSans-3d" d="M 678 2906 
L 4684 2906 
L 4684 2381 
L 678 2381 
L 678 2906 
z
M 678 1631 
L 4684 1631 
L 4684 1100 
L 678 1100 
L 678 1631 
z
" transform="scale(0.015625)"/>
      </defs>
      <use xlink:href="#DejaVuSans-35"/>
      <use xlink:href="#DejaVuSans-30" transform="translate(63.623047 0)"/>
      <use xlink:href="#DejaVuSans-20" transform="translate(127.246094 0)"/>
      <use xlink:href="#DejaVuSans-6d" transform="translate(159.033203 0)"/>
      <use xlink:href="#DejaVuSans-67" transform="translate(256.445312 0)"/>
      <use xlink:href="#DejaVuSans-20" transform="translate(319.921875 0)"/>
      <use xlink:href="#DejaVuSans-45" transform="translate(351.708984 0)"/>
      <use xlink:href="#DejaVuSans-6d" transform="translate(414.892578 0)"/>
      <use xlink:href="#DejaVuSans-70" transform="translate(512.304688 0)"/>
      <use xlink:href="#DejaVuSans-20" transform="translate(575.78125 0)"/>
      <use xlink:href="#DejaVuSans-28" transform="translate(607.568359 0)"/>
      <use xlink:href="#DejaVuSans-44" transform="translate(646.582031 0)"/>
      <use xlink:href="#DejaVuSans-35" transform="translate(723.583984 0)"/>
      <use xlink:href="#DejaVuSans-29" transform="translate(787.207031 0)"/>
      <use xlink:href="#DejaVuSans-b1" transform="translate(826.220703 0)"/>
      <use xlink:href="#DejaVuSans-53" transform="translate(910.009766 0)"/>
      <use xlink:href="#DejaVuSans-44" transform="translate(973.486328 0)"/>
      <use xlink:href="#DejaVuSans-20" transform="translate(1050.488281 0)"/>
      <use xlink:href="#DejaVuSans-28" transform="translate(1082.275391 0)"/>
      <use xlink:href="#DejaVuSans-6e" transform="translate(1121.289062 0)"/>
      <use xlink:href="#DejaVuSans-3d" transform="translate(1184.667969 0)"/>
      <use xlink:href="#DejaVuSans-31" transform="translate(1268.457031 0)"/>
      <use xlink:href="#DejaVuSans-36" transform="translate(1332.080078 0)"/>
      <use xlink:href="#DejaVuSans-29" transform="translate(1395.703125 0)"/>
     </g>
    </g>
    <g id="LineCollection_4">
     <path d="M 266.017768 85.909219 
L 266.017768 76.909219 
" style="fill: none; stroke: #ff7f0e"/>
    </g>
    <g id="line2d_22">
     <path d="M 257.017768 81.409219 
L 275.017768 81.409219 
" style="fill: none; stroke-dasharray: 3.7,1.6; stroke-dashoffset: 0; stroke: #ff7f0e"/>
    </g>
    <g id="line2d_23">
     <g>
      <use xlink:href="#mca265ad50d" x="266.017768" y="81.409219" style="fill: #ff7f0e; stroke: #000000; stroke-linejoin: miter"/>
     </g>
    </g>
    <g id="text_19">
     <!-- 50 mg Emp (D7)±SD (n=16) -->
     <g transform="translate(282.217768 84.559219) scale(0.09 -0.09)">
      <defs>
       <path id="DejaVuSans-37" d="M 525 4666 
L 3525 4666 
L 3525 4397 
L 1831 0 
L 1172 0 
L 2766 4134 
L 525 4134 
L 525 4666 
z
" transform="scale(0.015625)"/>
      </defs>
      <use xlink:href="#DejaVuSans-35"/>
      <use xlink:href="#DejaVuSans-30" transform="translate(63.623047 0)"/>
      <use xlink:href="#DejaVuSans-20" transform="translate(127.246094 0)"/>
      <use xlink:href="#DejaVuSans-6d" transform="translate(159.033203 0)"/>
      <use xlink:href="#DejaVuSans-67" transform="translate(256.445312 0)"/>
      <use xlink:href="#DejaVuSans-20" transform="translate(319.921875 0)"/>
      <use xlink:href="#DejaVuSans-45" transform="translate(351.708984 0)"/>
      <use xlink:href="#DejaVuSans-6d" transform="translate(414.892578 0)"/>
      <use xlink:href="#DejaVuSans-70" transform="translate(512.304688 0)"/>
      <use xlink:href="#DejaVuSans-20" transform="translate(575.78125 0)"/>
      <use xlink:href="#DejaVuSans-28" transform="translate(607.568359 0)"/>
      <use xlink:href="#DejaVuSans-44" transform="translate(646.582031 0)"/>
      <use xlink:href="#DejaVuSans-37" transform="translate(723.583984 0)"/>
      <use xlink:href="#DejaVuSans-29" transform="translate(787.207031 0)"/>
      <use xlink:href="#DejaVuSans-b1" transform="translate(826.220703 0)"/>
      <use xlink:href="#DejaVuSans-53" transform="translate(910.009766 0)"/>
      <use xlink:href="#DejaVuSans-44" transform="translate(973.486328 0)"/>
      <use xlink:href="#DejaVuSans-20" transform="translate(1050.488281 0)"/>
      <use xlink:href="#DejaVuSans-28" transform="translate(1082.275391 0)"/>
      <use xlink:href="#DejaVuSans-6e" transform="translate(1121.289062 0)"/>
      <use xlink:href="#DejaVuSans-3d" transform="translate(1184.667969 0)"/>
      <use xlink:href="#DejaVuSans-31" transform="translate(1268.457031 0)"/>
      <use xlink:href="#DejaVuSans-36" transform="translate(1332.080078 0)"/>
      <use xlink:href="#DejaVuSans-29" transform="translate(1395.703125 0)"/>
     </g>
    </g>
   </g>
  </g>
  <g id="axes_2">
   <g id="patch_8">
    <path d="M 521.339514 320.4 
L 860.991688 320.4 
L 860.991688 43.2 
L 521.339514 43.2 
z
" style="fill: #ffffff"/>
   </g>
   <g id="matplotlib.axis_3">
    <g id="xtick_8">
     <g id="line2d_24">
      <g>
       <use xlink:href="#m6d8043b2c4" x="521.339514" y="320.4" style="stroke: #000000; stroke-width: 0.8"/>
      </g>
     </g>
     <g id="text_20">
      <!-- −5 -->
      <g transform="translate(510.282873 338.797656) scale(0.15 -0.15)">
       <use xlink:href="#DejaVuSans-2212"/>
       <use xlink:href="#DejaVuSans-35" transform="translate(83.789062 0)"/>
      </g>
     </g>
    </g>
    <g id="xtick_9">
     <g id="line2d_25">
      <g>
       <use xlink:href="#m6d8043b2c4" x="577.948209" y="320.4" style="stroke: #000000; stroke-width: 0.8"/>
      </g>
     </g>
     <g id="text_21">
      <!-- 0 -->
      <g transform="translate(573.176334 338.797656) scale(0.15 -0.15)">
       <use xlink:href="#DejaVuSans-30"/>
      </g>
     </g>
    </g>
    <g id="xtick_10">
     <g id="line2d_26">
      <g>
       <use xlink:href="#m6d8043b2c4" x="634.556905" y="320.4" style="stroke: #000000; stroke-width: 0.8"/>
      </g>
     </g>
     <g id="text_22">
      <!-- 5 -->
      <g transform="translate(629.78503 338.797656) scale(0.15 -0.15)">
       <use xlink:href="#DejaVuSans-35"/>
      </g>
     </g>
    </g>
    <g id="xtick_11">
     <g id="line2d_27">
      <g>
       <use xlink:href="#m6d8043b2c4" x="691.165601" y="320.4" style="stroke: #000000; stroke-width: 0.8"/>
      </g>
     </g>
     <g id="text_23">
      <!-- 10 -->
      <g transform="translate(681.621851 338.797656) scale(0.15 -0.15)">
       <use xlink:href="#DejaVuSans-31"/>
       <use xlink:href="#DejaVuSans-30" transform="translate(63.623047 0)"/>
      </g>
     </g>
    </g>
    <g id="xtick_12">
     <g id="line2d_28">
      <g>
       <use xlink:href="#m6d8043b2c4" x="747.774296" y="320.4" style="stroke: #000000; stroke-width: 0.8"/>
      </g>
     </g>
     <g id="text_24">
      <!-- 15 -->
      <g transform="translate(738.230546 338.797656) scale(0.15 -0.15)">
       <use xlink:href="#DejaVuSans-31"/>
       <use xlink:href="#DejaVuSans-35" transform="translate(63.623047 0)"/>
      </g>
     </g>
    </g>
    <g id="xtick_13">
     <g id="line2d_29">
      <g>
       <use xlink:href="#m6d8043b2c4" x="804.382992" y="320.4" style="stroke: #000000; stroke-width: 0.8"/>
      </g>
     </g>
     <g id="text_25">
      <!-- 20 -->
      <g transform="translate(794.839242 338.797656) scale(0.15 -0.15)">
       <use xlink:href="#DejaVuSans-32"/>
       <use xlink:href="#DejaVuSans-30" transform="translate(63.623047 0)"/>
      </g>
     </g>
    </g>
    <g id="xtick_14">
     <g id="line2d_30">
      <g>
       <use xlink:href="#m6d8043b2c4" x="860.991688" y="320.4" style="stroke: #000000; stroke-width: 0.8"/>
      </g>
     </g>
     <g id="text_26">
      <!-- 25 -->
      <g transform="translate(851.447938 338.797656) scale(0.15 -0.15)">
       <use xlink:href="#DejaVuSans-32"/>
       <use xlink:href="#DejaVuSans-35" transform="translate(63.623047 0)"/>
      </g>
     </g>
    </g>
    <g id="text_27">
     <!-- Time [hr] -->
     <g transform="translate(644.253101 359.594375) scale(0.18 -0.18)">
      <use xlink:href="#DejaVuSans-Bold-54"/>
      <use xlink:href="#DejaVuSans-Bold-69" transform="translate(68.212891 0)"/>
      <use xlink:href="#DejaVuSans-Bold-6d" transform="translate(102.490234 0)"/>
      <use xlink:href="#DejaVuSans-Bold-65" transform="translate(206.689453 0)"/>
      <use xlink:href="#DejaVuSans-Bold-20" transform="translate(274.511719 0)"/>
      <use xlink:href="#DejaVuSans-Bold-5b" transform="translate(309.326172 0)"/>
      <use xlink:href="#DejaVuSans-Bold-68" transform="translate(355.029297 0)"/>
      <use xlink:href="#DejaVuSans-Bold-72" transform="translate(426.220703 0)"/>
      <use xlink:href="#DejaVuSans-Bold-5d" transform="translate(475.537109 0)"/>
     </g>
    </g>
   </g>
   <g id="matplotlib.axis_4">
    <g id="ytick_8">
     <g id="line2d_31">
      <g>
       <use xlink:href="#m5b6ee9283d" x="521.339514" y="307.8" style="stroke: #000000; stroke-width: 0.8"/>
      </g>
     </g>
     <g id="text_28">
      <!-- 0 -->
      <g transform="translate(504.795764 313.498828) scale(0.15 -0.15)">
       <use xlink:href="#DejaVuSans-30"/>
      </g>
     </g>
    </g>
    <g id="ytick_9">
     <g id="line2d_32">
      <g>
       <use xlink:href="#m5b6ee9283d" x="521.339514" y="253.449377" style="stroke: #000000; stroke-width: 0.8"/>
      </g>
     </g>
     <g id="text_29">
      <!-- 5 -->
      <g transform="translate(504.795764 259.148205) scale(0.15 -0.15)">
       <use xlink:href="#DejaVuSans-35"/>
      </g>
     </g>
    </g>
    <g id="ytick_10">
     <g id="line2d_33">
      <g>
       <use xlink:href="#m5b6ee9283d" x="521.339514" y="199.098754" style="stroke: #000000; stroke-width: 0.8"/>
      </g>
     </g>
     <g id="text_30">
      <!-- 10 -->
      <g transform="translate(495.252014 204.797582) scale(0.15 -0.15)">
       <use xlink:href="#DejaVuSans-31"/>
       <use xlink:href="#DejaVuSans-30" transform="translate(63.623047 0)"/>
      </g>
     </g>
    </g>
    <g id="ytick_11">
     <g id="line2d_34">
      <g>
       <use xlink:href="#m5b6ee9283d" x="521.339514" y="144.748131" style="stroke: #000000; stroke-width: 0.8"/>
      </g>
     </g>
     <g id="text_31">
      <!-- 15 -->
      <g transform="translate(495.252014 150.446959) scale(0.15 -0.15)">
       <use xlink:href="#DejaVuSans-31"/>
       <use xlink:href="#DejaVuSans-35" transform="translate(63.623047 0)"/>
      </g>
     </g>
    </g>
    <g id="ytick_12">
     <g id="line2d_35">
      <g>
       <use xlink:href="#m5b6ee9283d" x="521.339514" y="90.397508" style="stroke: #000000; stroke-width: 0.8"/>
      </g>
     </g>
     <g id="text_32">
      <!-- 20 -->
      <g transform="translate(495.252014 96.096336) scale(0.15 -0.15)">
       <use xlink:href="#DejaVuSans-32"/>
       <use xlink:href="#DejaVuSans-30" transform="translate(63.623047 0)"/>
      </g>
     </g>
    </g>
    <g id="text_33">
     <!-- Empagliflozin Urine -->
     <g transform="translate(467.192201 280.845) rotate(-90) scale(0.18 -0.18)">
      <defs>
       <path id="DejaVuSans-Bold-55" d="M 588 4666 
L 1791 4666 
L 1791 1869 
Q 1791 1291 1980 1042 
Q 2169 794 2597 794 
Q 3028 794 3217 1042 
Q 3406 1291 3406 1869 
L 3406 4666 
L 4609 4666 
L 4609 1869 
Q 4609 878 4112 393 
Q 3616 -91 2597 -91 
Q 1581 -91 1084 393 
Q 588 878 588 1869 
L 588 4666 
z
" transform="scale(0.015625)"/>
      </defs>
      <use xlink:href="#DejaVuSans-Bold-45"/>
      <use xlink:href="#DejaVuSans-Bold-6d" transform="translate(68.310547 0)"/>
      <use xlink:href="#DejaVuSans-Bold-70" transform="translate(172.509766 0)"/>
      <use xlink:href="#DejaVuSans-Bold-61" transform="translate(244.091797 0)"/>
      <use xlink:href="#DejaVuSans-Bold-67" transform="translate(311.572266 0)"/>
      <use xlink:href="#DejaVuSans-Bold-6c" transform="translate(383.154297 0)"/>
      <use xlink:href="#DejaVuSans-Bold-69" transform="translate(417.431641 0)"/>
      <use xlink:href="#DejaVuSans-Bold-66" transform="translate(451.708984 0)"/>
      <use xlink:href="#DejaVuSans-Bold-6c" transform="translate(495.214844 0)"/>
      <use xlink:href="#DejaVuSans-Bold-6f" transform="translate(529.492188 0)"/>
      <use xlink:href="#DejaVuSans-Bold-7a" transform="translate(598.193359 0)"/>
      <use xlink:href="#DejaVuSans-Bold-69" transform="translate(656.396484 0)"/>
      <use xlink:href="#DejaVuSans-Bold-6e" transform="translate(690.673828 0)"/>
      <use xlink:href="#DejaVuSans-Bold-20" transform="translate(761.865234 0)"/>
      <use xlink:href="#DejaVuSans-Bold-55" transform="translate(796.679688 0)"/>
      <use xlink:href="#DejaVuSans-Bold-72" transform="translate(877.880859 0)"/>
      <use xlink:href="#DejaVuSans-Bold-69" transform="translate(927.197266 0)"/>
      <use xlink:href="#DejaVuSans-Bold-6e" transform="translate(961.474609 0)"/>
      <use xlink:href="#DejaVuSans-Bold-65" transform="translate(1032.666016 0)"/>
     </g>
     <!--  [µmole] -->
     <g transform="translate(487.488889 224.533125) rotate(-90) scale(0.18 -0.18)">
      <use xlink:href="#DejaVuSans-Bold-20"/>
      <use xlink:href="#DejaVuSans-Bold-5b" transform="translate(34.814453 0)"/>
      <use xlink:href="#DejaVuSans-Bold-b5" transform="translate(80.517578 0)"/>
      <use xlink:href="#DejaVuSans-Bold-6d" transform="translate(154.101562 0)"/>
      <use xlink:href="#DejaVuSans-Bold-6f" transform="translate(258.300781 0)"/>
      <use xlink:href="#DejaVuSans-Bold-6c" transform="translate(327.001953 0)"/>
      <use xlink:href="#DejaVuSans-Bold-65" transform="translate(361.279297 0)"/>
      <use xlink:href="#DejaVuSans-Bold-5d" transform="translate(429.101562 0)"/>
     </g>
    </g>
   </g>
   <g id="LineCollection_5">
    <path clip-path="url(#p434dfe5052)" style="fill: none; stroke: #1f77b4"/>
    <path clip-path="url(#p434dfe5052)" style="fill: none; stroke: #1f77b4"/>
    <path clip-path="url(#p434dfe5052)" style="fill: none; stroke: #1f77b4"/>
    <path clip-path="url(#p434dfe5052)" style="fill: none; stroke: #1f77b4"/>
    <path clip-path="url(#p434dfe5052)" style="fill: none; stroke: #1f77b4"/>
   </g>
   <g id="LineCollection_6">
    <path clip-path="url(#p434dfe5052)" style="fill: none; stroke: #ff7f0e"/>
    <path clip-path="url(#p434dfe5052)" style="fill: none; stroke: #ff7f0e"/>
    <path clip-path="url(#p434dfe5052)" style="fill: none; stroke: #ff7f0e"/>
    <path clip-path="url(#p434dfe5052)" style="fill: none; stroke: #ff7f0e"/>
    <path clip-path="url(#p434dfe5052)" style="fill: none; stroke: #ff7f0e"/>
   </g>
   <g id="line2d_36">
    <path d="M 520.886644 72.711146 
L 530.125183 70.021423 
L 539.907166 67.417849 
L 549.689148 65.043784 
L 560.014574 62.764431 
L 570.883444 60.593187 
L 577.948209 59.29662 
L 577.948209 307.8 
L 579.64647 307.407869 
L 580.778644 306.879082 
L 581.910818 306.025959 
L 583.042992 304.817075 
L 584.175166 303.255105 
L 585.30734 301.363284 
L 587.005601 297.984217 
L 588.703861 294.076121 
L 590.968209 288.27256 
L 594.364731 278.840488 
L 602.856035 254.888157 
L 606.818644 244.448594 
L 610.781253 234.678455 
L 614.743861 225.580101 
L 618.70647 217.114568 
L 622.669079 209.227481 
L 626.631687 201.861826 
L 630.594296 194.963728 
L 634.556905 188.484678 
L 639.085601 181.538729 
L 643.614296 175.029844 
L 648.142992 168.911686 
L 652.671687 163.145071 
L 657.76647 157.036676 
L 662.861253 151.291399 
L 667.956035 145.875701 
L 673.050818 140.761162 
L 678.711688 135.402115 
L 684.372557 130.356392 
L 690.033427 125.599468 
L 696.260383 120.67507 
L 702.48734 116.049636 
L 708.714296 111.701436 
L 714.941253 107.611182 
L 721.734296 103.422997 
L 728.52734 99.501012 
L 735.320383 95.826933 
L 742.679514 92.107144 
L 750.038644 88.63941 
L 757.397774 85.406019 
L 765.322992 82.167331 
L 773.248209 79.162854 
L 781.739514 76.184157 
L 790.230818 73.435148 
L 799.288209 70.735947 
L 808.911687 68.109948 
L 818.535166 65.71187 
L 828.724731 63.399137 
L 839.480383 61.187388 
L 850.802122 59.089268 
L 860.991688 57.383206 
L 860.991688 57.383206 
" clip-path="url(#p434dfe5052)" style="fill: none; stroke: #000000; stroke-width: 2; stroke-linecap: square"/>
   </g>
   <g id="line2d_37">
    <path d="M 606.252557 256.205627 
L 628.896035 196.416103 
L 674.182992 132.197725 
L 719.469948 93.445256 
L 849.669948 55.8 
" clip-path="url(#p434dfe5052)" style="fill: none; stroke-dasharray: 3.7,1.6; stroke-dashoffset: 0; stroke: #1f77b4"/>
    <g clip-path="url(#p434dfe5052)">
     <use xlink:href="#mb80a809c2e" x="606.252557" y="256.205627" style="fill: #1f77b4; stroke: #000000; stroke-linejoin: miter"/>
     <use xlink:href="#mb80a809c2e" x="628.896035" y="196.416103" style="fill: #1f77b4; stroke: #000000; stroke-linejoin: miter"/>
     <use xlink:href="#mb80a809c2e" x="674.182992" y="132.197725" style="fill: #1f77b4; stroke: #000000; stroke-linejoin: miter"/>
     <use xlink:href="#mb80a809c2e" x="719.469948" y="93.445256" style="fill: #1f77b4; stroke: #000000; stroke-linejoin: miter"/>
     <use xlink:href="#mb80a809c2e" x="849.669948" y="55.8" style="fill: #1f77b4; stroke: #000000; stroke-linejoin: miter"/>
    </g>
   </g>
   <g id="line2d_38">
    <path d="M 606.252557 260.63448 
L 628.896035 207.488237 
L 674.182992 137.733792 
L 719.469948 101.19575 
L 849.669948 59.12164 
" clip-path="url(#p434dfe5052)" style="fill: none; stroke-dasharray: 3.7,1.6; stroke-dashoffset: 0; stroke: #ff7f0e"/>
    <g clip-path="url(#p434dfe5052)">
     <use xlink:href="#mca265ad50d" x="606.252557" y="260.63448" style="fill: #ff7f0e; stroke: #000000; stroke-linejoin: miter"/>
     <use xlink:href="#mca265ad50d" x="628.896035" y="207.488237" style="fill: #ff7f0e; stroke: #000000; stroke-linejoin: miter"/>
     <use xlink:href="#mca265ad50d" x="674.182992" y="137.733792" style="fill: #ff7f0e; stroke: #000000; stroke-linejoin: miter"/>
     <use xlink:href="#mca265ad50d" x="719.469948" y="101.19575" style="fill: #ff7f0e; stroke: #000000; stroke-linejoin: miter"/>
     <use xlink:href="#mca265ad50d" x="849.669948" y="59.12164" style="fill: #ff7f0e; stroke: #000000; stroke-linejoin: miter"/>
    </g>
   </g>
   <g id="patch_9">
    <path d="M 521.339514 320.4 
L 521.339514 43.2 
" style="fill: none; stroke: #000000; stroke-width: 0.8; stroke-linejoin: miter; stroke-linecap: square"/>
   </g>
   <g id="patch_10">
    <path d="M 860.991688 320.4 
L 860.991688 43.2 
" style="fill: none; stroke: #000000; stroke-width: 0.8; stroke-linejoin: miter; stroke-linecap: square"/>
   </g>
   <g id="patch_11">
    <path d="M 521.339514 320.4 
L 860.991688 320.4 
" style="fill: none; stroke: #000000; stroke-width: 0.8; stroke-linejoin: miter; stroke-linecap: square"/>
   </g>
   <g id="patch_12">
    <path d="M 521.339514 43.2 
L 860.991688 43.2 
" style="fill: none; stroke: #000000; stroke-width: 0.8; stroke-linejoin: miter; stroke-linecap: square"/>
   </g>
   <g id="legend_2">
    <g id="patch_13">
     <path d="M 696.765594 315.9 
L 854.691688 315.9 
Q 856.491688 315.9 856.491688 314.1 
L 856.491688 275.369062 
Q 856.491688 273.569062 854.691688 273.569062 
L 696.765594 273.569062 
Q 694.965594 273.569062 694.965594 275.369062 
L 694.965594 314.1 
Q 694.965594 315.9 696.765594 315.9 
z
" style="fill: #ffffff; opacity: 0.8; stroke: #cccccc; stroke-linejoin: miter"/>
    </g>
    <g id="line2d_39">
     <path d="M 698.565594 280.857656 
L 716.565594 280.857656 
" style="fill: none; stroke: #000000; stroke-width: 2; stroke-linecap: square"/>
    </g>
    <g id="line2d_40"/>
    <g id="text_34">
     <!-- 50 mg Emp -->
     <g transform="translate(723.765594 284.007656) scale(0.09 -0.09)">
      <use xlink:href="#DejaVuSans-35"/>
      <use xlink:href="#DejaVuSans-30" transform="translate(63.623047 0)"/>
      <use xlink:href="#DejaVuSans-20" transform="translate(127.246094 0)"/>
      <use xlink:href="#DejaVuSans-6d" transform="translate(159.033203 0)"/>
      <use xlink:href="#DejaVuSans-67" transform="translate(256.445312 0)"/>
      <use xlink:href="#DejaVuSans-20" transform="translate(319.921875 0)"/>
      <use xlink:href="#DejaVuSans-45" transform="translate(351.708984 0)"/>
      <use xlink:href="#DejaVuSans-6d" transform="translate(414.892578 0)"/>
      <use xlink:href="#DejaVuSans-70" transform="translate(512.304688 0)"/>
     </g>
    </g>
    <g id="LineCollection_7">
     <path d="M 707.565594 298.567969 
L 707.565594 289.567969 
" style="fill: none; stroke: #1f77b4"/>
    </g>
    <g id="line2d_41">
     <path d="M 698.565594 294.067969 
L 716.565594 294.067969 
" style="fill: none; stroke-dasharray: 3.7,1.6; stroke-dashoffset: 0; stroke: #1f77b4"/>
    </g>
    <g id="line2d_42">
     <g>
      <use xlink:href="#mb80a809c2e" x="707.565594" y="294.067969" style="fill: #1f77b4; stroke: #000000; stroke-linejoin: miter"/>
     </g>
    </g>
    <g id="text_35">
     <!-- 50 mg Emp (D5)±SD (n=16) -->
     <g transform="translate(723.765594 297.217969) scale(0.09 -0.09)">
      <use xlink:href="#DejaVuSans-35"/>
      <use xlink:href="#DejaVuSans-30" transform="translate(63.623047 0)"/>
      <use xlink:href="#DejaVuSans-20" transform="translate(127.246094 0)"/>
      <use xlink:href="#DejaVuSans-6d" transform="translate(159.033203 0)"/>
      <use xlink:href="#DejaVuSans-67" transform="translate(256.445312 0)"/>
      <use xlink:href="#DejaVuSans-20" transform="translate(319.921875 0)"/>
      <use xlink:href="#DejaVuSans-45" transform="translate(351.708984 0)"/>
      <use xlink:href="#DejaVuSans-6d" transform="translate(414.892578 0)"/>
      <use xlink:href="#DejaVuSans-70" transform="translate(512.304688 0)"/>
      <use xlink:href="#DejaVuSans-20" transform="translate(575.78125 0)"/>
      <use xlink:href="#DejaVuSans-28" transform="translate(607.568359 0)"/>
      <use xlink:href="#DejaVuSans-44" transform="translate(646.582031 0)"/>
      <use xlink:href="#DejaVuSans-35" transform="translate(723.583984 0)"/>
      <use xlink:href="#DejaVuSans-29" transform="translate(787.207031 0)"/>
      <use xlink:href="#DejaVuSans-b1" transform="translate(826.220703 0)"/>
      <use xlink:href="#DejaVuSans-53" transform="translate(910.009766 0)"/>
      <use xlink:href="#DejaVuSans-44" transform="translate(973.486328 0)"/>
      <use xlink:href="#DejaVuSans-20" transform="translate(1050.488281 0)"/>
      <use xlink:href="#DejaVuSans-28" transform="translate(1082.275391 0)"/>
      <use xlink:href="#DejaVuSans-6e" transform="translate(1121.289062 0)"/>
      <use xlink:href="#DejaVuSans-3d" transform="translate(1184.667969 0)"/>
      <use xlink:href="#DejaVuSans-31" transform="translate(1268.457031 0)"/>
      <use xlink:href="#DejaVuSans-36" transform="translate(1332.080078 0)"/>
      <use xlink:href="#DejaVuSans-29" transform="translate(1395.703125 0)"/>
     </g>
    </g>
    <g id="LineCollection_8">
     <path d="M 707.565594 311.778281 
L 707.565594 302.778281 
" style="fill: none; stroke: #ff7f0e"/>
    </g>
    <g id="line2d_43">
     <path d="M 698.565594 307.278281 
L 716.565594 307.278281 
" style="fill: none; stroke-dasharray: 3.7,1.6; stroke-dashoffset: 0; stroke: #ff7f0e"/>
    </g>
    <g id="line2d_44">
     <g>
      <use xlink:href="#mca265ad50d" x="707.565594" y="307.278281" style="fill: #ff7f0e; stroke: #000000; stroke-linejoin: miter"/>
     </g>
    </g>
    <g id="text_36">
     <!-- 50 mg Emp (D7)±SD (n=16) -->
     <g transform="translate(723.765594 310.428281) scale(0.09 -0.09)">
      <use xlink:href="#DejaVuSans-35"/>
      <use xlink:href="#DejaVuSans-30" transform="translate(63.623047 0)"/>
      <use xlink:href="#DejaVuSans-20" transform="translate(127.246094 0)"/>
      <use xlink:href="#DejaVuSans-6d" transform="translate(159.033203 0)"/>
      <use xlink:href="#DejaVuSans-67" transform="translate(256.445312 0)"/>
      <use xlink:href="#DejaVuSans-20" transform="translate(319.921875 0)"/>
      <use xlink:href="#DejaVuSans-45" transform="translate(351.708984 0)"/>
      <use xlink:href="#DejaVuSans-6d" transform="translate(414.892578 0)"/>
      <use xlink:href="#DejaVuSans-70" transform="translate(512.304688 0)"/>
      <use xlink:href="#DejaVuSans-20" transform="translate(575.78125 0)"/>
      <use xlink:href="#DejaVuSans-28" transform="translate(607.568359 0)"/>
      <use xlink:href="#DejaVuSans-44" transform="translate(646.582031 0)"/>
      <use xlink:href="#DejaVuSans-37" transform="translate(723.583984 0)"/>
      <use xlink:href="#DejaVuSans-29" transform="translate(787.207031 0)"/>
      <use xlink:href="#DejaVuSans-b1" transform="translate(826.220703 0)"/>
      <use xlink:href="#DejaVuSans-53" transform="translate(910.009766 0)"/>
      <use xlink:href="#DejaVuSans-44" transform="translate(973.486328 0)"/>
      <use xlink:href="#DejaVuSans-20" transform="translate(1050.488281 0)"/>
      <use xlink:href="#DejaVuSans-28" transform="translate(1082.275391 0)"/>
      <use xlink:href="#DejaVuSans-6e" transform="translate(1121.289062 0)"/>
      <use xlink:href="#DejaVuSans-3d" transform="translate(1184.667969 0)"/>
      <use xlink:href="#DejaVuSans-31" transform="translate(1268.457031 0)"/>
      <use xlink:href="#DejaVuSans-36" transform="translate(1332.080078 0)"/>
      <use xlink:href="#DejaVuSans-29" transform="translate(1395.703125 0)"/>
     </g>
    </g>
   </g>
  </g>
  <g id="text_37">
   <!-- Friedrich2013 (Healthy) -->
   <g transform="translate(290.168641 26.196094) scale(0.25 -0.25)">
    <defs>
     <path id="DejaVuSans-Bold-46" d="M 588 4666 
L 3834 4666 
L 3834 3756 
L 1791 3756 
L 1791 2888 
L 3713 2888 
L 3713 1978 
L 1791 1978 
L 1791 0 
L 588 0 
L 588 4666 
z
" transform="scale(0.015625)"/>
     <path id="DejaVuSans-Bold-64" d="M 2919 2988 
L 2919 4863 
L 4044 4863 
L 4044 0 
L 2919 0 
L 2919 506 
Q 2688 197 2409 53 
Q 2131 -91 1766 -91 
Q 1119 -91 703 423 
Q 288 938 288 1747 
Q 288 2556 703 3070 
Q 1119 3584 1766 3584 
Q 2128 3584 2408 3439 
Q 2688 3294 2919 2988 
z
M 2181 722 
Q 2541 722 2730 984 
Q 2919 1247 2919 1747 
Q 2919 2247 2730 2509 
Q 2541 2772 2181 2772 
Q 1825 2772 1636 2509 
Q 1447 2247 1447 1747 
Q 1447 1247 1636 984 
Q 1825 722 2181 722 
z
" transform="scale(0.015625)"/>
     <path id="DejaVuSans-Bold-63" d="M 3366 3391 
L 3366 2478 
Q 3138 2634 2908 2709 
Q 2678 2784 2431 2784 
Q 1963 2784 1702 2511 
Q 1441 2238 1441 1747 
Q 1441 1256 1702 982 
Q 1963 709 2431 709 
Q 2694 709 2930 787 
Q 3166 866 3366 1019 
L 3366 103 
Q 3103 6 2833 -42 
Q 2563 -91 2291 -91 
Q 1344 -91 809 395 
Q 275 881 275 1747 
Q 275 2613 809 3098 
Q 1344 3584 2291 3584 
Q 2566 3584 2833 3536 
Q 3100 3488 3366 3391 
z
" transform="scale(0.015625)"/>
     <path id="DejaVuSans-Bold-32" d="M 1844 884 
L 3897 884 
L 3897 0 
L 506 0 
L 506 884 
L 2209 2388 
Q 2438 2594 2547 2791 
Q 2656 2988 2656 3200 
Q 2656 3528 2436 3728 
Q 2216 3928 1850 3928 
Q 1569 3928 1234 3808 
Q 900 3688 519 3450 
L 519 4475 
Q 925 4609 1322 4679 
Q 1719 4750 2100 4750 
Q 2938 4750 3402 4381 
Q 3866 4013 3866 3353 
Q 3866 2972 3669 2642 
Q 3472 2313 2841 1759 
L 1844 884 
z
" transform="scale(0.015625)"/>
     <path id="DejaVuSans-Bold-30" d="M 2944 2338 
Q 2944 3213 2780 3570 
Q 2616 3928 2228 3928 
Q 1841 3928 1675 3570 
Q 1509 3213 1509 2338 
Q 1509 1453 1675 1090 
Q 1841 728 2228 728 
Q 2613 728 2778 1090 
Q 2944 1453 2944 2338 
z
M 4147 2328 
Q 4147 1169 3647 539 
Q 3147 -91 2228 -91 
Q 1306 -91 806 539 
Q 306 1169 306 2328 
Q 306 3491 806 4120 
Q 1306 4750 2228 4750 
Q 3147 4750 3647 4120 
Q 4147 3491 4147 2328 
z
" transform="scale(0.015625)"/>
     <path id="DejaVuSans-Bold-31" d="M 750 831 
L 1813 831 
L 1813 3847 
L 722 3622 
L 722 4441 
L 1806 4666 
L 2950 4666 
L 2950 831 
L 4013 831 
L 4013 0 
L 750 0 
L 750 831 
z
" transform="scale(0.015625)"/>
     <path id="DejaVuSans-Bold-33" d="M 2981 2516 
Q 3453 2394 3698 2092 
Q 3944 1791 3944 1325 
Q 3944 631 3412 270 
Q 2881 -91 1863 -91 
Q 1503 -91 1142 -33 
Q 781 25 428 141 
L 428 1069 
Q 766 900 1098 814 
Q 1431 728 1753 728 
Q 2231 728 2486 893 
Q 2741 1059 2741 1369 
Q 2741 1688 2480 1852 
Q 2219 2016 1709 2016 
L 1228 2016 
L 1228 2791 
L 1734 2791 
Q 2188 2791 2409 2933 
Q 2631 3075 2631 3366 
Q 2631 3634 2415 3781 
Q 2200 3928 1806 3928 
Q 1516 3928 1219 3862 
Q 922 3797 628 3669 
L 628 4550 
Q 984 4650 1334 4700 
Q 1684 4750 2022 4750 
Q 2931 4750 3382 4451 
Q 3834 4153 3834 3553 
Q 3834 3144 3618 2883 
Q 3403 2622 2981 2516 
z
" transform="scale(0.015625)"/>
     <path id="DejaVuSans-Bold-28" d="M 2413 -844 
L 1484 -844 
Q 1006 -72 778 623 
Q 550 1319 550 2003 
Q 550 2688 779 3389 
Q 1009 4091 1484 4856 
L 2413 4856 
Q 2013 4116 1813 3408 
Q 1613 2700 1613 2009 
Q 1613 1319 1811 609 
Q 2009 -100 2413 -844 
z
" transform="scale(0.015625)"/>
     <path id="DejaVuSans-Bold-48" d="M 588 4666 
L 1791 4666 
L 1791 2888 
L 3566 2888 
L 3566 4666 
L 4769 4666 
L 4769 0 
L 3566 0 
L 3566 1978 
L 1791 1978 
L 1791 0 
L 588 0 
L 588 4666 
z
" transform="scale(0.015625)"/>
     <path id="DejaVuSans-Bold-74" d="M 1759 4494 
L 1759 3500 
L 2913 3500 
L 2913 2700 
L 1759 2700 
L 1759 1216 
Q 1759 972 1856 886 
Q 1953 800 2241 800 
L 2816 800 
L 2816 0 
L 1856 0 
Q 1194 0 917 276 
Q 641 553 641 1216 
L 641 2700 
L 84 2700 
L 84 3500 
L 641 3500 
L 641 4494 
L 1759 4494 
z
" transform="scale(0.015625)"/>
     <path id="DejaVuSans-Bold-79" d="M 78 3500 
L 1197 3500 
L 2138 1125 
L 2938 3500 
L 4056 3500 
L 2584 -331 
Q 2363 -916 2067 -1148 
Q 1772 -1381 1288 -1381 
L 641 -1381 
L 641 -647 
L 991 -647 
Q 1275 -647 1404 -556 
Q 1534 -466 1606 -231 
L 1638 -134 
L 78 3500 
z
" transform="scale(0.015625)"/>
     <path id="DejaVuSans-Bold-29" d="M 513 -844 
Q 913 -100 1113 609 
Q 1313 1319 1313 2009 
Q 1313 2700 1113 3408 
Q 913 4116 513 4856 
L 1441 4856 
Q 1916 4091 2145 3389 
Q 2375 2688 2375 2003 
Q 2375 1319 2147 623 
Q 1919 -72 1441 -844 
L 513 -844 
z
" transform="scale(0.015625)"/>
    </defs>
    <use xlink:href="#DejaVuSans-Bold-46"/>
    <use xlink:href="#DejaVuSans-Bold-72" transform="translate(61.935547 0)"/>
    <use xlink:href="#DejaVuSans-Bold-69" transform="translate(111.251953 0)"/>
    <use xlink:href="#DejaVuSans-Bold-65" transform="translate(145.529297 0)"/>
    <use xlink:href="#DejaVuSans-Bold-64" transform="translate(213.351562 0)"/>
    <use xlink:href="#DejaVuSans-Bold-72" transform="translate(284.933594 0)"/>
    <use xlink:href="#DejaVuSans-Bold-69" transform="translate(334.25 0)"/>
    <use xlink:href="#DejaVuSans-Bold-63" transform="translate(368.527344 0)"/>
    <use xlink:href="#DejaVuSans-Bold-68" transform="translate(427.804688 0)"/>
    <use xlink:href="#DejaVuSans-Bold-32" transform="translate(498.996094 0)"/>
    <use xlink:href="#DejaVuSans-Bold-30" transform="translate(568.576172 0)"/>
    <use xlink:href="#DejaVuSans-Bold-31" transform="translate(638.15625 0)"/>
    <use xlink:href="#DejaVuSans-Bold-33" transform="translate(707.736328 0)"/>
    <use xlink:href="#DejaVuSans-Bold-20" transform="translate(777.316406 0)"/>
    <use xlink:href="#DejaVuSans-Bold-28" transform="translate(812.130859 0)"/>
    <use xlink:href="#DejaVuSans-Bold-48" transform="translate(857.833984 0)"/>
    <use xlink:href="#DejaVuSans-Bold-65" transform="translate(941.525391 0)"/>
    <use xlink:href="#DejaVuSans-Bold-61" transform="translate(1009.347656 0)"/>
    <use xlink:href="#DejaVuSans-Bold-6c" transform="translate(1076.828125 0)"/>
    <use xlink:href="#DejaVuSans-Bold-74" transform="translate(1111.105469 0)"/>
    <use xlink:href="#DejaVuSans-Bold-68" transform="translate(1158.908203 0)"/>
    <use xlink:href="#DejaVuSans-Bold-79" transform="translate(1230.099609 0)"/>
    <use xlink:href="#DejaVuSans-Bold-29" transform="translate(1295.285156 0)"/>
   </g>
  </g>
 </g>
 <defs>
  <clipPath id="p885d8db928">
   <rect x="79.791687" y="43.2" width="339.652174" height="277.2"/>
  </clipPath>
  <clipPath id="p434dfe5052">
   <rect x="521.339514" y="43.2" width="339.652174" height="277.2"/>
  </clipPath>
 </defs>
</svg>
