<?xml version="1.0" encoding="utf-8" standalone="no"?>
<!DOCTYPE svg PUBLIC "-//W3C//DTD SVG 1.1//EN"
  "http://www.w3.org/Graphics/SVG/1.1/DTD/svg11.dtd">
<svg xmlns:xlink="http://www.w3.org/1999/xlink" width="477.591687pt" height="370.537812pt" viewBox="0 0 477.591687 370.537812" xmlns="http://www.w3.org/2000/svg" version="1.1">
 <metadata>
  <rdf:RDF xmlns:dc="http://purl.org/dc/elements/1.1/" xmlns:cc="http://creativecommons.org/ns#" xmlns:rdf="http://www.w3.org/1999/02/22-rdf-syntax-ns#">
   <cc:Work>
    <dc:type rdf:resource="http://purl.org/dc/dcmitype/StillImage"/>
    <dc:date>2026-02-04T11:46:14.293031</dc:date>
    <dc:format>image/svg+xml</dc:format>
    <dc:creator>
     <cc:Agent>
      <dc:title>Matplotlib v3.10.7, https://matplotlib.org/</dc:title>
     </cc:Agent>
    </dc:creator>
   </cc:Work>
  </rdf:RDF>
 </metadata>
 <defs>
  <style type="text/css">*{stroke-linejoin: round; stroke-linecap: butt}</style>
 </defs>
 <g id="figure_1">
  <g id="patch_1">
   <path d="M 0 370.537812 
L 477.591687 370.537812 
L 477.591687 0 
L 0 0 
z
" style="fill: #ffffff"/>
  </g>
  <g id="axes_1">
   <g id="patch_2">
    <path d="M 79.791687 320.4 
L 470.391687 320.4 
L 470.391687 43.2 
L 79.791687 43.2 
z
" style="fill: #ffffff"/>
   </g>
   <g id="matplotlib.axis_1">
    <g id="xtick_1">
     <g id="line2d_1">
      <defs>
       <path id="mc8a12c9c50" d="M 0 0 
L 0 3.5 
" style="stroke: #000000; stroke-width: 0.8"/>
      </defs>
      <g>
       <use xlink:href="#mc8a12c9c50" x="97.546233" y="320.4" style="stroke: #000000; stroke-width: 0.8"/>
      </g>
     </g>
     <g id="text_1">
      <!-- 0 -->
      <g transform="translate(92.774358 338.797656) scale(0.15 -0.15)">
       <defs>
        <path id="DejaVuSans-30" d="M 2034 4250 
Q 1547 4250 1301 3770 
Q 1056 3291 1056 2328 
Q 1056 1369 1301 889 
Q 1547 409 2034 409 
Q 2525 409 2770 889 
Q 3016 1369 3016 2328 
Q 3016 3291 2770 3770 
Q 2525 4250 2034 4250 
z
M 2034 4750 
Q 2819 4750 3233 4129 
Q 3647 3509 3647 2328 
Q 3647 1150 3233 529 
Q 2819 -91 2034 -91 
Q 1250 -91 836 529 
Q 422 1150 422 2328 
Q 422 3509 836 4129 
Q 1250 4750 2034 4750 
z
" transform="scale(0.015625)"/>
       </defs>
       <use xlink:href="#DejaVuSans-30"/>
      </g>
     </g>
    </g>
    <g id="xtick_2">
     <g id="line2d_2">
      <g>
       <use xlink:href="#mc8a12c9c50" x="194.831414" y="320.4" style="stroke: #000000; stroke-width: 0.8"/>
      </g>
     </g>
     <g id="text_2">
      <!-- 20 -->
      <g transform="translate(185.287664 338.797656) scale(0.15 -0.15)">
       <defs>
        <path id="DejaVuSans-32" d="M 1228 531 
L 3431 531 
L 3431 0 
L 469 0 
L 469 531 
Q 828 903 1448 1529 
Q 2069 2156 2228 2338 
Q 2531 2678 2651 2914 
Q 2772 3150 2772 3378 
Q 2772 3750 2511 3984 
Q 2250 4219 1831 4219 
Q 1534 4219 1204 4116 
Q 875 4013 500 3803 
L 500 4441 
Q 881 4594 1212 4672 
Q 1544 4750 1819 4750 
Q 2544 4750 2975 4387 
Q 3406 4025 3406 3419 
Q 3406 3131 3298 2873 
Q 3191 2616 2906 2266 
Q 2828 2175 2409 1742 
Q 1991 1309 1228 531 
z
" transform="scale(0.015625)"/>
       </defs>
       <use xlink:href="#DejaVuSans-32"/>
       <use xlink:href="#DejaVuSans-30" transform="translate(63.623047 0)"/>
      </g>
     </g>
    </g>
    <g id="xtick_3">
     <g id="line2d_3">
      <g>
       <use xlink:href="#mc8a12c9c50" x="292.116594" y="320.4" style="stroke: #000000; stroke-width: 0.8"/>
      </g>
     </g>
     <g id="text_3">
      <!-- 40 -->
      <g transform="translate(282.572844 338.797656) scale(0.15 -0.15)">
       <defs>
        <path id="DejaVuSans-34" d="M 2419 4116 
L 825 1625 
L 2419 1625 
L 2419 4116 
z
M 2253 4666 
L 3047 4666 
L 3047 1625 
L 3713 1625 
L 3713 1100 
L 3047 1100 
L 3047 0 
L 2419 0 
L 2419 1100 
L 313 1100 
L 313 1709 
L 2253 4666 
z
" transform="scale(0.015625)"/>
       </defs>
       <use xlink:href="#DejaVuSans-34"/>
       <use xlink:href="#DejaVuSans-30" transform="translate(63.623047 0)"/>
      </g>
     </g>
    </g>
    <g id="xtick_4">
     <g id="line2d_4">
      <g>
       <use xlink:href="#mc8a12c9c50" x="389.401775" y="320.4" style="stroke: #000000; stroke-width: 0.8"/>
      </g>
     </g>
     <g id="text_4">
      <!-- 60 -->
      <g transform="translate(379.858025 338.797656) scale(0.15 -0.15)">
       <defs>
        <path id="DejaVuSans-36" d="M 2113 2584 
Q 1688 2584 1439 2293 
Q 1191 2003 1191 1497 
Q 1191 994 1439 701 
Q 1688 409 2113 409 
Q 2538 409 2786 701 
Q 3034 994 3034 1497 
Q 3034 2003 2786 2293 
Q 2538 2584 2113 2584 
z
M 3366 4563 
L 3366 3988 
Q 3128 4100 2886 4159 
Q 2644 4219 2406 4219 
Q 1781 4219 1451 3797 
Q 1122 3375 1075 2522 
Q 1259 2794 1537 2939 
Q 1816 3084 2150 3084 
Q 2853 3084 3261 2657 
Q 3669 2231 3669 1497 
Q 3669 778 3244 343 
Q 2819 -91 2113 -91 
Q 1303 -91 875 529 
Q 447 1150 447 2328 
Q 447 3434 972 4092 
Q 1497 4750 2381 4750 
Q 2619 4750 2861 4703 
Q 3103 4656 3366 4563 
z
" transform="scale(0.015625)"/>
       </defs>
       <use xlink:href="#DejaVuSans-36"/>
       <use xlink:href="#DejaVuSans-30" transform="translate(63.623047 0)"/>
      </g>
     </g>
    </g>
    <g id="text_5">
     <!-- Time [hr] -->
     <g transform="translate(228.179188 359.594375) scale(0.18 -0.18)">
      <defs>
       <path id="DejaVuSans-Bold-54" d="M 31 4666 
L 4331 4666 
L 4331 3756 
L 2784 3756 
L 2784 0 
L 1581 0 
L 1581 3756 
L 31 3756 
L 31 4666 
z
" transform="scale(0.015625)"/>
       <path id="DejaVuSans-Bold-69" d="M 538 3500 
L 1656 3500 
L 1656 0 
L 538 0 
L 538 3500 
z
M 538 4863 
L 1656 4863 
L 1656 3950 
L 538 3950 
L 538 4863 
z
" transform="scale(0.015625)"/>
       <path id="DejaVuSans-Bold-6d" d="M 3781 2919 
Q 3994 3244 4286 3414 
Q 4578 3584 4928 3584 
Q 5531 3584 5847 3212 
Q 6163 2841 6163 2131 
L 6163 0 
L 5038 0 
L 5038 1825 
Q 5041 1866 5042 1909 
Q 5044 1953 5044 2034 
Q 5044 2406 4934 2573 
Q 4825 2741 4581 2741 
Q 4263 2741 4089 2478 
Q 3916 2216 3909 1719 
L 3909 0 
L 2784 0 
L 2784 1825 
Q 2784 2406 2684 2573 
Q 2584 2741 2328 2741 
Q 2006 2741 1831 2477 
Q 1656 2213 1656 1722 
L 1656 0 
L 531 0 
L 531 3500 
L 1656 3500 
L 1656 2988 
Q 1863 3284 2130 3434 
Q 2397 3584 2719 3584 
Q 3081 3584 3359 3409 
Q 3638 3234 3781 2919 
z
" transform="scale(0.015625)"/>
       <path id="DejaVuSans-Bold-65" d="M 4031 1759 
L 4031 1441 
L 1416 1441 
Q 1456 1047 1700 850 
Q 1944 653 2381 653 
Q 2734 653 3104 758 
Q 3475 863 3866 1075 
L 3866 213 
Q 3469 63 3072 -14 
Q 2675 -91 2278 -91 
Q 1328 -91 801 392 
Q 275 875 275 1747 
Q 275 2603 792 3093 
Q 1309 3584 2216 3584 
Q 3041 3584 3536 3087 
Q 4031 2591 4031 1759 
z
M 2881 2131 
Q 2881 2450 2695 2645 
Q 2509 2841 2209 2841 
Q 1884 2841 1681 2658 
Q 1478 2475 1428 2131 
L 2881 2131 
z
" transform="scale(0.015625)"/>
       <path id="DejaVuSans-Bold-20" transform="scale(0.015625)"/>
       <path id="DejaVuSans-Bold-5b" d="M 550 4863 
L 2491 4863 
L 2491 4159 
L 1613 4159 
L 1613 -141 
L 2491 -141 
L 2491 -844 
L 550 -844 
L 550 4863 
z
" transform="scale(0.015625)"/>
       <path id="DejaVuSans-Bold-68" d="M 4056 2131 
L 4056 0 
L 2931 0 
L 2931 347 
L 2931 1625 
Q 2931 2084 2911 2256 
Q 2891 2428 2841 2509 
Q 2775 2619 2662 2680 
Q 2550 2741 2406 2741 
Q 2056 2741 1856 2470 
Q 1656 2200 1656 1722 
L 1656 0 
L 538 0 
L 538 4863 
L 1656 4863 
L 1656 2988 
Q 1909 3294 2193 3439 
Q 2478 3584 2822 3584 
Q 3428 3584 3742 3212 
Q 4056 2841 4056 2131 
z
" transform="scale(0.015625)"/>
       <path id="DejaVuSans-Bold-72" d="M 3138 2547 
Q 2991 2616 2845 2648 
Q 2700 2681 2553 2681 
Q 2122 2681 1889 2404 
Q 1656 2128 1656 1613 
L 1656 0 
L 538 0 
L 538 3500 
L 1656 3500 
L 1656 2925 
Q 1872 3269 2151 3426 
Q 2431 3584 2822 3584 
Q 2878 3584 2943 3579 
Q 3009 3575 3134 3559 
L 3138 2547 
z
" transform="scale(0.015625)"/>
       <path id="DejaVuSans-Bold-5d" d="M 2375 -844 
L 434 -844 
L 434 -141 
L 1313 -141 
L 1313 4159 
L 434 4159 
L 434 4863 
L 2375 4863 
L 2375 -844 
z
" transform="scale(0.015625)"/>
      </defs>
      <use xlink:href="#DejaVuSans-Bold-54"/>
      <use xlink:href="#DejaVuSans-Bold-69" transform="translate(68.212891 0)"/>
      <use xlink:href="#DejaVuSans-Bold-6d" transform="translate(102.490234 0)"/>
      <use xlink:href="#DejaVuSans-Bold-65" transform="translate(206.689453 0)"/>
      <use xlink:href="#DejaVuSans-Bold-20" transform="translate(274.511719 0)"/>
      <use xlink:href="#DejaVuSans-Bold-5b" transform="translate(309.326172 0)"/>
      <use xlink:href="#DejaVuSans-Bold-68" transform="translate(355.029297 0)"/>
      <use xlink:href="#DejaVuSans-Bold-72" transform="translate(426.220703 0)"/>
      <use xlink:href="#DejaVuSans-Bold-5d" transform="translate(475.537109 0)"/>
     </g>
    </g>
   </g>
   <g id="matplotlib.axis_2">
    <g id="ytick_1">
     <g id="line2d_5">
      <defs>
       <path id="m45aa1e1b24" d="M 0 0 
L -3.5 0 
" style="stroke: #000000; stroke-width: 0.8"/>
      </defs>
      <g>
       <use xlink:href="#m45aa1e1b24" x="79.791687" y="304.010526" style="stroke: #000000; stroke-width: 0.8"/>
      </g>
     </g>
     <g id="text_6">
      <!-- 0.0 -->
      <g transform="translate(48.937 309.709354) scale(0.15 -0.15)">
       <defs>
        <path id="DejaVuSans-2e" d="M 684 794 
L 1344 794 
L 1344 0 
L 684 0 
L 684 794 
z
" transform="scale(0.015625)"/>
       </defs>
       <use xlink:href="#DejaVuSans-30"/>
       <use xlink:href="#DejaVuSans-2e" transform="translate(63.623047 0)"/>
       <use xlink:href="#DejaVuSans-30" transform="translate(95.410156 0)"/>
      </g>
     </g>
    </g>
    <g id="ytick_2">
     <g id="line2d_6">
      <g>
       <use xlink:href="#m45aa1e1b24" x="79.791687" y="245.089568" style="stroke: #000000; stroke-width: 0.8"/>
      </g>
     </g>
     <g id="text_7">
      <!-- 0.2 -->
      <g transform="translate(48.937 250.788396) scale(0.15 -0.15)">
       <use xlink:href="#DejaVuSans-30"/>
       <use xlink:href="#DejaVuSans-2e" transform="translate(63.623047 0)"/>
       <use xlink:href="#DejaVuSans-32" transform="translate(95.410156 0)"/>
      </g>
     </g>
    </g>
    <g id="ytick_3">
     <g id="line2d_7">
      <g>
       <use xlink:href="#m45aa1e1b24" x="79.791687" y="186.16861" style="stroke: #000000; stroke-width: 0.8"/>
      </g>
     </g>
     <g id="text_8">
      <!-- 0.4 -->
      <g transform="translate(48.937 191.867438) scale(0.15 -0.15)">
       <use xlink:href="#DejaVuSans-30"/>
       <use xlink:href="#DejaVuSans-2e" transform="translate(63.623047 0)"/>
       <use xlink:href="#DejaVuSans-34" transform="translate(95.410156 0)"/>
      </g>
     </g>
    </g>
    <g id="ytick_4">
     <g id="line2d_8">
      <g>
       <use xlink:href="#m45aa1e1b24" x="79.791687" y="127.247652" style="stroke: #000000; stroke-width: 0.8"/>
      </g>
     </g>
     <g id="text_9">
      <!-- 0.6 -->
      <g transform="translate(48.937 132.94648) scale(0.15 -0.15)">
       <use xlink:href="#DejaVuSans-30"/>
       <use xlink:href="#DejaVuSans-2e" transform="translate(63.623047 0)"/>
       <use xlink:href="#DejaVuSans-36" transform="translate(95.410156 0)"/>
      </g>
     </g>
    </g>
    <g id="ytick_5">
     <g id="line2d_9">
      <g>
       <use xlink:href="#m45aa1e1b24" x="79.791687" y="68.326693" style="stroke: #000000; stroke-width: 0.8"/>
      </g>
     </g>
     <g id="text_10">
      <!-- 0.8 -->
      <g transform="translate(48.937 74.025521) scale(0.15 -0.15)">
       <defs>
        <path id="DejaVuSans-38" d="M 2034 2216 
Q 1584 2216 1326 1975 
Q 1069 1734 1069 1313 
Q 1069 891 1326 650 
Q 1584 409 2034 409 
Q 2484 409 2743 651 
Q 3003 894 3003 1313 
Q 3003 1734 2745 1975 
Q 2488 2216 2034 2216 
z
M 1403 2484 
Q 997 2584 770 2862 
Q 544 3141 544 3541 
Q 544 4100 942 4425 
Q 1341 4750 2034 4750 
Q 2731 4750 3128 4425 
Q 3525 4100 3525 3541 
Q 3525 3141 3298 2862 
Q 3072 2584 2669 2484 
Q 3125 2378 3379 2068 
Q 3634 1759 3634 1313 
Q 3634 634 3220 271 
Q 2806 -91 2034 -91 
Q 1263 -91 848 271 
Q 434 634 434 1313 
Q 434 1759 690 2068 
Q 947 2378 1403 2484 
z
M 1172 3481 
Q 1172 3119 1398 2916 
Q 1625 2713 2034 2713 
Q 2441 2713 2670 2916 
Q 2900 3119 2900 3481 
Q 2900 3844 2670 4047 
Q 2441 4250 2034 4250 
Q 1625 4250 1398 4047 
Q 1172 3844 1172 3481 
z
" transform="scale(0.015625)"/>
       </defs>
       <use xlink:href="#DejaVuSans-30"/>
       <use xlink:href="#DejaVuSans-2e" transform="translate(63.623047 0)"/>
       <use xlink:href="#DejaVuSans-38" transform="translate(95.410156 0)"/>
      </g>
     </g>
    </g>
    <g id="text_11">
     <!-- Empagliflozin Plasma -->
     <g transform="translate(20.877187 290.065781) rotate(-90) scale(0.18 -0.18)">
      <defs>
       <path id="DejaVuSans-Bold-45" d="M 588 4666 
L 3834 4666 
L 3834 3756 
L 1791 3756 
L 1791 2888 
L 3713 2888 
L 3713 1978 
L 1791 1978 
L 1791 909 
L 3903 909 
L 3903 0 
L 588 0 
L 588 4666 
z
" transform="scale(0.015625)"/>
       <path id="DejaVuSans-Bold-70" d="M 1656 506 
L 1656 -1331 
L 538 -1331 
L 538 3500 
L 1656 3500 
L 1656 2988 
Q 1888 3294 2169 3439 
Q 2450 3584 2816 3584 
Q 3463 3584 3878 3070 
Q 4294 2556 4294 1747 
Q 4294 938 3878 423 
Q 3463 -91 2816 -91 
Q 2450 -91 2169 54 
Q 1888 200 1656 506 
z
M 2400 2772 
Q 2041 2772 1848 2508 
Q 1656 2244 1656 1747 
Q 1656 1250 1848 986 
Q 2041 722 2400 722 
Q 2759 722 2948 984 
Q 3138 1247 3138 1747 
Q 3138 2247 2948 2509 
Q 2759 2772 2400 2772 
z
" transform="scale(0.015625)"/>
       <path id="DejaVuSans-Bold-61" d="M 2106 1575 
Q 1756 1575 1579 1456 
Q 1403 1338 1403 1106 
Q 1403 894 1545 773 
Q 1688 653 1941 653 
Q 2256 653 2472 879 
Q 2688 1106 2688 1447 
L 2688 1575 
L 2106 1575 
z
M 3816 1997 
L 3816 0 
L 2688 0 
L 2688 519 
Q 2463 200 2181 54 
Q 1900 -91 1497 -91 
Q 953 -91 614 226 
Q 275 544 275 1050 
Q 275 1666 698 1953 
Q 1122 2241 2028 2241 
L 2688 2241 
L 2688 2328 
Q 2688 2594 2478 2717 
Q 2269 2841 1825 2841 
Q 1466 2841 1156 2769 
Q 847 2697 581 2553 
L 581 3406 
Q 941 3494 1303 3539 
Q 1666 3584 2028 3584 
Q 2975 3584 3395 3211 
Q 3816 2838 3816 1997 
z
" transform="scale(0.015625)"/>
       <path id="DejaVuSans-Bold-67" d="M 2919 594 
Q 2688 288 2409 144 
Q 2131 0 1766 0 
Q 1125 0 706 504 
Q 288 1009 288 1791 
Q 288 2575 706 3076 
Q 1125 3578 1766 3578 
Q 2131 3578 2409 3434 
Q 2688 3291 2919 2981 
L 2919 3500 
L 4044 3500 
L 4044 353 
Q 4044 -491 3511 -936 
Q 2978 -1381 1966 -1381 
Q 1638 -1381 1331 -1331 
Q 1025 -1281 716 -1178 
L 716 -306 
Q 1009 -475 1290 -558 
Q 1572 -641 1856 -641 
Q 2406 -641 2662 -400 
Q 2919 -159 2919 353 
L 2919 594 
z
M 2181 2772 
Q 1834 2772 1640 2515 
Q 1447 2259 1447 1791 
Q 1447 1309 1634 1061 
Q 1822 813 2181 813 
Q 2531 813 2725 1069 
Q 2919 1325 2919 1791 
Q 2919 2259 2725 2515 
Q 2531 2772 2181 2772 
z
" transform="scale(0.015625)"/>
       <path id="DejaVuSans-Bold-6c" d="M 538 4863 
L 1656 4863 
L 1656 0 
L 538 0 
L 538 4863 
z
" transform="scale(0.015625)"/>
       <path id="DejaVuSans-Bold-66" d="M 2841 4863 
L 2841 4128 
L 2222 4128 
Q 1984 4128 1890 4042 
Q 1797 3956 1797 3744 
L 1797 3500 
L 2753 3500 
L 2753 2700 
L 1797 2700 
L 1797 0 
L 678 0 
L 678 2700 
L 122 2700 
L 122 3500 
L 678 3500 
L 678 3744 
Q 678 4316 997 4589 
Q 1316 4863 1984 4863 
L 2841 4863 
z
" transform="scale(0.015625)"/>
       <path id="DejaVuSans-Bold-6f" d="M 2203 2784 
Q 1831 2784 1636 2517 
Q 1441 2250 1441 1747 
Q 1441 1244 1636 976 
Q 1831 709 2203 709 
Q 2569 709 2762 976 
Q 2956 1244 2956 1747 
Q 2956 2250 2762 2517 
Q 2569 2784 2203 2784 
z
M 2203 3584 
Q 3106 3584 3614 3096 
Q 4122 2609 4122 1747 
Q 4122 884 3614 396 
Q 3106 -91 2203 -91 
Q 1297 -91 786 396 
Q 275 884 275 1747 
Q 275 2609 786 3096 
Q 1297 3584 2203 3584 
z
" transform="scale(0.015625)"/>
       <path id="DejaVuSans-Bold-7a" d="M 366 3500 
L 3419 3500 
L 3419 2719 
L 1575 800 
L 3419 800 
L 3419 0 
L 288 0 
L 288 781 
L 2131 2700 
L 366 2700 
L 366 3500 
z
" transform="scale(0.015625)"/>
       <path id="DejaVuSans-Bold-6e" d="M 4056 2131 
L 4056 0 
L 2931 0 
L 2931 347 
L 2931 1631 
Q 2931 2084 2911 2256 
Q 2891 2428 2841 2509 
Q 2775 2619 2662 2680 
Q 2550 2741 2406 2741 
Q 2056 2741 1856 2470 
Q 1656 2200 1656 1722 
L 1656 0 
L 538 0 
L 538 3500 
L 1656 3500 
L 1656 2988 
Q 1909 3294 2193 3439 
Q 2478 3584 2822 3584 
Q 3428 3584 3742 3212 
Q 4056 2841 4056 2131 
z
" transform="scale(0.015625)"/>
       <path id="DejaVuSans-Bold-50" d="M 588 4666 
L 2584 4666 
Q 3475 4666 3951 4270 
Q 4428 3875 4428 3144 
Q 4428 2409 3951 2014 
Q 3475 1619 2584 1619 
L 1791 1619 
L 1791 0 
L 588 0 
L 588 4666 
z
M 1791 3794 
L 1791 2491 
L 2456 2491 
Q 2806 2491 2997 2661 
Q 3188 2831 3188 3144 
Q 3188 3456 2997 3625 
Q 2806 3794 2456 3794 
L 1791 3794 
z
" transform="scale(0.015625)"/>
       <path id="DejaVuSans-Bold-73" d="M 3272 3391 
L 3272 2541 
Q 2913 2691 2578 2766 
Q 2244 2841 1947 2841 
Q 1628 2841 1473 2761 
Q 1319 2681 1319 2516 
Q 1319 2381 1436 2309 
Q 1553 2238 1856 2203 
L 2053 2175 
Q 2913 2066 3209 1816 
Q 3506 1566 3506 1031 
Q 3506 472 3093 190 
Q 2681 -91 1863 -91 
Q 1516 -91 1145 -36 
Q 775 19 384 128 
L 384 978 
Q 719 816 1070 734 
Q 1422 653 1784 653 
Q 2113 653 2278 743 
Q 2444 834 2444 1013 
Q 2444 1163 2330 1236 
Q 2216 1309 1875 1350 
L 1678 1375 
Q 931 1469 631 1722 
Q 331 1975 331 2491 
Q 331 3047 712 3315 
Q 1094 3584 1881 3584 
Q 2191 3584 2531 3537 
Q 2872 3491 3272 3391 
z
" transform="scale(0.015625)"/>
      </defs>
      <use xlink:href="#DejaVuSans-Bold-45"/>
      <use xlink:href="#DejaVuSans-Bold-6d" transform="translate(68.310547 0)"/>
      <use xlink:href="#DejaVuSans-Bold-70" transform="translate(172.509766 0)"/>
      <use xlink:href="#DejaVuSans-Bold-61" transform="translate(244.091797 0)"/>
      <use xlink:href="#DejaVuSans-Bold-67" transform="translate(311.572266 0)"/>
      <use xlink:href="#DejaVuSans-Bold-6c" transform="translate(383.154297 0)"/>
      <use xlink:href="#DejaVuSans-Bold-69" transform="translate(417.431641 0)"/>
      <use xlink:href="#DejaVuSans-Bold-66" transform="translate(451.708984 0)"/>
      <use xlink:href="#DejaVuSans-Bold-6c" transform="translate(495.214844 0)"/>
      <use xlink:href="#DejaVuSans-Bold-6f" transform="translate(529.492188 0)"/>
      <use xlink:href="#DejaVuSans-Bold-7a" transform="translate(598.193359 0)"/>
      <use xlink:href="#DejaVuSans-Bold-69" transform="translate(656.396484 0)"/>
      <use xlink:href="#DejaVuSans-Bold-6e" transform="translate(690.673828 0)"/>
      <use xlink:href="#DejaVuSans-Bold-20" transform="translate(761.865234 0)"/>
      <use xlink:href="#DejaVuSans-Bold-50" transform="translate(796.679688 0)"/>
      <use xlink:href="#DejaVuSans-Bold-6c" transform="translate(869.970703 0)"/>
      <use xlink:href="#DejaVuSans-Bold-61" transform="translate(904.248047 0)"/>
      <use xlink:href="#DejaVuSans-Bold-73" transform="translate(971.728516 0)"/>
      <use xlink:href="#DejaVuSans-Bold-6d" transform="translate(1031.25 0)"/>
      <use xlink:href="#DejaVuSans-Bold-61" transform="translate(1135.449219 0)"/>
     </g>
     <!--  [µM] -->
     <g transform="translate(41.173875 208.738125) rotate(-90) scale(0.18 -0.18)">
      <defs>
       <path id="DejaVuSans-Bold-b5" d="M 544 -1338 
L 544 3500 
L 1672 3500 
L 1672 1466 
Q 1672 1103 1828 926 
Q 1984 750 2303 750 
Q 2625 750 2781 926 
Q 2938 1103 2938 1466 
L 2938 3500 
L 4063 3500 
L 4063 1159 
Q 4063 938 4114 850 
Q 4166 763 4288 763 
Q 4344 763 4395 778 
Q 4447 794 4506 831 
L 4506 50 
Q 4341 -22 4195 -56 
Q 4050 -91 3909 -91 
Q 3631 -91 3454 26 
Q 3278 144 3169 403 
Q 3022 156 2811 32 
Q 2600 -91 2322 -91 
Q 2091 -91 1928 -17 
Q 1766 56 1672 206 
L 1672 -1338 
L 544 -1338 
z
" transform="scale(0.015625)"/>
       <path id="DejaVuSans-Bold-4d" d="M 588 4666 
L 2119 4666 
L 3181 2169 
L 4250 4666 
L 5778 4666 
L 5778 0 
L 4641 0 
L 4641 3413 
L 3566 897 
L 2803 897 
L 1728 3413 
L 1728 0 
L 588 0 
L 588 4666 
z
" transform="scale(0.015625)"/>
      </defs>
      <use xlink:href="#DejaVuSans-Bold-20"/>
      <use xlink:href="#DejaVuSans-Bold-5b" transform="translate(34.814453 0)"/>
      <use xlink:href="#DejaVuSans-Bold-b5" transform="translate(80.517578 0)"/>
      <use xlink:href="#DejaVuSans-Bold-4d" transform="translate(154.101562 0)"/>
      <use xlink:href="#DejaVuSans-Bold-5d" transform="translate(253.613281 0)"/>
     </g>
    </g>
   </g>
   <g id="LineCollection_1">
    <path clip-path="url(#p562569ffa1)" style="fill: none; stroke: #1f77b4"/>
    <path d="M 102.410492 307.8 
L 102.410492 282.057713 
" clip-path="url(#p562569ffa1)" style="fill: none; stroke: #1f77b4"/>
    <path d="M 104.842621 300.221053 
L 104.842621 227.175681 
" clip-path="url(#p562569ffa1)" style="fill: none; stroke: #1f77b4"/>
    <path d="M 107.274751 299.633031 
L 107.274751 160.206534 
" clip-path="url(#p562569ffa1)" style="fill: none; stroke: #1f77b4"/>
    <path d="M 109.706881 259.712886 
L 109.706881 127.211978 
" clip-path="url(#p562569ffa1)" style="fill: none; stroke: #1f77b4"/>
    <path d="M 112.13901 237.49873 
L 112.13901 91.015971 
" clip-path="url(#p562569ffa1)" style="fill: none; stroke: #1f77b4"/>
    <path d="M 114.57114 200.192015 
L 114.57114 78.928857 
" clip-path="url(#p562569ffa1)" style="fill: none; stroke: #1f77b4"/>
    <path d="M 117.003269 177.520508 
L 117.003269 69.063158 
" clip-path="url(#p562569ffa1)" style="fill: none; stroke: #1f77b4"/>
    <path d="M 126.731787 185.818149 
L 126.731787 121.789111 
" clip-path="url(#p562569ffa1)" style="fill: none; stroke: #1f77b4"/>
    <path d="M 136.460305 221.03412 
L 136.460305 178.957895 
" clip-path="url(#p562569ffa1)" style="fill: none; stroke: #1f77b4"/>
    <path d="M 155.917341 255.858076 
L 155.917341 233.905263 
" clip-path="url(#p562569ffa1)" style="fill: none; stroke: #1f77b4"/>
    <path d="M 214.28845 290.42069 
L 214.28845 283.756443 
" clip-path="url(#p562569ffa1)" style="fill: none; stroke: #1f77b4"/>
    <path clip-path="url(#p562569ffa1)" style="fill: none; stroke: #1f77b4"/>
    <path clip-path="url(#p562569ffa1)" style="fill: none; stroke: #1f77b4"/>
    <path clip-path="url(#p562569ffa1)" style="fill: none; stroke: #1f77b4"/>
   </g>
   <g id="LineCollection_2">
    <path clip-path="url(#p562569ffa1)" style="fill: none; stroke: #9467bd"/>
    <path d="M 102.410492 298.652995 
L 102.410492 284.017786 
" clip-path="url(#p562569ffa1)" style="fill: none; stroke: #9467bd"/>
    <path d="M 104.842621 289.505989 
L 104.842621 253.17931 
" clip-path="url(#p562569ffa1)" style="fill: none; stroke: #9467bd"/>
    <path d="M 107.274751 267.749183 
L 107.274751 198.754628 
" clip-path="url(#p562569ffa1)" style="fill: none; stroke: #9467bd"/>
    <path d="M 109.706881 260.366243 
L 109.706881 144.329946 
" clip-path="url(#p562569ffa1)" style="fill: none; stroke: #9467bd"/>
    <path d="M 112.13901 227.763702 
L 112.13901 97.092196 
" clip-path="url(#p562569ffa1)" style="fill: none; stroke: #9467bd"/>
    <path d="M 114.57114 193.33176 
L 114.57114 77.164791 
" clip-path="url(#p562569ffa1)" style="fill: none; stroke: #9467bd"/>
    <path d="M 117.003269 164.192015 
L 117.003269 77.164791 
" clip-path="url(#p562569ffa1)" style="fill: none; stroke: #9467bd"/>
    <path d="M 126.731787 196.990563 
L 126.731787 138.841742 
" clip-path="url(#p562569ffa1)" style="fill: none; stroke: #9467bd"/>
    <path d="M 136.460305 216.917967 
L 136.460305 180.591289 
" clip-path="url(#p562569ffa1)" style="fill: none; stroke: #9467bd"/>
    <path d="M 155.917341 253.244646 
L 155.917341 227.763702 
" clip-path="url(#p562569ffa1)" style="fill: none; stroke: #9467bd"/>
    <path d="M 214.28845 291.270054 
L 214.28845 280.424319 
" clip-path="url(#p562569ffa1)" style="fill: none; stroke: #9467bd"/>
    <path clip-path="url(#p562569ffa1)" style="fill: none; stroke: #9467bd"/>
    <path clip-path="url(#p562569ffa1)" style="fill: none; stroke: #9467bd"/>
    <path clip-path="url(#p562569ffa1)" style="fill: none; stroke: #9467bd"/>
   </g>
   <g id="LineCollection_3">
    <path clip-path="url(#p562569ffa1)" style="fill: none; stroke: #2ca02c"/>
    <path d="M 102.410492 294.536842 
L 102.410492 265.397096 
" clip-path="url(#p562569ffa1)" style="fill: none; stroke: #2ca02c"/>
    <path d="M 104.842621 286.435209 
L 104.842621 224.1049 
" clip-path="url(#p562569ffa1)" style="fill: none; stroke: #2ca02c"/>
    <path d="M 107.274751 260.1049 
L 107.274751 171.117604 
" clip-path="url(#p562569ffa1)" style="fill: none; stroke: #2ca02c"/>
    <path d="M 109.706881 237.041379 
L 109.706881 134.333575 
" clip-path="url(#p562569ffa1)" style="fill: none; stroke: #2ca02c"/>
    <path d="M 112.13901 223.908893 
L 112.13901 92.845372 
" clip-path="url(#p562569ffa1)" style="fill: none; stroke: #2ca02c"/>
    <path d="M 114.57114 206.333575 
L 114.57114 55.8 
" clip-path="url(#p562569ffa1)" style="fill: none; stroke: #2ca02c"/>
    <path d="M 117.003269 174.515064 
L 117.003269 62.921597 
" clip-path="url(#p562569ffa1)" style="fill: none; stroke: #2ca02c"/>
    <path d="M 126.731787 186.602178 
L 126.731787 123.618512 
" clip-path="url(#p562569ffa1)" style="fill: none; stroke: #2ca02c"/>
    <path d="M 136.460305 218.486025 
L 136.460305 181.505989 
" clip-path="url(#p562569ffa1)" style="fill: none; stroke: #2ca02c"/>
    <path d="M 155.917341 254.747368 
L 155.917341 235.015971 
" clip-path="url(#p562569ffa1)" style="fill: none; stroke: #2ca02c"/>
    <path d="M 214.28845 291.074047 
L 214.28845 284.4098 
" clip-path="url(#p562569ffa1)" style="fill: none; stroke: #2ca02c"/>
    <path clip-path="url(#p562569ffa1)" style="fill: none; stroke: #2ca02c"/>
    <path clip-path="url(#p562569ffa1)" style="fill: none; stroke: #2ca02c"/>
    <path clip-path="url(#p562569ffa1)" style="fill: none; stroke: #2ca02c"/>
   </g>
   <g id="LineCollection_4">
    <path clip-path="url(#p562569ffa1)" style="fill: none; stroke: #ff7f0e"/>
    <path d="M 102.410492 296.758258 
L 102.410492 278.594918 
" clip-path="url(#p562569ffa1)" style="fill: none; stroke: #ff7f0e"/>
    <path d="M 104.842621 273.172051 
L 104.842621 233.18657 
" clip-path="url(#p562569ffa1)" style="fill: none; stroke: #ff7f0e"/>
    <path d="M 107.274751 250.239201 
L 107.274751 198.10127 
" clip-path="url(#p562569ffa1)" style="fill: none; stroke: #ff7f0e"/>
    <path d="M 109.706881 251.349909 
L 109.706881 164.322686 
" clip-path="url(#p562569ffa1)" style="fill: none; stroke: #ff7f0e"/>
    <path d="M 112.13901 236.845372 
L 112.13901 80.823593 
" clip-path="url(#p562569ffa1)" style="fill: none; stroke: #ff7f0e"/>
    <path d="M 114.57114 180.591289 
L 114.57114 78.928857 
" clip-path="url(#p562569ffa1)" style="fill: none; stroke: #ff7f0e"/>
    <path d="M 117.003269 162.427949 
L 117.003269 75.400726 
" clip-path="url(#p562569ffa1)" style="fill: none; stroke: #ff7f0e"/>
    <path d="M 126.731787 200.584029 
L 126.731787 142.435209 
" clip-path="url(#p562569ffa1)" style="fill: none; stroke: #ff7f0e"/>
    <path d="M 136.460305 224.170236 
L 136.460305 187.843557 
" clip-path="url(#p562569ffa1)" style="fill: none; stroke: #ff7f0e"/>
    <path d="M 155.917341 255.074047 
L 155.917341 229.593103 
" clip-path="url(#p562569ffa1)" style="fill: none; stroke: #ff7f0e"/>
    <path d="M 214.28845 291.270054 
L 214.28845 280.424319 
" clip-path="url(#p562569ffa1)" style="fill: none; stroke: #ff7f0e"/>
    <path clip-path="url(#p562569ffa1)" style="fill: none; stroke: #ff7f0e"/>
    <path clip-path="url(#p562569ffa1)" style="fill: none; stroke: #ff7f0e"/>
    <path clip-path="url(#p562569ffa1)" style="fill: none; stroke: #ff7f0e"/>
   </g>
   <g id="line2d_10">
    <path d="M 97.546233 304.010526 
L 98.256415 293.473548 
L 99.676778 241.508213 
L 101.097142 193.048017 
L 101.807324 174.802957 
L 102.517506 160.516651 
L 103.227687 149.689907 
L 103.937869 141.744919 
L 104.648051 136.129023 
L 105.358233 132.357772 
L 106.068415 130.026814 
L 106.778597 128.808823 
L 107.488778 128.44416 
L 108.19896 128.729741 
L 108.909142 129.508279 
L 109.619324 130.658797 
L 111.039687 133.727339 
L 112.460051 137.428506 
L 115.300778 145.676975 
L 123.112778 168.906572 
L 127.373869 180.766175 
L 130.924778 190.050361 
L 134.475687 198.76677 
L 138.026597 206.914674 
L 141.577506 214.505397 
L 145.128415 221.558027 
L 148.679324 228.096577 
L 152.230233 234.147974 
L 155.781142 239.740622 
L 159.332051 244.903387 
L 162.88296 249.664871 
L 166.433869 254.05293 
L 169.984778 258.094339 
L 173.535687 261.814594 
L 177.086597 265.237792 
L 180.637506 268.386579 
L 184.188415 271.282144 
L 188.449506 274.45028 
L 192.710597 277.31365 
L 196.971687 279.901026 
L 201.232778 282.23862 
L 205.493869 284.350268 
L 210.465142 286.557043 
L 215.436415 288.516573 
L 220.407687 290.256414 
L 226.089142 292.007137 
L 231.770597 293.535189 
L 238.162233 295.023131 
L 245.264051 296.429965 
L 252.365869 297.616642 
L 260.177869 298.708629 
L 269.410233 299.761328 
L 279.352778 300.66252 
L 290.715687 301.460908 
L 303.49896 302.133918 
L 319.12296 302.720219 
L 337.587687 303.181757 
L 361.023687 303.538016 
L 393.692051 303.794624 
L 444.825142 303.947162 
L 452.637142 303.957985 
L 452.637142 303.957985 
" clip-path="url(#p562569ffa1)" style="fill: none; stroke: #1f77b4; stroke-width: 2; stroke-linecap: square"/>
   </g>
   <g id="line2d_11">
    <path d="M 97.546233 304.010526 
L 102.410492 294.928857 
L 104.842621 263.698367 
L 107.274751 229.919782 
L 109.706881 193.462432 
L 112.13901 164.25735 
L 114.57114 139.560436 
L 117.003269 123.291833 
L 126.731787 153.80363 
L 136.460305 199.996007 
L 155.917341 244.88167 
L 214.28845 287.088566 
L 272.659558 298.130309 
L 331.030666 299.633031 
L 447.772883 302.703811 
" clip-path="url(#p562569ffa1)" style="fill: none; stroke-dasharray: 3.7,1.6; stroke-dashoffset: 0; stroke: #1f77b4"/>
    <defs>
     <path id="m6d8773ebd9" d="M -3 3 
L 3 3 
L 3 -3 
L -3 -3 
z
" style="stroke: #000000; stroke-linejoin: miter"/>
    </defs>
    <g clip-path="url(#p562569ffa1)">
     <use xlink:href="#m6d8773ebd9" x="97.546233" y="304.010526" style="fill: #1f77b4; stroke: #000000; stroke-linejoin: miter"/>
     <use xlink:href="#m6d8773ebd9" x="102.410492" y="294.928857" style="fill: #1f77b4; stroke: #000000; stroke-linejoin: miter"/>
     <use xlink:href="#m6d8773ebd9" x="104.842621" y="263.698367" style="fill: #1f77b4; stroke: #000000; stroke-linejoin: miter"/>
     <use xlink:href="#m6d8773ebd9" x="107.274751" y="229.919782" style="fill: #1f77b4; stroke: #000000; stroke-linejoin: miter"/>
     <use xlink:href="#m6d8773ebd9" x="109.706881" y="193.462432" style="fill: #1f77b4; stroke: #000000; stroke-linejoin: miter"/>
     <use xlink:href="#m6d8773ebd9" x="112.13901" y="164.25735" style="fill: #1f77b4; stroke: #000000; stroke-linejoin: miter"/>
     <use xlink:href="#m6d8773ebd9" x="114.57114" y="139.560436" style="fill: #1f77b4; stroke: #000000; stroke-linejoin: miter"/>
     <use xlink:href="#m6d8773ebd9" x="117.003269" y="123.291833" style="fill: #1f77b4; stroke: #000000; stroke-linejoin: miter"/>
     <use xlink:href="#m6d8773ebd9" x="126.731787" y="153.80363" style="fill: #1f77b4; stroke: #000000; stroke-linejoin: miter"/>
     <use xlink:href="#m6d8773ebd9" x="136.460305" y="199.996007" style="fill: #1f77b4; stroke: #000000; stroke-linejoin: miter"/>
     <use xlink:href="#m6d8773ebd9" x="155.917341" y="244.88167" style="fill: #1f77b4; stroke: #000000; stroke-linejoin: miter"/>
     <use xlink:href="#m6d8773ebd9" x="214.28845" y="287.088566" style="fill: #1f77b4; stroke: #000000; stroke-linejoin: miter"/>
     <use xlink:href="#m6d8773ebd9" x="272.659558" y="298.130309" style="fill: #1f77b4; stroke: #000000; stroke-linejoin: miter"/>
     <use xlink:href="#m6d8773ebd9" x="331.030666" y="299.633031" style="fill: #1f77b4; stroke: #000000; stroke-linejoin: miter"/>
     <use xlink:href="#m6d8773ebd9" x="447.772883" y="302.703811" style="fill: #1f77b4; stroke: #000000; stroke-linejoin: miter"/>
    </g>
   </g>
   <g id="line2d_12">
    <path d="M 97.546233 304.010526 
L 98.256415 293.45088 
L 99.676778 241.199144 
L 101.097142 192.383589 
L 101.807324 174.038153 
L 102.517506 159.725182 
L 103.227687 148.945386 
L 103.937869 141.11333 
L 104.648051 135.665043 
L 105.358233 132.103694 
L 106.068415 130.013056 
L 106.778597 129.055258 
L 107.488778 128.961774 
L 108.19896 129.522333 
L 108.909142 130.574026 
L 109.619324 131.99162 
L 111.039687 135.564554 
L 113.170233 141.915627 
L 123.112778 172.970222 
L 126.663687 183.037707 
L 130.214597 192.433406 
L 133.765506 201.171838 
L 137.316415 209.279232 
L 140.867324 216.787141 
L 144.418233 223.72963 
L 147.969142 230.141683 
L 151.520051 236.058178 
L 155.07096 241.513203 
L 158.621869 246.539609 
L 162.172778 251.168727 
L 165.723687 255.430203 
L 169.274597 259.351923 
L 172.825506 262.959993 
L 176.376415 266.278761 
L 179.927324 269.330875 
L 184.188415 272.670901 
L 188.449506 275.690495 
L 192.710597 278.420036 
L 196.971687 280.887129 
L 201.232778 283.116825 
L 206.204051 285.448278 
L 211.175324 287.51986 
L 216.146597 289.360443 
L 221.828051 291.213941 
L 227.509506 292.833047 
L 233.901142 294.411078 
L 240.292778 295.766377 
L 247.394597 297.049093 
L 255.206597 298.230833 
L 263.728778 299.292456 
L 272.961142 300.223679 
L 283.613869 301.072201 
L 295.68696 301.806429 
L 309.890597 302.438988 
L 326.93496 302.963307 
L 348.240415 303.380037 
L 375.937506 303.684532 
L 416.417869 303.886211 
L 452.637142 303.958056 
L 452.637142 303.958056 
" clip-path="url(#p562569ffa1)" style="fill: none; stroke: #9467bd; stroke-width: 2; stroke-linecap: square"/>
   </g>
   <g id="line2d_13">
    <path d="M 97.546233 304.010526 
L 102.410492 291.33539 
L 104.842621 271.34265 
L 107.274751 233.251906 
L 109.706881 202.348094 
L 112.13901 162.427949 
L 114.57114 135.248276 
L 117.003269 120.678403 
L 126.731787 167.916152 
L 136.460305 198.754628 
L 155.917341 240.504174 
L 214.28845 285.847187 
L 272.659558 298.587659 
L 331.030666 302.181125 
L 447.772883 302.703811 
" clip-path="url(#p562569ffa1)" style="fill: none; stroke-dasharray: 3.7,1.6; stroke-dashoffset: 0; stroke: #9467bd"/>
    <defs>
     <path id="ma7629dbebb" d="M -3 3 
L 3 3 
L 3 -3 
L -3 -3 
z
" style="stroke: #000000; stroke-linejoin: miter"/>
    </defs>
    <g clip-path="url(#p562569ffa1)">
     <use xlink:href="#ma7629dbebb" x="97.546233" y="304.010526" style="fill: #9467bd; stroke: #000000; stroke-linejoin: miter"/>
     <use xlink:href="#ma7629dbebb" x="102.410492" y="291.33539" style="fill: #9467bd; stroke: #000000; stroke-linejoin: miter"/>
     <use xlink:href="#ma7629dbebb" x="104.842621" y="271.34265" style="fill: #9467bd; stroke: #000000; stroke-linejoin: miter"/>
     <use xlink:href="#ma7629dbebb" x="107.274751" y="233.251906" style="fill: #9467bd; stroke: #000000; stroke-linejoin: miter"/>
     <use xlink:href="#ma7629dbebb" x="109.706881" y="202.348094" style="fill: #9467bd; stroke: #000000; stroke-linejoin: miter"/>
     <use xlink:href="#ma7629dbebb" x="112.13901" y="162.427949" style="fill: #9467bd; stroke: #000000; stroke-linejoin: miter"/>
     <use xlink:href="#ma7629dbebb" x="114.57114" y="135.248276" style="fill: #9467bd; stroke: #000000; stroke-linejoin: miter"/>
     <use xlink:href="#ma7629dbebb" x="117.003269" y="120.678403" style="fill: #9467bd; stroke: #000000; stroke-linejoin: miter"/>
     <use xlink:href="#ma7629dbebb" x="126.731787" y="167.916152" style="fill: #9467bd; stroke: #000000; stroke-linejoin: miter"/>
     <use xlink:href="#ma7629dbebb" x="136.460305" y="198.754628" style="fill: #9467bd; stroke: #000000; stroke-linejoin: miter"/>
     <use xlink:href="#ma7629dbebb" x="155.917341" y="240.504174" style="fill: #9467bd; stroke: #000000; stroke-linejoin: miter"/>
     <use xlink:href="#ma7629dbebb" x="214.28845" y="285.847187" style="fill: #9467bd; stroke: #000000; stroke-linejoin: miter"/>
     <use xlink:href="#ma7629dbebb" x="272.659558" y="298.587659" style="fill: #9467bd; stroke: #000000; stroke-linejoin: miter"/>
     <use xlink:href="#ma7629dbebb" x="331.030666" y="302.181125" style="fill: #9467bd; stroke: #000000; stroke-linejoin: miter"/>
     <use xlink:href="#ma7629dbebb" x="447.772883" y="302.703811" style="fill: #9467bd; stroke: #000000; stroke-linejoin: miter"/>
    </g>
   </g>
   <g id="line2d_14">
    <path d="M 97.546233 304.010526 
L 98.256415 293.473548 
L 99.676778 241.508213 
L 101.097142 193.048017 
L 101.807324 174.802957 
L 102.517506 160.516651 
L 103.227687 149.689907 
L 103.937869 141.744919 
L 104.648051 136.129023 
L 105.358233 132.357772 
L 106.068415 130.026814 
L 106.778597 128.808823 
L 107.488778 128.44416 
L 108.19896 128.729741 
L 108.909142 129.508279 
L 109.619324 130.658797 
L 111.039687 133.727339 
L 112.460051 137.428506 
L 115.300778 145.676975 
L 123.112778 168.906572 
L 127.373869 180.766175 
L 130.924778 190.050361 
L 134.475687 198.76677 
L 138.026597 206.914674 
L 141.577506 214.505397 
L 145.128415 221.558027 
L 148.679324 228.096577 
L 152.230233 234.147974 
L 155.781142 239.740622 
L 159.332051 244.903387 
L 162.88296 249.664871 
L 166.433869 254.05293 
L 169.984778 258.094339 
L 173.535687 261.814594 
L 177.086597 265.237792 
L 180.637506 268.386579 
L 184.188415 271.282144 
L 188.449506 274.45028 
L 192.710597 277.31365 
L 196.971687 279.901026 
L 201.232778 282.23862 
L 205.493869 284.350268 
L 210.465142 286.557043 
L 215.436415 288.516573 
L 220.407687 290.256414 
L 226.089142 292.007137 
L 231.770597 293.535189 
L 238.162233 295.023131 
L 245.264051 296.429965 
L 252.365869 297.616642 
L 260.177869 298.708629 
L 269.410233 299.761328 
L 279.352778 300.66252 
L 290.715687 301.460908 
L 303.49896 302.133918 
L 319.12296 302.720219 
L 337.587687 303.181757 
L 361.023687 303.538016 
L 393.692051 303.794624 
L 444.825142 303.947162 
L 452.637142 303.957985 
L 452.637142 303.957985 
" clip-path="url(#p562569ffa1)" style="fill: none; stroke: #2ca02c; stroke-width: 2; stroke-linecap: square"/>
   </g>
   <g id="line2d_15">
    <path d="M 97.546233 304.010526 
L 102.410492 279.966969 
L 104.842621 255.270054 
L 107.274751 215.611252 
L 109.706881 185.687477 
L 112.13901 158.377132 
L 114.57114 131.066788 
L 117.003269 118.71833 
L 126.731787 155.110345 
L 136.460305 199.996007 
L 155.917341 244.88167 
L 214.28845 287.741924 
L 272.659558 298.130309 
L 331.030666 300.090381 
L 447.772883 302.703811 
" clip-path="url(#p562569ffa1)" style="fill: none; stroke-dasharray: 3.7,1.6; stroke-dashoffset: 0; stroke: #2ca02c"/>
    <defs>
     <path id="mcba35aa906" d="M -3 3 
L 3 3 
L 3 -3 
L -3 -3 
z
" style="stroke: #000000; stroke-linejoin: miter"/>
    </defs>
    <g clip-path="url(#p562569ffa1)">
     <use xlink:href="#mcba35aa906" x="97.546233" y="304.010526" style="fill: #2ca02c; stroke: #000000; stroke-linejoin: miter"/>
     <use xlink:href="#mcba35aa906" x="102.410492" y="279.966969" style="fill: #2ca02c; stroke: #000000; stroke-linejoin: miter"/>
     <use xlink:href="#mcba35aa906" x="104.842621" y="255.270054" style="fill: #2ca02c; stroke: #000000; stroke-linejoin: miter"/>
     <use xlink:href="#mcba35aa906" x="107.274751" y="215.611252" style="fill: #2ca02c; stroke: #000000; stroke-linejoin: miter"/>
     <use xlink:href="#mcba35aa906" x="109.706881" y="185.687477" style="fill: #2ca02c; stroke: #000000; stroke-linejoin: miter"/>
     <use xlink:href="#mcba35aa906" x="112.13901" y="158.377132" style="fill: #2ca02c; stroke: #000000; stroke-linejoin: miter"/>
     <use xlink:href="#mcba35aa906" x="114.57114" y="131.066788" style="fill: #2ca02c; stroke: #000000; stroke-linejoin: miter"/>
     <use xlink:href="#mcba35aa906" x="117.003269" y="118.71833" style="fill: #2ca02c; stroke: #000000; stroke-linejoin: miter"/>
     <use xlink:href="#mcba35aa906" x="126.731787" y="155.110345" style="fill: #2ca02c; stroke: #000000; stroke-linejoin: miter"/>
     <use xlink:href="#mcba35aa906" x="136.460305" y="199.996007" style="fill: #2ca02c; stroke: #000000; stroke-linejoin: miter"/>
     <use xlink:href="#mcba35aa906" x="155.917341" y="244.88167" style="fill: #2ca02c; stroke: #000000; stroke-linejoin: miter"/>
     <use xlink:href="#mcba35aa906" x="214.28845" y="287.741924" style="fill: #2ca02c; stroke: #000000; stroke-linejoin: miter"/>
     <use xlink:href="#mcba35aa906" x="272.659558" y="298.130309" style="fill: #2ca02c; stroke: #000000; stroke-linejoin: miter"/>
     <use xlink:href="#mcba35aa906" x="331.030666" y="300.090381" style="fill: #2ca02c; stroke: #000000; stroke-linejoin: miter"/>
     <use xlink:href="#mcba35aa906" x="447.772883" y="302.703811" style="fill: #2ca02c; stroke: #000000; stroke-linejoin: miter"/>
    </g>
   </g>
   <g id="line2d_16">
    <path d="M 97.546233 304.010526 
L 98.256415 293.45088 
L 99.676778 241.199144 
L 101.097142 192.383589 
L 101.807324 174.038153 
L 102.517506 159.725182 
L 103.227687 148.945386 
L 103.937869 141.11333 
L 104.648051 135.665043 
L 105.358233 132.103694 
L 106.068415 130.013056 
L 106.778597 129.055258 
L 107.488778 128.961774 
L 108.19896 129.522333 
L 108.909142 130.574026 
L 109.619324 131.99162 
L 111.039687 135.564554 
L 113.170233 141.915627 
L 123.112778 172.970222 
L 126.663687 183.037707 
L 130.214597 192.433406 
L 133.765506 201.171838 
L 137.316415 209.279232 
L 140.867324 216.787141 
L 144.418233 223.72963 
L 147.969142 230.141683 
L 151.520051 236.058178 
L 155.07096 241.513203 
L 158.621869 246.539609 
L 162.172778 251.168727 
L 165.723687 255.430203 
L 169.274597 259.351923 
L 172.825506 262.959993 
L 176.376415 266.278761 
L 179.927324 269.330875 
L 184.188415 272.670901 
L 188.449506 275.690495 
L 192.710597 278.420036 
L 196.971687 280.887129 
L 201.232778 283.116825 
L 206.204051 285.448278 
L 211.175324 287.51986 
L 216.146597 289.360443 
L 221.828051 291.213941 
L 227.509506 292.833047 
L 233.901142 294.411078 
L 240.292778 295.766377 
L 247.394597 297.049093 
L 255.206597 298.230833 
L 263.728778 299.292456 
L 272.961142 300.223679 
L 283.613869 301.072201 
L 295.68696 301.806429 
L 309.890597 302.438988 
L 326.93496 302.963307 
L 348.240415 303.380037 
L 375.937506 303.684532 
L 416.417869 303.886211 
L 452.637142 303.958056 
L 452.637142 303.958056 
" clip-path="url(#p562569ffa1)" style="fill: none; stroke: #ff7f0e; stroke-width: 2; stroke-linecap: square"/>
   </g>
   <g id="line2d_17">
    <path d="M 97.546233 304.010526 
L 102.410492 287.676588 
L 104.842621 253.17931 
L 107.274751 224.170236 
L 109.706881 207.836298 
L 112.13901 158.834483 
L 114.57114 129.760073 
L 117.003269 118.914338 
L 126.731787 171.509619 
L 136.460305 206.006897 
L 155.917341 242.333575 
L 214.28845 285.847187 
L 272.659558 299.045009 
L 331.030666 302.181125 
L 447.772883 302.703811 
" clip-path="url(#p562569ffa1)" style="fill: none; stroke-dasharray: 3.7,1.6; stroke-dashoffset: 0; stroke: #ff7f0e"/>
    <defs>
     <path id="mfa905580ce" d="M -3 3 
L 3 3 
L 3 -3 
L -3 -3 
z
" style="stroke: #000000; stroke-linejoin: miter"/>
    </defs>
    <g clip-path="url(#p562569ffa1)">
     <use xlink:href="#mfa905580ce" x="97.546233" y="304.010526" style="fill: #ff7f0e; stroke: #000000; stroke-linejoin: miter"/>
     <use xlink:href="#mfa905580ce" x="102.410492" y="287.676588" style="fill: #ff7f0e; stroke: #000000; stroke-linejoin: miter"/>
     <use xlink:href="#mfa905580ce" x="104.842621" y="253.17931" style="fill: #ff7f0e; stroke: #000000; stroke-linejoin: miter"/>
     <use xlink:href="#mfa905580ce" x="107.274751" y="224.170236" style="fill: #ff7f0e; stroke: #000000; stroke-linejoin: miter"/>
     <use xlink:href="#mfa905580ce" x="109.706881" y="207.836298" style="fill: #ff7f0e; stroke: #000000; stroke-linejoin: miter"/>
     <use xlink:href="#mfa905580ce" x="112.13901" y="158.834483" style="fill: #ff7f0e; stroke: #000000; stroke-linejoin: miter"/>
     <use xlink:href="#mfa905580ce" x="114.57114" y="129.760073" style="fill: #ff7f0e; stroke: #000000; stroke-linejoin: miter"/>
     <use xlink:href="#mfa905580ce" x="117.003269" y="118.914338" style="fill: #ff7f0e; stroke: #000000; stroke-linejoin: miter"/>
     <use xlink:href="#mfa905580ce" x="126.731787" y="171.509619" style="fill: #ff7f0e; stroke: #000000; stroke-linejoin: miter"/>
     <use xlink:href="#mfa905580ce" x="136.460305" y="206.006897" style="fill: #ff7f0e; stroke: #000000; stroke-linejoin: miter"/>
     <use xlink:href="#mfa905580ce" x="155.917341" y="242.333575" style="fill: #ff7f0e; stroke: #000000; stroke-linejoin: miter"/>
     <use xlink:href="#mfa905580ce" x="214.28845" y="285.847187" style="fill: #ff7f0e; stroke: #000000; stroke-linejoin: miter"/>
     <use xlink:href="#mfa905580ce" x="272.659558" y="299.045009" style="fill: #ff7f0e; stroke: #000000; stroke-linejoin: miter"/>
     <use xlink:href="#mfa905580ce" x="331.030666" y="302.181125" style="fill: #ff7f0e; stroke: #000000; stroke-linejoin: miter"/>
     <use xlink:href="#mfa905580ce" x="447.772883" y="302.703811" style="fill: #ff7f0e; stroke: #000000; stroke-linejoin: miter"/>
    </g>
   </g>
   <g id="patch_3">
    <path d="M 79.791687 320.4 
L 79.791687 43.2 
" style="fill: none; stroke: #000000; stroke-width: 0.8; stroke-linejoin: miter; stroke-linecap: square"/>
   </g>
   <g id="patch_4">
    <path d="M 470.391687 320.4 
L 470.391687 43.2 
" style="fill: none; stroke: #000000; stroke-width: 0.8; stroke-linejoin: miter; stroke-linecap: square"/>
   </g>
   <g id="patch_5">
    <path d="M 79.791687 320.4 
L 470.391687 320.4 
" style="fill: none; stroke: #000000; stroke-width: 0.8; stroke-linejoin: miter; stroke-linecap: square"/>
   </g>
   <g id="patch_6">
    <path d="M 79.791687 43.2 
L 470.391687 43.2 
" style="fill: none; stroke: #000000; stroke-width: 0.8; stroke-linejoin: miter; stroke-linecap: square"/>
   </g>
   <g id="legend_1">
    <g id="patch_7">
     <path d="M 265.000438 156.0825 
L 464.091687 156.0825 
Q 465.891687 156.0825 465.891687 154.2825 
L 465.891687 49.5 
Q 465.891687 47.7 464.091687 47.7 
L 265.000438 47.7 
Q 263.200438 47.7 263.200438 49.5 
L 263.200438 154.2825 
Q 263.200438 156.0825 265.000438 156.0825 
z
" style="fill: #ffffff; opacity: 0.8; stroke: #cccccc; stroke-linejoin: miter"/>
    </g>
    <g id="line2d_18">
     <path d="M 266.800438 54.988594 
L 284.800438 54.988594 
" style="fill: none; stroke: #1f77b4; stroke-width: 2; stroke-linecap: square"/>
    </g>
    <g id="line2d_19"/>
    <g id="text_12">
     <!-- 25 mg Emp (fasting, test) -->
     <g transform="translate(292.000438 58.138594) scale(0.09 -0.09)">
      <defs>
       <path id="DejaVuSans-35" d="M 691 4666 
L 3169 4666 
L 3169 4134 
L 1269 4134 
L 1269 2991 
Q 1406 3038 1543 3061 
Q 1681 3084 1819 3084 
Q 2600 3084 3056 2656 
Q 3513 2228 3513 1497 
Q 3513 744 3044 326 
Q 2575 -91 1722 -91 
Q 1428 -91 1123 -41 
Q 819 9 494 109 
L 494 744 
Q 775 591 1075 516 
Q 1375 441 1709 441 
Q 2250 441 2565 725 
Q 2881 1009 2881 1497 
Q 2881 1984 2565 2268 
Q 2250 2553 1709 2553 
Q 1456 2553 1204 2497 
Q 953 2441 691 2322 
L 691 4666 
z
" transform="scale(0.015625)"/>
       <path id="DejaVuSans-20" transform="scale(0.015625)"/>
       <path id="DejaVuSans-6d" d="M 3328 2828 
Q 3544 3216 3844 3400 
Q 4144 3584 4550 3584 
Q 5097 3584 5394 3201 
Q 5691 2819 5691 2113 
L 5691 0 
L 5113 0 
L 5113 2094 
Q 5113 2597 4934 2840 
Q 4756 3084 4391 3084 
Q 3944 3084 3684 2787 
Q 3425 2491 3425 1978 
L 3425 0 
L 2847 0 
L 2847 2094 
Q 2847 2600 2669 2842 
Q 2491 3084 2119 3084 
Q 1678 3084 1418 2786 
Q 1159 2488 1159 1978 
L 1159 0 
L 581 0 
L 581 3500 
L 1159 3500 
L 1159 2956 
Q 1356 3278 1631 3431 
Q 1906 3584 2284 3584 
Q 2666 3584 2933 3390 
Q 3200 3197 3328 2828 
z
" transform="scale(0.015625)"/>
       <path id="DejaVuSans-67" d="M 2906 1791 
Q 2906 2416 2648 2759 
Q 2391 3103 1925 3103 
Q 1463 3103 1205 2759 
Q 947 2416 947 1791 
Q 947 1169 1205 825 
Q 1463 481 1925 481 
Q 2391 481 2648 825 
Q 2906 1169 2906 1791 
z
M 3481 434 
Q 3481 -459 3084 -895 
Q 2688 -1331 1869 -1331 
Q 1566 -1331 1297 -1286 
Q 1028 -1241 775 -1147 
L 775 -588 
Q 1028 -725 1275 -790 
Q 1522 -856 1778 -856 
Q 2344 -856 2625 -561 
Q 2906 -266 2906 331 
L 2906 616 
Q 2728 306 2450 153 
Q 2172 0 1784 0 
Q 1141 0 747 490 
Q 353 981 353 1791 
Q 353 2603 747 3093 
Q 1141 3584 1784 3584 
Q 2172 3584 2450 3431 
Q 2728 3278 2906 2969 
L 2906 3500 
L 3481 3500 
L 3481 434 
z
" transform="scale(0.015625)"/>
       <path id="DejaVuSans-45" d="M 628 4666 
L 3578 4666 
L 3578 4134 
L 1259 4134 
L 1259 2753 
L 3481 2753 
L 3481 2222 
L 1259 2222 
L 1259 531 
L 3634 531 
L 3634 0 
L 628 0 
L 628 4666 
z
" transform="scale(0.015625)"/>
       <path id="DejaVuSans-70" d="M 1159 525 
L 1159 -1331 
L 581 -1331 
L 581 3500 
L 1159 3500 
L 1159 2969 
Q 1341 3281 1617 3432 
Q 1894 3584 2278 3584 
Q 2916 3584 3314 3078 
Q 3713 2572 3713 1747 
Q 3713 922 3314 415 
Q 2916 -91 2278 -91 
Q 1894 -91 1617 61 
Q 1341 213 1159 525 
z
M 3116 1747 
Q 3116 2381 2855 2742 
Q 2594 3103 2138 3103 
Q 1681 3103 1420 2742 
Q 1159 2381 1159 1747 
Q 1159 1113 1420 752 
Q 1681 391 2138 391 
Q 2594 391 2855 752 
Q 3116 1113 3116 1747 
z
" transform="scale(0.015625)"/>
       <path id="DejaVuSans-28" d="M 1984 4856 
Q 1566 4138 1362 3434 
Q 1159 2731 1159 2009 
Q 1159 1288 1364 580 
Q 1569 -128 1984 -844 
L 1484 -844 
Q 1016 -109 783 600 
Q 550 1309 550 2009 
Q 550 2706 781 3412 
Q 1013 4119 1484 4856 
L 1984 4856 
z
" transform="scale(0.015625)"/>
       <path id="DejaVuSans-66" d="M 2375 4863 
L 2375 4384 
L 1825 4384 
Q 1516 4384 1395 4259 
Q 1275 4134 1275 3809 
L 1275 3500 
L 2222 3500 
L 2222 3053 
L 1275 3053 
L 1275 0 
L 697 0 
L 697 3053 
L 147 3053 
L 147 3500 
L 697 3500 
L 697 3744 
Q 697 4328 969 4595 
Q 1241 4863 1831 4863 
L 2375 4863 
z
" transform="scale(0.015625)"/>
       <path id="DejaVuSans-61" d="M 2194 1759 
Q 1497 1759 1228 1600 
Q 959 1441 959 1056 
Q 959 750 1161 570 
Q 1363 391 1709 391 
Q 2188 391 2477 730 
Q 2766 1069 2766 1631 
L 2766 1759 
L 2194 1759 
z
M 3341 1997 
L 3341 0 
L 2766 0 
L 2766 531 
Q 2569 213 2275 61 
Q 1981 -91 1556 -91 
Q 1019 -91 701 211 
Q 384 513 384 1019 
Q 384 1609 779 1909 
Q 1175 2209 1959 2209 
L 2766 2209 
L 2766 2266 
Q 2766 2663 2505 2880 
Q 2244 3097 1772 3097 
Q 1472 3097 1187 3025 
Q 903 2953 641 2809 
L 641 3341 
Q 956 3463 1253 3523 
Q 1550 3584 1831 3584 
Q 2591 3584 2966 3190 
Q 3341 2797 3341 1997 
z
" transform="scale(0.015625)"/>
       <path id="DejaVuSans-73" d="M 2834 3397 
L 2834 2853 
Q 2591 2978 2328 3040 
Q 2066 3103 1784 3103 
Q 1356 3103 1142 2972 
Q 928 2841 928 2578 
Q 928 2378 1081 2264 
Q 1234 2150 1697 2047 
L 1894 2003 
Q 2506 1872 2764 1633 
Q 3022 1394 3022 966 
Q 3022 478 2636 193 
Q 2250 -91 1575 -91 
Q 1294 -91 989 -36 
Q 684 19 347 128 
L 347 722 
Q 666 556 975 473 
Q 1284 391 1588 391 
Q 1994 391 2212 530 
Q 2431 669 2431 922 
Q 2431 1156 2273 1281 
Q 2116 1406 1581 1522 
L 1381 1569 
Q 847 1681 609 1914 
Q 372 2147 372 2553 
Q 372 3047 722 3315 
Q 1072 3584 1716 3584 
Q 2034 3584 2315 3537 
Q 2597 3491 2834 3397 
z
" transform="scale(0.015625)"/>
       <path id="DejaVuSans-74" d="M 1172 4494 
L 1172 3500 
L 2356 3500 
L 2356 3053 
L 1172 3053 
L 1172 1153 
Q 1172 725 1289 603 
Q 1406 481 1766 481 
L 2356 481 
L 2356 0 
L 1766 0 
Q 1100 0 847 248 
Q 594 497 594 1153 
L 594 3053 
L 172 3053 
L 172 3500 
L 594 3500 
L 594 4494 
L 1172 4494 
z
" transform="scale(0.015625)"/>
       <path id="DejaVuSans-69" d="M 603 3500 
L 1178 3500 
L 1178 0 
L 603 0 
L 603 3500 
z
M 603 4863 
L 1178 4863 
L 1178 4134 
L 603 4134 
L 603 4863 
z
" transform="scale(0.015625)"/>
       <path id="DejaVuSans-6e" d="M 3513 2113 
L 3513 0 
L 2938 0 
L 2938 2094 
Q 2938 2591 2744 2837 
Q 2550 3084 2163 3084 
Q 1697 3084 1428 2787 
Q 1159 2491 1159 1978 
L 1159 0 
L 581 0 
L 581 3500 
L 1159 3500 
L 1159 2956 
Q 1366 3272 1645 3428 
Q 1925 3584 2291 3584 
Q 2894 3584 3203 3211 
Q 3513 2838 3513 2113 
z
" transform="scale(0.015625)"/>
       <path id="DejaVuSans-2c" d="M 750 794 
L 1409 794 
L 1409 256 
L 897 -744 
L 494 -744 
L 750 256 
L 750 794 
z
" transform="scale(0.015625)"/>
       <path id="DejaVuSans-65" d="M 3597 1894 
L 3597 1613 
L 953 1613 
Q 991 1019 1311 708 
Q 1631 397 2203 397 
Q 2534 397 2845 478 
Q 3156 559 3463 722 
L 3463 178 
Q 3153 47 2828 -22 
Q 2503 -91 2169 -91 
Q 1331 -91 842 396 
Q 353 884 353 1716 
Q 353 2575 817 3079 
Q 1281 3584 2069 3584 
Q 2775 3584 3186 3129 
Q 3597 2675 3597 1894 
z
M 3022 2063 
Q 3016 2534 2758 2815 
Q 2500 3097 2075 3097 
Q 1594 3097 1305 2825 
Q 1016 2553 972 2059 
L 3022 2063 
z
" transform="scale(0.015625)"/>
       <path id="DejaVuSans-29" d="M 513 4856 
L 1013 4856 
Q 1481 4119 1714 3412 
Q 1947 2706 1947 2009 
Q 1947 1309 1714 600 
Q 1481 -109 1013 -844 
L 513 -844 
Q 928 -128 1133 580 
Q 1338 1288 1338 2009 
Q 1338 2731 1133 3434 
Q 928 4138 513 4856 
z
" transform="scale(0.015625)"/>
      </defs>
      <use xlink:href="#DejaVuSans-32"/>
      <use xlink:href="#DejaVuSans-35" transform="translate(63.623047 0)"/>
      <use xlink:href="#DejaVuSans-20" transform="translate(127.246094 0)"/>
      <use xlink:href="#DejaVuSans-6d" transform="translate(159.033203 0)"/>
      <use xlink:href="#DejaVuSans-67" transform="translate(256.445312 0)"/>
      <use xlink:href="#DejaVuSans-20" transform="translate(319.921875 0)"/>
      <use xlink:href="#DejaVuSans-45" transform="translate(351.708984 0)"/>
      <use xlink:href="#DejaVuSans-6d" transform="translate(414.892578 0)"/>
      <use xlink:href="#DejaVuSans-70" transform="translate(512.304688 0)"/>
      <use xlink:href="#DejaVuSans-20" transform="translate(575.78125 0)"/>
      <use xlink:href="#DejaVuSans-28" transform="translate(607.568359 0)"/>
      <use xlink:href="#DejaVuSans-66" transform="translate(646.582031 0)"/>
      <use xlink:href="#DejaVuSans-61" transform="translate(681.787109 0)"/>
      <use xlink:href="#DejaVuSans-73" transform="translate(743.066406 0)"/>
      <use xlink:href="#DejaVuSans-74" transform="translate(795.166016 0)"/>
      <use xlink:href="#DejaVuSans-69" transform="translate(834.375 0)"/>
      <use xlink:href="#DejaVuSans-6e" transform="translate(862.158203 0)"/>
      <use xlink:href="#DejaVuSans-67" transform="translate(925.537109 0)"/>
      <use xlink:href="#DejaVuSans-2c" transform="translate(989.013672 0)"/>
      <use xlink:href="#DejaVuSans-20" transform="translate(1020.800781 0)"/>
      <use xlink:href="#DejaVuSans-74" transform="translate(1052.587891 0)"/>
      <use xlink:href="#DejaVuSans-65" transform="translate(1091.796875 0)"/>
      <use xlink:href="#DejaVuSans-73" transform="translate(1153.320312 0)"/>
      <use xlink:href="#DejaVuSans-74" transform="translate(1205.419922 0)"/>
      <use xlink:href="#DejaVuSans-29" transform="translate(1244.628906 0)"/>
     </g>
    </g>
    <g id="LineCollection_5">
     <path d="M 275.800438 72.698906 
L 275.800438 63.698906 
" style="fill: none; stroke: #1f77b4"/>
    </g>
    <g id="line2d_20">
     <path d="M 266.800438 68.198906 
L 284.800438 68.198906 
" style="fill: none; stroke-dasharray: 3.7,1.6; stroke-dashoffset: 0; stroke: #1f77b4"/>
    </g>
    <g id="line2d_21">
     <g>
      <use xlink:href="#m6d8773ebd9" x="275.800438" y="68.198906" style="fill: #1f77b4; stroke: #000000; stroke-linejoin: miter"/>
     </g>
    </g>
    <g id="text_13">
     <!-- 25 mg Emp (fasting, test)±SD (n=24) -->
     <g transform="translate(292.000438 71.348906) scale(0.09 -0.09)">
      <defs>
       <path id="DejaVuSans-b1" d="M 2944 4013 
L 2944 2803 
L 4684 2803 
L 4684 2272 
L 2944 2272 
L 2944 1063 
L 2419 1063 
L 2419 2272 
L 678 2272 
L 678 2803 
L 2419 2803 
L 2419 4013 
L 2944 4013 
z
M 678 531 
L 4684 531 
L 4684 0 
L 678 0 
L 678 531 
z
" transform="scale(0.015625)"/>
       <path id="DejaVuSans-53" d="M 3425 4513 
L 3425 3897 
Q 3066 4069 2747 4153 
Q 2428 4238 2131 4238 
Q 1616 4238 1336 4038 
Q 1056 3838 1056 3469 
Q 1056 3159 1242 3001 
Q 1428 2844 1947 2747 
L 2328 2669 
Q 3034 2534 3370 2195 
Q 3706 1856 3706 1288 
Q 3706 609 3251 259 
Q 2797 -91 1919 -91 
Q 1588 -91 1214 -16 
Q 841 59 441 206 
L 441 856 
Q 825 641 1194 531 
Q 1563 422 1919 422 
Q 2459 422 2753 634 
Q 3047 847 3047 1241 
Q 3047 1584 2836 1778 
Q 2625 1972 2144 2069 
L 1759 2144 
Q 1053 2284 737 2584 
Q 422 2884 422 3419 
Q 422 4038 858 4394 
Q 1294 4750 2059 4750 
Q 2388 4750 2728 4690 
Q 3069 4631 3425 4513 
z
" transform="scale(0.015625)"/>
       <path id="DejaVuSans-44" d="M 1259 4147 
L 1259 519 
L 2022 519 
Q 2988 519 3436 956 
Q 3884 1394 3884 2338 
Q 3884 3275 3436 3711 
Q 2988 4147 2022 4147 
L 1259 4147 
z
M 628 4666 
L 1925 4666 
Q 3281 4666 3915 4102 
Q 4550 3538 4550 2338 
Q 4550 1131 3912 565 
Q 3275 0 1925 0 
L 628 0 
L 628 4666 
z
" transform="scale(0.015625)"/>
       <path id="DejaVuSans-3d" d="M 678 2906 
L 4684 2906 
L 4684 2381 
L 678 2381 
L 678 2906 
z
M 678 1631 
L 4684 1631 
L 4684 1100 
L 678 1100 
L 678 1631 
z
" transform="scale(0.015625)"/>
      </defs>
      <use xlink:href="#DejaVuSans-32"/>
      <use xlink:href="#DejaVuSans-35" transform="translate(63.623047 0)"/>
      <use xlink:href="#DejaVuSans-20" transform="translate(127.246094 0)"/>
      <use xlink:href="#DejaVuSans-6d" transform="translate(159.033203 0)"/>
      <use xlink:href="#DejaVuSans-67" transform="translate(256.445312 0)"/>
      <use xlink:href="#DejaVuSans-20" transform="translate(319.921875 0)"/>
      <use xlink:href="#DejaVuSans-45" transform="translate(351.708984 0)"/>
      <use xlink:href="#DejaVuSans-6d" transform="translate(414.892578 0)"/>
      <use xlink:href="#DejaVuSans-70" transform="translate(512.304688 0)"/>
      <use xlink:href="#DejaVuSans-20" transform="translate(575.78125 0)"/>
      <use xlink:href="#DejaVuSans-28" transform="translate(607.568359 0)"/>
      <use xlink:href="#DejaVuSans-66" transform="translate(646.582031 0)"/>
      <use xlink:href="#DejaVuSans-61" transform="translate(681.787109 0)"/>
      <use xlink:href="#DejaVuSans-73" transform="translate(743.066406 0)"/>
      <use xlink:href="#DejaVuSans-74" transform="translate(795.166016 0)"/>
      <use xlink:href="#DejaVuSans-69" transform="translate(834.375 0)"/>
      <use xlink:href="#DejaVuSans-6e" transform="translate(862.158203 0)"/>
      <use xlink:href="#DejaVuSans-67" transform="translate(925.537109 0)"/>
      <use xlink:href="#DejaVuSans-2c" transform="translate(989.013672 0)"/>
      <use xlink:href="#DejaVuSans-20" transform="translate(1020.800781 0)"/>
      <use xlink:href="#DejaVuSans-74" transform="translate(1052.587891 0)"/>
      <use xlink:href="#DejaVuSans-65" transform="translate(1091.796875 0)"/>
      <use xlink:href="#DejaVuSans-73" transform="translate(1153.320312 0)"/>
      <use xlink:href="#DejaVuSans-74" transform="translate(1205.419922 0)"/>
      <use xlink:href="#DejaVuSans-29" transform="translate(1244.628906 0)"/>
      <use xlink:href="#DejaVuSans-b1" transform="translate(1283.642578 0)"/>
      <use xlink:href="#DejaVuSans-53" transform="translate(1367.431641 0)"/>
      <use xlink:href="#DejaVuSans-44" transform="translate(1430.908203 0)"/>
      <use xlink:href="#DejaVuSans-20" transform="translate(1507.910156 0)"/>
      <use xlink:href="#DejaVuSans-28" transform="translate(1539.697266 0)"/>
      <use xlink:href="#DejaVuSans-6e" transform="translate(1578.710938 0)"/>
      <use xlink:href="#DejaVuSans-3d" transform="translate(1642.089844 0)"/>
      <use xlink:href="#DejaVuSans-32" transform="translate(1725.878906 0)"/>
      <use xlink:href="#DejaVuSans-34" transform="translate(1789.501953 0)"/>
      <use xlink:href="#DejaVuSans-29" transform="translate(1853.125 0)"/>
     </g>
    </g>
    <g id="line2d_22">
     <path d="M 266.800438 81.409219 
L 284.800438 81.409219 
" style="fill: none; stroke: #9467bd; stroke-width: 2; stroke-linecap: square"/>
    </g>
    <g id="line2d_23"/>
    <g id="text_14">
     <!-- 25 mg Emp (fed, test) -->
     <g transform="translate(292.000438 84.559219) scale(0.09 -0.09)">
      <defs>
       <path id="DejaVuSans-64" d="M 2906 2969 
L 2906 4863 
L 3481 4863 
L 3481 0 
L 2906 0 
L 2906 525 
Q 2725 213 2448 61 
Q 2172 -91 1784 -91 
Q 1150 -91 751 415 
Q 353 922 353 1747 
Q 353 2572 751 3078 
Q 1150 3584 1784 3584 
Q 2172 3584 2448 3432 
Q 2725 3281 2906 2969 
z
M 947 1747 
Q 947 1113 1208 752 
Q 1469 391 1925 391 
Q 2381 391 2643 752 
Q 2906 1113 2906 1747 
Q 2906 2381 2643 2742 
Q 2381 3103 1925 3103 
Q 1469 3103 1208 2742 
Q 947 2381 947 1747 
z
" transform="scale(0.015625)"/>
      </defs>
      <use xlink:href="#DejaVuSans-32"/>
      <use xlink:href="#DejaVuSans-35" transform="translate(63.623047 0)"/>
      <use xlink:href="#DejaVuSans-20" transform="translate(127.246094 0)"/>
      <use xlink:href="#DejaVuSans-6d" transform="translate(159.033203 0)"/>
      <use xlink:href="#DejaVuSans-67" transform="translate(256.445312 0)"/>
      <use xlink:href="#DejaVuSans-20" transform="translate(319.921875 0)"/>
      <use xlink:href="#DejaVuSans-45" transform="translate(351.708984 0)"/>
      <use xlink:href="#DejaVuSans-6d" transform="translate(414.892578 0)"/>
      <use xlink:href="#DejaVuSans-70" transform="translate(512.304688 0)"/>
      <use xlink:href="#DejaVuSans-20" transform="translate(575.78125 0)"/>
      <use xlink:href="#DejaVuSans-28" transform="translate(607.568359 0)"/>
      <use xlink:href="#DejaVuSans-66" transform="translate(646.582031 0)"/>
      <use xlink:href="#DejaVuSans-65" transform="translate(681.787109 0)"/>
      <use xlink:href="#DejaVuSans-64" transform="translate(743.310547 0)"/>
      <use xlink:href="#DejaVuSans-2c" transform="translate(806.787109 0)"/>
      <use xlink:href="#DejaVuSans-20" transform="translate(838.574219 0)"/>
      <use xlink:href="#DejaVuSans-74" transform="translate(870.361328 0)"/>
      <use xlink:href="#DejaVuSans-65" transform="translate(909.570312 0)"/>
      <use xlink:href="#DejaVuSans-73" transform="translate(971.09375 0)"/>
      <use xlink:href="#DejaVuSans-74" transform="translate(1023.193359 0)"/>
      <use xlink:href="#DejaVuSans-29" transform="translate(1062.402344 0)"/>
     </g>
    </g>
    <g id="LineCollection_6">
     <path d="M 275.800438 99.119531 
L 275.800438 90.119531 
" style="fill: none; stroke: #9467bd"/>
    </g>
    <g id="line2d_24">
     <path d="M 266.800438 94.619531 
L 284.800438 94.619531 
" style="fill: none; stroke-dasharray: 3.7,1.6; stroke-dashoffset: 0; stroke: #9467bd"/>
    </g>
    <g id="line2d_25">
     <g>
      <use xlink:href="#ma7629dbebb" x="275.800438" y="94.619531" style="fill: #9467bd; stroke: #000000; stroke-linejoin: miter"/>
     </g>
    </g>
    <g id="text_15">
     <!-- 25 mg Emp (fed, test)±SD (n=24) -->
     <g transform="translate(292.000438 97.769531) scale(0.09 -0.09)">
      <use xlink:href="#DejaVuSans-32"/>
      <use xlink:href="#DejaVuSans-35" transform="translate(63.623047 0)"/>
      <use xlink:href="#DejaVuSans-20" transform="translate(127.246094 0)"/>
      <use xlink:href="#DejaVuSans-6d" transform="translate(159.033203 0)"/>
      <use xlink:href="#DejaVuSans-67" transform="translate(256.445312 0)"/>
      <use xlink:href="#DejaVuSans-20" transform="translate(319.921875 0)"/>
      <use xlink:href="#DejaVuSans-45" transform="translate(351.708984 0)"/>
      <use xlink:href="#DejaVuSans-6d" transform="translate(414.892578 0)"/>
      <use xlink:href="#DejaVuSans-70" transform="translate(512.304688 0)"/>
      <use xlink:href="#DejaVuSans-20" transform="translate(575.78125 0)"/>
      <use xlink:href="#DejaVuSans-28" transform="translate(607.568359 0)"/>
      <use xlink:href="#DejaVuSans-66" transform="translate(646.582031 0)"/>
      <use xlink:href="#DejaVuSans-65" transform="translate(681.787109 0)"/>
      <use xlink:href="#DejaVuSans-64" transform="translate(743.310547 0)"/>
      <use xlink:href="#DejaVuSans-2c" transform="translate(806.787109 0)"/>
      <use xlink:href="#DejaVuSans-20" transform="translate(838.574219 0)"/>
      <use xlink:href="#DejaVuSans-74" transform="translate(870.361328 0)"/>
      <use xlink:href="#DejaVuSans-65" transform="translate(909.570312 0)"/>
      <use xlink:href="#DejaVuSans-73" transform="translate(971.09375 0)"/>
      <use xlink:href="#DejaVuSans-74" transform="translate(1023.193359 0)"/>
      <use xlink:href="#DejaVuSans-29" transform="translate(1062.402344 0)"/>
      <use xlink:href="#DejaVuSans-b1" transform="translate(1101.416016 0)"/>
      <use xlink:href="#DejaVuSans-53" transform="translate(1185.205078 0)"/>
      <use xlink:href="#DejaVuSans-44" transform="translate(1248.681641 0)"/>
      <use xlink:href="#DejaVuSans-20" transform="translate(1325.683594 0)"/>
      <use xlink:href="#DejaVuSans-28" transform="translate(1357.470703 0)"/>
      <use xlink:href="#DejaVuSans-6e" transform="translate(1396.484375 0)"/>
      <use xlink:href="#DejaVuSans-3d" transform="translate(1459.863281 0)"/>
      <use xlink:href="#DejaVuSans-32" transform="translate(1543.652344 0)"/>
      <use xlink:href="#DejaVuSans-34" transform="translate(1607.275391 0)"/>
      <use xlink:href="#DejaVuSans-29" transform="translate(1670.898438 0)"/>
     </g>
    </g>
    <g id="line2d_26">
     <path d="M 266.800438 107.829844 
L 284.800438 107.829844 
" style="fill: none; stroke: #2ca02c; stroke-width: 2; stroke-linecap: square"/>
    </g>
    <g id="line2d_27"/>
    <g id="text_16">
     <!-- 25 mg Emp (fasting, ref) -->
     <g transform="translate(292.000438 110.979844) scale(0.09 -0.09)">
      <defs>
       <path id="DejaVuSans-72" d="M 2631 2963 
Q 2534 3019 2420 3045 
Q 2306 3072 2169 3072 
Q 1681 3072 1420 2755 
Q 1159 2438 1159 1844 
L 1159 0 
L 581 0 
L 581 3500 
L 1159 3500 
L 1159 2956 
Q 1341 3275 1631 3429 
Q 1922 3584 2338 3584 
Q 2397 3584 2469 3576 
Q 2541 3569 2628 3553 
L 2631 2963 
z
" transform="scale(0.015625)"/>
      </defs>
      <use xlink:href="#DejaVuSans-32"/>
      <use xlink:href="#DejaVuSans-35" transform="translate(63.623047 0)"/>
      <use xlink:href="#DejaVuSans-20" transform="translate(127.246094 0)"/>
      <use xlink:href="#DejaVuSans-6d" transform="translate(159.033203 0)"/>
      <use xlink:href="#DejaVuSans-67" transform="translate(256.445312 0)"/>
      <use xlink:href="#DejaVuSans-20" transform="translate(319.921875 0)"/>
      <use xlink:href="#DejaVuSans-45" transform="translate(351.708984 0)"/>
      <use xlink:href="#DejaVuSans-6d" transform="translate(414.892578 0)"/>
      <use xlink:href="#DejaVuSans-70" transform="translate(512.304688 0)"/>
      <use xlink:href="#DejaVuSans-20" transform="translate(575.78125 0)"/>
      <use xlink:href="#DejaVuSans-28" transform="translate(607.568359 0)"/>
      <use xlink:href="#DejaVuSans-66" transform="translate(646.582031 0)"/>
      <use xlink:href="#DejaVuSans-61" transform="translate(681.787109 0)"/>
      <use xlink:href="#DejaVuSans-73" transform="translate(743.066406 0)"/>
      <use xlink:href="#DejaVuSans-74" transform="translate(795.166016 0)"/>
      <use xlink:href="#DejaVuSans-69" transform="translate(834.375 0)"/>
      <use xlink:href="#DejaVuSans-6e" transform="translate(862.158203 0)"/>
      <use xlink:href="#DejaVuSans-67" transform="translate(925.537109 0)"/>
      <use xlink:href="#DejaVuSans-2c" transform="translate(989.013672 0)"/>
      <use xlink:href="#DejaVuSans-20" transform="translate(1020.800781 0)"/>
      <use xlink:href="#DejaVuSans-72" transform="translate(1052.587891 0)"/>
      <use xlink:href="#DejaVuSans-65" transform="translate(1091.451172 0)"/>
      <use xlink:href="#DejaVuSans-66" transform="translate(1152.974609 0)"/>
      <use xlink:href="#DejaVuSans-29" transform="translate(1188.179688 0)"/>
     </g>
    </g>
    <g id="LineCollection_7">
     <path d="M 275.800438 125.540156 
L 275.800438 116.540156 
" style="fill: none; stroke: #2ca02c"/>
    </g>
    <g id="line2d_28">
     <path d="M 266.800438 121.040156 
L 284.800438 121.040156 
" style="fill: none; stroke-dasharray: 3.7,1.6; stroke-dashoffset: 0; stroke: #2ca02c"/>
    </g>
    <g id="line2d_29">
     <g>
      <use xlink:href="#mcba35aa906" x="275.800438" y="121.040156" style="fill: #2ca02c; stroke: #000000; stroke-linejoin: miter"/>
     </g>
    </g>
    <g id="text_17">
     <!-- 25 mg Emp (fasting, ref)±SD (n=24) -->
     <g transform="translate(292.000438 124.190156) scale(0.09 -0.09)">
      <use xlink:href="#DejaVuSans-32"/>
      <use xlink:href="#DejaVuSans-35" transform="translate(63.623047 0)"/>
      <use xlink:href="#DejaVuSans-20" transform="translate(127.246094 0)"/>
      <use xlink:href="#DejaVuSans-6d" transform="translate(159.033203 0)"/>
      <use xlink:href="#DejaVuSans-67" transform="translate(256.445312 0)"/>
      <use xlink:href="#DejaVuSans-20" transform="translate(319.921875 0)"/>
      <use xlink:href="#DejaVuSans-45" transform="translate(351.708984 0)"/>
      <use xlink:href="#DejaVuSans-6d" transform="translate(414.892578 0)"/>
      <use xlink:href="#DejaVuSans-70" transform="translate(512.304688 0)"/>
      <use xlink:href="#DejaVuSans-20" transform="translate(575.78125 0)"/>
      <use xlink:href="#DejaVuSans-28" transform="translate(607.568359 0)"/>
      <use xlink:href="#DejaVuSans-66" transform="translate(646.582031 0)"/>
      <use xlink:href="#DejaVuSans-61" transform="translate(681.787109 0)"/>
      <use xlink:href="#DejaVuSans-73" transform="translate(743.066406 0)"/>
      <use xlink:href="#DejaVuSans-74" transform="translate(795.166016 0)"/>
      <use xlink:href="#DejaVuSans-69" transform="translate(834.375 0)"/>
      <use xlink:href="#DejaVuSans-6e" transform="translate(862.158203 0)"/>
      <use xlink:href="#DejaVuSans-67" transform="translate(925.537109 0)"/>
      <use xlink:href="#DejaVuSans-2c" transform="translate(989.013672 0)"/>
      <use xlink:href="#DejaVuSans-20" transform="translate(1020.800781 0)"/>
      <use xlink:href="#DejaVuSans-72" transform="translate(1052.587891 0)"/>
      <use xlink:href="#DejaVuSans-65" transform="translate(1091.451172 0)"/>
      <use xlink:href="#DejaVuSans-66" transform="translate(1152.974609 0)"/>
      <use xlink:href="#DejaVuSans-29" transform="translate(1188.179688 0)"/>
      <use xlink:href="#DejaVuSans-b1" transform="translate(1227.193359 0)"/>
      <use xlink:href="#DejaVuSans-53" transform="translate(1310.982422 0)"/>
      <use xlink:href="#DejaVuSans-44" transform="translate(1374.458984 0)"/>
      <use xlink:href="#DejaVuSans-20" transform="translate(1451.460938 0)"/>
      <use xlink:href="#DejaVuSans-28" transform="translate(1483.248047 0)"/>
      <use xlink:href="#DejaVuSans-6e" transform="translate(1522.261719 0)"/>
      <use xlink:href="#DejaVuSans-3d" transform="translate(1585.640625 0)"/>
      <use xlink:href="#DejaVuSans-32" transform="translate(1669.429688 0)"/>
      <use xlink:href="#DejaVuSans-34" transform="translate(1733.052734 0)"/>
      <use xlink:href="#DejaVuSans-29" transform="translate(1796.675781 0)"/>
     </g>
    </g>
    <g id="line2d_30">
     <path d="M 266.800438 134.250469 
L 284.800438 134.250469 
" style="fill: none; stroke: #ff7f0e; stroke-width: 2; stroke-linecap: square"/>
    </g>
    <g id="line2d_31"/>
    <g id="text_18">
     <!-- 25 mg Emp (fed, ref) -->
     <g transform="translate(292.000438 137.400469) scale(0.09 -0.09)">
      <use xlink:href="#DejaVuSans-32"/>
      <use xlink:href="#DejaVuSans-35" transform="translate(63.623047 0)"/>
      <use xlink:href="#DejaVuSans-20" transform="translate(127.246094 0)"/>
      <use xlink:href="#DejaVuSans-6d" transform="translate(159.033203 0)"/>
      <use xlink:href="#DejaVuSans-67" transform="translate(256.445312 0)"/>
      <use xlink:href="#DejaVuSans-20" transform="translate(319.921875 0)"/>
      <use xlink:href="#DejaVuSans-45" transform="translate(351.708984 0)"/>
      <use xlink:href="#DejaVuSans-6d" transform="translate(414.892578 0)"/>
      <use xlink:href="#DejaVuSans-70" transform="translate(512.304688 0)"/>
      <use xlink:href="#DejaVuSans-20" transform="translate(575.78125 0)"/>
      <use xlink:href="#DejaVuSans-28" transform="translate(607.568359 0)"/>
      <use xlink:href="#DejaVuSans-66" transform="translate(646.582031 0)"/>
      <use xlink:href="#DejaVuSans-65" transform="translate(681.787109 0)"/>
      <use xlink:href="#DejaVuSans-64" transform="translate(743.310547 0)"/>
      <use xlink:href="#DejaVuSans-2c" transform="translate(806.787109 0)"/>
      <use xlink:href="#DejaVuSans-20" transform="translate(838.574219 0)"/>
      <use xlink:href="#DejaVuSans-72" transform="translate(870.361328 0)"/>
      <use xlink:href="#DejaVuSans-65" transform="translate(909.224609 0)"/>
      <use xlink:href="#DejaVuSans-66" transform="translate(970.748047 0)"/>
      <use xlink:href="#DejaVuSans-29" transform="translate(1005.953125 0)"/>
     </g>
    </g>
    <g id="LineCollection_8">
     <path d="M 275.800438 151.960781 
L 275.800438 142.960781 
" style="fill: none; stroke: #ff7f0e"/>
    </g>
    <g id="line2d_32">
     <path d="M 266.800438 147.460781 
L 284.800438 147.460781 
" style="fill: none; stroke-dasharray: 3.7,1.6; stroke-dashoffset: 0; stroke: #ff7f0e"/>
    </g>
    <g id="line2d_33">
     <g>
      <use xlink:href="#mfa905580ce" x="275.800438" y="147.460781" style="fill: #ff7f0e; stroke: #000000; stroke-linejoin: miter"/>
     </g>
    </g>
    <g id="text_19">
     <!-- 25 mg Emp (fed, ref)±SD (n=24) -->
     <g transform="translate(292.000438 150.610781) scale(0.09 -0.09)">
      <use xlink:href="#DejaVuSans-32"/>
      <use xlink:href="#DejaVuSans-35" transform="translate(63.623047 0)"/>
      <use xlink:href="#DejaVuSans-20" transform="translate(127.246094 0)"/>
      <use xlink:href="#DejaVuSans-6d" transform="translate(159.033203 0)"/>
      <use xlink:href="#DejaVuSans-67" transform="translate(256.445312 0)"/>
      <use xlink:href="#DejaVuSans-20" transform="translate(319.921875 0)"/>
      <use xlink:href="#DejaVuSans-45" transform="translate(351.708984 0)"/>
      <use xlink:href="#DejaVuSans-6d" transform="translate(414.892578 0)"/>
      <use xlink:href="#DejaVuSans-70" transform="translate(512.304688 0)"/>
      <use xlink:href="#DejaVuSans-20" transform="translate(575.78125 0)"/>
      <use xlink:href="#DejaVuSans-28" transform="translate(607.568359 0)"/>
      <use xlink:href="#DejaVuSans-66" transform="translate(646.582031 0)"/>
      <use xlink:href="#DejaVuSans-65" transform="translate(681.787109 0)"/>
      <use xlink:href="#DejaVuSans-64" transform="translate(743.310547 0)"/>
      <use xlink:href="#DejaVuSans-2c" transform="translate(806.787109 0)"/>
      <use xlink:href="#DejaVuSans-20" transform="translate(838.574219 0)"/>
      <use xlink:href="#DejaVuSans-72" transform="translate(870.361328 0)"/>
      <use xlink:href="#DejaVuSans-65" transform="translate(909.224609 0)"/>
      <use xlink:href="#DejaVuSans-66" transform="translate(970.748047 0)"/>
      <use xlink:href="#DejaVuSans-29" transform="translate(1005.953125 0)"/>
      <use xlink:href="#DejaVuSans-b1" transform="translate(1044.966797 0)"/>
      <use xlink:href="#DejaVuSans-53" transform="translate(1128.755859 0)"/>
      <use xlink:href="#DejaVuSans-44" transform="translate(1192.232422 0)"/>
      <use xlink:href="#DejaVuSans-20" transform="translate(1269.234375 0)"/>
      <use xlink:href="#DejaVuSans-28" transform="translate(1301.021484 0)"/>
      <use xlink:href="#DejaVuSans-6e" transform="translate(1340.035156 0)"/>
      <use xlink:href="#DejaVuSans-3d" transform="translate(1403.414062 0)"/>
      <use xlink:href="#DejaVuSans-32" transform="translate(1487.203125 0)"/>
      <use xlink:href="#DejaVuSans-34" transform="translate(1550.826172 0)"/>
      <use xlink:href="#DejaVuSans-29" transform="translate(1614.449219 0)"/>
     </g>
    </g>
   </g>
  </g>
  <g id="text_20">
   <!-- Li2020 (Healthy) -->
   <g transform="translate(151.293641 26.196094) scale(0.25 -0.25)">
    <defs>
     <path id="DejaVuSans-Bold-4c" d="M 588 4666 
L 1791 4666 
L 1791 909 
L 3903 909 
L 3903 0 
L 588 0 
L 588 4666 
z
" transform="scale(0.015625)"/>
     <path id="DejaVuSans-Bold-32" d="M 1844 884 
L 3897 884 
L 3897 0 
L 506 0 
L 506 884 
L 2209 2388 
Q 2438 2594 2547 2791 
Q 2656 2988 2656 3200 
Q 2656 3528 2436 3728 
Q 2216 3928 1850 3928 
Q 1569 3928 1234 3808 
Q 900 3688 519 3450 
L 519 4475 
Q 925 4609 1322 4679 
Q 1719 4750 2100 4750 
Q 2938 4750 3402 4381 
Q 3866 4013 3866 3353 
Q 3866 2972 3669 2642 
Q 3472 2313 2841 1759 
L 1844 884 
z
" transform="scale(0.015625)"/>
     <path id="DejaVuSans-Bold-30" d="M 2944 2338 
Q 2944 3213 2780 3570 
Q 2616 3928 2228 3928 
Q 1841 3928 1675 3570 
Q 1509 3213 1509 2338 
Q 1509 1453 1675 1090 
Q 1841 728 2228 728 
Q 2613 728 2778 1090 
Q 2944 1453 2944 2338 
z
M 4147 2328 
Q 4147 1169 3647 539 
Q 3147 -91 2228 -91 
Q 1306 -91 806 539 
Q 306 1169 306 2328 
Q 306 3491 806 4120 
Q 1306 4750 2228 4750 
Q 3147 4750 3647 4120 
Q 4147 3491 4147 2328 
z
" transform="scale(0.015625)"/>
     <path id="DejaVuSans-Bold-28" d="M 2413 -844 
L 1484 -844 
Q 1006 -72 778 623 
Q 550 1319 550 2003 
Q 550 2688 779 3389 
Q 1009 4091 1484 4856 
L 2413 4856 
Q 2013 4116 1813 3408 
Q 1613 2700 1613 2009 
Q 1613 1319 1811 609 
Q 2009 -100 2413 -844 
z
" transform="scale(0.015625)"/>
     <path id="DejaVuSans-Bold-48" d="M 588 4666 
L 1791 4666 
L 1791 2888 
L 3566 2888 
L 3566 4666 
L 4769 4666 
L 4769 0 
L 3566 0 
L 3566 1978 
L 1791 1978 
L 1791 0 
L 588 0 
L 588 4666 
z
" transform="scale(0.015625)"/>
     <path id="DejaVuSans-Bold-74" d="M 1759 4494 
L 1759 3500 
L 2913 3500 
L 2913 2700 
L 1759 2700 
L 1759 1216 
Q 1759 972 1856 886 
Q 1953 800 2241 800 
L 2816 800 
L 2816 0 
L 1856 0 
Q 1194 0 917 276 
Q 641 553 641 1216 
L 641 2700 
L 84 2700 
L 84 3500 
L 641 3500 
L 641 4494 
L 1759 4494 
z
" transform="scale(0.015625)"/>
     <path id="DejaVuSans-Bold-79" d="M 78 3500 
L 1197 3500 
L 2138 1125 
L 2938 3500 
L 4056 3500 
L 2584 -331 
Q 2363 -916 2067 -1148 
Q 1772 -1381 1288 -1381 
L 641 -1381 
L 641 -647 
L 991 -647 
Q 1275 -647 1404 -556 
Q 1534 -466 1606 -231 
L 1638 -134 
L 78 3500 
z
" transform="scale(0.015625)"/>
     <path id="DejaVuSans-Bold-29" d="M 513 -844 
Q 913 -100 1113 609 
Q 1313 1319 1313 2009 
Q 1313 2700 1113 3408 
Q 913 4116 513 4856 
L 1441 4856 
Q 1916 4091 2145 3389 
Q 2375 2688 2375 2003 
Q 2375 1319 2147 623 
Q 1919 -72 1441 -844 
L 513 -844 
z
" transform="scale(0.015625)"/>
    </defs>
    <use xlink:href="#DejaVuSans-Bold-4c"/>
    <use xlink:href="#DejaVuSans-Bold-69" transform="translate(63.720703 0)"/>
    <use xlink:href="#DejaVuSans-Bold-32" transform="translate(97.998047 0)"/>
    <use xlink:href="#DejaVuSans-Bold-30" transform="translate(167.578125 0)"/>
    <use xlink:href="#DejaVuSans-Bold-32" transform="translate(237.158203 0)"/>
    <use xlink:href="#DejaVuSans-Bold-30" transform="translate(306.738281 0)"/>
    <use xlink:href="#DejaVuSans-Bold-20" transform="translate(376.318359 0)"/>
    <use xlink:href="#DejaVuSans-Bold-28" transform="translate(411.132812 0)"/>
    <use xlink:href="#DejaVuSans-Bold-48" transform="translate(456.835938 0)"/>
    <use xlink:href="#DejaVuSans-Bold-65" transform="translate(540.527344 0)"/>
    <use xlink:href="#DejaVuSans-Bold-61" transform="translate(608.349609 0)"/>
    <use xlink:href="#DejaVuSans-Bold-6c" transform="translate(675.830078 0)"/>
    <use xlink:href="#DejaVuSans-Bold-74" transform="translate(710.107422 0)"/>
    <use xlink:href="#DejaVuSans-Bold-68" transform="translate(757.910156 0)"/>
    <use xlink:href="#DejaVuSans-Bold-79" transform="translate(829.101562 0)"/>
    <use xlink:href="#DejaVuSans-Bold-29" transform="translate(894.287109 0)"/>
   </g>
  </g>
 </g>
 <defs>
  <clipPath id="p562569ffa1">
   <rect x="79.791687" y="43.2" width="390.6" height="277.2"/>
  </clipPath>
 </defs>
</svg>
