<?xml version="1.0" encoding="utf-8" standalone="no"?>
<!DOCTYPE svg PUBLIC "-//W3C//DTD SVG 1.1//EN"
  "http://www.w3.org/Graphics/SVG/1.1/DTD/svg11.dtd">
<svg xmlns:xlink="http://www.w3.org/1999/xlink" width="477.591687pt" height="370.537812pt" viewBox="0 0 477.591687 370.537812" xmlns="http://www.w3.org/2000/svg" version="1.1">
 <metadata>
  <rdf:RDF xmlns:dc="http://purl.org/dc/elements/1.1/" xmlns:cc="http://creativecommons.org/ns#" xmlns:rdf="http://www.w3.org/1999/02/22-rdf-syntax-ns#">
   <cc:Work>
    <dc:type rdf:resource="http://purl.org/dc/dcmitype/StillImage"/>
    <dc:date>2026-02-04T11:46:05.130564</dc:date>
    <dc:format>image/svg+xml</dc:format>
    <dc:creator>
     <cc:Agent>
      <dc:title>Matplotlib v3.10.7, https://matplotlib.org/</dc:title>
     </cc:Agent>
    </dc:creator>
   </cc:Work>
  </rdf:RDF>
 </metadata>
 <defs>
  <style type="text/css">*{stroke-linejoin: round; stroke-linecap: butt}</style>
 </defs>
 <g id="figure_1">
  <g id="patch_1">
   <path d="M 0 370.537812 
L 477.591687 370.537812 
L 477.591687 0 
L 0 0 
z
" style="fill: #ffffff"/>
  </g>
  <g id="axes_1">
   <g id="patch_2">
    <path d="M 79.791687 320.4 
L 470.391687 320.4 
L 470.391687 43.2 
L 79.791687 43.2 
z
" style="fill: #ffffff"/>
   </g>
   <g id="matplotlib.axis_1">
    <g id="xtick_1">
     <g id="line2d_1">
      <defs>
       <path id="me6e83a81f6" d="M 0 0 
L 0 3.5 
" style="stroke: #000000; stroke-width: 0.8"/>
      </defs>
      <g>
       <use xlink:href="#me6e83a81f6" x="97.546233" y="320.4" style="stroke: #000000; stroke-width: 0.8"/>
      </g>
     </g>
     <g id="text_1">
      <!-- 0 -->
      <g transform="translate(92.774358 338.797656) scale(0.15 -0.15)">
       <defs>
        <path id="DejaVuSans-30" d="M 2034 4250 
Q 1547 4250 1301 3770 
Q 1056 3291 1056 2328 
Q 1056 1369 1301 889 
Q 1547 409 2034 409 
Q 2525 409 2770 889 
Q 3016 1369 3016 2328 
Q 3016 3291 2770 3770 
Q 2525 4250 2034 4250 
z
M 2034 4750 
Q 2819 4750 3233 4129 
Q 3647 3509 3647 2328 
Q 3647 1150 3233 529 
Q 2819 -91 2034 -91 
Q 1250 -91 836 529 
Q 422 1150 422 2328 
Q 422 3509 836 4129 
Q 1250 4750 2034 4750 
z
" transform="scale(0.015625)"/>
       </defs>
       <use xlink:href="#DejaVuSans-30"/>
      </g>
     </g>
    </g>
    <g id="xtick_2">
     <g id="line2d_2">
      <g>
       <use xlink:href="#me6e83a81f6" x="194.831414" y="320.4" style="stroke: #000000; stroke-width: 0.8"/>
      </g>
     </g>
     <g id="text_2">
      <!-- 20 -->
      <g transform="translate(185.287664 338.797656) scale(0.15 -0.15)">
       <defs>
        <path id="DejaVuSans-32" d="M 1228 531 
L 3431 531 
L 3431 0 
L 469 0 
L 469 531 
Q 828 903 1448 1529 
Q 2069 2156 2228 2338 
Q 2531 2678 2651 2914 
Q 2772 3150 2772 3378 
Q 2772 3750 2511 3984 
Q 2250 4219 1831 4219 
Q 1534 4219 1204 4116 
Q 875 4013 500 3803 
L 500 4441 
Q 881 4594 1212 4672 
Q 1544 4750 1819 4750 
Q 2544 4750 2975 4387 
Q 3406 4025 3406 3419 
Q 3406 3131 3298 2873 
Q 3191 2616 2906 2266 
Q 2828 2175 2409 1742 
Q 1991 1309 1228 531 
z
" transform="scale(0.015625)"/>
       </defs>
       <use xlink:href="#DejaVuSans-32"/>
       <use xlink:href="#DejaVuSans-30" transform="translate(63.623047 0)"/>
      </g>
     </g>
    </g>
    <g id="xtick_3">
     <g id="line2d_3">
      <g>
       <use xlink:href="#me6e83a81f6" x="292.116594" y="320.4" style="stroke: #000000; stroke-width: 0.8"/>
      </g>
     </g>
     <g id="text_3">
      <!-- 40 -->
      <g transform="translate(282.572844 338.797656) scale(0.15 -0.15)">
       <defs>
        <path id="DejaVuSans-34" d="M 2419 4116 
L 825 1625 
L 2419 1625 
L 2419 4116 
z
M 2253 4666 
L 3047 4666 
L 3047 1625 
L 3713 1625 
L 3713 1100 
L 3047 1100 
L 3047 0 
L 2419 0 
L 2419 1100 
L 313 1100 
L 313 1709 
L 2253 4666 
z
" transform="scale(0.015625)"/>
       </defs>
       <use xlink:href="#DejaVuSans-34"/>
       <use xlink:href="#DejaVuSans-30" transform="translate(63.623047 0)"/>
      </g>
     </g>
    </g>
    <g id="xtick_4">
     <g id="line2d_4">
      <g>
       <use xlink:href="#me6e83a81f6" x="389.401775" y="320.4" style="stroke: #000000; stroke-width: 0.8"/>
      </g>
     </g>
     <g id="text_4">
      <!-- 60 -->
      <g transform="translate(379.858025 338.797656) scale(0.15 -0.15)">
       <defs>
        <path id="DejaVuSans-36" d="M 2113 2584 
Q 1688 2584 1439 2293 
Q 1191 2003 1191 1497 
Q 1191 994 1439 701 
Q 1688 409 2113 409 
Q 2538 409 2786 701 
Q 3034 994 3034 1497 
Q 3034 2003 2786 2293 
Q 2538 2584 2113 2584 
z
M 3366 4563 
L 3366 3988 
Q 3128 4100 2886 4159 
Q 2644 4219 2406 4219 
Q 1781 4219 1451 3797 
Q 1122 3375 1075 2522 
Q 1259 2794 1537 2939 
Q 1816 3084 2150 3084 
Q 2853 3084 3261 2657 
Q 3669 2231 3669 1497 
Q 3669 778 3244 343 
Q 2819 -91 2113 -91 
Q 1303 -91 875 529 
Q 447 1150 447 2328 
Q 447 3434 972 4092 
Q 1497 4750 2381 4750 
Q 2619 4750 2861 4703 
Q 3103 4656 3366 4563 
z
" transform="scale(0.015625)"/>
       </defs>
       <use xlink:href="#DejaVuSans-36"/>
       <use xlink:href="#DejaVuSans-30" transform="translate(63.623047 0)"/>
      </g>
     </g>
    </g>
    <g id="text_5">
     <!-- Time [hr] -->
     <g transform="translate(228.179188 359.594375) scale(0.18 -0.18)">
      <defs>
       <path id="DejaVuSans-Bold-54" d="M 31 4666 
L 4331 4666 
L 4331 3756 
L 2784 3756 
L 2784 0 
L 1581 0 
L 1581 3756 
L 31 3756 
L 31 4666 
z
" transform="scale(0.015625)"/>
       <path id="DejaVuSans-Bold-69" d="M 538 3500 
L 1656 3500 
L 1656 0 
L 538 0 
L 538 3500 
z
M 538 4863 
L 1656 4863 
L 1656 3950 
L 538 3950 
L 538 4863 
z
" transform="scale(0.015625)"/>
       <path id="DejaVuSans-Bold-6d" d="M 3781 2919 
Q 3994 3244 4286 3414 
Q 4578 3584 4928 3584 
Q 5531 3584 5847 3212 
Q 6163 2841 6163 2131 
L 6163 0 
L 5038 0 
L 5038 1825 
Q 5041 1866 5042 1909 
Q 5044 1953 5044 2034 
Q 5044 2406 4934 2573 
Q 4825 2741 4581 2741 
Q 4263 2741 4089 2478 
Q 3916 2216 3909 1719 
L 3909 0 
L 2784 0 
L 2784 1825 
Q 2784 2406 2684 2573 
Q 2584 2741 2328 2741 
Q 2006 2741 1831 2477 
Q 1656 2213 1656 1722 
L 1656 0 
L 531 0 
L 531 3500 
L 1656 3500 
L 1656 2988 
Q 1863 3284 2130 3434 
Q 2397 3584 2719 3584 
Q 3081 3584 3359 3409 
Q 3638 3234 3781 2919 
z
" transform="scale(0.015625)"/>
       <path id="DejaVuSans-Bold-65" d="M 4031 1759 
L 4031 1441 
L 1416 1441 
Q 1456 1047 1700 850 
Q 1944 653 2381 653 
Q 2734 653 3104 758 
Q 3475 863 3866 1075 
L 3866 213 
Q 3469 63 3072 -14 
Q 2675 -91 2278 -91 
Q 1328 -91 801 392 
Q 275 875 275 1747 
Q 275 2603 792 3093 
Q 1309 3584 2216 3584 
Q 3041 3584 3536 3087 
Q 4031 2591 4031 1759 
z
M 2881 2131 
Q 2881 2450 2695 2645 
Q 2509 2841 2209 2841 
Q 1884 2841 1681 2658 
Q 1478 2475 1428 2131 
L 2881 2131 
z
" transform="scale(0.015625)"/>
       <path id="DejaVuSans-Bold-20" transform="scale(0.015625)"/>
       <path id="DejaVuSans-Bold-5b" d="M 550 4863 
L 2491 4863 
L 2491 4159 
L 1613 4159 
L 1613 -141 
L 2491 -141 
L 2491 -844 
L 550 -844 
L 550 4863 
z
" transform="scale(0.015625)"/>
       <path id="DejaVuSans-Bold-68" d="M 4056 2131 
L 4056 0 
L 2931 0 
L 2931 347 
L 2931 1625 
Q 2931 2084 2911 2256 
Q 2891 2428 2841 2509 
Q 2775 2619 2662 2680 
Q 2550 2741 2406 2741 
Q 2056 2741 1856 2470 
Q 1656 2200 1656 1722 
L 1656 0 
L 538 0 
L 538 4863 
L 1656 4863 
L 1656 2988 
Q 1909 3294 2193 3439 
Q 2478 3584 2822 3584 
Q 3428 3584 3742 3212 
Q 4056 2841 4056 2131 
z
" transform="scale(0.015625)"/>
       <path id="DejaVuSans-Bold-72" d="M 3138 2547 
Q 2991 2616 2845 2648 
Q 2700 2681 2553 2681 
Q 2122 2681 1889 2404 
Q 1656 2128 1656 1613 
L 1656 0 
L 538 0 
L 538 3500 
L 1656 3500 
L 1656 2925 
Q 1872 3269 2151 3426 
Q 2431 3584 2822 3584 
Q 2878 3584 2943 3579 
Q 3009 3575 3134 3559 
L 3138 2547 
z
" transform="scale(0.015625)"/>
       <path id="DejaVuSans-Bold-5d" d="M 2375 -844 
L 434 -844 
L 434 -141 
L 1313 -141 
L 1313 4159 
L 434 4159 
L 434 4863 
L 2375 4863 
L 2375 -844 
z
" transform="scale(0.015625)"/>
      </defs>
      <use xlink:href="#DejaVuSans-Bold-54"/>
      <use xlink:href="#DejaVuSans-Bold-69" transform="translate(68.212891 0)"/>
      <use xlink:href="#DejaVuSans-Bold-6d" transform="translate(102.490234 0)"/>
      <use xlink:href="#DejaVuSans-Bold-65" transform="translate(206.689453 0)"/>
      <use xlink:href="#DejaVuSans-Bold-20" transform="translate(274.511719 0)"/>
      <use xlink:href="#DejaVuSans-Bold-5b" transform="translate(309.326172 0)"/>
      <use xlink:href="#DejaVuSans-Bold-68" transform="translate(355.029297 0)"/>
      <use xlink:href="#DejaVuSans-Bold-72" transform="translate(426.220703 0)"/>
      <use xlink:href="#DejaVuSans-Bold-5d" transform="translate(475.537109 0)"/>
     </g>
    </g>
   </g>
   <g id="matplotlib.axis_2">
    <g id="ytick_1">
     <g id="line2d_5">
      <defs>
       <path id="maa91a07bf5" d="M 0 0 
L -3.5 0 
" style="stroke: #000000; stroke-width: 0.8"/>
      </defs>
      <g>
       <use xlink:href="#maa91a07bf5" x="79.791687" y="295.791633" style="stroke: #000000; stroke-width: 0.8"/>
      </g>
     </g>
     <g id="text_6">
      <!-- 0.0 -->
      <g transform="translate(48.937 301.490461) scale(0.15 -0.15)">
       <defs>
        <path id="DejaVuSans-2e" d="M 684 794 
L 1344 794 
L 1344 0 
L 684 0 
L 684 794 
z
" transform="scale(0.015625)"/>
       </defs>
       <use xlink:href="#DejaVuSans-30"/>
       <use xlink:href="#DejaVuSans-2e" transform="translate(63.623047 0)"/>
       <use xlink:href="#DejaVuSans-30" transform="translate(95.410156 0)"/>
      </g>
     </g>
    </g>
    <g id="ytick_2">
     <g id="line2d_6">
      <g>
       <use xlink:href="#maa91a07bf5" x="79.791687" y="246.574899" style="stroke: #000000; stroke-width: 0.8"/>
      </g>
     </g>
     <g id="text_7">
      <!-- 0.1 -->
      <g transform="translate(48.937 252.273727) scale(0.15 -0.15)">
       <defs>
        <path id="DejaVuSans-31" d="M 794 531 
L 1825 531 
L 1825 4091 
L 703 3866 
L 703 4441 
L 1819 4666 
L 2450 4666 
L 2450 531 
L 3481 531 
L 3481 0 
L 794 0 
L 794 531 
z
" transform="scale(0.015625)"/>
       </defs>
       <use xlink:href="#DejaVuSans-30"/>
       <use xlink:href="#DejaVuSans-2e" transform="translate(63.623047 0)"/>
       <use xlink:href="#DejaVuSans-31" transform="translate(95.410156 0)"/>
      </g>
     </g>
    </g>
    <g id="ytick_3">
     <g id="line2d_7">
      <g>
       <use xlink:href="#maa91a07bf5" x="79.791687" y="197.358164" style="stroke: #000000; stroke-width: 0.8"/>
      </g>
     </g>
     <g id="text_8">
      <!-- 0.2 -->
      <g transform="translate(48.937 203.056993) scale(0.15 -0.15)">
       <use xlink:href="#DejaVuSans-30"/>
       <use xlink:href="#DejaVuSans-2e" transform="translate(63.623047 0)"/>
       <use xlink:href="#DejaVuSans-32" transform="translate(95.410156 0)"/>
      </g>
     </g>
    </g>
    <g id="ytick_4">
     <g id="line2d_8">
      <g>
       <use xlink:href="#maa91a07bf5" x="79.791687" y="148.14143" style="stroke: #000000; stroke-width: 0.8"/>
      </g>
     </g>
     <g id="text_9">
      <!-- 0.3 -->
      <g transform="translate(48.937 153.840258) scale(0.15 -0.15)">
       <defs>
        <path id="DejaVuSans-33" d="M 2597 2516 
Q 3050 2419 3304 2112 
Q 3559 1806 3559 1356 
Q 3559 666 3084 287 
Q 2609 -91 1734 -91 
Q 1441 -91 1130 -33 
Q 819 25 488 141 
L 488 750 
Q 750 597 1062 519 
Q 1375 441 1716 441 
Q 2309 441 2620 675 
Q 2931 909 2931 1356 
Q 2931 1769 2642 2001 
Q 2353 2234 1838 2234 
L 1294 2234 
L 1294 2753 
L 1863 2753 
Q 2328 2753 2575 2939 
Q 2822 3125 2822 3475 
Q 2822 3834 2567 4026 
Q 2313 4219 1838 4219 
Q 1578 4219 1281 4162 
Q 984 4106 628 3988 
L 628 4550 
Q 988 4650 1302 4700 
Q 1616 4750 1894 4750 
Q 2613 4750 3031 4423 
Q 3450 4097 3450 3541 
Q 3450 3153 3228 2886 
Q 3006 2619 2597 2516 
z
" transform="scale(0.015625)"/>
       </defs>
       <use xlink:href="#DejaVuSans-30"/>
       <use xlink:href="#DejaVuSans-2e" transform="translate(63.623047 0)"/>
       <use xlink:href="#DejaVuSans-33" transform="translate(95.410156 0)"/>
      </g>
     </g>
    </g>
    <g id="ytick_5">
     <g id="line2d_9">
      <g>
       <use xlink:href="#maa91a07bf5" x="79.791687" y="98.924696" style="stroke: #000000; stroke-width: 0.8"/>
      </g>
     </g>
     <g id="text_10">
      <!-- 0.4 -->
      <g transform="translate(48.937 104.623524) scale(0.15 -0.15)">
       <use xlink:href="#DejaVuSans-30"/>
       <use xlink:href="#DejaVuSans-2e" transform="translate(63.623047 0)"/>
       <use xlink:href="#DejaVuSans-34" transform="translate(95.410156 0)"/>
      </g>
     </g>
    </g>
    <g id="ytick_6">
     <g id="line2d_10">
      <g>
       <use xlink:href="#maa91a07bf5" x="79.791687" y="49.707962" style="stroke: #000000; stroke-width: 0.8"/>
      </g>
     </g>
     <g id="text_11">
      <!-- 0.5 -->
      <g transform="translate(48.937 55.40679) scale(0.15 -0.15)">
       <defs>
        <path id="DejaVuSans-35" d="M 691 4666 
L 3169 4666 
L 3169 4134 
L 1269 4134 
L 1269 2991 
Q 1406 3038 1543 3061 
Q 1681 3084 1819 3084 
Q 2600 3084 3056 2656 
Q 3513 2228 3513 1497 
Q 3513 744 3044 326 
Q 2575 -91 1722 -91 
Q 1428 -91 1123 -41 
Q 819 9 494 109 
L 494 744 
Q 775 591 1075 516 
Q 1375 441 1709 441 
Q 2250 441 2565 725 
Q 2881 1009 2881 1497 
Q 2881 1984 2565 2268 
Q 2250 2553 1709 2553 
Q 1456 2553 1204 2497 
Q 953 2441 691 2322 
L 691 4666 
z
" transform="scale(0.015625)"/>
       </defs>
       <use xlink:href="#DejaVuSans-30"/>
       <use xlink:href="#DejaVuSans-2e" transform="translate(63.623047 0)"/>
       <use xlink:href="#DejaVuSans-35" transform="translate(95.410156 0)"/>
      </g>
     </g>
    </g>
    <g id="text_12">
     <!-- Empagliflozin Plasma -->
     <g transform="translate(20.877187 290.065781) rotate(-90) scale(0.18 -0.18)">
      <defs>
       <path id="DejaVuSans-Bold-45" d="M 588 4666 
L 3834 4666 
L 3834 3756 
L 1791 3756 
L 1791 2888 
L 3713 2888 
L 3713 1978 
L 1791 1978 
L 1791 909 
L 3903 909 
L 3903 0 
L 588 0 
L 588 4666 
z
" transform="scale(0.015625)"/>
       <path id="DejaVuSans-Bold-70" d="M 1656 506 
L 1656 -1331 
L 538 -1331 
L 538 3500 
L 1656 3500 
L 1656 2988 
Q 1888 3294 2169 3439 
Q 2450 3584 2816 3584 
Q 3463 3584 3878 3070 
Q 4294 2556 4294 1747 
Q 4294 938 3878 423 
Q 3463 -91 2816 -91 
Q 2450 -91 2169 54 
Q 1888 200 1656 506 
z
M 2400 2772 
Q 2041 2772 1848 2508 
Q 1656 2244 1656 1747 
Q 1656 1250 1848 986 
Q 2041 722 2400 722 
Q 2759 722 2948 984 
Q 3138 1247 3138 1747 
Q 3138 2247 2948 2509 
Q 2759 2772 2400 2772 
z
" transform="scale(0.015625)"/>
       <path id="DejaVuSans-Bold-61" d="M 2106 1575 
Q 1756 1575 1579 1456 
Q 1403 1338 1403 1106 
Q 1403 894 1545 773 
Q 1688 653 1941 653 
Q 2256 653 2472 879 
Q 2688 1106 2688 1447 
L 2688 1575 
L 2106 1575 
z
M 3816 1997 
L 3816 0 
L 2688 0 
L 2688 519 
Q 2463 200 2181 54 
Q 1900 -91 1497 -91 
Q 953 -91 614 226 
Q 275 544 275 1050 
Q 275 1666 698 1953 
Q 1122 2241 2028 2241 
L 2688 2241 
L 2688 2328 
Q 2688 2594 2478 2717 
Q 2269 2841 1825 2841 
Q 1466 2841 1156 2769 
Q 847 2697 581 2553 
L 581 3406 
Q 941 3494 1303 3539 
Q 1666 3584 2028 3584 
Q 2975 3584 3395 3211 
Q 3816 2838 3816 1997 
z
" transform="scale(0.015625)"/>
       <path id="DejaVuSans-Bold-67" d="M 2919 594 
Q 2688 288 2409 144 
Q 2131 0 1766 0 
Q 1125 0 706 504 
Q 288 1009 288 1791 
Q 288 2575 706 3076 
Q 1125 3578 1766 3578 
Q 2131 3578 2409 3434 
Q 2688 3291 2919 2981 
L 2919 3500 
L 4044 3500 
L 4044 353 
Q 4044 -491 3511 -936 
Q 2978 -1381 1966 -1381 
Q 1638 -1381 1331 -1331 
Q 1025 -1281 716 -1178 
L 716 -306 
Q 1009 -475 1290 -558 
Q 1572 -641 1856 -641 
Q 2406 -641 2662 -400 
Q 2919 -159 2919 353 
L 2919 594 
z
M 2181 2772 
Q 1834 2772 1640 2515 
Q 1447 2259 1447 1791 
Q 1447 1309 1634 1061 
Q 1822 813 2181 813 
Q 2531 813 2725 1069 
Q 2919 1325 2919 1791 
Q 2919 2259 2725 2515 
Q 2531 2772 2181 2772 
z
" transform="scale(0.015625)"/>
       <path id="DejaVuSans-Bold-6c" d="M 538 4863 
L 1656 4863 
L 1656 0 
L 538 0 
L 538 4863 
z
" transform="scale(0.015625)"/>
       <path id="DejaVuSans-Bold-66" d="M 2841 4863 
L 2841 4128 
L 2222 4128 
Q 1984 4128 1890 4042 
Q 1797 3956 1797 3744 
L 1797 3500 
L 2753 3500 
L 2753 2700 
L 1797 2700 
L 1797 0 
L 678 0 
L 678 2700 
L 122 2700 
L 122 3500 
L 678 3500 
L 678 3744 
Q 678 4316 997 4589 
Q 1316 4863 1984 4863 
L 2841 4863 
z
" transform="scale(0.015625)"/>
       <path id="DejaVuSans-Bold-6f" d="M 2203 2784 
Q 1831 2784 1636 2517 
Q 1441 2250 1441 1747 
Q 1441 1244 1636 976 
Q 1831 709 2203 709 
Q 2569 709 2762 976 
Q 2956 1244 2956 1747 
Q 2956 2250 2762 2517 
Q 2569 2784 2203 2784 
z
M 2203 3584 
Q 3106 3584 3614 3096 
Q 4122 2609 4122 1747 
Q 4122 884 3614 396 
Q 3106 -91 2203 -91 
Q 1297 -91 786 396 
Q 275 884 275 1747 
Q 275 2609 786 3096 
Q 1297 3584 2203 3584 
z
" transform="scale(0.015625)"/>
       <path id="DejaVuSans-Bold-7a" d="M 366 3500 
L 3419 3500 
L 3419 2719 
L 1575 800 
L 3419 800 
L 3419 0 
L 288 0 
L 288 781 
L 2131 2700 
L 366 2700 
L 366 3500 
z
" transform="scale(0.015625)"/>
       <path id="DejaVuSans-Bold-6e" d="M 4056 2131 
L 4056 0 
L 2931 0 
L 2931 347 
L 2931 1631 
Q 2931 2084 2911 2256 
Q 2891 2428 2841 2509 
Q 2775 2619 2662 2680 
Q 2550 2741 2406 2741 
Q 2056 2741 1856 2470 
Q 1656 2200 1656 1722 
L 1656 0 
L 538 0 
L 538 3500 
L 1656 3500 
L 1656 2988 
Q 1909 3294 2193 3439 
Q 2478 3584 2822 3584 
Q 3428 3584 3742 3212 
Q 4056 2841 4056 2131 
z
" transform="scale(0.015625)"/>
       <path id="DejaVuSans-Bold-50" d="M 588 4666 
L 2584 4666 
Q 3475 4666 3951 4270 
Q 4428 3875 4428 3144 
Q 4428 2409 3951 2014 
Q 3475 1619 2584 1619 
L 1791 1619 
L 1791 0 
L 588 0 
L 588 4666 
z
M 1791 3794 
L 1791 2491 
L 2456 2491 
Q 2806 2491 2997 2661 
Q 3188 2831 3188 3144 
Q 3188 3456 2997 3625 
Q 2806 3794 2456 3794 
L 1791 3794 
z
" transform="scale(0.015625)"/>
       <path id="DejaVuSans-Bold-73" d="M 3272 3391 
L 3272 2541 
Q 2913 2691 2578 2766 
Q 2244 2841 1947 2841 
Q 1628 2841 1473 2761 
Q 1319 2681 1319 2516 
Q 1319 2381 1436 2309 
Q 1553 2238 1856 2203 
L 2053 2175 
Q 2913 2066 3209 1816 
Q 3506 1566 3506 1031 
Q 3506 472 3093 190 
Q 2681 -91 1863 -91 
Q 1516 -91 1145 -36 
Q 775 19 384 128 
L 384 978 
Q 719 816 1070 734 
Q 1422 653 1784 653 
Q 2113 653 2278 743 
Q 2444 834 2444 1013 
Q 2444 1163 2330 1236 
Q 2216 1309 1875 1350 
L 1678 1375 
Q 931 1469 631 1722 
Q 331 1975 331 2491 
Q 331 3047 712 3315 
Q 1094 3584 1881 3584 
Q 2191 3584 2531 3537 
Q 2872 3491 3272 3391 
z
" transform="scale(0.015625)"/>
      </defs>
      <use xlink:href="#DejaVuSans-Bold-45"/>
      <use xlink:href="#DejaVuSans-Bold-6d" transform="translate(68.310547 0)"/>
      <use xlink:href="#DejaVuSans-Bold-70" transform="translate(172.509766 0)"/>
      <use xlink:href="#DejaVuSans-Bold-61" transform="translate(244.091797 0)"/>
      <use xlink:href="#DejaVuSans-Bold-67" transform="translate(311.572266 0)"/>
      <use xlink:href="#DejaVuSans-Bold-6c" transform="translate(383.154297 0)"/>
      <use xlink:href="#DejaVuSans-Bold-69" transform="translate(417.431641 0)"/>
      <use xlink:href="#DejaVuSans-Bold-66" transform="translate(451.708984 0)"/>
      <use xlink:href="#DejaVuSans-Bold-6c" transform="translate(495.214844 0)"/>
      <use xlink:href="#DejaVuSans-Bold-6f" transform="translate(529.492188 0)"/>
      <use xlink:href="#DejaVuSans-Bold-7a" transform="translate(598.193359 0)"/>
      <use xlink:href="#DejaVuSans-Bold-69" transform="translate(656.396484 0)"/>
      <use xlink:href="#DejaVuSans-Bold-6e" transform="translate(690.673828 0)"/>
      <use xlink:href="#DejaVuSans-Bold-20" transform="translate(761.865234 0)"/>
      <use xlink:href="#DejaVuSans-Bold-50" transform="translate(796.679688 0)"/>
      <use xlink:href="#DejaVuSans-Bold-6c" transform="translate(869.970703 0)"/>
      <use xlink:href="#DejaVuSans-Bold-61" transform="translate(904.248047 0)"/>
      <use xlink:href="#DejaVuSans-Bold-73" transform="translate(971.728516 0)"/>
      <use xlink:href="#DejaVuSans-Bold-6d" transform="translate(1031.25 0)"/>
      <use xlink:href="#DejaVuSans-Bold-61" transform="translate(1135.449219 0)"/>
     </g>
     <!--  [µM] -->
     <g transform="translate(41.173875 208.738125) rotate(-90) scale(0.18 -0.18)">
      <defs>
       <path id="DejaVuSans-Bold-b5" d="M 544 -1338 
L 544 3500 
L 1672 3500 
L 1672 1466 
Q 1672 1103 1828 926 
Q 1984 750 2303 750 
Q 2625 750 2781 926 
Q 2938 1103 2938 1466 
L 2938 3500 
L 4063 3500 
L 4063 1159 
Q 4063 938 4114 850 
Q 4166 763 4288 763 
Q 4344 763 4395 778 
Q 4447 794 4506 831 
L 4506 50 
Q 4341 -22 4195 -56 
Q 4050 -91 3909 -91 
Q 3631 -91 3454 26 
Q 3278 144 3169 403 
Q 3022 156 2811 32 
Q 2600 -91 2322 -91 
Q 2091 -91 1928 -17 
Q 1766 56 1672 206 
L 1672 -1338 
L 544 -1338 
z
" transform="scale(0.015625)"/>
       <path id="DejaVuSans-Bold-4d" d="M 588 4666 
L 2119 4666 
L 3181 2169 
L 4250 4666 
L 5778 4666 
L 5778 0 
L 4641 0 
L 4641 3413 
L 3566 897 
L 2803 897 
L 1728 3413 
L 1728 0 
L 588 0 
L 588 4666 
z
" transform="scale(0.015625)"/>
      </defs>
      <use xlink:href="#DejaVuSans-Bold-20"/>
      <use xlink:href="#DejaVuSans-Bold-5b" transform="translate(34.814453 0)"/>
      <use xlink:href="#DejaVuSans-Bold-b5" transform="translate(80.517578 0)"/>
      <use xlink:href="#DejaVuSans-Bold-4d" transform="translate(154.101562 0)"/>
      <use xlink:href="#DejaVuSans-Bold-5d" transform="translate(253.613281 0)"/>
     </g>
    </g>
   </g>
   <g id="LineCollection_1">
    <path clip-path="url(#p6018f3aa1d)" style="fill: none; stroke: #000000"/>
    <path d="M 98.762298 279.611231 
L 98.762298 279.080762 
" clip-path="url(#p6018f3aa1d)" style="fill: none; stroke: #000000"/>
    <path d="M 100.036734 259.123769 
L 100.036734 183.63342 
" clip-path="url(#p6018f3aa1d)" style="fill: none; stroke: #000000"/>
    <path d="M 102.410492 173.924525 
L 102.410492 102.745602 
" clip-path="url(#p6018f3aa1d)" style="fill: none; stroke: #000000"/>
    <path d="M 105.017735 178.258873 
L 105.017735 81.17428 
" clip-path="url(#p6018f3aa1d)" style="fill: none; stroke: #000000"/>
    <path d="M 107.274751 206.310432 
L 107.274751 66.076647 
" clip-path="url(#p6018f3aa1d)" style="fill: none; stroke: #000000"/>
    <path d="M 109.706881 196.61136 
L 109.706881 97.365597 
" clip-path="url(#p6018f3aa1d)" style="fill: none; stroke: #000000"/>
    <path d="M 112.13901 189.062543 
L 112.13901 132.972522 
" clip-path="url(#p6018f3aa1d)" style="fill: none; stroke: #000000"/>
    <path d="M 117.003269 205.263683 
L 117.003269 146.99721 
" clip-path="url(#p6018f3aa1d)" style="fill: none; stroke: #000000"/>
    <path d="M 126.731787 279.728022 
L 126.731787 152.40232 
" clip-path="url(#p6018f3aa1d)" style="fill: none; stroke: #000000"/>
    <path d="M 136.460305 276.540841 
L 136.460305 196.651745 
" clip-path="url(#p6018f3aa1d)" style="fill: none; stroke: #000000"/>
    <path d="M 146.188823 277.633433 
L 146.188823 221.491019 
" clip-path="url(#p6018f3aa1d)" style="fill: none; stroke: #000000"/>
    <path d="M 155.917341 285.209537 
L 155.917341 239.859879 
" clip-path="url(#p6018f3aa1d)" style="fill: none; stroke: #000000"/>
    <path d="M 170.578218 279.838263 
L 170.578218 266.895252 
" clip-path="url(#p6018f3aa1d)" style="fill: none; stroke: #000000"/>
    <path d="M 214.28845 289.682505 
L 214.28845 281.055286 
" clip-path="url(#p6018f3aa1d)" style="fill: none; stroke: #000000"/>
    <path d="M 272.659558 293.098901 
L 272.659558 290.935548 
" clip-path="url(#p6018f3aa1d)" style="fill: none; stroke: #000000"/>
    <path d="M 331.030666 295.432529 
L 331.030666 291.116737 
" clip-path="url(#p6018f3aa1d)" style="fill: none; stroke: #000000"/>
    <path d="M 447.772883 299.025749 
L 447.772883 290.396347 
" clip-path="url(#p6018f3aa1d)" style="fill: none; stroke: #000000"/>
   </g>
   <g id="LineCollection_2">
    <path clip-path="url(#p6018f3aa1d)" style="fill: none; stroke: #1f77b4"/>
    <path d="M 98.762298 371.537812 
L 98.762298 126.480278 
" clip-path="url(#p6018f3aa1d)" style="fill: none; stroke: #1f77b4"/>
    <path d="M 100.036734 263.441745 
L 100.036734 198.728871 
" clip-path="url(#p6018f3aa1d)" style="fill: none; stroke: #1f77b4"/>
    <path d="M 102.410492 207.362639 
L 102.410492 75.773537 
" clip-path="url(#p6018f3aa1d)" style="fill: none; stroke: #1f77b4"/>
    <path d="M 105.017735 182.565933 
L 105.017735 61.752123 
" clip-path="url(#p6018f3aa1d)" style="fill: none; stroke: #1f77b4"/>
    <path d="M 107.274751 211.710085 
L 107.274751 71.4763 
" clip-path="url(#p6018f3aa1d)" style="fill: none; stroke: #1f77b4"/>
    <path d="M 109.706881 192.295567 
L 109.706881 110.310791 
" clip-path="url(#p6018f3aa1d)" style="fill: none; stroke: #1f77b4"/>
    <path d="M 112.13901 209.568561 
L 112.13901 112.466505 
" clip-path="url(#p6018f3aa1d)" style="fill: none; stroke: #1f77b4"/>
    <path d="M 117.003269 249.501102 
L 117.003269 113.545998 
" clip-path="url(#p6018f3aa1d)" style="fill: none; stroke: #1f77b4"/>
    <path d="M 126.731787 258.153425 
L 126.731787 176.14027 
" clip-path="url(#p6018f3aa1d)" style="fill: none; stroke: #1f77b4"/>
    <path d="M 136.460305 264.657676 
L 136.460305 208.515263 
" clip-path="url(#p6018f3aa1d)" style="fill: none; stroke: #1f77b4"/>
    <path d="M 146.188823 273.320915 
L 146.188823 225.803537 
" clip-path="url(#p6018f3aa1d)" style="fill: none; stroke: #1f77b4"/>
    <path d="M 155.917341 277.678184 
L 155.917341 249.554586 
" clip-path="url(#p6018f3aa1d)" style="fill: none; stroke: #1f77b4"/>
    <path d="M 170.578218 290.759816 
L 170.578218 253.816895 
" clip-path="url(#p6018f3aa1d)" style="fill: none; stroke: #1f77b4"/>
    <path d="M 214.28845 295.217504 
L 214.28845 273.359117 
" clip-path="url(#p6018f3aa1d)" style="fill: none; stroke: #1f77b4"/>
    <path d="M 272.659558 294.122729 
L 272.659558 287.687243 
" clip-path="url(#p6018f3aa1d)" style="fill: none; stroke: #1f77b4"/>
    <path d="M 331.030666 299.050853 
L 331.030666 285.339425 
" clip-path="url(#p6018f3aa1d)" style="fill: none; stroke: #1f77b4"/>
    <path d="M 447.772883 299.018108 
L 447.772883 290.403987 
" clip-path="url(#p6018f3aa1d)" style="fill: none; stroke: #1f77b4"/>
   </g>
   <g id="LineCollection_3">
    <path clip-path="url(#p6018f3aa1d)" style="fill: none; stroke: #2ca02c"/>
    <path d="M 98.762298 288.195882 
L 98.762298 246.542045 
" clip-path="url(#p6018f3aa1d)" style="fill: none; stroke: #2ca02c"/>
    <path d="M 100.036734 252.330271 
L 100.036734 161.740106 
" clip-path="url(#p6018f3aa1d)" style="fill: none; stroke: #2ca02c"/>
    <path d="M 102.410492 231.482614 
L 102.410492 139.113303 
" clip-path="url(#p6018f3aa1d)" style="fill: none; stroke: #2ca02c"/>
    <path d="M 105.017735 211.581288 
L 105.017735 131.845002 
" clip-path="url(#p6018f3aa1d)" style="fill: none; stroke: #2ca02c"/>
    <path d="M 107.274751 222.45918 
L 107.274751 104.677558 
" clip-path="url(#p6018f3aa1d)" style="fill: none; stroke: #2ca02c"/>
    <path d="M 109.706881 199.808365 
L 109.706881 134.584668 
" clip-path="url(#p6018f3aa1d)" style="fill: none; stroke: #2ca02c"/>
    <path d="M 112.13901 204.350098 
L 112.13901 144.548975 
" clip-path="url(#p6018f3aa1d)" style="fill: none; stroke: #2ca02c"/>
    <path d="M 117.003269 246.951357 
L 117.003269 118.276561 
" clip-path="url(#p6018f3aa1d)" style="fill: none; stroke: #2ca02c"/>
    <path d="M 126.731787 256.030457 
L 126.731787 181.71238 
" clip-path="url(#p6018f3aa1d)" style="fill: none; stroke: #2ca02c"/>
    <path d="M 136.460305 263.27802 
L 136.460305 210.748473 
" clip-path="url(#p6018f3aa1d)" style="fill: none; stroke: #2ca02c"/>
    <path d="M 146.188823 295.158563 
L 146.188823 200.599702 
" clip-path="url(#p6018f3aa1d)" style="fill: none; stroke: #2ca02c"/>
    <path d="M 155.917341 303.940775 
L 155.917341 217.288743 
" clip-path="url(#p6018f3aa1d)" style="fill: none; stroke: #2ca02c"/>
    <path d="M 170.578218 302.132159 
L 170.578218 239.102378 
" clip-path="url(#p6018f3aa1d)" style="fill: none; stroke: #2ca02c"/>
    <path d="M 214.28845 298.505103 
L 214.28845 268.318568 
" clip-path="url(#p6018f3aa1d)" style="fill: none; stroke: #2ca02c"/>
    <path d="M 272.659558 298.51056 
L 272.659558 284.919198 
" clip-path="url(#p6018f3aa1d)" style="fill: none; stroke: #2ca02c"/>
    <path d="M 331.030666 297.604615 
L 331.030666 289.752361 
" clip-path="url(#p6018f3aa1d)" style="fill: none; stroke: #2ca02c"/>
    <path d="M 447.772883 298.51056 
L 447.772883 293.070522 
" clip-path="url(#p6018f3aa1d)" style="fill: none; stroke: #2ca02c"/>
   </g>
   <g id="LineCollection_4">
    <path clip-path="url(#p6018f3aa1d)" style="fill: none; stroke: #ff7f0e"/>
    <path d="M 98.762298 282.204636 
L 98.762298 253.23185 
" clip-path="url(#p6018f3aa1d)" style="fill: none; stroke: #ff7f0e"/>
    <path d="M 100.036734 239.650311 
L 100.036734 159.927124 
" clip-path="url(#p6018f3aa1d)" style="fill: none; stroke: #ff7f0e"/>
    <path d="M 102.410492 236.02653 
L 102.410492 125.5143 
" clip-path="url(#p6018f3aa1d)" style="fill: none; stroke: #ff7f0e"/>
    <path d="M 105.017735 229.694736 
L 105.017735 113.733737 
" clip-path="url(#p6018f3aa1d)" style="fill: none; stroke: #ff7f0e"/>
    <path d="M 107.274751 215.208343 
L 107.274751 117.364067 
" clip-path="url(#p6018f3aa1d)" style="fill: none; stroke: #ff7f0e"/>
    <path d="M 109.706881 207.966238 
L 109.706881 139.112212 
" clip-path="url(#p6018f3aa1d)" style="fill: none; stroke: #ff7f0e"/>
    <path d="M 112.13901 211.59766 
L 112.13901 142.734901 
" clip-path="url(#p6018f3aa1d)" style="fill: none; stroke: #ff7f0e"/>
    <path d="M 117.003269 246.038863 
L 117.003269 130.05385 
" clip-path="url(#p6018f3aa1d)" style="fill: none; stroke: #ff7f0e"/>
    <path d="M 126.731787 254.218567 
L 126.731787 183.519904 
" clip-path="url(#p6018f3aa1d)" style="fill: none; stroke: #ff7f0e"/>
    <path d="M 136.460305 261.493417 
L 136.460305 210.721185 
" clip-path="url(#p6018f3aa1d)" style="fill: none; stroke: #ff7f0e"/>
    <path d="M 146.188823 270.576883 
L 146.188823 223.424067 
" clip-path="url(#p6018f3aa1d)" style="fill: none; stroke: #ff7f0e"/>
    <path d="M 155.917341 299.869478 
L 155.917341 221.364405 
" clip-path="url(#p6018f3aa1d)" style="fill: none; stroke: #ff7f0e"/>
    <path d="M 170.578218 296.244606 
L 170.578218 244.985565 
" clip-path="url(#p6018f3aa1d)" style="fill: none; stroke: #ff7f0e"/>
    <path d="M 214.28845 296.391958 
L 214.28845 274.055494 
" clip-path="url(#p6018f3aa1d)" style="fill: none; stroke: #ff7f0e"/>
    <path d="M 272.659558 294.584433 
L 272.659558 287.0378 
" clip-path="url(#p6018f3aa1d)" style="fill: none; stroke: #ff7f0e"/>
    <path d="M 331.030666 297.601341 
L 331.030666 289.75127 
" clip-path="url(#p6018f3aa1d)" style="fill: none; stroke: #ff7f0e"/>
    <path d="M 447.772883 298.509469 
L 447.772883 293.073797 
" clip-path="url(#p6018f3aa1d)" style="fill: none; stroke: #ff7f0e"/>
   </g>
   <g id="line2d_11">
    <path d="M 97.546233 295.791633 
L 98.256415 288.71034 
L 99.676778 253.480813 
L 101.097142 220.476327 
L 101.807324 208.113332 
L 102.517506 198.528612 
L 103.227687 191.388377 
L 103.937869 186.292732 
L 104.648051 182.851897 
L 105.358233 180.719692 
L 106.068415 179.604335 
L 106.778597 179.267901 
L 107.488778 179.520701 
L 108.19896 180.213922 
L 108.909142 181.232211 
L 110.329506 183.910698 
L 112.460051 188.744072 
L 118.851687 203.826712 
L 122.402597 211.446201 
L 125.243324 217.068005 
L 128.084051 222.294117 
L 131.63496 228.3156 
L 135.185869 233.820914 
L 138.736778 238.859857 
L 142.287687 243.476298 
L 145.838597 247.708953 
L 149.389506 251.592177 
L 152.940415 255.156632 
L 156.491324 258.42983 
L 160.042233 261.436562 
L 164.303324 264.724334 
L 168.564415 267.695431 
L 172.825506 270.380977 
L 177.086597 272.80885 
L 181.347687 275.004072 
L 186.31896 277.301014 
L 191.290233 279.343743 
L 196.261506 281.160537 
L 201.94296 282.992263 
L 207.624415 284.594531 
L 214.016051 286.158521 
L 220.407687 287.503997 
L 227.509506 288.779703 
L 235.321506 289.957358 
L 243.843687 291.017677 
L 253.786233 292.013714 
L 264.43896 292.851489 
L 276.512051 293.578708 
L 290.715687 294.207512 
L 307.760051 294.730978 
L 329.065506 295.149232 
L 356.762597 295.456893 
L 397.24296 295.662526 
L 452.637142 295.756578 
L 452.637142 295.756578 
" clip-path="url(#p6018f3aa1d)" style="fill: none; stroke: #000000; stroke-width: 2; stroke-linecap: square"/>
   </g>
   <g id="line2d_12">
    <path d="M 97.546233 295.791633 
L 98.762298 279.345997 
L 100.036734 221.378595 
L 102.410492 138.335063 
L 105.017735 129.716576 
L 107.274751 136.19354 
L 109.706881 146.988478 
L 112.13901 161.017533 
L 117.003269 176.130447 
L 126.731787 216.065171 
L 136.460305 236.596293 
L 146.188823 249.562226 
L 155.917341 262.534708 
L 170.578218 273.366758 
L 214.28845 285.368896 
L 272.659558 292.017225 
L 331.030666 293.274633 
L 447.772883 294.711048 
" clip-path="url(#p6018f3aa1d)" style="fill: none; stroke-dasharray: 3.7,1.6; stroke-dashoffset: 0; stroke: #000000"/>
    <defs>
     <path id="m887822eae5" d="M -3 3 
L 3 3 
L 3 -3 
L -3 -3 
z
" style="stroke: #000000; stroke-linejoin: miter"/>
    </defs>
    <g clip-path="url(#p6018f3aa1d)">
     <use xlink:href="#m887822eae5" x="97.546233" y="295.791633" style="stroke: #000000; stroke-linejoin: miter"/>
     <use xlink:href="#m887822eae5" x="98.762298" y="279.345997" style="stroke: #000000; stroke-linejoin: miter"/>
     <use xlink:href="#m887822eae5" x="100.036734" y="221.378595" style="stroke: #000000; stroke-linejoin: miter"/>
     <use xlink:href="#m887822eae5" x="102.410492" y="138.335063" style="stroke: #000000; stroke-linejoin: miter"/>
     <use xlink:href="#m887822eae5" x="105.017735" y="129.716576" style="stroke: #000000; stroke-linejoin: miter"/>
     <use xlink:href="#m887822eae5" x="107.274751" y="136.19354" style="stroke: #000000; stroke-linejoin: miter"/>
     <use xlink:href="#m887822eae5" x="109.706881" y="146.988478" style="stroke: #000000; stroke-linejoin: miter"/>
     <use xlink:href="#m887822eae5" x="112.13901" y="161.017533" style="stroke: #000000; stroke-linejoin: miter"/>
     <use xlink:href="#m887822eae5" x="117.003269" y="176.130447" style="stroke: #000000; stroke-linejoin: miter"/>
     <use xlink:href="#m887822eae5" x="126.731787" y="216.065171" style="stroke: #000000; stroke-linejoin: miter"/>
     <use xlink:href="#m887822eae5" x="136.460305" y="236.596293" style="stroke: #000000; stroke-linejoin: miter"/>
     <use xlink:href="#m887822eae5" x="146.188823" y="249.562226" style="stroke: #000000; stroke-linejoin: miter"/>
     <use xlink:href="#m887822eae5" x="155.917341" y="262.534708" style="stroke: #000000; stroke-linejoin: miter"/>
     <use xlink:href="#m887822eae5" x="170.578218" y="273.366758" style="stroke: #000000; stroke-linejoin: miter"/>
     <use xlink:href="#m887822eae5" x="214.28845" y="285.368896" style="stroke: #000000; stroke-linejoin: miter"/>
     <use xlink:href="#m887822eae5" x="272.659558" y="292.017225" style="stroke: #000000; stroke-linejoin: miter"/>
     <use xlink:href="#m887822eae5" x="331.030666" y="293.274633" style="stroke: #000000; stroke-linejoin: miter"/>
     <use xlink:href="#m887822eae5" x="447.772883" y="294.711048" style="stroke: #000000; stroke-linejoin: miter"/>
    </g>
   </g>
   <g id="line2d_13">
    <path d="M 97.546233 295.791633 
L 98.256415 288.71034 
L 99.676778 253.480813 
L 101.097142 220.476327 
L 101.807324 208.113332 
L 102.517506 198.528612 
L 103.227687 191.388377 
L 103.937869 186.292732 
L 104.648051 182.851897 
L 105.358233 180.719692 
L 106.068415 179.604335 
L 106.778597 179.267901 
L 107.488778 179.520701 
L 108.19896 180.213922 
L 108.909142 181.232211 
L 110.329506 183.910698 
L 112.460051 188.744072 
L 118.851687 203.826712 
L 122.402597 211.446201 
L 125.243324 217.068005 
L 128.084051 222.294117 
L 131.63496 228.3156 
L 135.185869 233.820914 
L 138.736778 238.859857 
L 142.287687 243.476298 
L 145.838597 247.708953 
L 149.389506 251.592177 
L 152.940415 255.156632 
L 156.491324 258.42983 
L 160.042233 261.436562 
L 164.303324 264.724334 
L 168.564415 267.695431 
L 172.825506 270.380977 
L 177.086597 272.80885 
L 181.347687 275.004072 
L 186.31896 277.301014 
L 191.290233 279.343743 
L 196.261506 281.160537 
L 201.94296 282.992263 
L 207.624415 284.594531 
L 214.016051 286.158521 
L 220.407687 287.503997 
L 227.509506 288.779703 
L 235.321506 289.957358 
L 243.843687 291.017677 
L 253.786233 292.013714 
L 264.43896 292.851489 
L 276.512051 293.578708 
L 290.715687 294.207512 
L 307.760051 294.730978 
L 329.065506 295.149232 
L 356.762597 295.456893 
L 397.24296 295.662526 
L 452.637142 295.756578 
L 452.637142 295.756578 
" clip-path="url(#p6018f3aa1d)" style="fill: none; stroke: #1f77b4; stroke-width: 2; stroke-linecap: square"/>
   </g>
   <g id="line2d_14">
    <path d="M 97.546233 295.791633 
L 98.762298 279.637427 
L 100.036734 231.085308 
L 102.410492 141.568088 
L 105.017735 122.159028 
L 107.274751 141.593192 
L 109.706881 151.303179 
L 112.13901 161.017533 
L 117.003269 181.52355 
L 126.731787 217.146848 
L 136.460305 236.58647 
L 146.188823 249.562226 
L 155.917341 263.616385 
L 170.578218 272.288355 
L 214.28845 284.28831 
L 272.659558 290.904986 
L 331.030666 292.195139 
L 447.772883 294.711048 
" clip-path="url(#p6018f3aa1d)" style="fill: none; stroke-dasharray: 3.7,1.6; stroke-dashoffset: 0; stroke: #1f77b4"/>
    <defs>
     <path id="m0deeca1b41" d="M -3 3 
L 3 3 
L 3 -3 
L -3 -3 
z
" style="stroke: #000000; stroke-linejoin: miter"/>
    </defs>
    <g clip-path="url(#p6018f3aa1d)">
     <use xlink:href="#m0deeca1b41" x="97.546233" y="295.791633" style="fill: #1f77b4; stroke: #000000; stroke-linejoin: miter"/>
     <use xlink:href="#m0deeca1b41" x="98.762298" y="279.637427" style="fill: #1f77b4; stroke: #000000; stroke-linejoin: miter"/>
     <use xlink:href="#m0deeca1b41" x="100.036734" y="231.085308" style="fill: #1f77b4; stroke: #000000; stroke-linejoin: miter"/>
     <use xlink:href="#m0deeca1b41" x="102.410492" y="141.568088" style="fill: #1f77b4; stroke: #000000; stroke-linejoin: miter"/>
     <use xlink:href="#m0deeca1b41" x="105.017735" y="122.159028" style="fill: #1f77b4; stroke: #000000; stroke-linejoin: miter"/>
     <use xlink:href="#m0deeca1b41" x="107.274751" y="141.593192" style="fill: #1f77b4; stroke: #000000; stroke-linejoin: miter"/>
     <use xlink:href="#m0deeca1b41" x="109.706881" y="151.303179" style="fill: #1f77b4; stroke: #000000; stroke-linejoin: miter"/>
     <use xlink:href="#m0deeca1b41" x="112.13901" y="161.017533" style="fill: #1f77b4; stroke: #000000; stroke-linejoin: miter"/>
     <use xlink:href="#m0deeca1b41" x="117.003269" y="181.52355" style="fill: #1f77b4; stroke: #000000; stroke-linejoin: miter"/>
     <use xlink:href="#m0deeca1b41" x="126.731787" y="217.146848" style="fill: #1f77b4; stroke: #000000; stroke-linejoin: miter"/>
     <use xlink:href="#m0deeca1b41" x="136.460305" y="236.58647" style="fill: #1f77b4; stroke: #000000; stroke-linejoin: miter"/>
     <use xlink:href="#m0deeca1b41" x="146.188823" y="249.562226" style="fill: #1f77b4; stroke: #000000; stroke-linejoin: miter"/>
     <use xlink:href="#m0deeca1b41" x="155.917341" y="263.616385" style="fill: #1f77b4; stroke: #000000; stroke-linejoin: miter"/>
     <use xlink:href="#m0deeca1b41" x="170.578218" y="272.288355" style="fill: #1f77b4; stroke: #000000; stroke-linejoin: miter"/>
     <use xlink:href="#m0deeca1b41" x="214.28845" y="284.28831" style="fill: #1f77b4; stroke: #000000; stroke-linejoin: miter"/>
     <use xlink:href="#m0deeca1b41" x="272.659558" y="290.904986" style="fill: #1f77b4; stroke: #000000; stroke-linejoin: miter"/>
     <use xlink:href="#m0deeca1b41" x="331.030666" y="292.195139" style="fill: #1f77b4; stroke: #000000; stroke-linejoin: miter"/>
     <use xlink:href="#m0deeca1b41" x="447.772883" y="294.711048" style="fill: #1f77b4; stroke: #000000; stroke-linejoin: miter"/>
    </g>
   </g>
   <g id="line2d_15">
    <path d="M 97.546233 295.791633 
L 98.256415 288.72602 
L 99.676778 253.694486 
L 101.097142 220.93646 
L 101.807324 208.642071 
L 102.517506 199.073287 
L 103.227687 191.896043 
L 103.937869 186.715687 
L 104.648051 183.150481 
L 105.358233 180.863187 
L 106.068415 179.570692 
L 106.778597 179.042834 
L 107.488778 179.096501 
L 108.19896 179.588226 
L 108.909142 180.406847 
L 110.329506 182.703329 
L 112.460051 187.032121 
L 122.402597 208.551644 
L 125.953506 215.426828 
L 129.504415 221.794524 
L 133.055324 227.680122 
L 136.606233 233.113576 
L 140.157142 238.125322 
L 143.708051 242.745029 
L 147.25896 247.00112 
L 150.809869 250.920552 
L 154.360778 254.528722 
L 157.911687 257.84943 
L 161.462597 260.904895 
L 165.723687 264.250342 
L 169.984778 267.276465 
L 174.245869 270.013303 
L 178.50696 272.488201 
L 182.768051 274.726011 
L 187.739324 277.067113 
L 192.710597 279.148367 
L 197.681869 280.998504 
L 203.363324 282.862645 
L 209.044778 284.491996 
L 215.436415 286.080988 
L 221.828051 287.446586 
L 228.929869 288.739932 
L 236.741869 289.932362 
L 245.264051 291.004472 
L 254.496415 291.945736 
L 265.149142 292.804266 
L 277.222233 293.548005 
L 291.425869 294.189602 
L 308.470233 294.722248 
L 329.065506 295.135447 
L 356.052415 295.445619 
L 395.112415 295.654601 
L 452.637142 295.756608 
L 452.637142 295.756608 
" clip-path="url(#p6018f3aa1d)" style="fill: none; stroke: #2ca02c; stroke-width: 2; stroke-linecap: square"/>
   </g>
   <g id="line2d_16">
    <path d="M 97.546233 295.791633 
L 98.762298 267.368963 
L 100.036734 207.035188 
L 102.410492 185.297959 
L 105.017735 171.713145 
L 107.274751 163.568369 
L 109.706881 167.196516 
L 112.13901 174.449536 
L 117.003269 182.613959 
L 126.731787 218.871419 
L 136.460305 237.013246 
L 146.188823 247.879132 
L 155.917341 260.614759 
L 170.578218 270.617268 
L 214.28845 283.411836 
L 272.659558 291.714879 
L 331.030666 293.678488 
L 447.772883 295.790541 
" clip-path="url(#p6018f3aa1d)" style="fill: none; stroke-dasharray: 3.7,1.6; stroke-dashoffset: 0; stroke: #2ca02c"/>
    <defs>
     <path id="m4b761fb9b0" d="M -3 3 
L 3 3 
L 3 -3 
L -3 -3 
z
" style="stroke: #000000; stroke-linejoin: miter"/>
    </defs>
    <g clip-path="url(#p6018f3aa1d)">
     <use xlink:href="#m4b761fb9b0" x="97.546233" y="295.791633" style="fill: #2ca02c; stroke: #000000; stroke-linejoin: miter"/>
     <use xlink:href="#m4b761fb9b0" x="98.762298" y="267.368963" style="fill: #2ca02c; stroke: #000000; stroke-linejoin: miter"/>
     <use xlink:href="#m4b761fb9b0" x="100.036734" y="207.035188" style="fill: #2ca02c; stroke: #000000; stroke-linejoin: miter"/>
     <use xlink:href="#m4b761fb9b0" x="102.410492" y="185.297959" style="fill: #2ca02c; stroke: #000000; stroke-linejoin: miter"/>
     <use xlink:href="#m4b761fb9b0" x="105.017735" y="171.713145" style="fill: #2ca02c; stroke: #000000; stroke-linejoin: miter"/>
     <use xlink:href="#m4b761fb9b0" x="107.274751" y="163.568369" style="fill: #2ca02c; stroke: #000000; stroke-linejoin: miter"/>
     <use xlink:href="#m4b761fb9b0" x="109.706881" y="167.196516" style="fill: #2ca02c; stroke: #000000; stroke-linejoin: miter"/>
     <use xlink:href="#m4b761fb9b0" x="112.13901" y="174.449536" style="fill: #2ca02c; stroke: #000000; stroke-linejoin: miter"/>
     <use xlink:href="#m4b761fb9b0" x="117.003269" y="182.613959" style="fill: #2ca02c; stroke: #000000; stroke-linejoin: miter"/>
     <use xlink:href="#m4b761fb9b0" x="126.731787" y="218.871419" style="fill: #2ca02c; stroke: #000000; stroke-linejoin: miter"/>
     <use xlink:href="#m4b761fb9b0" x="136.460305" y="237.013246" style="fill: #2ca02c; stroke: #000000; stroke-linejoin: miter"/>
     <use xlink:href="#m4b761fb9b0" x="146.188823" y="247.879132" style="fill: #2ca02c; stroke: #000000; stroke-linejoin: miter"/>
     <use xlink:href="#m4b761fb9b0" x="155.917341" y="260.614759" style="fill: #2ca02c; stroke: #000000; stroke-linejoin: miter"/>
     <use xlink:href="#m4b761fb9b0" x="170.578218" y="270.617268" style="fill: #2ca02c; stroke: #000000; stroke-linejoin: miter"/>
     <use xlink:href="#m4b761fb9b0" x="214.28845" y="283.411836" style="fill: #2ca02c; stroke: #000000; stroke-linejoin: miter"/>
     <use xlink:href="#m4b761fb9b0" x="272.659558" y="291.714879" style="fill: #2ca02c; stroke: #000000; stroke-linejoin: miter"/>
     <use xlink:href="#m4b761fb9b0" x="331.030666" y="293.678488" style="fill: #2ca02c; stroke: #000000; stroke-linejoin: miter"/>
     <use xlink:href="#m4b761fb9b0" x="447.772883" y="295.790541" style="fill: #2ca02c; stroke: #000000; stroke-linejoin: miter"/>
    </g>
   </g>
   <g id="line2d_17">
    <path d="M 97.546233 295.791633 
L 98.256415 288.72602 
L 99.676778 253.694486 
L 101.097142 220.93646 
L 101.807324 208.642071 
L 102.517506 199.073287 
L 103.227687 191.896043 
L 103.937869 186.715687 
L 104.648051 183.150481 
L 105.358233 180.863187 
L 106.068415 179.570692 
L 106.778597 179.042834 
L 107.488778 179.096501 
L 108.19896 179.588226 
L 108.909142 180.406847 
L 110.329506 182.703329 
L 112.460051 187.032121 
L 122.402597 208.551644 
L 125.953506 215.426828 
L 129.504415 221.794524 
L 133.055324 227.680122 
L 136.606233 233.113576 
L 140.157142 238.125322 
L 143.708051 242.745029 
L 147.25896 247.00112 
L 150.809869 250.920552 
L 154.360778 254.528722 
L 157.911687 257.84943 
L 161.462597 260.904895 
L 165.723687 264.250342 
L 169.984778 267.276465 
L 174.245869 270.013303 
L 178.50696 272.488201 
L 182.768051 274.726011 
L 187.739324 277.067113 
L 192.710597 279.148367 
L 197.681869 280.998504 
L 203.363324 282.862645 
L 209.044778 284.491996 
L 215.436415 286.080988 
L 221.828051 287.446586 
L 228.929869 288.739932 
L 236.741869 289.932362 
L 245.264051 291.004472 
L 254.496415 291.945736 
L 265.149142 292.804266 
L 277.222233 293.548005 
L 291.425869 294.189602 
L 308.470233 294.722248 
L 329.065506 295.135447 
L 356.052415 295.445619 
L 395.112415 295.654601 
L 452.637142 295.756608 
L 452.637142 295.756608 
" clip-path="url(#p6018f3aa1d)" style="fill: none; stroke: #ff7f0e; stroke-width: 2; stroke-linecap: square"/>
   </g>
   <g id="line2d_18">
    <path d="M 97.546233 295.791633 
L 98.762298 267.718243 
L 100.036734 199.788718 
L 102.410492 180.770415 
L 105.017735 171.714236 
L 107.274751 166.286205 
L 109.706881 173.539225 
L 112.13901 177.166281 
L 117.003269 188.046356 
L 126.731787 218.869236 
L 136.460305 236.107301 
L 146.188823 247.000475 
L 155.917341 260.616942 
L 170.578218 270.615085 
L 214.28845 285.223726 
L 272.659558 290.811117 
L 331.030666 293.676305 
L 447.772883 295.791633 
" clip-path="url(#p6018f3aa1d)" style="fill: none; stroke-dasharray: 3.7,1.6; stroke-dashoffset: 0; stroke: #ff7f0e"/>
    <defs>
     <path id="m46959d7052" d="M -3 3 
L 3 3 
L 3 -3 
L -3 -3 
z
" style="stroke: #000000; stroke-linejoin: miter"/>
    </defs>
    <g clip-path="url(#p6018f3aa1d)">
     <use xlink:href="#m46959d7052" x="97.546233" y="295.791633" style="fill: #ff7f0e; stroke: #000000; stroke-linejoin: miter"/>
     <use xlink:href="#m46959d7052" x="98.762298" y="267.718243" style="fill: #ff7f0e; stroke: #000000; stroke-linejoin: miter"/>
     <use xlink:href="#m46959d7052" x="100.036734" y="199.788718" style="fill: #ff7f0e; stroke: #000000; stroke-linejoin: miter"/>
     <use xlink:href="#m46959d7052" x="102.410492" y="180.770415" style="fill: #ff7f0e; stroke: #000000; stroke-linejoin: miter"/>
     <use xlink:href="#m46959d7052" x="105.017735" y="171.714236" style="fill: #ff7f0e; stroke: #000000; stroke-linejoin: miter"/>
     <use xlink:href="#m46959d7052" x="107.274751" y="166.286205" style="fill: #ff7f0e; stroke: #000000; stroke-linejoin: miter"/>
     <use xlink:href="#m46959d7052" x="109.706881" y="173.539225" style="fill: #ff7f0e; stroke: #000000; stroke-linejoin: miter"/>
     <use xlink:href="#m46959d7052" x="112.13901" y="177.166281" style="fill: #ff7f0e; stroke: #000000; stroke-linejoin: miter"/>
     <use xlink:href="#m46959d7052" x="117.003269" y="188.046356" style="fill: #ff7f0e; stroke: #000000; stroke-linejoin: miter"/>
     <use xlink:href="#m46959d7052" x="126.731787" y="218.869236" style="fill: #ff7f0e; stroke: #000000; stroke-linejoin: miter"/>
     <use xlink:href="#m46959d7052" x="136.460305" y="236.107301" style="fill: #ff7f0e; stroke: #000000; stroke-linejoin: miter"/>
     <use xlink:href="#m46959d7052" x="146.188823" y="247.000475" style="fill: #ff7f0e; stroke: #000000; stroke-linejoin: miter"/>
     <use xlink:href="#m46959d7052" x="155.917341" y="260.616942" style="fill: #ff7f0e; stroke: #000000; stroke-linejoin: miter"/>
     <use xlink:href="#m46959d7052" x="170.578218" y="270.615085" style="fill: #ff7f0e; stroke: #000000; stroke-linejoin: miter"/>
     <use xlink:href="#m46959d7052" x="214.28845" y="285.223726" style="fill: #ff7f0e; stroke: #000000; stroke-linejoin: miter"/>
     <use xlink:href="#m46959d7052" x="272.659558" y="290.811117" style="fill: #ff7f0e; stroke: #000000; stroke-linejoin: miter"/>
     <use xlink:href="#m46959d7052" x="331.030666" y="293.676305" style="fill: #ff7f0e; stroke: #000000; stroke-linejoin: miter"/>
     <use xlink:href="#m46959d7052" x="447.772883" y="295.791633" style="fill: #ff7f0e; stroke: #000000; stroke-linejoin: miter"/>
    </g>
   </g>
   <g id="patch_3">
    <path d="M 79.791687 320.4 
L 79.791687 43.2 
" style="fill: none; stroke: #000000; stroke-width: 0.8; stroke-linejoin: miter; stroke-linecap: square"/>
   </g>
   <g id="patch_4">
    <path d="M 470.391687 320.4 
L 470.391687 43.2 
" style="fill: none; stroke: #000000; stroke-width: 0.8; stroke-linejoin: miter; stroke-linecap: square"/>
   </g>
   <g id="patch_5">
    <path d="M 79.791687 320.4 
L 470.391687 320.4 
" style="fill: none; stroke: #000000; stroke-width: 0.8; stroke-linejoin: miter; stroke-linecap: square"/>
   </g>
   <g id="patch_6">
    <path d="M 79.791687 43.2 
L 470.391687 43.2 
" style="fill: none; stroke: #000000; stroke-width: 0.8; stroke-linejoin: miter; stroke-linecap: square"/>
   </g>
   <g id="legend_1">
    <g id="patch_7">
     <path d="M 276.063406 158.085 
L 464.091688 158.085 
Q 465.891688 158.085 465.891688 156.285 
L 465.891688 49.5 
Q 465.891688 47.7 464.091688 47.7 
L 276.063406 47.7 
Q 274.263406 47.7 274.263406 49.5 
L 274.263406 156.285 
Q 274.263406 158.085 276.063406 158.085 
z
" style="fill: #ffffff; opacity: 0.8; stroke: #cccccc; stroke-linejoin: miter"/>
    </g>
    <g id="line2d_19">
     <path d="M 277.863406 54.988594 
L 295.863406 54.988594 
" style="fill: none; stroke: #000000; stroke-width: 2; stroke-linecap: square"/>
    </g>
    <g id="line2d_20"/>
    <g id="text_13">
     <!-- 10 mg Emp (Fasting_T) -->
     <g transform="translate(303.063406 58.138594) scale(0.09 -0.09)">
      <defs>
       <path id="DejaVuSans-20" transform="scale(0.015625)"/>
       <path id="DejaVuSans-6d" d="M 3328 2828 
Q 3544 3216 3844 3400 
Q 4144 3584 4550 3584 
Q 5097 3584 5394 3201 
Q 5691 2819 5691 2113 
L 5691 0 
L 5113 0 
L 5113 2094 
Q 5113 2597 4934 2840 
Q 4756 3084 4391 3084 
Q 3944 3084 3684 2787 
Q 3425 2491 3425 1978 
L 3425 0 
L 2847 0 
L 2847 2094 
Q 2847 2600 2669 2842 
Q 2491 3084 2119 3084 
Q 1678 3084 1418 2786 
Q 1159 2488 1159 1978 
L 1159 0 
L 581 0 
L 581 3500 
L 1159 3500 
L 1159 2956 
Q 1356 3278 1631 3431 
Q 1906 3584 2284 3584 
Q 2666 3584 2933 3390 
Q 3200 3197 3328 2828 
z
" transform="scale(0.015625)"/>
       <path id="DejaVuSans-67" d="M 2906 1791 
Q 2906 2416 2648 2759 
Q 2391 3103 1925 3103 
Q 1463 3103 1205 2759 
Q 947 2416 947 1791 
Q 947 1169 1205 825 
Q 1463 481 1925 481 
Q 2391 481 2648 825 
Q 2906 1169 2906 1791 
z
M 3481 434 
Q 3481 -459 3084 -895 
Q 2688 -1331 1869 -1331 
Q 1566 -1331 1297 -1286 
Q 1028 -1241 775 -1147 
L 775 -588 
Q 1028 -725 1275 -790 
Q 1522 -856 1778 -856 
Q 2344 -856 2625 -561 
Q 2906 -266 2906 331 
L 2906 616 
Q 2728 306 2450 153 
Q 2172 0 1784 0 
Q 1141 0 747 490 
Q 353 981 353 1791 
Q 353 2603 747 3093 
Q 1141 3584 1784 3584 
Q 2172 3584 2450 3431 
Q 2728 3278 2906 2969 
L 2906 3500 
L 3481 3500 
L 3481 434 
z
" transform="scale(0.015625)"/>
       <path id="DejaVuSans-45" d="M 628 4666 
L 3578 4666 
L 3578 4134 
L 1259 4134 
L 1259 2753 
L 3481 2753 
L 3481 2222 
L 1259 2222 
L 1259 531 
L 3634 531 
L 3634 0 
L 628 0 
L 628 4666 
z
" transform="scale(0.015625)"/>
       <path id="DejaVuSans-70" d="M 1159 525 
L 1159 -1331 
L 581 -1331 
L 581 3500 
L 1159 3500 
L 1159 2969 
Q 1341 3281 1617 3432 
Q 1894 3584 2278 3584 
Q 2916 3584 3314 3078 
Q 3713 2572 3713 1747 
Q 3713 922 3314 415 
Q 2916 -91 2278 -91 
Q 1894 -91 1617 61 
Q 1341 213 1159 525 
z
M 3116 1747 
Q 3116 2381 2855 2742 
Q 2594 3103 2138 3103 
Q 1681 3103 1420 2742 
Q 1159 2381 1159 1747 
Q 1159 1113 1420 752 
Q 1681 391 2138 391 
Q 2594 391 2855 752 
Q 3116 1113 3116 1747 
z
" transform="scale(0.015625)"/>
       <path id="DejaVuSans-28" d="M 1984 4856 
Q 1566 4138 1362 3434 
Q 1159 2731 1159 2009 
Q 1159 1288 1364 580 
Q 1569 -128 1984 -844 
L 1484 -844 
Q 1016 -109 783 600 
Q 550 1309 550 2009 
Q 550 2706 781 3412 
Q 1013 4119 1484 4856 
L 1984 4856 
z
" transform="scale(0.015625)"/>
       <path id="DejaVuSans-46" d="M 628 4666 
L 3309 4666 
L 3309 4134 
L 1259 4134 
L 1259 2759 
L 3109 2759 
L 3109 2228 
L 1259 2228 
L 1259 0 
L 628 0 
L 628 4666 
z
" transform="scale(0.015625)"/>
       <path id="DejaVuSans-61" d="M 2194 1759 
Q 1497 1759 1228 1600 
Q 959 1441 959 1056 
Q 959 750 1161 570 
Q 1363 391 1709 391 
Q 2188 391 2477 730 
Q 2766 1069 2766 1631 
L 2766 1759 
L 2194 1759 
z
M 3341 1997 
L 3341 0 
L 2766 0 
L 2766 531 
Q 2569 213 2275 61 
Q 1981 -91 1556 -91 
Q 1019 -91 701 211 
Q 384 513 384 1019 
Q 384 1609 779 1909 
Q 1175 2209 1959 2209 
L 2766 2209 
L 2766 2266 
Q 2766 2663 2505 2880 
Q 2244 3097 1772 3097 
Q 1472 3097 1187 3025 
Q 903 2953 641 2809 
L 641 3341 
Q 956 3463 1253 3523 
Q 1550 3584 1831 3584 
Q 2591 3584 2966 3190 
Q 3341 2797 3341 1997 
z
" transform="scale(0.015625)"/>
       <path id="DejaVuSans-73" d="M 2834 3397 
L 2834 2853 
Q 2591 2978 2328 3040 
Q 2066 3103 1784 3103 
Q 1356 3103 1142 2972 
Q 928 2841 928 2578 
Q 928 2378 1081 2264 
Q 1234 2150 1697 2047 
L 1894 2003 
Q 2506 1872 2764 1633 
Q 3022 1394 3022 966 
Q 3022 478 2636 193 
Q 2250 -91 1575 -91 
Q 1294 -91 989 -36 
Q 684 19 347 128 
L 347 722 
Q 666 556 975 473 
Q 1284 391 1588 391 
Q 1994 391 2212 530 
Q 2431 669 2431 922 
Q 2431 1156 2273 1281 
Q 2116 1406 1581 1522 
L 1381 1569 
Q 847 1681 609 1914 
Q 372 2147 372 2553 
Q 372 3047 722 3315 
Q 1072 3584 1716 3584 
Q 2034 3584 2315 3537 
Q 2597 3491 2834 3397 
z
" transform="scale(0.015625)"/>
       <path id="DejaVuSans-74" d="M 1172 4494 
L 1172 3500 
L 2356 3500 
L 2356 3053 
L 1172 3053 
L 1172 1153 
Q 1172 725 1289 603 
Q 1406 481 1766 481 
L 2356 481 
L 2356 0 
L 1766 0 
Q 1100 0 847 248 
Q 594 497 594 1153 
L 594 3053 
L 172 3053 
L 172 3500 
L 594 3500 
L 594 4494 
L 1172 4494 
z
" transform="scale(0.015625)"/>
       <path id="DejaVuSans-69" d="M 603 3500 
L 1178 3500 
L 1178 0 
L 603 0 
L 603 3500 
z
M 603 4863 
L 1178 4863 
L 1178 4134 
L 603 4134 
L 603 4863 
z
" transform="scale(0.015625)"/>
       <path id="DejaVuSans-6e" d="M 3513 2113 
L 3513 0 
L 2938 0 
L 2938 2094 
Q 2938 2591 2744 2837 
Q 2550 3084 2163 3084 
Q 1697 3084 1428 2787 
Q 1159 2491 1159 1978 
L 1159 0 
L 581 0 
L 581 3500 
L 1159 3500 
L 1159 2956 
Q 1366 3272 1645 3428 
Q 1925 3584 2291 3584 
Q 2894 3584 3203 3211 
Q 3513 2838 3513 2113 
z
" transform="scale(0.015625)"/>
       <path id="DejaVuSans-5f" d="M 3263 -1063 
L 3263 -1509 
L -63 -1509 
L -63 -1063 
L 3263 -1063 
z
" transform="scale(0.015625)"/>
       <path id="DejaVuSans-54" d="M -19 4666 
L 3928 4666 
L 3928 4134 
L 2272 4134 
L 2272 0 
L 1638 0 
L 1638 4134 
L -19 4134 
L -19 4666 
z
" transform="scale(0.015625)"/>
       <path id="DejaVuSans-29" d="M 513 4856 
L 1013 4856 
Q 1481 4119 1714 3412 
Q 1947 2706 1947 2009 
Q 1947 1309 1714 600 
Q 1481 -109 1013 -844 
L 513 -844 
Q 928 -128 1133 580 
Q 1338 1288 1338 2009 
Q 1338 2731 1133 3434 
Q 928 4138 513 4856 
z
" transform="scale(0.015625)"/>
      </defs>
      <use xlink:href="#DejaVuSans-31"/>
      <use xlink:href="#DejaVuSans-30" transform="translate(63.623047 0)"/>
      <use xlink:href="#DejaVuSans-20" transform="translate(127.246094 0)"/>
      <use xlink:href="#DejaVuSans-6d" transform="translate(159.033203 0)"/>
      <use xlink:href="#DejaVuSans-67" transform="translate(256.445312 0)"/>
      <use xlink:href="#DejaVuSans-20" transform="translate(319.921875 0)"/>
      <use xlink:href="#DejaVuSans-45" transform="translate(351.708984 0)"/>
      <use xlink:href="#DejaVuSans-6d" transform="translate(414.892578 0)"/>
      <use xlink:href="#DejaVuSans-70" transform="translate(512.304688 0)"/>
      <use xlink:href="#DejaVuSans-20" transform="translate(575.78125 0)"/>
      <use xlink:href="#DejaVuSans-28" transform="translate(607.568359 0)"/>
      <use xlink:href="#DejaVuSans-46" transform="translate(646.582031 0)"/>
      <use xlink:href="#DejaVuSans-61" transform="translate(694.976562 0)"/>
      <use xlink:href="#DejaVuSans-73" transform="translate(756.255859 0)"/>
      <use xlink:href="#DejaVuSans-74" transform="translate(808.355469 0)"/>
      <use xlink:href="#DejaVuSans-69" transform="translate(847.564453 0)"/>
      <use xlink:href="#DejaVuSans-6e" transform="translate(875.347656 0)"/>
      <use xlink:href="#DejaVuSans-67" transform="translate(938.726562 0)"/>
      <use xlink:href="#DejaVuSans-5f" transform="translate(1002.203125 0)"/>
      <use xlink:href="#DejaVuSans-54" transform="translate(1052.203125 0)"/>
      <use xlink:href="#DejaVuSans-29" transform="translate(1113.287109 0)"/>
     </g>
    </g>
    <g id="LineCollection_5">
     <path d="M 286.863406 72.949219 
L 286.863406 63.949219 
" style="fill: none; stroke: #000000"/>
    </g>
    <g id="line2d_21">
     <path d="M 277.863406 68.449219 
L 295.863406 68.449219 
" style="fill: none; stroke-dasharray: 3.7,1.6; stroke-dashoffset: 0; stroke: #000000"/>
    </g>
    <g id="line2d_22">
     <g>
      <use xlink:href="#m887822eae5" x="286.863406" y="68.449219" style="stroke: #000000; stroke-linejoin: miter"/>
     </g>
    </g>
    <g id="text_14">
     <!-- 10 mg Emp (Fasting_T)±SD (n=29) -->
     <g transform="translate(303.063406 71.599219) scale(0.09 -0.09)">
      <defs>
       <path id="DejaVuSans-b1" d="M 2944 4013 
L 2944 2803 
L 4684 2803 
L 4684 2272 
L 2944 2272 
L 2944 1063 
L 2419 1063 
L 2419 2272 
L 678 2272 
L 678 2803 
L 2419 2803 
L 2419 4013 
L 2944 4013 
z
M 678 531 
L 4684 531 
L 4684 0 
L 678 0 
L 678 531 
z
" transform="scale(0.015625)"/>
       <path id="DejaVuSans-53" d="M 3425 4513 
L 3425 3897 
Q 3066 4069 2747 4153 
Q 2428 4238 2131 4238 
Q 1616 4238 1336 4038 
Q 1056 3838 1056 3469 
Q 1056 3159 1242 3001 
Q 1428 2844 1947 2747 
L 2328 2669 
Q 3034 2534 3370 2195 
Q 3706 1856 3706 1288 
Q 3706 609 3251 259 
Q 2797 -91 1919 -91 
Q 1588 -91 1214 -16 
Q 841 59 441 206 
L 441 856 
Q 825 641 1194 531 
Q 1563 422 1919 422 
Q 2459 422 2753 634 
Q 3047 847 3047 1241 
Q 3047 1584 2836 1778 
Q 2625 1972 2144 2069 
L 1759 2144 
Q 1053 2284 737 2584 
Q 422 2884 422 3419 
Q 422 4038 858 4394 
Q 1294 4750 2059 4750 
Q 2388 4750 2728 4690 
Q 3069 4631 3425 4513 
z
" transform="scale(0.015625)"/>
       <path id="DejaVuSans-44" d="M 1259 4147 
L 1259 519 
L 2022 519 
Q 2988 519 3436 956 
Q 3884 1394 3884 2338 
Q 3884 3275 3436 3711 
Q 2988 4147 2022 4147 
L 1259 4147 
z
M 628 4666 
L 1925 4666 
Q 3281 4666 3915 4102 
Q 4550 3538 4550 2338 
Q 4550 1131 3912 565 
Q 3275 0 1925 0 
L 628 0 
L 628 4666 
z
" transform="scale(0.015625)"/>
       <path id="DejaVuSans-3d" d="M 678 2906 
L 4684 2906 
L 4684 2381 
L 678 2381 
L 678 2906 
z
M 678 1631 
L 4684 1631 
L 4684 1100 
L 678 1100 
L 678 1631 
z
" transform="scale(0.015625)"/>
       <path id="DejaVuSans-39" d="M 703 97 
L 703 672 
Q 941 559 1184 500 
Q 1428 441 1663 441 
Q 2288 441 2617 861 
Q 2947 1281 2994 2138 
Q 2813 1869 2534 1725 
Q 2256 1581 1919 1581 
Q 1219 1581 811 2004 
Q 403 2428 403 3163 
Q 403 3881 828 4315 
Q 1253 4750 1959 4750 
Q 2769 4750 3195 4129 
Q 3622 3509 3622 2328 
Q 3622 1225 3098 567 
Q 2575 -91 1691 -91 
Q 1453 -91 1209 -44 
Q 966 3 703 97 
z
M 1959 2075 
Q 2384 2075 2632 2365 
Q 2881 2656 2881 3163 
Q 2881 3666 2632 3958 
Q 2384 4250 1959 4250 
Q 1534 4250 1286 3958 
Q 1038 3666 1038 3163 
Q 1038 2656 1286 2365 
Q 1534 2075 1959 2075 
z
" transform="scale(0.015625)"/>
      </defs>
      <use xlink:href="#DejaVuSans-31"/>
      <use xlink:href="#DejaVuSans-30" transform="translate(63.623047 0)"/>
      <use xlink:href="#DejaVuSans-20" transform="translate(127.246094 0)"/>
      <use xlink:href="#DejaVuSans-6d" transform="translate(159.033203 0)"/>
      <use xlink:href="#DejaVuSans-67" transform="translate(256.445312 0)"/>
      <use xlink:href="#DejaVuSans-20" transform="translate(319.921875 0)"/>
      <use xlink:href="#DejaVuSans-45" transform="translate(351.708984 0)"/>
      <use xlink:href="#DejaVuSans-6d" transform="translate(414.892578 0)"/>
      <use xlink:href="#DejaVuSans-70" transform="translate(512.304688 0)"/>
      <use xlink:href="#DejaVuSans-20" transform="translate(575.78125 0)"/>
      <use xlink:href="#DejaVuSans-28" transform="translate(607.568359 0)"/>
      <use xlink:href="#DejaVuSans-46" transform="translate(646.582031 0)"/>
      <use xlink:href="#DejaVuSans-61" transform="translate(694.976562 0)"/>
      <use xlink:href="#DejaVuSans-73" transform="translate(756.255859 0)"/>
      <use xlink:href="#DejaVuSans-74" transform="translate(808.355469 0)"/>
      <use xlink:href="#DejaVuSans-69" transform="translate(847.564453 0)"/>
      <use xlink:href="#DejaVuSans-6e" transform="translate(875.347656 0)"/>
      <use xlink:href="#DejaVuSans-67" transform="translate(938.726562 0)"/>
      <use xlink:href="#DejaVuSans-5f" transform="translate(1002.203125 0)"/>
      <use xlink:href="#DejaVuSans-54" transform="translate(1052.203125 0)"/>
      <use xlink:href="#DejaVuSans-29" transform="translate(1113.287109 0)"/>
      <use xlink:href="#DejaVuSans-b1" transform="translate(1152.300781 0)"/>
      <use xlink:href="#DejaVuSans-53" transform="translate(1236.089844 0)"/>
      <use xlink:href="#DejaVuSans-44" transform="translate(1299.566406 0)"/>
      <use xlink:href="#DejaVuSans-20" transform="translate(1376.568359 0)"/>
      <use xlink:href="#DejaVuSans-28" transform="translate(1408.355469 0)"/>
      <use xlink:href="#DejaVuSans-6e" transform="translate(1447.369141 0)"/>
      <use xlink:href="#DejaVuSans-3d" transform="translate(1510.748047 0)"/>
      <use xlink:href="#DejaVuSans-32" transform="translate(1594.537109 0)"/>
      <use xlink:href="#DejaVuSans-39" transform="translate(1658.160156 0)"/>
      <use xlink:href="#DejaVuSans-29" transform="translate(1721.783203 0)"/>
     </g>
    </g>
    <g id="line2d_23">
     <path d="M 277.863406 81.909844 
L 295.863406 81.909844 
" style="fill: none; stroke: #1f77b4; stroke-width: 2; stroke-linecap: square"/>
    </g>
    <g id="line2d_24"/>
    <g id="text_15">
     <!-- 10 mg Emp (Fasting_R) -->
     <g transform="translate(303.063406 85.059844) scale(0.09 -0.09)">
      <defs>
       <path id="DejaVuSans-52" d="M 2841 2188 
Q 3044 2119 3236 1894 
Q 3428 1669 3622 1275 
L 4263 0 
L 3584 0 
L 2988 1197 
Q 2756 1666 2539 1819 
Q 2322 1972 1947 1972 
L 1259 1972 
L 1259 0 
L 628 0 
L 628 4666 
L 2053 4666 
Q 2853 4666 3247 4331 
Q 3641 3997 3641 3322 
Q 3641 2881 3436 2590 
Q 3231 2300 2841 2188 
z
M 1259 4147 
L 1259 2491 
L 2053 2491 
Q 2509 2491 2742 2702 
Q 2975 2913 2975 3322 
Q 2975 3731 2742 3939 
Q 2509 4147 2053 4147 
L 1259 4147 
z
" transform="scale(0.015625)"/>
      </defs>
      <use xlink:href="#DejaVuSans-31"/>
      <use xlink:href="#DejaVuSans-30" transform="translate(63.623047 0)"/>
      <use xlink:href="#DejaVuSans-20" transform="translate(127.246094 0)"/>
      <use xlink:href="#DejaVuSans-6d" transform="translate(159.033203 0)"/>
      <use xlink:href="#DejaVuSans-67" transform="translate(256.445312 0)"/>
      <use xlink:href="#DejaVuSans-20" transform="translate(319.921875 0)"/>
      <use xlink:href="#DejaVuSans-45" transform="translate(351.708984 0)"/>
      <use xlink:href="#DejaVuSans-6d" transform="translate(414.892578 0)"/>
      <use xlink:href="#DejaVuSans-70" transform="translate(512.304688 0)"/>
      <use xlink:href="#DejaVuSans-20" transform="translate(575.78125 0)"/>
      <use xlink:href="#DejaVuSans-28" transform="translate(607.568359 0)"/>
      <use xlink:href="#DejaVuSans-46" transform="translate(646.582031 0)"/>
      <use xlink:href="#DejaVuSans-61" transform="translate(694.976562 0)"/>
      <use xlink:href="#DejaVuSans-73" transform="translate(756.255859 0)"/>
      <use xlink:href="#DejaVuSans-74" transform="translate(808.355469 0)"/>
      <use xlink:href="#DejaVuSans-69" transform="translate(847.564453 0)"/>
      <use xlink:href="#DejaVuSans-6e" transform="translate(875.347656 0)"/>
      <use xlink:href="#DejaVuSans-67" transform="translate(938.726562 0)"/>
      <use xlink:href="#DejaVuSans-5f" transform="translate(1002.203125 0)"/>
      <use xlink:href="#DejaVuSans-52" transform="translate(1052.203125 0)"/>
      <use xlink:href="#DejaVuSans-29" transform="translate(1121.685547 0)"/>
     </g>
    </g>
    <g id="LineCollection_6">
     <path d="M 286.863406 99.870469 
L 286.863406 90.870469 
" style="fill: none; stroke: #1f77b4"/>
    </g>
    <g id="line2d_25">
     <path d="M 277.863406 95.370469 
L 295.863406 95.370469 
" style="fill: none; stroke-dasharray: 3.7,1.6; stroke-dashoffset: 0; stroke: #1f77b4"/>
    </g>
    <g id="line2d_26">
     <g>
      <use xlink:href="#m0deeca1b41" x="286.863406" y="95.370469" style="fill: #1f77b4; stroke: #000000; stroke-linejoin: miter"/>
     </g>
    </g>
    <g id="text_16">
     <!-- 10 mg Emp (Fasting_R)±SD (n=30) -->
     <g transform="translate(303.063406 98.520469) scale(0.09 -0.09)">
      <use xlink:href="#DejaVuSans-31"/>
      <use xlink:href="#DejaVuSans-30" transform="translate(63.623047 0)"/>
      <use xlink:href="#DejaVuSans-20" transform="translate(127.246094 0)"/>
      <use xlink:href="#DejaVuSans-6d" transform="translate(159.033203 0)"/>
      <use xlink:href="#DejaVuSans-67" transform="translate(256.445312 0)"/>
      <use xlink:href="#DejaVuSans-20" transform="translate(319.921875 0)"/>
      <use xlink:href="#DejaVuSans-45" transform="translate(351.708984 0)"/>
      <use xlink:href="#DejaVuSans-6d" transform="translate(414.892578 0)"/>
      <use xlink:href="#DejaVuSans-70" transform="translate(512.304688 0)"/>
      <use xlink:href="#DejaVuSans-20" transform="translate(575.78125 0)"/>
      <use xlink:href="#DejaVuSans-28" transform="translate(607.568359 0)"/>
      <use xlink:href="#DejaVuSans-46" transform="translate(646.582031 0)"/>
      <use xlink:href="#DejaVuSans-61" transform="translate(694.976562 0)"/>
      <use xlink:href="#DejaVuSans-73" transform="translate(756.255859 0)"/>
      <use xlink:href="#DejaVuSans-74" transform="translate(808.355469 0)"/>
      <use xlink:href="#DejaVuSans-69" transform="translate(847.564453 0)"/>
      <use xlink:href="#DejaVuSans-6e" transform="translate(875.347656 0)"/>
      <use xlink:href="#DejaVuSans-67" transform="translate(938.726562 0)"/>
      <use xlink:href="#DejaVuSans-5f" transform="translate(1002.203125 0)"/>
      <use xlink:href="#DejaVuSans-52" transform="translate(1052.203125 0)"/>
      <use xlink:href="#DejaVuSans-29" transform="translate(1121.685547 0)"/>
      <use xlink:href="#DejaVuSans-b1" transform="translate(1160.699219 0)"/>
      <use xlink:href="#DejaVuSans-53" transform="translate(1244.488281 0)"/>
      <use xlink:href="#DejaVuSans-44" transform="translate(1307.964844 0)"/>
      <use xlink:href="#DejaVuSans-20" transform="translate(1384.966797 0)"/>
      <use xlink:href="#DejaVuSans-28" transform="translate(1416.753906 0)"/>
      <use xlink:href="#DejaVuSans-6e" transform="translate(1455.767578 0)"/>
      <use xlink:href="#DejaVuSans-3d" transform="translate(1519.146484 0)"/>
      <use xlink:href="#DejaVuSans-33" transform="translate(1602.935547 0)"/>
      <use xlink:href="#DejaVuSans-30" transform="translate(1666.558594 0)"/>
      <use xlink:href="#DejaVuSans-29" transform="translate(1730.181641 0)"/>
     </g>
    </g>
    <g id="line2d_27">
     <path d="M 277.863406 108.831094 
L 295.863406 108.831094 
" style="fill: none; stroke: #2ca02c; stroke-width: 2; stroke-linecap: square"/>
    </g>
    <g id="line2d_28"/>
    <g id="text_17">
     <!-- 10 mg Emp (Fed_T) -->
     <g transform="translate(303.063406 111.981094) scale(0.09 -0.09)">
      <defs>
       <path id="DejaVuSans-65" d="M 3597 1894 
L 3597 1613 
L 953 1613 
Q 991 1019 1311 708 
Q 1631 397 2203 397 
Q 2534 397 2845 478 
Q 3156 559 3463 722 
L 3463 178 
Q 3153 47 2828 -22 
Q 2503 -91 2169 -91 
Q 1331 -91 842 396 
Q 353 884 353 1716 
Q 353 2575 817 3079 
Q 1281 3584 2069 3584 
Q 2775 3584 3186 3129 
Q 3597 2675 3597 1894 
z
M 3022 2063 
Q 3016 2534 2758 2815 
Q 2500 3097 2075 3097 
Q 1594 3097 1305 2825 
Q 1016 2553 972 2059 
L 3022 2063 
z
" transform="scale(0.015625)"/>
       <path id="DejaVuSans-64" d="M 2906 2969 
L 2906 4863 
L 3481 4863 
L 3481 0 
L 2906 0 
L 2906 525 
Q 2725 213 2448 61 
Q 2172 -91 1784 -91 
Q 1150 -91 751 415 
Q 353 922 353 1747 
Q 353 2572 751 3078 
Q 1150 3584 1784 3584 
Q 2172 3584 2448 3432 
Q 2725 3281 2906 2969 
z
M 947 1747 
Q 947 1113 1208 752 
Q 1469 391 1925 391 
Q 2381 391 2643 752 
Q 2906 1113 2906 1747 
Q 2906 2381 2643 2742 
Q 2381 3103 1925 3103 
Q 1469 3103 1208 2742 
Q 947 2381 947 1747 
z
" transform="scale(0.015625)"/>
      </defs>
      <use xlink:href="#DejaVuSans-31"/>
      <use xlink:href="#DejaVuSans-30" transform="translate(63.623047 0)"/>
      <use xlink:href="#DejaVuSans-20" transform="translate(127.246094 0)"/>
      <use xlink:href="#DejaVuSans-6d" transform="translate(159.033203 0)"/>
      <use xlink:href="#DejaVuSans-67" transform="translate(256.445312 0)"/>
      <use xlink:href="#DejaVuSans-20" transform="translate(319.921875 0)"/>
      <use xlink:href="#DejaVuSans-45" transform="translate(351.708984 0)"/>
      <use xlink:href="#DejaVuSans-6d" transform="translate(414.892578 0)"/>
      <use xlink:href="#DejaVuSans-70" transform="translate(512.304688 0)"/>
      <use xlink:href="#DejaVuSans-20" transform="translate(575.78125 0)"/>
      <use xlink:href="#DejaVuSans-28" transform="translate(607.568359 0)"/>
      <use xlink:href="#DejaVuSans-46" transform="translate(646.582031 0)"/>
      <use xlink:href="#DejaVuSans-65" transform="translate(698.601562 0)"/>
      <use xlink:href="#DejaVuSans-64" transform="translate(760.125 0)"/>
      <use xlink:href="#DejaVuSans-5f" transform="translate(823.601562 0)"/>
      <use xlink:href="#DejaVuSans-54" transform="translate(873.601562 0)"/>
      <use xlink:href="#DejaVuSans-29" transform="translate(934.685547 0)"/>
     </g>
    </g>
    <g id="LineCollection_7">
     <path d="M 286.863406 126.791719 
L 286.863406 117.791719 
" style="fill: none; stroke: #2ca02c"/>
    </g>
    <g id="line2d_29">
     <path d="M 277.863406 122.291719 
L 295.863406 122.291719 
" style="fill: none; stroke-dasharray: 3.7,1.6; stroke-dashoffset: 0; stroke: #2ca02c"/>
    </g>
    <g id="line2d_30">
     <g>
      <use xlink:href="#m4b761fb9b0" x="286.863406" y="122.291719" style="fill: #2ca02c; stroke: #000000; stroke-linejoin: miter"/>
     </g>
    </g>
    <g id="text_18">
     <!-- 10 mg Emp (Fed_T)±SD (n=29) -->
     <g transform="translate(303.063406 125.441719) scale(0.09 -0.09)">
      <use xlink:href="#DejaVuSans-31"/>
      <use xlink:href="#DejaVuSans-30" transform="translate(63.623047 0)"/>
      <use xlink:href="#DejaVuSans-20" transform="translate(127.246094 0)"/>
      <use xlink:href="#DejaVuSans-6d" transform="translate(159.033203 0)"/>
      <use xlink:href="#DejaVuSans-67" transform="translate(256.445312 0)"/>
      <use xlink:href="#DejaVuSans-20" transform="translate(319.921875 0)"/>
      <use xlink:href="#DejaVuSans-45" transform="translate(351.708984 0)"/>
      <use xlink:href="#DejaVuSans-6d" transform="translate(414.892578 0)"/>
      <use xlink:href="#DejaVuSans-70" transform="translate(512.304688 0)"/>
      <use xlink:href="#DejaVuSans-20" transform="translate(575.78125 0)"/>
      <use xlink:href="#DejaVuSans-28" transform="translate(607.568359 0)"/>
      <use xlink:href="#DejaVuSans-46" transform="translate(646.582031 0)"/>
      <use xlink:href="#DejaVuSans-65" transform="translate(698.601562 0)"/>
      <use xlink:href="#DejaVuSans-64" transform="translate(760.125 0)"/>
      <use xlink:href="#DejaVuSans-5f" transform="translate(823.601562 0)"/>
      <use xlink:href="#DejaVuSans-54" transform="translate(873.601562 0)"/>
      <use xlink:href="#DejaVuSans-29" transform="translate(934.685547 0)"/>
      <use xlink:href="#DejaVuSans-b1" transform="translate(973.699219 0)"/>
      <use xlink:href="#DejaVuSans-53" transform="translate(1057.488281 0)"/>
      <use xlink:href="#DejaVuSans-44" transform="translate(1120.964844 0)"/>
      <use xlink:href="#DejaVuSans-20" transform="translate(1197.966797 0)"/>
      <use xlink:href="#DejaVuSans-28" transform="translate(1229.753906 0)"/>
      <use xlink:href="#DejaVuSans-6e" transform="translate(1268.767578 0)"/>
      <use xlink:href="#DejaVuSans-3d" transform="translate(1332.146484 0)"/>
      <use xlink:href="#DejaVuSans-32" transform="translate(1415.935547 0)"/>
      <use xlink:href="#DejaVuSans-39" transform="translate(1479.558594 0)"/>
      <use xlink:href="#DejaVuSans-29" transform="translate(1543.181641 0)"/>
     </g>
    </g>
    <g id="line2d_31">
     <path d="M 277.863406 135.752344 
L 295.863406 135.752344 
" style="fill: none; stroke: #ff7f0e; stroke-width: 2; stroke-linecap: square"/>
    </g>
    <g id="line2d_32"/>
    <g id="text_19">
     <!-- 10 mg Emp (Fed_R) -->
     <g transform="translate(303.063406 138.902344) scale(0.09 -0.09)">
      <use xlink:href="#DejaVuSans-31"/>
      <use xlink:href="#DejaVuSans-30" transform="translate(63.623047 0)"/>
      <use xlink:href="#DejaVuSans-20" transform="translate(127.246094 0)"/>
      <use xlink:href="#DejaVuSans-6d" transform="translate(159.033203 0)"/>
      <use xlink:href="#DejaVuSans-67" transform="translate(256.445312 0)"/>
      <use xlink:href="#DejaVuSans-20" transform="translate(319.921875 0)"/>
      <use xlink:href="#DejaVuSans-45" transform="translate(351.708984 0)"/>
      <use xlink:href="#DejaVuSans-6d" transform="translate(414.892578 0)"/>
      <use xlink:href="#DejaVuSans-70" transform="translate(512.304688 0)"/>
      <use xlink:href="#DejaVuSans-20" transform="translate(575.78125 0)"/>
      <use xlink:href="#DejaVuSans-28" transform="translate(607.568359 0)"/>
      <use xlink:href="#DejaVuSans-46" transform="translate(646.582031 0)"/>
      <use xlink:href="#DejaVuSans-65" transform="translate(698.601562 0)"/>
      <use xlink:href="#DejaVuSans-64" transform="translate(760.125 0)"/>
      <use xlink:href="#DejaVuSans-5f" transform="translate(823.601562 0)"/>
      <use xlink:href="#DejaVuSans-52" transform="translate(873.601562 0)"/>
      <use xlink:href="#DejaVuSans-29" transform="translate(943.083984 0)"/>
     </g>
    </g>
    <g id="LineCollection_8">
     <path d="M 286.863406 153.712969 
L 286.863406 144.712969 
" style="fill: none; stroke: #ff7f0e"/>
    </g>
    <g id="line2d_33">
     <path d="M 277.863406 149.212969 
L 295.863406 149.212969 
" style="fill: none; stroke-dasharray: 3.7,1.6; stroke-dashoffset: 0; stroke: #ff7f0e"/>
    </g>
    <g id="line2d_34">
     <g>
      <use xlink:href="#m46959d7052" x="286.863406" y="149.212969" style="fill: #ff7f0e; stroke: #000000; stroke-linejoin: miter"/>
     </g>
    </g>
    <g id="text_20">
     <!-- 10 mg Emp (Fed_R)±SD (n=29) -->
     <g transform="translate(303.063406 152.362969) scale(0.09 -0.09)">
      <use xlink:href="#DejaVuSans-31"/>
      <use xlink:href="#DejaVuSans-30" transform="translate(63.623047 0)"/>
      <use xlink:href="#DejaVuSans-20" transform="translate(127.246094 0)"/>
      <use xlink:href="#DejaVuSans-6d" transform="translate(159.033203 0)"/>
      <use xlink:href="#DejaVuSans-67" transform="translate(256.445312 0)"/>
      <use xlink:href="#DejaVuSans-20" transform="translate(319.921875 0)"/>
      <use xlink:href="#DejaVuSans-45" transform="translate(351.708984 0)"/>
      <use xlink:href="#DejaVuSans-6d" transform="translate(414.892578 0)"/>
      <use xlink:href="#DejaVuSans-70" transform="translate(512.304688 0)"/>
      <use xlink:href="#DejaVuSans-20" transform="translate(575.78125 0)"/>
      <use xlink:href="#DejaVuSans-28" transform="translate(607.568359 0)"/>
      <use xlink:href="#DejaVuSans-46" transform="translate(646.582031 0)"/>
      <use xlink:href="#DejaVuSans-65" transform="translate(698.601562 0)"/>
      <use xlink:href="#DejaVuSans-64" transform="translate(760.125 0)"/>
      <use xlink:href="#DejaVuSans-5f" transform="translate(823.601562 0)"/>
      <use xlink:href="#DejaVuSans-52" transform="translate(873.601562 0)"/>
      <use xlink:href="#DejaVuSans-29" transform="translate(943.083984 0)"/>
      <use xlink:href="#DejaVuSans-b1" transform="translate(982.097656 0)"/>
      <use xlink:href="#DejaVuSans-53" transform="translate(1065.886719 0)"/>
      <use xlink:href="#DejaVuSans-44" transform="translate(1129.363281 0)"/>
      <use xlink:href="#DejaVuSans-20" transform="translate(1206.365234 0)"/>
      <use xlink:href="#DejaVuSans-28" transform="translate(1238.152344 0)"/>
      <use xlink:href="#DejaVuSans-6e" transform="translate(1277.166016 0)"/>
      <use xlink:href="#DejaVuSans-3d" transform="translate(1340.544922 0)"/>
      <use xlink:href="#DejaVuSans-32" transform="translate(1424.333984 0)"/>
      <use xlink:href="#DejaVuSans-39" transform="translate(1487.957031 0)"/>
      <use xlink:href="#DejaVuSans-29" transform="translate(1551.580078 0)"/>
     </g>
    </g>
   </g>
  </g>
  <g id="text_21">
   <!-- Chen2020 (Healthy) -->
   <g transform="translate(128.094422 26.196094) scale(0.25 -0.25)">
    <defs>
     <path id="DejaVuSans-Bold-43" d="M 4288 256 
Q 3956 84 3597 -3 
Q 3238 -91 2847 -91 
Q 1681 -91 1000 561 
Q 319 1213 319 2328 
Q 319 3447 1000 4098 
Q 1681 4750 2847 4750 
Q 3238 4750 3597 4662 
Q 3956 4575 4288 4403 
L 4288 3438 
Q 3953 3666 3628 3772 
Q 3303 3878 2944 3878 
Q 2300 3878 1931 3465 
Q 1563 3053 1563 2328 
Q 1563 1606 1931 1193 
Q 2300 781 2944 781 
Q 3303 781 3628 887 
Q 3953 994 4288 1222 
L 4288 256 
z
" transform="scale(0.015625)"/>
     <path id="DejaVuSans-Bold-32" d="M 1844 884 
L 3897 884 
L 3897 0 
L 506 0 
L 506 884 
L 2209 2388 
Q 2438 2594 2547 2791 
Q 2656 2988 2656 3200 
Q 2656 3528 2436 3728 
Q 2216 3928 1850 3928 
Q 1569 3928 1234 3808 
Q 900 3688 519 3450 
L 519 4475 
Q 925 4609 1322 4679 
Q 1719 4750 2100 4750 
Q 2938 4750 3402 4381 
Q 3866 4013 3866 3353 
Q 3866 2972 3669 2642 
Q 3472 2313 2841 1759 
L 1844 884 
z
" transform="scale(0.015625)"/>
     <path id="DejaVuSans-Bold-30" d="M 2944 2338 
Q 2944 3213 2780 3570 
Q 2616 3928 2228 3928 
Q 1841 3928 1675 3570 
Q 1509 3213 1509 2338 
Q 1509 1453 1675 1090 
Q 1841 728 2228 728 
Q 2613 728 2778 1090 
Q 2944 1453 2944 2338 
z
M 4147 2328 
Q 4147 1169 3647 539 
Q 3147 -91 2228 -91 
Q 1306 -91 806 539 
Q 306 1169 306 2328 
Q 306 3491 806 4120 
Q 1306 4750 2228 4750 
Q 3147 4750 3647 4120 
Q 4147 3491 4147 2328 
z
" transform="scale(0.015625)"/>
     <path id="DejaVuSans-Bold-28" d="M 2413 -844 
L 1484 -844 
Q 1006 -72 778 623 
Q 550 1319 550 2003 
Q 550 2688 779 3389 
Q 1009 4091 1484 4856 
L 2413 4856 
Q 2013 4116 1813 3408 
Q 1613 2700 1613 2009 
Q 1613 1319 1811 609 
Q 2009 -100 2413 -844 
z
" transform="scale(0.015625)"/>
     <path id="DejaVuSans-Bold-48" d="M 588 4666 
L 1791 4666 
L 1791 2888 
L 3566 2888 
L 3566 4666 
L 4769 4666 
L 4769 0 
L 3566 0 
L 3566 1978 
L 1791 1978 
L 1791 0 
L 588 0 
L 588 4666 
z
" transform="scale(0.015625)"/>
     <path id="DejaVuSans-Bold-74" d="M 1759 4494 
L 1759 3500 
L 2913 3500 
L 2913 2700 
L 1759 2700 
L 1759 1216 
Q 1759 972 1856 886 
Q 1953 800 2241 800 
L 2816 800 
L 2816 0 
L 1856 0 
Q 1194 0 917 276 
Q 641 553 641 1216 
L 641 2700 
L 84 2700 
L 84 3500 
L 641 3500 
L 641 4494 
L 1759 4494 
z
" transform="scale(0.015625)"/>
     <path id="DejaVuSans-Bold-79" d="M 78 3500 
L 1197 3500 
L 2138 1125 
L 2938 3500 
L 4056 3500 
L 2584 -331 
Q 2363 -916 2067 -1148 
Q 1772 -1381 1288 -1381 
L 641 -1381 
L 641 -647 
L 991 -647 
Q 1275 -647 1404 -556 
Q 1534 -466 1606 -231 
L 1638 -134 
L 78 3500 
z
" transform="scale(0.015625)"/>
     <path id="DejaVuSans-Bold-29" d="M 513 -844 
Q 913 -100 1113 609 
Q 1313 1319 1313 2009 
Q 1313 2700 1113 3408 
Q 913 4116 513 4856 
L 1441 4856 
Q 1916 4091 2145 3389 
Q 2375 2688 2375 2003 
Q 2375 1319 2147 623 
Q 1919 -72 1441 -844 
L 513 -844 
z
" transform="scale(0.015625)"/>
    </defs>
    <use xlink:href="#DejaVuSans-Bold-43"/>
    <use xlink:href="#DejaVuSans-Bold-68" transform="translate(73.388672 0)"/>
    <use xlink:href="#DejaVuSans-Bold-65" transform="translate(144.580078 0)"/>
    <use xlink:href="#DejaVuSans-Bold-6e" transform="translate(212.402344 0)"/>
    <use xlink:href="#DejaVuSans-Bold-32" transform="translate(283.59375 0)"/>
    <use xlink:href="#DejaVuSans-Bold-30" transform="translate(353.173828 0)"/>
    <use xlink:href="#DejaVuSans-Bold-32" transform="translate(422.753906 0)"/>
    <use xlink:href="#DejaVuSans-Bold-30" transform="translate(492.333984 0)"/>
    <use xlink:href="#DejaVuSans-Bold-20" transform="translate(561.914062 0)"/>
    <use xlink:href="#DejaVuSans-Bold-28" transform="translate(596.728516 0)"/>
    <use xlink:href="#DejaVuSans-Bold-48" transform="translate(642.431641 0)"/>
    <use xlink:href="#DejaVuSans-Bold-65" transform="translate(726.123047 0)"/>
    <use xlink:href="#DejaVuSans-Bold-61" transform="translate(793.945312 0)"/>
    <use xlink:href="#DejaVuSans-Bold-6c" transform="translate(861.425781 0)"/>
    <use xlink:href="#DejaVuSans-Bold-74" transform="translate(895.703125 0)"/>
    <use xlink:href="#DejaVuSans-Bold-68" transform="translate(943.505859 0)"/>
    <use xlink:href="#DejaVuSans-Bold-79" transform="translate(1014.697266 0)"/>
    <use xlink:href="#DejaVuSans-Bold-29" transform="translate(1079.882812 0)"/>
   </g>
  </g>
 </g>
 <defs>
  <clipPath id="p6018f3aa1d">
   <rect x="79.791687" y="43.2" width="390.6" height="277.2"/>
  </clipPath>
 </defs>
</svg>
