<?xml version="1.0" encoding="utf-8" standalone="no"?>
<!DOCTYPE svg PUBLIC "-//W3C//DTD SVG 1.1//EN"
  "http://www.w3.org/Graphics/SVG/1.1/DTD/svg11.dtd">
<svg xmlns:xlink="http://www.w3.org/1999/xlink" width="880.761219pt" height="370.537812pt" viewBox="0 0 880.761219 370.537812" xmlns="http://www.w3.org/2000/svg" version="1.1">
 <metadata>
  <rdf:RDF xmlns:dc="http://purl.org/dc/elements/1.1/" xmlns:cc="http://creativecommons.org/ns#" xmlns:rdf="http://www.w3.org/1999/02/22-rdf-syntax-ns#">
   <cc:Work>
    <dc:type rdf:resource="http://purl.org/dc/dcmitype/StillImage"/>
    <dc:date>2026-02-04T11:46:11.771884</dc:date>
    <dc:format>image/svg+xml</dc:format>
    <dc:creator>
     <cc:Agent>
      <dc:title>Matplotlib v3.10.7, https://matplotlib.org/</dc:title>
     </cc:Agent>
    </dc:creator>
   </cc:Work>
  </rdf:RDF>
 </metadata>
 <defs>
  <style type="text/css">*{stroke-linejoin: round; stroke-linecap: butt}</style>
 </defs>
 <g id="figure_1">
  <g id="patch_1">
   <path d="M 0 370.537812 
L 880.761219 370.537812 
L 880.761219 0 
L 0 0 
z
" style="fill: #ffffff"/>
  </g>
  <g id="axes_1">
   <g id="patch_2">
    <path d="M 92.361219 320.4 
L 432.013393 320.4 
L 432.013393 43.2 
L 92.361219 43.2 
z
" style="fill: #ffffff"/>
   </g>
   <g id="matplotlib.axis_1">
    <g id="xtick_1">
     <g id="line2d_1">
      <defs>
       <path id="mf6a38500d6" d="M 0 0 
L 0 3.5 
" style="stroke: #000000; stroke-width: 0.8"/>
      </defs>
      <g>
       <use xlink:href="#mf6a38500d6" x="92.361219" y="320.4" style="stroke: #000000; stroke-width: 0.8"/>
      </g>
     </g>
     <g id="text_1">
      <!-- 640 -->
      <g transform="translate(78.045594 338.797656) scale(0.15 -0.15)">
       <defs>
        <path id="DejaVuSans-36" d="M 2113 2584 
Q 1688 2584 1439 2293 
Q 1191 2003 1191 1497 
Q 1191 994 1439 701 
Q 1688 409 2113 409 
Q 2538 409 2786 701 
Q 3034 994 3034 1497 
Q 3034 2003 2786 2293 
Q 2538 2584 2113 2584 
z
M 3366 4563 
L 3366 3988 
Q 3128 4100 2886 4159 
Q 2644 4219 2406 4219 
Q 1781 4219 1451 3797 
Q 1122 3375 1075 2522 
Q 1259 2794 1537 2939 
Q 1816 3084 2150 3084 
Q 2853 3084 3261 2657 
Q 3669 2231 3669 1497 
Q 3669 778 3244 343 
Q 2819 -91 2113 -91 
Q 1303 -91 875 529 
Q 447 1150 447 2328 
Q 447 3434 972 4092 
Q 1497 4750 2381 4750 
Q 2619 4750 2861 4703 
Q 3103 4656 3366 4563 
z
" transform="scale(0.015625)"/>
        <path id="DejaVuSans-34" d="M 2419 4116 
L 825 1625 
L 2419 1625 
L 2419 4116 
z
M 2253 4666 
L 3047 4666 
L 3047 1625 
L 3713 1625 
L 3713 1100 
L 3047 1100 
L 3047 0 
L 2419 0 
L 2419 1100 
L 313 1100 
L 313 1709 
L 2253 4666 
z
" transform="scale(0.015625)"/>
        <path id="DejaVuSans-30" d="M 2034 4250 
Q 1547 4250 1301 3770 
Q 1056 3291 1056 2328 
Q 1056 1369 1301 889 
Q 1547 409 2034 409 
Q 2525 409 2770 889 
Q 3016 1369 3016 2328 
Q 3016 3291 2770 3770 
Q 2525 4250 2034 4250 
z
M 2034 4750 
Q 2819 4750 3233 4129 
Q 3647 3509 3647 2328 
Q 3647 1150 3233 529 
Q 2819 -91 2034 -91 
Q 1250 -91 836 529 
Q 422 1150 422 2328 
Q 422 3509 836 4129 
Q 1250 4750 2034 4750 
z
" transform="scale(0.015625)"/>
       </defs>
       <use xlink:href="#DejaVuSans-36"/>
       <use xlink:href="#DejaVuSans-34" transform="translate(63.623047 0)"/>
       <use xlink:href="#DejaVuSans-30" transform="translate(127.246094 0)"/>
      </g>
     </g>
    </g>
    <g id="xtick_2">
     <g id="line2d_2">
      <g>
       <use xlink:href="#mf6a38500d6" x="154.116159" y="320.4" style="stroke: #000000; stroke-width: 0.8"/>
      </g>
     </g>
     <g id="text_2">
      <!-- 660 -->
      <g transform="translate(139.800534 338.797656) scale(0.15 -0.15)">
       <use xlink:href="#DejaVuSans-36"/>
       <use xlink:href="#DejaVuSans-36" transform="translate(63.623047 0)"/>
       <use xlink:href="#DejaVuSans-30" transform="translate(127.246094 0)"/>
      </g>
     </g>
    </g>
    <g id="xtick_3">
     <g id="line2d_3">
      <g>
       <use xlink:href="#mf6a38500d6" x="215.8711" y="320.4" style="stroke: #000000; stroke-width: 0.8"/>
      </g>
     </g>
     <g id="text_3">
      <!-- 680 -->
      <g transform="translate(201.555475 338.797656) scale(0.15 -0.15)">
       <defs>
        <path id="DejaVuSans-38" d="M 2034 2216 
Q 1584 2216 1326 1975 
Q 1069 1734 1069 1313 
Q 1069 891 1326 650 
Q 1584 409 2034 409 
Q 2484 409 2743 651 
Q 3003 894 3003 1313 
Q 3003 1734 2745 1975 
Q 2488 2216 2034 2216 
z
M 1403 2484 
Q 997 2584 770 2862 
Q 544 3141 544 3541 
Q 544 4100 942 4425 
Q 1341 4750 2034 4750 
Q 2731 4750 3128 4425 
Q 3525 4100 3525 3541 
Q 3525 3141 3298 2862 
Q 3072 2584 2669 2484 
Q 3125 2378 3379 2068 
Q 3634 1759 3634 1313 
Q 3634 634 3220 271 
Q 2806 -91 2034 -91 
Q 1263 -91 848 271 
Q 434 634 434 1313 
Q 434 1759 690 2068 
Q 947 2378 1403 2484 
z
M 1172 3481 
Q 1172 3119 1398 2916 
Q 1625 2713 2034 2713 
Q 2441 2713 2670 2916 
Q 2900 3119 2900 3481 
Q 2900 3844 2670 4047 
Q 2441 4250 2034 4250 
Q 1625 4250 1398 4047 
Q 1172 3844 1172 3481 
z
" transform="scale(0.015625)"/>
       </defs>
       <use xlink:href="#DejaVuSans-36"/>
       <use xlink:href="#DejaVuSans-38" transform="translate(63.623047 0)"/>
       <use xlink:href="#DejaVuSans-30" transform="translate(127.246094 0)"/>
      </g>
     </g>
    </g>
    <g id="xtick_4">
     <g id="line2d_4">
      <g>
       <use xlink:href="#mf6a38500d6" x="277.626041" y="320.4" style="stroke: #000000; stroke-width: 0.8"/>
      </g>
     </g>
     <g id="text_4">
      <!-- 700 -->
      <g transform="translate(263.310416 338.797656) scale(0.15 -0.15)">
       <defs>
        <path id="DejaVuSans-37" d="M 525 4666 
L 3525 4666 
L 3525 4397 
L 1831 0 
L 1172 0 
L 2766 4134 
L 525 4134 
L 525 4666 
z
" transform="scale(0.015625)"/>
       </defs>
       <use xlink:href="#DejaVuSans-37"/>
       <use xlink:href="#DejaVuSans-30" transform="translate(63.623047 0)"/>
       <use xlink:href="#DejaVuSans-30" transform="translate(127.246094 0)"/>
      </g>
     </g>
    </g>
    <g id="xtick_5">
     <g id="line2d_5">
      <g>
       <use xlink:href="#mf6a38500d6" x="339.380982" y="320.4" style="stroke: #000000; stroke-width: 0.8"/>
      </g>
     </g>
     <g id="text_5">
      <!-- 720 -->
      <g transform="translate(325.065357 338.797656) scale(0.15 -0.15)">
       <defs>
        <path id="DejaVuSans-32" d="M 1228 531 
L 3431 531 
L 3431 0 
L 469 0 
L 469 531 
Q 828 903 1448 1529 
Q 2069 2156 2228 2338 
Q 2531 2678 2651 2914 
Q 2772 3150 2772 3378 
Q 2772 3750 2511 3984 
Q 2250 4219 1831 4219 
Q 1534 4219 1204 4116 
Q 875 4013 500 3803 
L 500 4441 
Q 881 4594 1212 4672 
Q 1544 4750 1819 4750 
Q 2544 4750 2975 4387 
Q 3406 4025 3406 3419 
Q 3406 3131 3298 2873 
Q 3191 2616 2906 2266 
Q 2828 2175 2409 1742 
Q 1991 1309 1228 531 
z
" transform="scale(0.015625)"/>
       </defs>
       <use xlink:href="#DejaVuSans-37"/>
       <use xlink:href="#DejaVuSans-32" transform="translate(63.623047 0)"/>
       <use xlink:href="#DejaVuSans-30" transform="translate(127.246094 0)"/>
      </g>
     </g>
    </g>
    <g id="xtick_6">
     <g id="line2d_6">
      <g>
       <use xlink:href="#mf6a38500d6" x="401.135922" y="320.4" style="stroke: #000000; stroke-width: 0.8"/>
      </g>
     </g>
     <g id="text_6">
      <!-- 740 -->
      <g transform="translate(386.820297 338.797656) scale(0.15 -0.15)">
       <use xlink:href="#DejaVuSans-37"/>
       <use xlink:href="#DejaVuSans-34" transform="translate(63.623047 0)"/>
       <use xlink:href="#DejaVuSans-30" transform="translate(127.246094 0)"/>
      </g>
     </g>
    </g>
    <g id="text_7">
     <!-- Time [hr] -->
     <g transform="translate(215.274806 359.594375) scale(0.18 -0.18)">
      <defs>
       <path id="DejaVuSans-Bold-54" d="M 31 4666 
L 4331 4666 
L 4331 3756 
L 2784 3756 
L 2784 0 
L 1581 0 
L 1581 3756 
L 31 3756 
L 31 4666 
z
" transform="scale(0.015625)"/>
       <path id="DejaVuSans-Bold-69" d="M 538 3500 
L 1656 3500 
L 1656 0 
L 538 0 
L 538 3500 
z
M 538 4863 
L 1656 4863 
L 1656 3950 
L 538 3950 
L 538 4863 
z
" transform="scale(0.015625)"/>
       <path id="DejaVuSans-Bold-6d" d="M 3781 2919 
Q 3994 3244 4286 3414 
Q 4578 3584 4928 3584 
Q 5531 3584 5847 3212 
Q 6163 2841 6163 2131 
L 6163 0 
L 5038 0 
L 5038 1825 
Q 5041 1866 5042 1909 
Q 5044 1953 5044 2034 
Q 5044 2406 4934 2573 
Q 4825 2741 4581 2741 
Q 4263 2741 4089 2478 
Q 3916 2216 3909 1719 
L 3909 0 
L 2784 0 
L 2784 1825 
Q 2784 2406 2684 2573 
Q 2584 2741 2328 2741 
Q 2006 2741 1831 2477 
Q 1656 2213 1656 1722 
L 1656 0 
L 531 0 
L 531 3500 
L 1656 3500 
L 1656 2988 
Q 1863 3284 2130 3434 
Q 2397 3584 2719 3584 
Q 3081 3584 3359 3409 
Q 3638 3234 3781 2919 
z
" transform="scale(0.015625)"/>
       <path id="DejaVuSans-Bold-65" d="M 4031 1759 
L 4031 1441 
L 1416 1441 
Q 1456 1047 1700 850 
Q 1944 653 2381 653 
Q 2734 653 3104 758 
Q 3475 863 3866 1075 
L 3866 213 
Q 3469 63 3072 -14 
Q 2675 -91 2278 -91 
Q 1328 -91 801 392 
Q 275 875 275 1747 
Q 275 2603 792 3093 
Q 1309 3584 2216 3584 
Q 3041 3584 3536 3087 
Q 4031 2591 4031 1759 
z
M 2881 2131 
Q 2881 2450 2695 2645 
Q 2509 2841 2209 2841 
Q 1884 2841 1681 2658 
Q 1478 2475 1428 2131 
L 2881 2131 
z
" transform="scale(0.015625)"/>
       <path id="DejaVuSans-Bold-20" transform="scale(0.015625)"/>
       <path id="DejaVuSans-Bold-5b" d="M 550 4863 
L 2491 4863 
L 2491 4159 
L 1613 4159 
L 1613 -141 
L 2491 -141 
L 2491 -844 
L 550 -844 
L 550 4863 
z
" transform="scale(0.015625)"/>
       <path id="DejaVuSans-Bold-68" d="M 4056 2131 
L 4056 0 
L 2931 0 
L 2931 347 
L 2931 1625 
Q 2931 2084 2911 2256 
Q 2891 2428 2841 2509 
Q 2775 2619 2662 2680 
Q 2550 2741 2406 2741 
Q 2056 2741 1856 2470 
Q 1656 2200 1656 1722 
L 1656 0 
L 538 0 
L 538 4863 
L 1656 4863 
L 1656 2988 
Q 1909 3294 2193 3439 
Q 2478 3584 2822 3584 
Q 3428 3584 3742 3212 
Q 4056 2841 4056 2131 
z
" transform="scale(0.015625)"/>
       <path id="DejaVuSans-Bold-72" d="M 3138 2547 
Q 2991 2616 2845 2648 
Q 2700 2681 2553 2681 
Q 2122 2681 1889 2404 
Q 1656 2128 1656 1613 
L 1656 0 
L 538 0 
L 538 3500 
L 1656 3500 
L 1656 2925 
Q 1872 3269 2151 3426 
Q 2431 3584 2822 3584 
Q 2878 3584 2943 3579 
Q 3009 3575 3134 3559 
L 3138 2547 
z
" transform="scale(0.015625)"/>
       <path id="DejaVuSans-Bold-5d" d="M 2375 -844 
L 434 -844 
L 434 -141 
L 1313 -141 
L 1313 4159 
L 434 4159 
L 434 4863 
L 2375 4863 
L 2375 -844 
z
" transform="scale(0.015625)"/>
      </defs>
      <use xlink:href="#DejaVuSans-Bold-54"/>
      <use xlink:href="#DejaVuSans-Bold-69" transform="translate(68.212891 0)"/>
      <use xlink:href="#DejaVuSans-Bold-6d" transform="translate(102.490234 0)"/>
      <use xlink:href="#DejaVuSans-Bold-65" transform="translate(206.689453 0)"/>
      <use xlink:href="#DejaVuSans-Bold-20" transform="translate(274.511719 0)"/>
      <use xlink:href="#DejaVuSans-Bold-5b" transform="translate(309.326172 0)"/>
      <use xlink:href="#DejaVuSans-Bold-68" transform="translate(355.029297 0)"/>
      <use xlink:href="#DejaVuSans-Bold-72" transform="translate(426.220703 0)"/>
      <use xlink:href="#DejaVuSans-Bold-5d" transform="translate(475.537109 0)"/>
     </g>
    </g>
   </g>
   <g id="matplotlib.axis_2">
    <g id="ytick_1">
     <g id="line2d_7">
      <defs>
       <path id="ma083567102" d="M 0 0 
L -3.5 0 
" style="stroke: #000000; stroke-width: 0.8"/>
      </defs>
      <g>
       <use xlink:href="#ma083567102" x="92.361219" y="311.584014" style="stroke: #000000; stroke-width: 0.8"/>
      </g>
     </g>
     <g id="text_8">
      <!-- −1.0 -->
      <g transform="translate(48.937 317.282842) scale(0.15 -0.15)">
       <defs>
        <path id="DejaVuSans-2212" d="M 678 2272 
L 4684 2272 
L 4684 1741 
L 678 1741 
L 678 2272 
z
" transform="scale(0.015625)"/>
        <path id="DejaVuSans-31" d="M 794 531 
L 1825 531 
L 1825 4091 
L 703 3866 
L 703 4441 
L 1819 4666 
L 2450 4666 
L 2450 531 
L 3481 531 
L 3481 0 
L 794 0 
L 794 531 
z
" transform="scale(0.015625)"/>
        <path id="DejaVuSans-2e" d="M 684 794 
L 1344 794 
L 1344 0 
L 684 0 
L 684 794 
z
" transform="scale(0.015625)"/>
       </defs>
       <use xlink:href="#DejaVuSans-2212"/>
       <use xlink:href="#DejaVuSans-31" transform="translate(83.789062 0)"/>
       <use xlink:href="#DejaVuSans-2e" transform="translate(147.412109 0)"/>
       <use xlink:href="#DejaVuSans-30" transform="translate(179.199219 0)"/>
      </g>
     </g>
    </g>
    <g id="ytick_2">
     <g id="line2d_8">
      <g>
       <use xlink:href="#ma083567102" x="92.361219" y="279.84176" style="stroke: #000000; stroke-width: 0.8"/>
      </g>
     </g>
     <g id="text_9">
      <!-- −0.5 -->
      <g transform="translate(48.937 285.540588) scale(0.15 -0.15)">
       <defs>
        <path id="DejaVuSans-35" d="M 691 4666 
L 3169 4666 
L 3169 4134 
L 1269 4134 
L 1269 2991 
Q 1406 3038 1543 3061 
Q 1681 3084 1819 3084 
Q 2600 3084 3056 2656 
Q 3513 2228 3513 1497 
Q 3513 744 3044 326 
Q 2575 -91 1722 -91 
Q 1428 -91 1123 -41 
Q 819 9 494 109 
L 494 744 
Q 775 591 1075 516 
Q 1375 441 1709 441 
Q 2250 441 2565 725 
Q 2881 1009 2881 1497 
Q 2881 1984 2565 2268 
Q 2250 2553 1709 2553 
Q 1456 2553 1204 2497 
Q 953 2441 691 2322 
L 691 4666 
z
" transform="scale(0.015625)"/>
       </defs>
       <use xlink:href="#DejaVuSans-2212"/>
       <use xlink:href="#DejaVuSans-30" transform="translate(83.789062 0)"/>
       <use xlink:href="#DejaVuSans-2e" transform="translate(147.412109 0)"/>
       <use xlink:href="#DejaVuSans-35" transform="translate(179.199219 0)"/>
      </g>
     </g>
    </g>
    <g id="ytick_3">
     <g id="line2d_9">
      <g>
       <use xlink:href="#ma083567102" x="92.361219" y="248.099507" style="stroke: #000000; stroke-width: 0.8"/>
      </g>
     </g>
     <g id="text_10">
      <!-- 0.0 -->
      <g transform="translate(61.506531 253.798335) scale(0.15 -0.15)">
       <use xlink:href="#DejaVuSans-30"/>
       <use xlink:href="#DejaVuSans-2e" transform="translate(63.623047 0)"/>
       <use xlink:href="#DejaVuSans-30" transform="translate(95.410156 0)"/>
      </g>
     </g>
    </g>
    <g id="ytick_4">
     <g id="line2d_10">
      <g>
       <use xlink:href="#ma083567102" x="92.361219" y="216.357253" style="stroke: #000000; stroke-width: 0.8"/>
      </g>
     </g>
     <g id="text_11">
      <!-- 0.5 -->
      <g transform="translate(61.506531 222.056081) scale(0.15 -0.15)">
       <use xlink:href="#DejaVuSans-30"/>
       <use xlink:href="#DejaVuSans-2e" transform="translate(63.623047 0)"/>
       <use xlink:href="#DejaVuSans-35" transform="translate(95.410156 0)"/>
      </g>
     </g>
    </g>
    <g id="ytick_5">
     <g id="line2d_11">
      <g>
       <use xlink:href="#ma083567102" x="92.361219" y="184.615" style="stroke: #000000; stroke-width: 0.8"/>
      </g>
     </g>
     <g id="text_12">
      <!-- 1.0 -->
      <g transform="translate(61.506531 190.313828) scale(0.15 -0.15)">
       <use xlink:href="#DejaVuSans-31"/>
       <use xlink:href="#DejaVuSans-2e" transform="translate(63.623047 0)"/>
       <use xlink:href="#DejaVuSans-30" transform="translate(95.410156 0)"/>
      </g>
     </g>
    </g>
    <g id="ytick_6">
     <g id="line2d_12">
      <g>
       <use xlink:href="#ma083567102" x="92.361219" y="152.872746" style="stroke: #000000; stroke-width: 0.8"/>
      </g>
     </g>
     <g id="text_13">
      <!-- 1.5 -->
      <g transform="translate(61.506531 158.571574) scale(0.15 -0.15)">
       <use xlink:href="#DejaVuSans-31"/>
       <use xlink:href="#DejaVuSans-2e" transform="translate(63.623047 0)"/>
       <use xlink:href="#DejaVuSans-35" transform="translate(95.410156 0)"/>
      </g>
     </g>
    </g>
    <g id="ytick_7">
     <g id="line2d_13">
      <g>
       <use xlink:href="#ma083567102" x="92.361219" y="121.130492" style="stroke: #000000; stroke-width: 0.8"/>
      </g>
     </g>
     <g id="text_14">
      <!-- 2.0 -->
      <g transform="translate(61.506531 126.829321) scale(0.15 -0.15)">
       <use xlink:href="#DejaVuSans-32"/>
       <use xlink:href="#DejaVuSans-2e" transform="translate(63.623047 0)"/>
       <use xlink:href="#DejaVuSans-30" transform="translate(95.410156 0)"/>
      </g>
     </g>
    </g>
    <g id="ytick_8">
     <g id="line2d_14">
      <g>
       <use xlink:href="#ma083567102" x="92.361219" y="89.388239" style="stroke: #000000; stroke-width: 0.8"/>
      </g>
     </g>
     <g id="text_15">
      <!-- 2.5 -->
      <g transform="translate(61.506531 95.087067) scale(0.15 -0.15)">
       <use xlink:href="#DejaVuSans-32"/>
       <use xlink:href="#DejaVuSans-2e" transform="translate(63.623047 0)"/>
       <use xlink:href="#DejaVuSans-35" transform="translate(95.410156 0)"/>
      </g>
     </g>
    </g>
    <g id="ytick_9">
     <g id="line2d_15">
      <g>
       <use xlink:href="#ma083567102" x="92.361219" y="57.645985" style="stroke: #000000; stroke-width: 0.8"/>
      </g>
     </g>
     <g id="text_16">
      <!-- 3.0 -->
      <g transform="translate(61.506531 63.344813) scale(0.15 -0.15)">
       <defs>
        <path id="DejaVuSans-33" d="M 2597 2516 
Q 3050 2419 3304 2112 
Q 3559 1806 3559 1356 
Q 3559 666 3084 287 
Q 2609 -91 1734 -91 
Q 1441 -91 1130 -33 
Q 819 25 488 141 
L 488 750 
Q 750 597 1062 519 
Q 1375 441 1716 441 
Q 2309 441 2620 675 
Q 2931 909 2931 1356 
Q 2931 1769 2642 2001 
Q 2353 2234 1838 2234 
L 1294 2234 
L 1294 2753 
L 1863 2753 
Q 2328 2753 2575 2939 
Q 2822 3125 2822 3475 
Q 2822 3834 2567 4026 
Q 2313 4219 1838 4219 
Q 1578 4219 1281 4162 
Q 984 4106 628 3988 
L 628 4550 
Q 988 4650 1302 4700 
Q 1616 4750 1894 4750 
Q 2613 4750 3031 4423 
Q 3450 4097 3450 3541 
Q 3450 3153 3228 2886 
Q 3006 2619 2597 2516 
z
" transform="scale(0.015625)"/>
       </defs>
       <use xlink:href="#DejaVuSans-33"/>
       <use xlink:href="#DejaVuSans-2e" transform="translate(63.623047 0)"/>
       <use xlink:href="#DejaVuSans-30" transform="translate(95.410156 0)"/>
      </g>
     </g>
    </g>
    <g id="text_17">
     <!-- Empagliflozin Plasma -->
     <g transform="translate(20.877187 290.065781) rotate(-90) scale(0.18 -0.18)">
      <defs>
       <path id="DejaVuSans-Bold-45" d="M 588 4666 
L 3834 4666 
L 3834 3756 
L 1791 3756 
L 1791 2888 
L 3713 2888 
L 3713 1978 
L 1791 1978 
L 1791 909 
L 3903 909 
L 3903 0 
L 588 0 
L 588 4666 
z
" transform="scale(0.015625)"/>
       <path id="DejaVuSans-Bold-70" d="M 1656 506 
L 1656 -1331 
L 538 -1331 
L 538 3500 
L 1656 3500 
L 1656 2988 
Q 1888 3294 2169 3439 
Q 2450 3584 2816 3584 
Q 3463 3584 3878 3070 
Q 4294 2556 4294 1747 
Q 4294 938 3878 423 
Q 3463 -91 2816 -91 
Q 2450 -91 2169 54 
Q 1888 200 1656 506 
z
M 2400 2772 
Q 2041 2772 1848 2508 
Q 1656 2244 1656 1747 
Q 1656 1250 1848 986 
Q 2041 722 2400 722 
Q 2759 722 2948 984 
Q 3138 1247 3138 1747 
Q 3138 2247 2948 2509 
Q 2759 2772 2400 2772 
z
" transform="scale(0.015625)"/>
       <path id="DejaVuSans-Bold-61" d="M 2106 1575 
Q 1756 1575 1579 1456 
Q 1403 1338 1403 1106 
Q 1403 894 1545 773 
Q 1688 653 1941 653 
Q 2256 653 2472 879 
Q 2688 1106 2688 1447 
L 2688 1575 
L 2106 1575 
z
M 3816 1997 
L 3816 0 
L 2688 0 
L 2688 519 
Q 2463 200 2181 54 
Q 1900 -91 1497 -91 
Q 953 -91 614 226 
Q 275 544 275 1050 
Q 275 1666 698 1953 
Q 1122 2241 2028 2241 
L 2688 2241 
L 2688 2328 
Q 2688 2594 2478 2717 
Q 2269 2841 1825 2841 
Q 1466 2841 1156 2769 
Q 847 2697 581 2553 
L 581 3406 
Q 941 3494 1303 3539 
Q 1666 3584 2028 3584 
Q 2975 3584 3395 3211 
Q 3816 2838 3816 1997 
z
" transform="scale(0.015625)"/>
       <path id="DejaVuSans-Bold-67" d="M 2919 594 
Q 2688 288 2409 144 
Q 2131 0 1766 0 
Q 1125 0 706 504 
Q 288 1009 288 1791 
Q 288 2575 706 3076 
Q 1125 3578 1766 3578 
Q 2131 3578 2409 3434 
Q 2688 3291 2919 2981 
L 2919 3500 
L 4044 3500 
L 4044 353 
Q 4044 -491 3511 -936 
Q 2978 -1381 1966 -1381 
Q 1638 -1381 1331 -1331 
Q 1025 -1281 716 -1178 
L 716 -306 
Q 1009 -475 1290 -558 
Q 1572 -641 1856 -641 
Q 2406 -641 2662 -400 
Q 2919 -159 2919 353 
L 2919 594 
z
M 2181 2772 
Q 1834 2772 1640 2515 
Q 1447 2259 1447 1791 
Q 1447 1309 1634 1061 
Q 1822 813 2181 813 
Q 2531 813 2725 1069 
Q 2919 1325 2919 1791 
Q 2919 2259 2725 2515 
Q 2531 2772 2181 2772 
z
" transform="scale(0.015625)"/>
       <path id="DejaVuSans-Bold-6c" d="M 538 4863 
L 1656 4863 
L 1656 0 
L 538 0 
L 538 4863 
z
" transform="scale(0.015625)"/>
       <path id="DejaVuSans-Bold-66" d="M 2841 4863 
L 2841 4128 
L 2222 4128 
Q 1984 4128 1890 4042 
Q 1797 3956 1797 3744 
L 1797 3500 
L 2753 3500 
L 2753 2700 
L 1797 2700 
L 1797 0 
L 678 0 
L 678 2700 
L 122 2700 
L 122 3500 
L 678 3500 
L 678 3744 
Q 678 4316 997 4589 
Q 1316 4863 1984 4863 
L 2841 4863 
z
" transform="scale(0.015625)"/>
       <path id="DejaVuSans-Bold-6f" d="M 2203 2784 
Q 1831 2784 1636 2517 
Q 1441 2250 1441 1747 
Q 1441 1244 1636 976 
Q 1831 709 2203 709 
Q 2569 709 2762 976 
Q 2956 1244 2956 1747 
Q 2956 2250 2762 2517 
Q 2569 2784 2203 2784 
z
M 2203 3584 
Q 3106 3584 3614 3096 
Q 4122 2609 4122 1747 
Q 4122 884 3614 396 
Q 3106 -91 2203 -91 
Q 1297 -91 786 396 
Q 275 884 275 1747 
Q 275 2609 786 3096 
Q 1297 3584 2203 3584 
z
" transform="scale(0.015625)"/>
       <path id="DejaVuSans-Bold-7a" d="M 366 3500 
L 3419 3500 
L 3419 2719 
L 1575 800 
L 3419 800 
L 3419 0 
L 288 0 
L 288 781 
L 2131 2700 
L 366 2700 
L 366 3500 
z
" transform="scale(0.015625)"/>
       <path id="DejaVuSans-Bold-6e" d="M 4056 2131 
L 4056 0 
L 2931 0 
L 2931 347 
L 2931 1631 
Q 2931 2084 2911 2256 
Q 2891 2428 2841 2509 
Q 2775 2619 2662 2680 
Q 2550 2741 2406 2741 
Q 2056 2741 1856 2470 
Q 1656 2200 1656 1722 
L 1656 0 
L 538 0 
L 538 3500 
L 1656 3500 
L 1656 2988 
Q 1909 3294 2193 3439 
Q 2478 3584 2822 3584 
Q 3428 3584 3742 3212 
Q 4056 2841 4056 2131 
z
" transform="scale(0.015625)"/>
       <path id="DejaVuSans-Bold-50" d="M 588 4666 
L 2584 4666 
Q 3475 4666 3951 4270 
Q 4428 3875 4428 3144 
Q 4428 2409 3951 2014 
Q 3475 1619 2584 1619 
L 1791 1619 
L 1791 0 
L 588 0 
L 588 4666 
z
M 1791 3794 
L 1791 2491 
L 2456 2491 
Q 2806 2491 2997 2661 
Q 3188 2831 3188 3144 
Q 3188 3456 2997 3625 
Q 2806 3794 2456 3794 
L 1791 3794 
z
" transform="scale(0.015625)"/>
       <path id="DejaVuSans-Bold-73" d="M 3272 3391 
L 3272 2541 
Q 2913 2691 2578 2766 
Q 2244 2841 1947 2841 
Q 1628 2841 1473 2761 
Q 1319 2681 1319 2516 
Q 1319 2381 1436 2309 
Q 1553 2238 1856 2203 
L 2053 2175 
Q 2913 2066 3209 1816 
Q 3506 1566 3506 1031 
Q 3506 472 3093 190 
Q 2681 -91 1863 -91 
Q 1516 -91 1145 -36 
Q 775 19 384 128 
L 384 978 
Q 719 816 1070 734 
Q 1422 653 1784 653 
Q 2113 653 2278 743 
Q 2444 834 2444 1013 
Q 2444 1163 2330 1236 
Q 2216 1309 1875 1350 
L 1678 1375 
Q 931 1469 631 1722 
Q 331 1975 331 2491 
Q 331 3047 712 3315 
Q 1094 3584 1881 3584 
Q 2191 3584 2531 3537 
Q 2872 3491 3272 3391 
z
" transform="scale(0.015625)"/>
      </defs>
      <use xlink:href="#DejaVuSans-Bold-45"/>
      <use xlink:href="#DejaVuSans-Bold-6d" transform="translate(68.310547 0)"/>
      <use xlink:href="#DejaVuSans-Bold-70" transform="translate(172.509766 0)"/>
      <use xlink:href="#DejaVuSans-Bold-61" transform="translate(244.091797 0)"/>
      <use xlink:href="#DejaVuSans-Bold-67" transform="translate(311.572266 0)"/>
      <use xlink:href="#DejaVuSans-Bold-6c" transform="translate(383.154297 0)"/>
      <use xlink:href="#DejaVuSans-Bold-69" transform="translate(417.431641 0)"/>
      <use xlink:href="#DejaVuSans-Bold-66" transform="translate(451.708984 0)"/>
      <use xlink:href="#DejaVuSans-Bold-6c" transform="translate(495.214844 0)"/>
      <use xlink:href="#DejaVuSans-Bold-6f" transform="translate(529.492188 0)"/>
      <use xlink:href="#DejaVuSans-Bold-7a" transform="translate(598.193359 0)"/>
      <use xlink:href="#DejaVuSans-Bold-69" transform="translate(656.396484 0)"/>
      <use xlink:href="#DejaVuSans-Bold-6e" transform="translate(690.673828 0)"/>
      <use xlink:href="#DejaVuSans-Bold-20" transform="translate(761.865234 0)"/>
      <use xlink:href="#DejaVuSans-Bold-50" transform="translate(796.679688 0)"/>
      <use xlink:href="#DejaVuSans-Bold-6c" transform="translate(869.970703 0)"/>
      <use xlink:href="#DejaVuSans-Bold-61" transform="translate(904.248047 0)"/>
      <use xlink:href="#DejaVuSans-Bold-73" transform="translate(971.728516 0)"/>
      <use xlink:href="#DejaVuSans-Bold-6d" transform="translate(1031.25 0)"/>
      <use xlink:href="#DejaVuSans-Bold-61" transform="translate(1135.449219 0)"/>
     </g>
     <!--  [µM] -->
     <g transform="translate(41.173875 208.738125) rotate(-90) scale(0.18 -0.18)">
      <defs>
       <path id="DejaVuSans-Bold-b5" d="M 544 -1338 
L 544 3500 
L 1672 3500 
L 1672 1466 
Q 1672 1103 1828 926 
Q 1984 750 2303 750 
Q 2625 750 2781 926 
Q 2938 1103 2938 1466 
L 2938 3500 
L 4063 3500 
L 4063 1159 
Q 4063 938 4114 850 
Q 4166 763 4288 763 
Q 4344 763 4395 778 
Q 4447 794 4506 831 
L 4506 50 
Q 4341 -22 4195 -56 
Q 4050 -91 3909 -91 
Q 3631 -91 3454 26 
Q 3278 144 3169 403 
Q 3022 156 2811 32 
Q 2600 -91 2322 -91 
Q 2091 -91 1928 -17 
Q 1766 56 1672 206 
L 1672 -1338 
L 544 -1338 
z
" transform="scale(0.015625)"/>
       <path id="DejaVuSans-Bold-4d" d="M 588 4666 
L 2119 4666 
L 3181 2169 
L 4250 4666 
L 5778 4666 
L 5778 0 
L 4641 0 
L 4641 3413 
L 3566 897 
L 2803 897 
L 1728 3413 
L 1728 0 
L 588 0 
L 588 4666 
z
" transform="scale(0.015625)"/>
      </defs>
      <use xlink:href="#DejaVuSans-Bold-20"/>
      <use xlink:href="#DejaVuSans-Bold-5b" transform="translate(34.814453 0)"/>
      <use xlink:href="#DejaVuSans-Bold-b5" transform="translate(80.517578 0)"/>
      <use xlink:href="#DejaVuSans-Bold-4d" transform="translate(154.101562 0)"/>
      <use xlink:href="#DejaVuSans-Bold-5d" transform="translate(253.613281 0)"/>
     </g>
    </g>
   </g>
   <g id="LineCollection_1">
    <path clip-path="url(#p6f5cb5fd79)" style="fill: none; stroke: #ff6b35"/>
    <path clip-path="url(#p6f5cb5fd79)" style="fill: none; stroke: #ff6b35"/>
    <path clip-path="url(#p6f5cb5fd79)" style="fill: none; stroke: #ff6b35"/>
    <path clip-path="url(#p6f5cb5fd79)" style="fill: none; stroke: #ff6b35"/>
    <path clip-path="url(#p6f5cb5fd79)" style="fill: none; stroke: #ff6b35"/>
    <path clip-path="url(#p6f5cb5fd79)" style="fill: none; stroke: #ff6b35"/>
    <path clip-path="url(#p6f5cb5fd79)" style="fill: none; stroke: #ff6b35"/>
    <path clip-path="url(#p6f5cb5fd79)" style="fill: none; stroke: #ff6b35"/>
    <path clip-path="url(#p6f5cb5fd79)" style="fill: none; stroke: #ff6b35"/>
    <path clip-path="url(#p6f5cb5fd79)" style="fill: none; stroke: #ff6b35"/>
    <path clip-path="url(#p6f5cb5fd79)" style="fill: none; stroke: #ff6b35"/>
    <path clip-path="url(#p6f5cb5fd79)" style="fill: none; stroke: #ff6b35"/>
    <path clip-path="url(#p6f5cb5fd79)" style="fill: none; stroke: #ff6b35"/>
    <path clip-path="url(#p6f5cb5fd79)" style="fill: none; stroke: #ff6b35"/>
    <path d="M 117.063195 253.105655 
L 117.063195 237.4787 
" clip-path="url(#p6f5cb5fd79)" style="fill: none; stroke: #ff6b35"/>
    <path d="M 117.839177 247.240434 
L 117.839177 227.706738 
" clip-path="url(#p6f5cb5fd79)" style="fill: none; stroke: #ff6b35"/>
    <path d="M 120.167122 245.276836 
L 120.167122 225.732915 
" clip-path="url(#p6f5cb5fd79)" style="fill: none; stroke: #ff6b35"/>
    <path d="M 120.167122 231.613477 
L 120.167122 227.676058 
" clip-path="url(#p6f5cb5fd79)" style="fill: none; stroke: #ff6b35"/>
    <path d="M 122.495036 231.598137 
L 122.495036 231.567456 
" clip-path="url(#p6f5cb5fd79)" style="fill: none; stroke: #ff6b35"/>
    <path d="M 125.598963 236.461107 
L 125.598963 232.523686 
" clip-path="url(#p6f5cb5fd79)" style="fill: none; stroke: #ff6b35"/>
    <path d="M 130.254822 236.415084 
L 130.254822 234.461715 
" clip-path="url(#p6f5cb5fd79)" style="fill: none; stroke: #ff6b35"/>
    <path d="M 136.462645 242.224057 
L 136.462645 236.384403 
" clip-path="url(#p6f5cb5fd79)" style="fill: none; stroke: #ff6b35"/>
    <path clip-path="url(#p6f5cb5fd79)" style="fill: none; stroke: #ff6b35"/>
    <path clip-path="url(#p6f5cb5fd79)" style="fill: none; stroke: #ff6b35"/>
    <path clip-path="url(#p6f5cb5fd79)" style="fill: none; stroke: #ff6b35"/>
   </g>
   <g id="LineCollection_2">
    <path clip-path="url(#p6f5cb5fd79)" style="fill: none; stroke: #ff5722"/>
    <path clip-path="url(#p6f5cb5fd79)" style="fill: none; stroke: #ff5722"/>
    <path clip-path="url(#p6f5cb5fd79)" style="fill: none; stroke: #ff5722"/>
    <path clip-path="url(#p6f5cb5fd79)" style="fill: none; stroke: #ff5722"/>
    <path clip-path="url(#p6f5cb5fd79)" style="fill: none; stroke: #ff5722"/>
    <path clip-path="url(#p6f5cb5fd79)" style="fill: none; stroke: #ff5722"/>
    <path clip-path="url(#p6f5cb5fd79)" style="fill: none; stroke: #ff5722"/>
    <path clip-path="url(#p6f5cb5fd79)" style="fill: none; stroke: #ff5722"/>
    <path clip-path="url(#p6f5cb5fd79)" style="fill: none; stroke: #ff5722"/>
    <path clip-path="url(#p6f5cb5fd79)" style="fill: none; stroke: #ff5722"/>
    <path clip-path="url(#p6f5cb5fd79)" style="fill: none; stroke: #ff5722"/>
    <path clip-path="url(#p6f5cb5fd79)" style="fill: none; stroke: #ff5722"/>
    <path clip-path="url(#p6f5cb5fd79)" style="fill: none; stroke: #ff5722"/>
    <path clip-path="url(#p6f5cb5fd79)" style="fill: none; stroke: #ff5722"/>
    <path d="M 117.063195 259.947562 
L 117.063195 226.730054 
" clip-path="url(#p6f5cb5fd79)" style="fill: none; stroke: #ff5722"/>
    <path d="M 117.063195 277.533 
L 117.063195 203.284507 
" clip-path="url(#p6f5cb5fd79)" style="fill: none; stroke: #ff5722"/>
    <path d="M 117.839177 269.719523 
L 117.839177 193.507433 
" clip-path="url(#p6f5cb5fd79)" style="fill: none; stroke: #ff5722"/>
    <path d="M 119.39114 237.4787 
L 119.39114 196.42726 
" clip-path="url(#p6f5cb5fd79)" style="fill: none; stroke: #ff5722"/>
    <path d="M 120.167122 216.973434 
L 120.167122 207.155451 
" clip-path="url(#p6f5cb5fd79)" style="fill: none; stroke: #ff5722"/>
    <path d="M 120.943073 209.09348 
L 120.943073 207.2117 
" clip-path="url(#p6f5cb5fd79)" style="fill: none; stroke: #ff5722"/>
    <path d="M 126.374945 214.002471 
L 126.374945 213.951336 
" clip-path="url(#p6f5cb5fd79)" style="fill: none; stroke: #ff5722"/>
    <path d="M 129.478841 218.875668 
L 129.478841 218.804079 
" clip-path="url(#p6f5cb5fd79)" style="fill: none; stroke: #ff5722"/>
    <path d="M 134.134731 230.47316 
L 134.134731 220.81881 
" clip-path="url(#p6f5cb5fd79)" style="fill: none; stroke: #ff5722"/>
    <path clip-path="url(#p6f5cb5fd79)" style="fill: none; stroke: #ff5722"/>
    <path clip-path="url(#p6f5cb5fd79)" style="fill: none; stroke: #ff5722"/>
    <path clip-path="url(#p6f5cb5fd79)" style="fill: none; stroke: #ff5722"/>
    <path clip-path="url(#p6f5cb5fd79)" style="fill: none; stroke: #ff5722"/>
    <path clip-path="url(#p6f5cb5fd79)" style="fill: none; stroke: #ff5722"/>
   </g>
   <g id="LineCollection_3">
    <path clip-path="url(#p6f5cb5fd79)" style="fill: none; stroke: #e53935"/>
    <path clip-path="url(#p6f5cb5fd79)" style="fill: none; stroke: #e53935"/>
    <path clip-path="url(#p6f5cb5fd79)" style="fill: none; stroke: #e53935"/>
    <path clip-path="url(#p6f5cb5fd79)" style="fill: none; stroke: #e53935"/>
    <path clip-path="url(#p6f5cb5fd79)" style="fill: none; stroke: #e53935"/>
    <path clip-path="url(#p6f5cb5fd79)" style="fill: none; stroke: #e53935"/>
    <path clip-path="url(#p6f5cb5fd79)" style="fill: none; stroke: #e53935"/>
    <path clip-path="url(#p6f5cb5fd79)" style="fill: none; stroke: #e53935"/>
    <path clip-path="url(#p6f5cb5fd79)" style="fill: none; stroke: #e53935"/>
    <path clip-path="url(#p6f5cb5fd79)" style="fill: none; stroke: #e53935"/>
    <path clip-path="url(#p6f5cb5fd79)" style="fill: none; stroke: #e53935"/>
    <path clip-path="url(#p6f5cb5fd79)" style="fill: none; stroke: #e53935"/>
    <path clip-path="url(#p6f5cb5fd79)" style="fill: none; stroke: #e53935"/>
    <path clip-path="url(#p6f5cb5fd79)" style="fill: none; stroke: #e53935"/>
    <path d="M 117.063195 261.895817 
L 117.063195 226.735168 
" clip-path="url(#p6f5cb5fd79)" style="fill: none; stroke: #e53935"/>
    <path d="M 117.063195 267.750812 
L 117.063195 199.393108 
" clip-path="url(#p6f5cb5fd79)" style="fill: none; stroke: #e53935"/>
    <path d="M 117.839177 307.8 
L 117.839177 130.033153 
" clip-path="url(#p6f5cb5fd79)" style="fill: none; stroke: #e53935"/>
    <path d="M 118.615158 273.605808 
L 118.615158 76.315493 
" clip-path="url(#p6f5cb5fd79)" style="fill: none; stroke: #e53935"/>
    <path d="M 119.39114 208.162817 
L 119.39114 55.8 
" clip-path="url(#p6f5cb5fd79)" style="fill: none; stroke: #e53935"/>
    <path d="M 119.39114 157.390552 
L 119.39114 69.458245 
" clip-path="url(#p6f5cb5fd79)" style="fill: none; stroke: #e53935"/>
    <path d="M 121.719054 136.854606 
L 121.719054 89.963511 
" clip-path="url(#p6f5cb5fd79)" style="fill: none; stroke: #e53935"/>
    <path d="M 123.271018 149.541279 
L 123.271018 106.556925 
" clip-path="url(#p6f5cb5fd79)" style="fill: none; stroke: #e53935"/>
    <path d="M 124.822981 152.461107 
L 124.822981 115.33686 
" clip-path="url(#p6f5cb5fd79)" style="fill: none; stroke: #e53935"/>
    <path d="M 127.150926 153.432678 
L 127.150926 122.148086 
" clip-path="url(#p6f5cb5fd79)" style="fill: none; stroke: #e53935"/>
    <path d="M 130.254822 148.477665 
L 130.254822 136.829037 
" clip-path="url(#p6f5cb5fd79)" style="fill: none; stroke: #e53935"/>
    <path d="M 135.686663 175.789042 
L 135.686663 162.187045 
" clip-path="url(#p6f5cb5fd79)" style="fill: none; stroke: #e53935"/>
    <path d="M 141.894486 196.335216 
L 141.894486 184.533183 
" clip-path="url(#p6f5cb5fd79)" style="fill: none; stroke: #e53935"/>
    <path d="M 148.10234 201.177732 
L 148.10234 197.189176 
" clip-path="url(#p6f5cb5fd79)" style="fill: none; stroke: #e53935"/>
    <path d="M 154.310163 212.739428 
L 154.310163 208.986096 
" clip-path="url(#p6f5cb5fd79)" style="fill: none; stroke: #e53935"/>
    <path d="M 166.725808 225.272697 
L 166.725808 219.729628 
" clip-path="url(#p6f5cb5fd79)" style="fill: none; stroke: #e53935"/>
    <path d="M 192.333081 236.747464 
L 192.333081 227.451062 
" clip-path="url(#p6f5cb5fd79)" style="fill: none; stroke: #e53935"/>
    <path d="M 228.804067 239.912741 
L 228.804067 239.432069 
" clip-path="url(#p6f5cb5fd79)" style="fill: none; stroke: #e53935"/>
    <path clip-path="url(#p6f5cb5fd79)" style="fill: none; stroke: #e53935"/>
   </g>
   <g id="line2d_16">
    <path d="M 92.311815 248.099507 
L 425.837899 248.099507 
L 425.837899 248.099507 
" clip-path="url(#p6f5cb5fd79)" style="fill: none; stroke: #000000; stroke-width: 2; stroke-linecap: square"/>
   </g>
   <g id="line2d_17">
    <path d="M 92.311815 246.097038 
L 102.686645 246.687041 
L 115.284653 247.174239 
L 117.063195 247.227862 
L 117.063195 247.227862 
L 117.680744 245.587358 
L 118.915843 238.894747 
L 119.533393 236.223145 
L 120.150942 234.361748 
L 120.768491 233.236747 
L 121.386041 232.701918 
L 122.00359 232.60463 
L 122.62114 232.812314 
L 123.856239 233.748564 
L 128.179084 237.808353 
L 130.031733 239.1302 
L 131.884381 240.182992 
L 134.354578 241.268908 
L 136.824776 242.098565 
L 139.912523 242.898352 
L 143.61782 243.636609 
L 148.558215 244.393451 
L 155.351258 245.182143 
L 163.379401 245.880653 
L 173.260191 246.509011 
L 184.99363 247.027069 
L 199.814816 247.447416 
L 218.958847 247.756543 
L 246.748571 247.964559 
L 295.534974 248.073263 
L 425.837899 248.099176 
L 425.837899 248.099176 
" clip-path="url(#p6f5cb5fd79)" style="fill: none; stroke: #ff6b35; stroke-width: 2; stroke-linecap: square"/>
   </g>
   <g id="line2d_18">
    <path d="M -1 245.463894 
L 117.063195 245.292177 
L 117.839177 237.473586 
L 120.167122 235.504876 
L 120.167122 229.644767 
L 122.495036 231.582796 
L 125.598963 234.492397 
L 130.254822 235.4384 
L 136.462645 239.30423 
L 142.670468 241.216692 
L 148.10234 242.157582 
L 154.310163 242.116673 
" clip-path="url(#p6f5cb5fd79)" style="fill: none; stroke-dasharray: 3.7,1.6; stroke-dashoffset: 0; stroke: #ff6b35"/>
    <defs>
     <path id="mbc1e8c8ce9" d="M -3 3 
L 3 3 
L 3 -3 
L -3 -3 
z
" style="stroke: #000000; stroke-linejoin: miter"/>
    </defs>
    <g clip-path="url(#p6f5cb5fd79)">
     <use xlink:href="#mbc1e8c8ce9" x="-1" y="245.463894" style="fill: #ff6b35; stroke: #000000; stroke-linejoin: miter"/>
     <use xlink:href="#mbc1e8c8ce9" x="117.063195" y="245.292177" style="fill: #ff6b35; stroke: #000000; stroke-linejoin: miter"/>
     <use xlink:href="#mbc1e8c8ce9" x="117.839177" y="237.473586" style="fill: #ff6b35; stroke: #000000; stroke-linejoin: miter"/>
     <use xlink:href="#mbc1e8c8ce9" x="120.167122" y="235.504876" style="fill: #ff6b35; stroke: #000000; stroke-linejoin: miter"/>
     <use xlink:href="#mbc1e8c8ce9" x="120.167122" y="229.644767" style="fill: #ff6b35; stroke: #000000; stroke-linejoin: miter"/>
     <use xlink:href="#mbc1e8c8ce9" x="122.495036" y="231.582796" style="fill: #ff6b35; stroke: #000000; stroke-linejoin: miter"/>
     <use xlink:href="#mbc1e8c8ce9" x="125.598963" y="234.492397" style="fill: #ff6b35; stroke: #000000; stroke-linejoin: miter"/>
     <use xlink:href="#mbc1e8c8ce9" x="130.254822" y="235.4384" style="fill: #ff6b35; stroke: #000000; stroke-linejoin: miter"/>
     <use xlink:href="#mbc1e8c8ce9" x="136.462645" y="239.30423" style="fill: #ff6b35; stroke: #000000; stroke-linejoin: miter"/>
     <use xlink:href="#mbc1e8c8ce9" x="142.670468" y="241.216692" style="fill: #ff6b35; stroke: #000000; stroke-linejoin: miter"/>
     <use xlink:href="#mbc1e8c8ce9" x="148.10234" y="242.157582" style="fill: #ff6b35; stroke: #000000; stroke-linejoin: miter"/>
     <use xlink:href="#mbc1e8c8ce9" x="154.310163" y="242.116673" style="fill: #ff6b35; stroke: #000000; stroke-linejoin: miter"/>
    </g>
   </g>
   <g id="line2d_19">
    <path d="M 92.311815 243.089794 
L 98.833137 244.077233 
L 106.095518 244.948092 
L 114.395382 245.714512 
L 117.063195 245.918808 
L 117.063195 245.918808 
L 117.680744 241.817494 
L 118.915843 225.083471 
L 119.533393 218.40162 
L 120.150942 213.744806 
L 120.768491 210.929116 
L 121.386041 209.589407 
L 122.00359 209.344298 
L 122.62114 209.86237 
L 123.238689 210.880742 
L 124.473788 213.686444 
L 126.943986 219.726513 
L 128.796634 223.542053 
L 130.031733 225.663273 
L 131.884381 228.296646 
L 133.737029 230.403868 
L 135.589677 232.115582 
L 137.442325 233.532587 
L 139.912523 235.088394 
L 142.382721 236.370738 
L 145.470468 237.705388 
L 149.175764 239.032737 
L 153.49861 240.31731 
L 158.439005 241.534487 
L 163.99695 242.663178 
L 170.172444 243.68497 
L 176.965488 244.586272 
L 184.99363 245.41647 
L 194.256871 246.133505 
L 204.755211 246.717372 
L 217.723748 247.205147 
L 233.780033 247.577754 
L 256.011812 247.852107 
L 289.977029 248.020385 
L 359.142563 248.091743 
L 425.837899 248.098679 
L 425.837899 248.098679 
" clip-path="url(#p6f5cb5fd79)" style="fill: none; stroke: #ff5722; stroke-width: 2; stroke-linecap: square"/>
   </g>
   <g id="line2d_20">
    <path d="M -1 243.580253 
L 117.063195 243.338808 
L 117.063195 240.408753 
L 117.839177 231.613478 
L 119.39114 216.95298 
L 120.167122 212.064443 
L 120.943073 208.15259 
L 126.374945 213.976903 
L 129.478841 218.839873 
L 134.134731 225.645985 
L 141.118535 232.436756 
L 148.878291 235.315675 
L 155.086144 239.181506 
L 166.725808 240.081488 
L 190.781148 242.853022 
" clip-path="url(#p6f5cb5fd79)" style="fill: none; stroke-dasharray: 3.7,1.6; stroke-dashoffset: 0; stroke: #ff5722"/>
    <defs>
     <path id="m86efdf9f6b" d="M -3 3 
L 3 3 
L 3 -3 
L -3 -3 
z
" style="stroke: #000000; stroke-linejoin: miter"/>
    </defs>
    <g clip-path="url(#p6f5cb5fd79)">
     <use xlink:href="#m86efdf9f6b" x="-1" y="243.580253" style="fill: #ff5722; stroke: #000000; stroke-linejoin: miter"/>
     <use xlink:href="#m86efdf9f6b" x="117.063195" y="243.338808" style="fill: #ff5722; stroke: #000000; stroke-linejoin: miter"/>
     <use xlink:href="#m86efdf9f6b" x="117.063195" y="240.408753" style="fill: #ff5722; stroke: #000000; stroke-linejoin: miter"/>
     <use xlink:href="#m86efdf9f6b" x="117.839177" y="231.613478" style="fill: #ff5722; stroke: #000000; stroke-linejoin: miter"/>
     <use xlink:href="#m86efdf9f6b" x="119.39114" y="216.95298" style="fill: #ff5722; stroke: #000000; stroke-linejoin: miter"/>
     <use xlink:href="#m86efdf9f6b" x="120.167122" y="212.064443" style="fill: #ff5722; stroke: #000000; stroke-linejoin: miter"/>
     <use xlink:href="#m86efdf9f6b" x="120.943073" y="208.15259" style="fill: #ff5722; stroke: #000000; stroke-linejoin: miter"/>
     <use xlink:href="#m86efdf9f6b" x="126.374945" y="213.976903" style="fill: #ff5722; stroke: #000000; stroke-linejoin: miter"/>
     <use xlink:href="#m86efdf9f6b" x="129.478841" y="218.839873" style="fill: #ff5722; stroke: #000000; stroke-linejoin: miter"/>
     <use xlink:href="#m86efdf9f6b" x="134.134731" y="225.645985" style="fill: #ff5722; stroke: #000000; stroke-linejoin: miter"/>
     <use xlink:href="#m86efdf9f6b" x="141.118535" y="232.436756" style="fill: #ff5722; stroke: #000000; stroke-linejoin: miter"/>
     <use xlink:href="#m86efdf9f6b" x="148.878291" y="235.315675" style="fill: #ff5722; stroke: #000000; stroke-linejoin: miter"/>
     <use xlink:href="#m86efdf9f6b" x="155.086144" y="239.181506" style="fill: #ff5722; stroke: #000000; stroke-linejoin: miter"/>
     <use xlink:href="#m86efdf9f6b" x="166.725808" y="240.081488" style="fill: #ff5722; stroke: #000000; stroke-linejoin: miter"/>
     <use xlink:href="#m86efdf9f6b" x="190.781148" y="242.853022" style="fill: #ff5722; stroke: #000000; stroke-linejoin: miter"/>
    </g>
   </g>
   <g id="line2d_21">
    <path d="M 92.311815 228.817431 
L 95.868899 230.9733 
L 99.574196 232.960405 
L 103.575916 234.846895 
L 107.725848 236.554642 
L 112.172204 238.140606 
L 116.914983 239.592769 
L 117.063195 239.634562 
L 117.063195 239.634562 
L 117.680744 223.194359 
L 118.915843 155.985302 
L 119.533393 129.133045 
L 120.150942 110.464 
L 120.768491 99.263272 
L 121.386041 94.065789 
L 122.00359 93.326331 
L 122.62114 95.693405 
L 123.238689 100.08981 
L 124.473788 111.959643 
L 126.943986 137.106044 
L 128.179084 147.916641 
L 129.414183 157.231271 
L 130.649282 165.170953 
L 131.884381 171.928715 
L 133.11948 177.70258 
L 134.354578 182.669833 
L 135.589677 186.979913 
L 137.442325 192.473592 
L 139.294974 197.074419 
L 141.147622 201.007902 
L 143.00027 204.434109 
L 144.852918 207.466895 
L 147.323116 211.036032 
L 149.793314 214.181675 
L 152.263511 216.992247 
L 155.351258 220.124114 
L 158.439005 222.905358 
L 161.526752 225.390892 
L 164.614499 227.620787 
L 168.319796 230.002461 
L 172.025092 232.103296 
L 175.730389 233.958416 
L 180.053235 235.851556 
L 184.37608 237.490765 
L 188.698926 238.910393 
L 193.639322 240.301647 
L 199.197266 241.616638 
L 204.755211 242.709871 
L 210.930705 243.709761 
L 218.341298 244.667924 
L 226.36944 245.471439 
L 235.632681 246.167746 
L 246.748571 246.76435 
L 259.717108 247.2318 
L 276.390942 247.600922 
L 299.24027 247.866172 
L 334.440586 248.027068 
L 408.546515 248.093334 
L 425.837899 248.096032 
L 425.837899 248.096032 
" clip-path="url(#p6f5cb5fd79)" style="fill: none; stroke: #e53935; stroke-width: 2; stroke-linecap: square"/>
   </g>
   <g id="line2d_22">
    <path d="M -1 244.013084 
L 117.063195 244.315492 
L 117.063195 233.57196 
L 117.839177 218.916576 
L 118.615158 174.96065 
L 119.39114 131.981409 
L 119.39114 113.424399 
L 121.719054 113.409058 
L 123.271018 128.049102 
L 124.822981 133.898983 
L 127.150926 137.790382 
L 130.254822 142.653351 
L 135.686663 168.988044 
L 141.894486 190.4342 
L 148.10234 199.183454 
L 154.310163 210.862762 
L 166.725808 222.501162 
L 192.333081 232.099263 
L 228.804067 239.672405 
L 266.051034 242.35701 
" clip-path="url(#p6f5cb5fd79)" style="fill: none; stroke-dasharray: 3.7,1.6; stroke-dashoffset: 0; stroke: #e53935"/>
    <defs>
     <path id="m0f2e50af7b" d="M -3 3 
L 3 3 
L 3 -3 
L -3 -3 
z
" style="stroke: #000000; stroke-linejoin: miter"/>
    </defs>
    <g clip-path="url(#p6f5cb5fd79)">
     <use xlink:href="#m0f2e50af7b" x="-1" y="244.013084" style="fill: #e53935; stroke: #000000; stroke-linejoin: miter"/>
     <use xlink:href="#m0f2e50af7b" x="117.063195" y="244.315492" style="fill: #e53935; stroke: #000000; stroke-linejoin: miter"/>
     <use xlink:href="#m0f2e50af7b" x="117.063195" y="233.57196" style="fill: #e53935; stroke: #000000; stroke-linejoin: miter"/>
     <use xlink:href="#m0f2e50af7b" x="117.839177" y="218.916576" style="fill: #e53935; stroke: #000000; stroke-linejoin: miter"/>
     <use xlink:href="#m0f2e50af7b" x="118.615158" y="174.96065" style="fill: #e53935; stroke: #000000; stroke-linejoin: miter"/>
     <use xlink:href="#m0f2e50af7b" x="119.39114" y="131.981409" style="fill: #e53935; stroke: #000000; stroke-linejoin: miter"/>
     <use xlink:href="#m0f2e50af7b" x="119.39114" y="113.424399" style="fill: #e53935; stroke: #000000; stroke-linejoin: miter"/>
     <use xlink:href="#m0f2e50af7b" x="121.719054" y="113.409058" style="fill: #e53935; stroke: #000000; stroke-linejoin: miter"/>
     <use xlink:href="#m0f2e50af7b" x="123.271018" y="128.049102" style="fill: #e53935; stroke: #000000; stroke-linejoin: miter"/>
     <use xlink:href="#m0f2e50af7b" x="124.822981" y="133.898983" style="fill: #e53935; stroke: #000000; stroke-linejoin: miter"/>
     <use xlink:href="#m0f2e50af7b" x="127.150926" y="137.790382" style="fill: #e53935; stroke: #000000; stroke-linejoin: miter"/>
     <use xlink:href="#m0f2e50af7b" x="130.254822" y="142.653351" style="fill: #e53935; stroke: #000000; stroke-linejoin: miter"/>
     <use xlink:href="#m0f2e50af7b" x="135.686663" y="168.988044" style="fill: #e53935; stroke: #000000; stroke-linejoin: miter"/>
     <use xlink:href="#m0f2e50af7b" x="141.894486" y="190.4342" style="fill: #e53935; stroke: #000000; stroke-linejoin: miter"/>
     <use xlink:href="#m0f2e50af7b" x="148.10234" y="199.183454" style="fill: #e53935; stroke: #000000; stroke-linejoin: miter"/>
     <use xlink:href="#m0f2e50af7b" x="154.310163" y="210.862762" style="fill: #e53935; stroke: #000000; stroke-linejoin: miter"/>
     <use xlink:href="#m0f2e50af7b" x="166.725808" y="222.501162" style="fill: #e53935; stroke: #000000; stroke-linejoin: miter"/>
     <use xlink:href="#m0f2e50af7b" x="192.333081" y="232.099263" style="fill: #e53935; stroke: #000000; stroke-linejoin: miter"/>
     <use xlink:href="#m0f2e50af7b" x="228.804067" y="239.672405" style="fill: #e53935; stroke: #000000; stroke-linejoin: miter"/>
     <use xlink:href="#m0f2e50af7b" x="266.051034" y="242.35701" style="fill: #e53935; stroke: #000000; stroke-linejoin: miter"/>
    </g>
   </g>
   <g id="patch_3">
    <path d="M 92.361219 320.4 
L 92.361219 43.2 
" style="fill: none; stroke: #000000; stroke-width: 0.8; stroke-linejoin: miter; stroke-linecap: square"/>
   </g>
   <g id="patch_4">
    <path d="M 432.013393 320.4 
L 432.013393 43.2 
" style="fill: none; stroke: #000000; stroke-width: 0.8; stroke-linejoin: miter; stroke-linecap: square"/>
   </g>
   <g id="patch_5">
    <path d="M 92.361219 320.4 
L 432.013393 320.4 
" style="fill: none; stroke: #000000; stroke-width: 0.8; stroke-linejoin: miter; stroke-linecap: square"/>
   </g>
   <g id="patch_6">
    <path d="M 92.361219 43.2 
L 432.013393 43.2 
" style="fill: none; stroke: #000000; stroke-width: 0.8; stroke-linejoin: miter; stroke-linecap: square"/>
   </g>
   <g id="legend_1">
    <g id="patch_7">
     <path d="M 284.600424 142.872187 
L 425.713393 142.872187 
Q 427.513393 142.872187 427.513393 141.072187 
L 427.513393 49.5 
Q 427.513393 47.7 425.713393 47.7 
L 284.600424 47.7 
Q 282.800424 47.7 282.800424 49.5 
L 282.800424 141.072187 
Q 282.800424 142.872187 284.600424 142.872187 
z
" style="fill: #ffffff; opacity: 0.8; stroke: #cccccc; stroke-linejoin: miter"/>
    </g>
    <g id="line2d_23">
     <path d="M 286.400424 54.988594 
L 304.400424 54.988594 
" style="fill: none; stroke: #000000; stroke-width: 2; stroke-linecap: square"/>
    </g>
    <g id="line2d_24"/>
    <g id="text_18">
     <!-- Placebo -->
     <g transform="translate(311.600424 58.138594) scale(0.09 -0.09)">
      <defs>
       <path id="DejaVuSans-50" d="M 1259 4147 
L 1259 2394 
L 2053 2394 
Q 2494 2394 2734 2622 
Q 2975 2850 2975 3272 
Q 2975 3691 2734 3919 
Q 2494 4147 2053 4147 
L 1259 4147 
z
M 628 4666 
L 2053 4666 
Q 2838 4666 3239 4311 
Q 3641 3956 3641 3272 
Q 3641 2581 3239 2228 
Q 2838 1875 2053 1875 
L 1259 1875 
L 1259 0 
L 628 0 
L 628 4666 
z
" transform="scale(0.015625)"/>
       <path id="DejaVuSans-6c" d="M 603 4863 
L 1178 4863 
L 1178 0 
L 603 0 
L 603 4863 
z
" transform="scale(0.015625)"/>
       <path id="DejaVuSans-61" d="M 2194 1759 
Q 1497 1759 1228 1600 
Q 959 1441 959 1056 
Q 959 750 1161 570 
Q 1363 391 1709 391 
Q 2188 391 2477 730 
Q 2766 1069 2766 1631 
L 2766 1759 
L 2194 1759 
z
M 3341 1997 
L 3341 0 
L 2766 0 
L 2766 531 
Q 2569 213 2275 61 
Q 1981 -91 1556 -91 
Q 1019 -91 701 211 
Q 384 513 384 1019 
Q 384 1609 779 1909 
Q 1175 2209 1959 2209 
L 2766 2209 
L 2766 2266 
Q 2766 2663 2505 2880 
Q 2244 3097 1772 3097 
Q 1472 3097 1187 3025 
Q 903 2953 641 2809 
L 641 3341 
Q 956 3463 1253 3523 
Q 1550 3584 1831 3584 
Q 2591 3584 2966 3190 
Q 3341 2797 3341 1997 
z
" transform="scale(0.015625)"/>
       <path id="DejaVuSans-63" d="M 3122 3366 
L 3122 2828 
Q 2878 2963 2633 3030 
Q 2388 3097 2138 3097 
Q 1578 3097 1268 2742 
Q 959 2388 959 1747 
Q 959 1106 1268 751 
Q 1578 397 2138 397 
Q 2388 397 2633 464 
Q 2878 531 3122 666 
L 3122 134 
Q 2881 22 2623 -34 
Q 2366 -91 2075 -91 
Q 1284 -91 818 406 
Q 353 903 353 1747 
Q 353 2603 823 3093 
Q 1294 3584 2113 3584 
Q 2378 3584 2631 3529 
Q 2884 3475 3122 3366 
z
" transform="scale(0.015625)"/>
       <path id="DejaVuSans-65" d="M 3597 1894 
L 3597 1613 
L 953 1613 
Q 991 1019 1311 708 
Q 1631 397 2203 397 
Q 2534 397 2845 478 
Q 3156 559 3463 722 
L 3463 178 
Q 3153 47 2828 -22 
Q 2503 -91 2169 -91 
Q 1331 -91 842 396 
Q 353 884 353 1716 
Q 353 2575 817 3079 
Q 1281 3584 2069 3584 
Q 2775 3584 3186 3129 
Q 3597 2675 3597 1894 
z
M 3022 2063 
Q 3016 2534 2758 2815 
Q 2500 3097 2075 3097 
Q 1594 3097 1305 2825 
Q 1016 2553 972 2059 
L 3022 2063 
z
" transform="scale(0.015625)"/>
       <path id="DejaVuSans-62" d="M 3116 1747 
Q 3116 2381 2855 2742 
Q 2594 3103 2138 3103 
Q 1681 3103 1420 2742 
Q 1159 2381 1159 1747 
Q 1159 1113 1420 752 
Q 1681 391 2138 391 
Q 2594 391 2855 752 
Q 3116 1113 3116 1747 
z
M 1159 2969 
Q 1341 3281 1617 3432 
Q 1894 3584 2278 3584 
Q 2916 3584 3314 3078 
Q 3713 2572 3713 1747 
Q 3713 922 3314 415 
Q 2916 -91 2278 -91 
Q 1894 -91 1617 61 
Q 1341 213 1159 525 
L 1159 0 
L 581 0 
L 581 4863 
L 1159 4863 
L 1159 2969 
z
" transform="scale(0.015625)"/>
       <path id="DejaVuSans-6f" d="M 1959 3097 
Q 1497 3097 1228 2736 
Q 959 2375 959 1747 
Q 959 1119 1226 758 
Q 1494 397 1959 397 
Q 2419 397 2687 759 
Q 2956 1122 2956 1747 
Q 2956 2369 2687 2733 
Q 2419 3097 1959 3097 
z
M 1959 3584 
Q 2709 3584 3137 3096 
Q 3566 2609 3566 1747 
Q 3566 888 3137 398 
Q 2709 -91 1959 -91 
Q 1206 -91 779 398 
Q 353 888 353 1747 
Q 353 2609 779 3096 
Q 1206 3584 1959 3584 
z
" transform="scale(0.015625)"/>
      </defs>
      <use xlink:href="#DejaVuSans-50"/>
      <use xlink:href="#DejaVuSans-6c" transform="translate(60.302734 0)"/>
      <use xlink:href="#DejaVuSans-61" transform="translate(88.085938 0)"/>
      <use xlink:href="#DejaVuSans-63" transform="translate(149.365234 0)"/>
      <use xlink:href="#DejaVuSans-65" transform="translate(204.345703 0)"/>
      <use xlink:href="#DejaVuSans-62" transform="translate(265.869141 0)"/>
      <use xlink:href="#DejaVuSans-6f" transform="translate(329.345703 0)"/>
     </g>
    </g>
    <g id="line2d_25">
     <path d="M 286.400424 68.198906 
L 304.400424 68.198906 
" style="fill: none; stroke: #ff6b35; stroke-width: 2; stroke-linecap: square"/>
    </g>
    <g id="line2d_26"/>
    <g id="text_19">
     <!-- 10 mg Emp -->
     <g transform="translate(311.600424 71.348906) scale(0.09 -0.09)">
      <defs>
       <path id="DejaVuSans-20" transform="scale(0.015625)"/>
       <path id="DejaVuSans-6d" d="M 3328 2828 
Q 3544 3216 3844 3400 
Q 4144 3584 4550 3584 
Q 5097 3584 5394 3201 
Q 5691 2819 5691 2113 
L 5691 0 
L 5113 0 
L 5113 2094 
Q 5113 2597 4934 2840 
Q 4756 3084 4391 3084 
Q 3944 3084 3684 2787 
Q 3425 2491 3425 1978 
L 3425 0 
L 2847 0 
L 2847 2094 
Q 2847 2600 2669 2842 
Q 2491 3084 2119 3084 
Q 1678 3084 1418 2786 
Q 1159 2488 1159 1978 
L 1159 0 
L 581 0 
L 581 3500 
L 1159 3500 
L 1159 2956 
Q 1356 3278 1631 3431 
Q 1906 3584 2284 3584 
Q 2666 3584 2933 3390 
Q 3200 3197 3328 2828 
z
" transform="scale(0.015625)"/>
       <path id="DejaVuSans-67" d="M 2906 1791 
Q 2906 2416 2648 2759 
Q 2391 3103 1925 3103 
Q 1463 3103 1205 2759 
Q 947 2416 947 1791 
Q 947 1169 1205 825 
Q 1463 481 1925 481 
Q 2391 481 2648 825 
Q 2906 1169 2906 1791 
z
M 3481 434 
Q 3481 -459 3084 -895 
Q 2688 -1331 1869 -1331 
Q 1566 -1331 1297 -1286 
Q 1028 -1241 775 -1147 
L 775 -588 
Q 1028 -725 1275 -790 
Q 1522 -856 1778 -856 
Q 2344 -856 2625 -561 
Q 2906 -266 2906 331 
L 2906 616 
Q 2728 306 2450 153 
Q 2172 0 1784 0 
Q 1141 0 747 490 
Q 353 981 353 1791 
Q 353 2603 747 3093 
Q 1141 3584 1784 3584 
Q 2172 3584 2450 3431 
Q 2728 3278 2906 2969 
L 2906 3500 
L 3481 3500 
L 3481 434 
z
" transform="scale(0.015625)"/>
       <path id="DejaVuSans-45" d="M 628 4666 
L 3578 4666 
L 3578 4134 
L 1259 4134 
L 1259 2753 
L 3481 2753 
L 3481 2222 
L 1259 2222 
L 1259 531 
L 3634 531 
L 3634 0 
L 628 0 
L 628 4666 
z
" transform="scale(0.015625)"/>
       <path id="DejaVuSans-70" d="M 1159 525 
L 1159 -1331 
L 581 -1331 
L 581 3500 
L 1159 3500 
L 1159 2969 
Q 1341 3281 1617 3432 
Q 1894 3584 2278 3584 
Q 2916 3584 3314 3078 
Q 3713 2572 3713 1747 
Q 3713 922 3314 415 
Q 2916 -91 2278 -91 
Q 1894 -91 1617 61 
Q 1341 213 1159 525 
z
M 3116 1747 
Q 3116 2381 2855 2742 
Q 2594 3103 2138 3103 
Q 1681 3103 1420 2742 
Q 1159 2381 1159 1747 
Q 1159 1113 1420 752 
Q 1681 391 2138 391 
Q 2594 391 2855 752 
Q 3116 1113 3116 1747 
z
" transform="scale(0.015625)"/>
      </defs>
      <use xlink:href="#DejaVuSans-31"/>
      <use xlink:href="#DejaVuSans-30" transform="translate(63.623047 0)"/>
      <use xlink:href="#DejaVuSans-20" transform="translate(127.246094 0)"/>
      <use xlink:href="#DejaVuSans-6d" transform="translate(159.033203 0)"/>
      <use xlink:href="#DejaVuSans-67" transform="translate(256.445312 0)"/>
      <use xlink:href="#DejaVuSans-20" transform="translate(319.921875 0)"/>
      <use xlink:href="#DejaVuSans-45" transform="translate(351.708984 0)"/>
      <use xlink:href="#DejaVuSans-6d" transform="translate(414.892578 0)"/>
      <use xlink:href="#DejaVuSans-70" transform="translate(512.304688 0)"/>
     </g>
    </g>
    <g id="LineCollection_4">
     <path d="M 295.400424 85.909219 
L 295.400424 76.909219 
" style="fill: none; stroke: #ff6b35"/>
    </g>
    <g id="line2d_27">
     <path d="M 286.400424 81.409219 
L 304.400424 81.409219 
" style="fill: none; stroke-dasharray: 3.7,1.6; stroke-dashoffset: 0; stroke: #ff6b35"/>
    </g>
    <g id="line2d_28">
     <g>
      <use xlink:href="#mbc1e8c8ce9" x="295.400424" y="81.409219" style="fill: #ff6b35; stroke: #000000; stroke-linejoin: miter"/>
     </g>
    </g>
    <g id="text_20">
     <!-- 10 mg Emp±SD (n=16) -->
     <g transform="translate(311.600424 84.559219) scale(0.09 -0.09)">
      <defs>
       <path id="DejaVuSans-b1" d="M 2944 4013 
L 2944 2803 
L 4684 2803 
L 4684 2272 
L 2944 2272 
L 2944 1063 
L 2419 1063 
L 2419 2272 
L 678 2272 
L 678 2803 
L 2419 2803 
L 2419 4013 
L 2944 4013 
z
M 678 531 
L 4684 531 
L 4684 0 
L 678 0 
L 678 531 
z
" transform="scale(0.015625)"/>
       <path id="DejaVuSans-53" d="M 3425 4513 
L 3425 3897 
Q 3066 4069 2747 4153 
Q 2428 4238 2131 4238 
Q 1616 4238 1336 4038 
Q 1056 3838 1056 3469 
Q 1056 3159 1242 3001 
Q 1428 2844 1947 2747 
L 2328 2669 
Q 3034 2534 3370 2195 
Q 3706 1856 3706 1288 
Q 3706 609 3251 259 
Q 2797 -91 1919 -91 
Q 1588 -91 1214 -16 
Q 841 59 441 206 
L 441 856 
Q 825 641 1194 531 
Q 1563 422 1919 422 
Q 2459 422 2753 634 
Q 3047 847 3047 1241 
Q 3047 1584 2836 1778 
Q 2625 1972 2144 2069 
L 1759 2144 
Q 1053 2284 737 2584 
Q 422 2884 422 3419 
Q 422 4038 858 4394 
Q 1294 4750 2059 4750 
Q 2388 4750 2728 4690 
Q 3069 4631 3425 4513 
z
" transform="scale(0.015625)"/>
       <path id="DejaVuSans-44" d="M 1259 4147 
L 1259 519 
L 2022 519 
Q 2988 519 3436 956 
Q 3884 1394 3884 2338 
Q 3884 3275 3436 3711 
Q 2988 4147 2022 4147 
L 1259 4147 
z
M 628 4666 
L 1925 4666 
Q 3281 4666 3915 4102 
Q 4550 3538 4550 2338 
Q 4550 1131 3912 565 
Q 3275 0 1925 0 
L 628 0 
L 628 4666 
z
" transform="scale(0.015625)"/>
       <path id="DejaVuSans-28" d="M 1984 4856 
Q 1566 4138 1362 3434 
Q 1159 2731 1159 2009 
Q 1159 1288 1364 580 
Q 1569 -128 1984 -844 
L 1484 -844 
Q 1016 -109 783 600 
Q 550 1309 550 2009 
Q 550 2706 781 3412 
Q 1013 4119 1484 4856 
L 1984 4856 
z
" transform="scale(0.015625)"/>
       <path id="DejaVuSans-6e" d="M 3513 2113 
L 3513 0 
L 2938 0 
L 2938 2094 
Q 2938 2591 2744 2837 
Q 2550 3084 2163 3084 
Q 1697 3084 1428 2787 
Q 1159 2491 1159 1978 
L 1159 0 
L 581 0 
L 581 3500 
L 1159 3500 
L 1159 2956 
Q 1366 3272 1645 3428 
Q 1925 3584 2291 3584 
Q 2894 3584 3203 3211 
Q 3513 2838 3513 2113 
z
" transform="scale(0.015625)"/>
       <path id="DejaVuSans-3d" d="M 678 2906 
L 4684 2906 
L 4684 2381 
L 678 2381 
L 678 2906 
z
M 678 1631 
L 4684 1631 
L 4684 1100 
L 678 1100 
L 678 1631 
z
" transform="scale(0.015625)"/>
       <path id="DejaVuSans-29" d="M 513 4856 
L 1013 4856 
Q 1481 4119 1714 3412 
Q 1947 2706 1947 2009 
Q 1947 1309 1714 600 
Q 1481 -109 1013 -844 
L 513 -844 
Q 928 -128 1133 580 
Q 1338 1288 1338 2009 
Q 1338 2731 1133 3434 
Q 928 4138 513 4856 
z
" transform="scale(0.015625)"/>
      </defs>
      <use xlink:href="#DejaVuSans-31"/>
      <use xlink:href="#DejaVuSans-30" transform="translate(63.623047 0)"/>
      <use xlink:href="#DejaVuSans-20" transform="translate(127.246094 0)"/>
      <use xlink:href="#DejaVuSans-6d" transform="translate(159.033203 0)"/>
      <use xlink:href="#DejaVuSans-67" transform="translate(256.445312 0)"/>
      <use xlink:href="#DejaVuSans-20" transform="translate(319.921875 0)"/>
      <use xlink:href="#DejaVuSans-45" transform="translate(351.708984 0)"/>
      <use xlink:href="#DejaVuSans-6d" transform="translate(414.892578 0)"/>
      <use xlink:href="#DejaVuSans-70" transform="translate(512.304688 0)"/>
      <use xlink:href="#DejaVuSans-b1" transform="translate(575.78125 0)"/>
      <use xlink:href="#DejaVuSans-53" transform="translate(659.570312 0)"/>
      <use xlink:href="#DejaVuSans-44" transform="translate(723.046875 0)"/>
      <use xlink:href="#DejaVuSans-20" transform="translate(800.048828 0)"/>
      <use xlink:href="#DejaVuSans-28" transform="translate(831.835938 0)"/>
      <use xlink:href="#DejaVuSans-6e" transform="translate(870.849609 0)"/>
      <use xlink:href="#DejaVuSans-3d" transform="translate(934.228516 0)"/>
      <use xlink:href="#DejaVuSans-31" transform="translate(1018.017578 0)"/>
      <use xlink:href="#DejaVuSans-36" transform="translate(1081.640625 0)"/>
      <use xlink:href="#DejaVuSans-29" transform="translate(1145.263672 0)"/>
     </g>
    </g>
    <g id="line2d_29">
     <path d="M 286.400424 94.619531 
L 304.400424 94.619531 
" style="fill: none; stroke: #ff5722; stroke-width: 2; stroke-linecap: square"/>
    </g>
    <g id="line2d_30"/>
    <g id="text_21">
     <!-- 25 mg Emp -->
     <g transform="translate(311.600424 97.769531) scale(0.09 -0.09)">
      <use xlink:href="#DejaVuSans-32"/>
      <use xlink:href="#DejaVuSans-35" transform="translate(63.623047 0)"/>
      <use xlink:href="#DejaVuSans-20" transform="translate(127.246094 0)"/>
      <use xlink:href="#DejaVuSans-6d" transform="translate(159.033203 0)"/>
      <use xlink:href="#DejaVuSans-67" transform="translate(256.445312 0)"/>
      <use xlink:href="#DejaVuSans-20" transform="translate(319.921875 0)"/>
      <use xlink:href="#DejaVuSans-45" transform="translate(351.708984 0)"/>
      <use xlink:href="#DejaVuSans-6d" transform="translate(414.892578 0)"/>
      <use xlink:href="#DejaVuSans-70" transform="translate(512.304688 0)"/>
     </g>
    </g>
    <g id="LineCollection_5">
     <path d="M 295.400424 112.329844 
L 295.400424 103.329844 
" style="fill: none; stroke: #ff5722"/>
    </g>
    <g id="line2d_31">
     <path d="M 286.400424 107.829844 
L 304.400424 107.829844 
" style="fill: none; stroke-dasharray: 3.7,1.6; stroke-dashoffset: 0; stroke: #ff5722"/>
    </g>
    <g id="line2d_32">
     <g>
      <use xlink:href="#m86efdf9f6b" x="295.400424" y="107.829844" style="fill: #ff5722; stroke: #000000; stroke-linejoin: miter"/>
     </g>
    </g>
    <g id="text_22">
     <!-- 25 mg Emp±SD (n=16) -->
     <g transform="translate(311.600424 110.979844) scale(0.09 -0.09)">
      <use xlink:href="#DejaVuSans-32"/>
      <use xlink:href="#DejaVuSans-35" transform="translate(63.623047 0)"/>
      <use xlink:href="#DejaVuSans-20" transform="translate(127.246094 0)"/>
      <use xlink:href="#DejaVuSans-6d" transform="translate(159.033203 0)"/>
      <use xlink:href="#DejaVuSans-67" transform="translate(256.445312 0)"/>
      <use xlink:href="#DejaVuSans-20" transform="translate(319.921875 0)"/>
      <use xlink:href="#DejaVuSans-45" transform="translate(351.708984 0)"/>
      <use xlink:href="#DejaVuSans-6d" transform="translate(414.892578 0)"/>
      <use xlink:href="#DejaVuSans-70" transform="translate(512.304688 0)"/>
      <use xlink:href="#DejaVuSans-b1" transform="translate(575.78125 0)"/>
      <use xlink:href="#DejaVuSans-53" transform="translate(659.570312 0)"/>
      <use xlink:href="#DejaVuSans-44" transform="translate(723.046875 0)"/>
      <use xlink:href="#DejaVuSans-20" transform="translate(800.048828 0)"/>
      <use xlink:href="#DejaVuSans-28" transform="translate(831.835938 0)"/>
      <use xlink:href="#DejaVuSans-6e" transform="translate(870.849609 0)"/>
      <use xlink:href="#DejaVuSans-3d" transform="translate(934.228516 0)"/>
      <use xlink:href="#DejaVuSans-31" transform="translate(1018.017578 0)"/>
      <use xlink:href="#DejaVuSans-36" transform="translate(1081.640625 0)"/>
      <use xlink:href="#DejaVuSans-29" transform="translate(1145.263672 0)"/>
     </g>
    </g>
    <g id="line2d_33">
     <path d="M 286.400424 121.040156 
L 304.400424 121.040156 
" style="fill: none; stroke: #e53935; stroke-width: 2; stroke-linecap: square"/>
    </g>
    <g id="line2d_34"/>
    <g id="text_23">
     <!-- 100 mg Emp -->
     <g transform="translate(311.600424 124.190156) scale(0.09 -0.09)">
      <use xlink:href="#DejaVuSans-31"/>
      <use xlink:href="#DejaVuSans-30" transform="translate(63.623047 0)"/>
      <use xlink:href="#DejaVuSans-30" transform="translate(127.246094 0)"/>
      <use xlink:href="#DejaVuSans-20" transform="translate(190.869141 0)"/>
      <use xlink:href="#DejaVuSans-6d" transform="translate(222.65625 0)"/>
      <use xlink:href="#DejaVuSans-67" transform="translate(320.068359 0)"/>
      <use xlink:href="#DejaVuSans-20" transform="translate(383.544922 0)"/>
      <use xlink:href="#DejaVuSans-45" transform="translate(415.332031 0)"/>
      <use xlink:href="#DejaVuSans-6d" transform="translate(478.515625 0)"/>
      <use xlink:href="#DejaVuSans-70" transform="translate(575.927734 0)"/>
     </g>
    </g>
    <g id="LineCollection_6">
     <path d="M 295.400424 138.750469 
L 295.400424 129.750469 
" style="fill: none; stroke: #e53935"/>
    </g>
    <g id="line2d_35">
     <path d="M 286.400424 134.250469 
L 304.400424 134.250469 
" style="fill: none; stroke-dasharray: 3.7,1.6; stroke-dashoffset: 0; stroke: #e53935"/>
    </g>
    <g id="line2d_36">
     <g>
      <use xlink:href="#m0f2e50af7b" x="295.400424" y="134.250469" style="fill: #e53935; stroke: #000000; stroke-linejoin: miter"/>
     </g>
    </g>
    <g id="text_24">
     <!-- 100 mg Emp±SD (n=30) -->
     <g transform="translate(311.600424 137.400469) scale(0.09 -0.09)">
      <use xlink:href="#DejaVuSans-31"/>
      <use xlink:href="#DejaVuSans-30" transform="translate(63.623047 0)"/>
      <use xlink:href="#DejaVuSans-30" transform="translate(127.246094 0)"/>
      <use xlink:href="#DejaVuSans-20" transform="translate(190.869141 0)"/>
      <use xlink:href="#DejaVuSans-6d" transform="translate(222.65625 0)"/>
      <use xlink:href="#DejaVuSans-67" transform="translate(320.068359 0)"/>
      <use xlink:href="#DejaVuSans-20" transform="translate(383.544922 0)"/>
      <use xlink:href="#DejaVuSans-45" transform="translate(415.332031 0)"/>
      <use xlink:href="#DejaVuSans-6d" transform="translate(478.515625 0)"/>
      <use xlink:href="#DejaVuSans-70" transform="translate(575.927734 0)"/>
      <use xlink:href="#DejaVuSans-b1" transform="translate(639.404297 0)"/>
      <use xlink:href="#DejaVuSans-53" transform="translate(723.193359 0)"/>
      <use xlink:href="#DejaVuSans-44" transform="translate(786.669922 0)"/>
      <use xlink:href="#DejaVuSans-20" transform="translate(863.671875 0)"/>
      <use xlink:href="#DejaVuSans-28" transform="translate(895.458984 0)"/>
      <use xlink:href="#DejaVuSans-6e" transform="translate(934.472656 0)"/>
      <use xlink:href="#DejaVuSans-3d" transform="translate(997.851562 0)"/>
      <use xlink:href="#DejaVuSans-33" transform="translate(1081.640625 0)"/>
      <use xlink:href="#DejaVuSans-30" transform="translate(1145.263672 0)"/>
      <use xlink:href="#DejaVuSans-29" transform="translate(1208.886719 0)"/>
     </g>
    </g>
   </g>
  </g>
  <g id="axes_2">
   <g id="patch_8">
    <path d="M 533.909045 320.4 
L 873.561219 320.4 
L 873.561219 43.2 
L 533.909045 43.2 
z
" style="fill: #ffffff"/>
   </g>
   <g id="matplotlib.axis_3">
    <g id="xtick_7">
     <g id="line2d_37">
      <g>
       <use xlink:href="#mf6a38500d6" x="533.909045" y="320.4" style="stroke: #000000; stroke-width: 0.8"/>
      </g>
     </g>
     <g id="text_25">
      <!-- 640 -->
      <g transform="translate(519.59342 338.797656) scale(0.15 -0.15)">
       <use xlink:href="#DejaVuSans-36"/>
       <use xlink:href="#DejaVuSans-34" transform="translate(63.623047 0)"/>
       <use xlink:href="#DejaVuSans-30" transform="translate(127.246094 0)"/>
      </g>
     </g>
    </g>
    <g id="xtick_8">
     <g id="line2d_38">
      <g>
       <use xlink:href="#mf6a38500d6" x="595.663986" y="320.4" style="stroke: #000000; stroke-width: 0.8"/>
      </g>
     </g>
     <g id="text_26">
      <!-- 660 -->
      <g transform="translate(581.348361 338.797656) scale(0.15 -0.15)">
       <use xlink:href="#DejaVuSans-36"/>
       <use xlink:href="#DejaVuSans-36" transform="translate(63.623047 0)"/>
       <use xlink:href="#DejaVuSans-30" transform="translate(127.246094 0)"/>
      </g>
     </g>
    </g>
    <g id="xtick_9">
     <g id="line2d_39">
      <g>
       <use xlink:href="#mf6a38500d6" x="657.418926" y="320.4" style="stroke: #000000; stroke-width: 0.8"/>
      </g>
     </g>
     <g id="text_27">
      <!-- 680 -->
      <g transform="translate(643.103301 338.797656) scale(0.15 -0.15)">
       <use xlink:href="#DejaVuSans-36"/>
       <use xlink:href="#DejaVuSans-38" transform="translate(63.623047 0)"/>
       <use xlink:href="#DejaVuSans-30" transform="translate(127.246094 0)"/>
      </g>
     </g>
    </g>
    <g id="xtick_10">
     <g id="line2d_40">
      <g>
       <use xlink:href="#mf6a38500d6" x="719.173867" y="320.4" style="stroke: #000000; stroke-width: 0.8"/>
      </g>
     </g>
     <g id="text_28">
      <!-- 700 -->
      <g transform="translate(704.858242 338.797656) scale(0.15 -0.15)">
       <use xlink:href="#DejaVuSans-37"/>
       <use xlink:href="#DejaVuSans-30" transform="translate(63.623047 0)"/>
       <use xlink:href="#DejaVuSans-30" transform="translate(127.246094 0)"/>
      </g>
     </g>
    </g>
    <g id="xtick_11">
     <g id="line2d_41">
      <g>
       <use xlink:href="#mf6a38500d6" x="780.928808" y="320.4" style="stroke: #000000; stroke-width: 0.8"/>
      </g>
     </g>
     <g id="text_29">
      <!-- 720 -->
      <g transform="translate(766.613183 338.797656) scale(0.15 -0.15)">
       <use xlink:href="#DejaVuSans-37"/>
       <use xlink:href="#DejaVuSans-32" transform="translate(63.623047 0)"/>
       <use xlink:href="#DejaVuSans-30" transform="translate(127.246094 0)"/>
      </g>
     </g>
    </g>
    <g id="xtick_12">
     <g id="line2d_42">
      <g>
       <use xlink:href="#mf6a38500d6" x="842.683748" y="320.4" style="stroke: #000000; stroke-width: 0.8"/>
      </g>
     </g>
     <g id="text_30">
      <!-- 740 -->
      <g transform="translate(828.368123 338.797656) scale(0.15 -0.15)">
       <use xlink:href="#DejaVuSans-37"/>
       <use xlink:href="#DejaVuSans-34" transform="translate(63.623047 0)"/>
       <use xlink:href="#DejaVuSans-30" transform="translate(127.246094 0)"/>
      </g>
     </g>
    </g>
    <g id="text_31">
     <!-- Time [hr] -->
     <g transform="translate(656.822632 359.594375) scale(0.18 -0.18)">
      <use xlink:href="#DejaVuSans-Bold-54"/>
      <use xlink:href="#DejaVuSans-Bold-69" transform="translate(68.212891 0)"/>
      <use xlink:href="#DejaVuSans-Bold-6d" transform="translate(102.490234 0)"/>
      <use xlink:href="#DejaVuSans-Bold-65" transform="translate(206.689453 0)"/>
      <use xlink:href="#DejaVuSans-Bold-20" transform="translate(274.511719 0)"/>
      <use xlink:href="#DejaVuSans-Bold-5b" transform="translate(309.326172 0)"/>
      <use xlink:href="#DejaVuSans-Bold-68" transform="translate(355.029297 0)"/>
      <use xlink:href="#DejaVuSans-Bold-72" transform="translate(426.220703 0)"/>
      <use xlink:href="#DejaVuSans-Bold-5d" transform="translate(475.537109 0)"/>
     </g>
    </g>
   </g>
   <g id="matplotlib.axis_4">
    <g id="ytick_10">
     <g id="line2d_43">
      <g>
       <use xlink:href="#ma083567102" x="533.909045" y="304.860288" style="stroke: #000000; stroke-width: 0.8"/>
      </g>
     </g>
     <g id="text_32">
      <!-- −25 -->
      <g transform="translate(495.252014 310.559116) scale(0.15 -0.15)">
       <use xlink:href="#DejaVuSans-2212"/>
       <use xlink:href="#DejaVuSans-32" transform="translate(83.789062 0)"/>
       <use xlink:href="#DejaVuSans-35" transform="translate(147.412109 0)"/>
      </g>
     </g>
    </g>
    <g id="ytick_11">
     <g id="line2d_44">
      <g>
       <use xlink:href="#ma083567102" x="533.909045" y="274.004786" style="stroke: #000000; stroke-width: 0.8"/>
      </g>
     </g>
     <g id="text_33">
      <!-- 0 -->
      <g transform="translate(517.365295 279.703614) scale(0.15 -0.15)">
       <use xlink:href="#DejaVuSans-30"/>
      </g>
     </g>
    </g>
    <g id="ytick_12">
     <g id="line2d_45">
      <g>
       <use xlink:href="#ma083567102" x="533.909045" y="243.149284" style="stroke: #000000; stroke-width: 0.8"/>
      </g>
     </g>
     <g id="text_34">
      <!-- 25 -->
      <g transform="translate(507.821545 248.848112) scale(0.15 -0.15)">
       <use xlink:href="#DejaVuSans-32"/>
       <use xlink:href="#DejaVuSans-35" transform="translate(63.623047 0)"/>
      </g>
     </g>
    </g>
    <g id="ytick_13">
     <g id="line2d_46">
      <g>
       <use xlink:href="#ma083567102" x="533.909045" y="212.293782" style="stroke: #000000; stroke-width: 0.8"/>
      </g>
     </g>
     <g id="text_35">
      <!-- 50 -->
      <g transform="translate(507.821545 217.99261) scale(0.15 -0.15)">
       <use xlink:href="#DejaVuSans-35"/>
       <use xlink:href="#DejaVuSans-30" transform="translate(63.623047 0)"/>
      </g>
     </g>
    </g>
    <g id="ytick_14">
     <g id="line2d_47">
      <g>
       <use xlink:href="#ma083567102" x="533.909045" y="181.43828" style="stroke: #000000; stroke-width: 0.8"/>
      </g>
     </g>
     <g id="text_36">
      <!-- 75 -->
      <g transform="translate(507.821545 187.137108) scale(0.15 -0.15)">
       <use xlink:href="#DejaVuSans-37"/>
       <use xlink:href="#DejaVuSans-35" transform="translate(63.623047 0)"/>
      </g>
     </g>
    </g>
    <g id="ytick_15">
     <g id="line2d_48">
      <g>
       <use xlink:href="#ma083567102" x="533.909045" y="150.582778" style="stroke: #000000; stroke-width: 0.8"/>
      </g>
     </g>
     <g id="text_37">
      <!-- 100 -->
      <g transform="translate(498.277795 156.281606) scale(0.15 -0.15)">
       <use xlink:href="#DejaVuSans-31"/>
       <use xlink:href="#DejaVuSans-30" transform="translate(63.623047 0)"/>
       <use xlink:href="#DejaVuSans-30" transform="translate(127.246094 0)"/>
      </g>
     </g>
    </g>
    <g id="ytick_16">
     <g id="line2d_49">
      <g>
       <use xlink:href="#ma083567102" x="533.909045" y="119.727276" style="stroke: #000000; stroke-width: 0.8"/>
      </g>
     </g>
     <g id="text_38">
      <!-- 125 -->
      <g transform="translate(498.277795 125.426104) scale(0.15 -0.15)">
       <use xlink:href="#DejaVuSans-31"/>
       <use xlink:href="#DejaVuSans-32" transform="translate(63.623047 0)"/>
       <use xlink:href="#DejaVuSans-35" transform="translate(127.246094 0)"/>
      </g>
     </g>
    </g>
    <g id="ytick_17">
     <g id="line2d_50">
      <g>
       <use xlink:href="#ma083567102" x="533.909045" y="88.871773" style="stroke: #000000; stroke-width: 0.8"/>
      </g>
     </g>
     <g id="text_39">
      <!-- 150 -->
      <g transform="translate(498.277795 94.570602) scale(0.15 -0.15)">
       <use xlink:href="#DejaVuSans-31"/>
       <use xlink:href="#DejaVuSans-35" transform="translate(63.623047 0)"/>
       <use xlink:href="#DejaVuSans-30" transform="translate(127.246094 0)"/>
      </g>
     </g>
    </g>
    <g id="ytick_18">
     <g id="line2d_51">
      <g>
       <use xlink:href="#ma083567102" x="533.909045" y="58.016271" style="stroke: #000000; stroke-width: 0.8"/>
      </g>
     </g>
     <g id="text_40">
      <!-- 175 -->
      <g transform="translate(498.277795 63.715099) scale(0.15 -0.15)">
       <use xlink:href="#DejaVuSans-31"/>
       <use xlink:href="#DejaVuSans-37" transform="translate(63.623047 0)"/>
       <use xlink:href="#DejaVuSans-35" transform="translate(127.246094 0)"/>
      </g>
     </g>
    </g>
    <g id="text_41">
     <!-- UGE [g] -->
     <g transform="translate(487.367951 220.445156) rotate(-90) scale(0.18 -0.18)">
      <defs>
       <path id="DejaVuSans-Bold-55" d="M 588 4666 
L 1791 4666 
L 1791 1869 
Q 1791 1291 1980 1042 
Q 2169 794 2597 794 
Q 3028 794 3217 1042 
Q 3406 1291 3406 1869 
L 3406 4666 
L 4609 4666 
L 4609 1869 
Q 4609 878 4112 393 
Q 3616 -91 2597 -91 
Q 1581 -91 1084 393 
Q 588 878 588 1869 
L 588 4666 
z
" transform="scale(0.015625)"/>
       <path id="DejaVuSans-Bold-47" d="M 4781 347 
Q 4331 128 3847 18 
Q 3363 -91 2847 -91 
Q 1681 -91 1000 561 
Q 319 1213 319 2328 
Q 319 3456 1012 4103 
Q 1706 4750 2913 4750 
Q 3378 4750 3804 4662 
Q 4231 4575 4609 4403 
L 4609 3438 
Q 4219 3659 3833 3768 
Q 3447 3878 3059 3878 
Q 2341 3878 1952 3476 
Q 1563 3075 1563 2328 
Q 1563 1588 1938 1184 
Q 2313 781 3003 781 
Q 3191 781 3352 804 
Q 3513 828 3641 878 
L 3641 1784 
L 2906 1784 
L 2906 2591 
L 4781 2591 
L 4781 347 
z
" transform="scale(0.015625)"/>
      </defs>
      <use xlink:href="#DejaVuSans-Bold-55"/>
      <use xlink:href="#DejaVuSans-Bold-47" transform="translate(81.201172 0)"/>
      <use xlink:href="#DejaVuSans-Bold-45" transform="translate(163.28125 0)"/>
      <use xlink:href="#DejaVuSans-Bold-20" transform="translate(231.591797 0)"/>
      <use xlink:href="#DejaVuSans-Bold-5b" transform="translate(266.40625 0)"/>
      <use xlink:href="#DejaVuSans-Bold-67" transform="translate(312.109375 0)"/>
      <use xlink:href="#DejaVuSans-Bold-5d" transform="translate(383.691406 0)"/>
     </g>
    </g>
   </g>
   <g id="LineCollection_7">
    <path clip-path="url(#p1021ecaf83)" style="fill: none; stroke: #000000"/>
    <path d="M 558.611021 307.8 
L 558.611021 230.335812 
" clip-path="url(#p1021ecaf83)" style="fill: none; stroke: #000000"/>
    <path d="M 632.71695 301.684622 
L 632.71695 232.27918 
" clip-path="url(#p1021ecaf83)" style="fill: none; stroke: #000000"/>
   </g>
   <g id="LineCollection_8">
    <path clip-path="url(#p1021ecaf83)" style="fill: none; stroke: #ff6b35"/>
    <path d="M 558.611021 227.78972 
L 558.611021 146.601595 
" clip-path="url(#p1021ecaf83)" style="fill: none; stroke: #ff6b35"/>
    <path d="M 632.71695 226.075893 
L 632.71695 152.498219 
" clip-path="url(#p1021ecaf83)" style="fill: none; stroke: #ff6b35"/>
   </g>
   <g id="LineCollection_9">
    <path clip-path="url(#p1021ecaf83)" style="fill: none; stroke: #ff5722"/>
    <path d="M 558.611021 209.229964 
L 558.611021 132.438868 
" clip-path="url(#p1021ecaf83)" style="fill: none; stroke: #ff5722"/>
    <path d="M 632.71695 220.806205 
L 632.71695 152.152724 
" clip-path="url(#p1021ecaf83)" style="fill: none; stroke: #ff5722"/>
   </g>
   <g id="LineCollection_10">
    <path clip-path="url(#p1021ecaf83)" style="fill: none; stroke: #e53935"/>
    <path d="M 558.611021 214.542332 
L 558.611021 140.988002 
" clip-path="url(#p1021ecaf83)" style="fill: none; stroke: #e53935"/>
    <path d="M 632.71695 221.843424 
L 632.71695 148.288968 
" clip-path="url(#p1021ecaf83)" style="fill: none; stroke: #e53935"/>
   </g>
   <g id="line2d_52">
    <path d="M 533.859641 274.004786 
L 867.385725 274.004786 
L 867.385725 274.004786 
" clip-path="url(#p1021ecaf83)" style="fill: none; stroke: #000000; stroke-width: 2; stroke-linecap: square"/>
   </g>
   <g id="line2d_53">
    <defs>
     <path id="m8b2bf2d839" d="M -3 3 
L 3 3 
L 3 -3 
L -3 -3 
z
" style="stroke: #000000; stroke-linejoin: miter"/>
    </defs>
    <g clip-path="url(#p1021ecaf83)">
     <use xlink:href="#m8b2bf2d839" x="-1" y="268.764974" style="stroke: #000000; stroke-linejoin: miter"/>
     <use xlink:href="#m8b2bf2d839" x="558.611021" y="269.067906" style="stroke: #000000; stroke-linejoin: miter"/>
     <use xlink:href="#m8b2bf2d839" x="632.71695" y="266.981901" style="stroke: #000000; stroke-linejoin: miter"/>
    </g>
   </g>
   <g id="line2d_54">
    <path d="M 533.859641 193.490345 
L 540.677386 183.443809 
L 546.754073 174.871138 
L 552.237911 167.502701 
L 557.277114 161.090319 
L 558.611021 159.456811 
L 558.611021 274.004786 
L 559.84612 272.159842 
L 566.639163 260.522763 
L 577.137503 242.739378 
L 587.018294 226.423757 
L 596.281535 211.539793 
L 604.309677 199.036346 
L 611.72027 187.906274 
L 617.895764 179.00357 
L 623.453709 171.33897 
L 629.011654 164.061914 
L 633.952049 157.969779 
L 638.274895 152.96984 
L 642.59774 148.315712 
L 646.303037 144.630284 
L 650.008333 141.251539 
L 653.71363 138.205123 
L 656.801377 135.939136 
L 659.889124 133.937245 
L 662.976871 132.214519 
L 666.064618 130.785729 
L 668.534816 129.863943 
L 671.005013 129.146418 
L 673.475211 128.639784 
L 675.945408 128.350246 
L 678.415606 128.278773 
L 867.385725 128.278773 
L 867.385725 128.278773 
" clip-path="url(#p1021ecaf83)" style="fill: none; stroke: #ff6b35; stroke-width: 2; stroke-linecap: square"/>
   </g>
   <g id="line2d_55">
    <g clip-path="url(#p1021ecaf83)">
     <use xlink:href="#mbc1e8c8ce9" x="-1" y="184.469265" style="fill: #ff6b35; stroke: #000000; stroke-linejoin: miter"/>
     <use xlink:href="#mbc1e8c8ce9" x="558.611021" y="187.195657" style="fill: #ff6b35; stroke: #000000; stroke-linejoin: miter"/>
     <use xlink:href="#mbc1e8c8ce9" x="632.71695" y="189.287056" style="fill: #ff6b35; stroke: #000000; stroke-linejoin: miter"/>
    </g>
   </g>
   <g id="line2d_56">
    <path d="M 533.859641 188.648909 
L 544.382683 171.229705 
L 553.423606 156.683836 
L 558.611021 148.563616 
L 558.611021 274.004786 
L 560.463669 270.860392 
L 587.018294 224.363028 
L 601.22193 200.021376 
L 612.955369 180.333143 
L 622.836159 164.178739 
L 631.481851 150.480002 
L 638.892444 139.160549 
L 645.067938 130.099201 
L 650.625883 122.291632 
L 656.183827 114.871654 
L 661.124223 108.652656 
L 665.447069 103.541948 
L 669.769914 98.777369 
L 673.475211 94.997604 
L 677.180507 91.524916 
L 680.885804 88.385046 
L 683.973551 86.041633 
L 687.061298 83.962804 
L 690.149045 82.163707 
L 693.236792 80.6592 
L 695.70699 79.677377 
L 698.177187 78.900346 
L 700.647385 78.334794 
L 703.117582 77.986981 
L 705.58778 77.862668 
L 867.385725 77.862414 
L 867.385725 77.862414 
" clip-path="url(#p1021ecaf83)" style="fill: none; stroke: #ff5722; stroke-width: 2; stroke-linecap: square"/>
   </g>
   <g id="line2d_57">
    <g clip-path="url(#p1021ecaf83)">
     <use xlink:href="#m86efdf9f6b" x="-1" y="166.290432" style="fill: #ff5722; stroke: #000000; stroke-linejoin: miter"/>
     <use xlink:href="#m86efdf9f6b" x="558.611021" y="170.834416" style="fill: #ff5722; stroke: #000000; stroke-linejoin: miter"/>
     <use xlink:href="#m86efdf9f6b" x="632.71695" y="186.479464" style="fill: #ff5722; stroke: #000000; stroke-linejoin: miter"/>
    </g>
   </g>
   <g id="line2d_58">
    <path d="M 533.859641 201.116989 
L 552.978971 173.336706 
L 558.611021 165.251745 
L 558.611021 274.004786 
L 564.168966 265.778389 
L 595.663986 219.17524 
L 618.513314 185.736829 
L 634.569598 162.605103 
L 647.538136 144.302132 
L 658.036476 129.862989 
L 666.682167 118.326206 
L 674.09276 108.771832 
L 680.885804 100.354746 
L 687.061298 93.048723 
L 692.619242 86.809482 
L 697.559638 81.575527 
L 702.500033 76.678844 
L 706.822879 72.707012 
L 711.145725 69.061866 
L 714.851021 66.224181 
L 718.556318 63.675659 
L 721.644065 61.790035 
L 724.731812 60.135934 
L 727.819559 58.72753 
L 730.907306 57.578932 
L 733.995053 56.704015 
L 736.46525 56.210197 
L 738.935448 55.906787 
L 741.405646 55.800099 
L 867.385725 55.8 
L 867.385725 55.8 
" clip-path="url(#p1021ecaf83)" style="fill: none; stroke: #e53935; stroke-width: 2; stroke-linecap: square"/>
   </g>
   <g id="line2d_59">
    <g clip-path="url(#p1021ecaf83)">
     <use xlink:href="#m0f2e50af7b" x="-1" y="174.432914" style="fill: #e53935; stroke: #000000; stroke-linejoin: miter"/>
     <use xlink:href="#m0f2e50af7b" x="558.611021" y="177.765167" style="fill: #e53935; stroke: #000000; stroke-linejoin: miter"/>
     <use xlink:href="#m0f2e50af7b" x="632.71695" y="185.066196" style="fill: #e53935; stroke: #000000; stroke-linejoin: miter"/>
    </g>
   </g>
   <g id="patch_9">
    <path d="M 533.909045 320.4 
L 533.909045 43.2 
" style="fill: none; stroke: #000000; stroke-width: 0.8; stroke-linejoin: miter; stroke-linecap: square"/>
   </g>
   <g id="patch_10">
    <path d="M 873.561219 320.4 
L 873.561219 43.2 
" style="fill: none; stroke: #000000; stroke-width: 0.8; stroke-linejoin: miter; stroke-linecap: square"/>
   </g>
   <g id="patch_11">
    <path d="M 533.909045 320.4 
L 873.561219 320.4 
" style="fill: none; stroke: #000000; stroke-width: 0.8; stroke-linejoin: miter; stroke-linecap: square"/>
   </g>
   <g id="patch_12">
    <path d="M 533.909045 43.2 
L 873.561219 43.2 
" style="fill: none; stroke: #000000; stroke-width: 0.8; stroke-linejoin: miter; stroke-linecap: square"/>
   </g>
   <g id="legend_2">
    <g id="patch_13">
     <path d="M 726.14825 315.9 
L 867.261219 315.9 
Q 869.061219 315.9 869.061219 314.1 
L 869.061219 209.3175 
Q 869.061219 207.5175 867.261219 207.5175 
L 726.14825 207.5175 
Q 724.34825 207.5175 724.34825 209.3175 
L 724.34825 314.1 
Q 724.34825 315.9 726.14825 315.9 
z
" style="fill: #ffffff; opacity: 0.8; stroke: #cccccc; stroke-linejoin: miter"/>
    </g>
    <g id="line2d_60">
     <path d="M 727.94825 214.806094 
L 745.94825 214.806094 
" style="fill: none; stroke: #000000; stroke-width: 2; stroke-linecap: square"/>
    </g>
    <g id="line2d_61"/>
    <g id="text_42">
     <!-- Placebo -->
     <g transform="translate(753.14825 217.956094) scale(0.09 -0.09)">
      <use xlink:href="#DejaVuSans-50"/>
      <use xlink:href="#DejaVuSans-6c" transform="translate(60.302734 0)"/>
      <use xlink:href="#DejaVuSans-61" transform="translate(88.085938 0)"/>
      <use xlink:href="#DejaVuSans-63" transform="translate(149.365234 0)"/>
      <use xlink:href="#DejaVuSans-65" transform="translate(204.345703 0)"/>
      <use xlink:href="#DejaVuSans-62" transform="translate(265.869141 0)"/>
      <use xlink:href="#DejaVuSans-6f" transform="translate(329.345703 0)"/>
     </g>
    </g>
    <g id="LineCollection_11">
     <path d="M 736.94825 232.516406 
L 736.94825 223.516406 
" style="fill: none; stroke: #000000"/>
    </g>
    <g id="line2d_62"/>
    <g id="line2d_63">
     <g>
      <use xlink:href="#m8b2bf2d839" x="736.94825" y="228.016406" style="stroke: #000000; stroke-linejoin: miter"/>
     </g>
    </g>
    <g id="text_43">
     <!-- Placebo±SD (n=16) -->
     <g transform="translate(753.14825 231.166406) scale(0.09 -0.09)">
      <use xlink:href="#DejaVuSans-50"/>
      <use xlink:href="#DejaVuSans-6c" transform="translate(60.302734 0)"/>
      <use xlink:href="#DejaVuSans-61" transform="translate(88.085938 0)"/>
      <use xlink:href="#DejaVuSans-63" transform="translate(149.365234 0)"/>
      <use xlink:href="#DejaVuSans-65" transform="translate(204.345703 0)"/>
      <use xlink:href="#DejaVuSans-62" transform="translate(265.869141 0)"/>
      <use xlink:href="#DejaVuSans-6f" transform="translate(329.345703 0)"/>
      <use xlink:href="#DejaVuSans-b1" transform="translate(390.527344 0)"/>
      <use xlink:href="#DejaVuSans-53" transform="translate(474.316406 0)"/>
      <use xlink:href="#DejaVuSans-44" transform="translate(537.792969 0)"/>
      <use xlink:href="#DejaVuSans-20" transform="translate(614.794922 0)"/>
      <use xlink:href="#DejaVuSans-28" transform="translate(646.582031 0)"/>
      <use xlink:href="#DejaVuSans-6e" transform="translate(685.595703 0)"/>
      <use xlink:href="#DejaVuSans-3d" transform="translate(748.974609 0)"/>
      <use xlink:href="#DejaVuSans-31" transform="translate(832.763672 0)"/>
      <use xlink:href="#DejaVuSans-36" transform="translate(896.386719 0)"/>
      <use xlink:href="#DejaVuSans-29" transform="translate(960.009766 0)"/>
     </g>
    </g>
    <g id="line2d_64">
     <path d="M 727.94825 241.226719 
L 745.94825 241.226719 
" style="fill: none; stroke: #ff6b35; stroke-width: 2; stroke-linecap: square"/>
    </g>
    <g id="line2d_65"/>
    <g id="text_44">
     <!-- 10 mg Emp -->
     <g transform="translate(753.14825 244.376719) scale(0.09 -0.09)">
      <use xlink:href="#DejaVuSans-31"/>
      <use xlink:href="#DejaVuSans-30" transform="translate(63.623047 0)"/>
      <use xlink:href="#DejaVuSans-20" transform="translate(127.246094 0)"/>
      <use xlink:href="#DejaVuSans-6d" transform="translate(159.033203 0)"/>
      <use xlink:href="#DejaVuSans-67" transform="translate(256.445312 0)"/>
      <use xlink:href="#DejaVuSans-20" transform="translate(319.921875 0)"/>
      <use xlink:href="#DejaVuSans-45" transform="translate(351.708984 0)"/>
      <use xlink:href="#DejaVuSans-6d" transform="translate(414.892578 0)"/>
      <use xlink:href="#DejaVuSans-70" transform="translate(512.304688 0)"/>
     </g>
    </g>
    <g id="LineCollection_12">
     <path d="M 736.94825 258.937031 
L 736.94825 249.937031 
" style="fill: none; stroke: #ff6b35"/>
    </g>
    <g id="line2d_66"/>
    <g id="line2d_67">
     <g>
      <use xlink:href="#mbc1e8c8ce9" x="736.94825" y="254.437031" style="fill: #ff6b35; stroke: #000000; stroke-linejoin: miter"/>
     </g>
    </g>
    <g id="text_45">
     <!-- 10 mg Emp±SD (n=16) -->
     <g transform="translate(753.14825 257.587031) scale(0.09 -0.09)">
      <use xlink:href="#DejaVuSans-31"/>
      <use xlink:href="#DejaVuSans-30" transform="translate(63.623047 0)"/>
      <use xlink:href="#DejaVuSans-20" transform="translate(127.246094 0)"/>
      <use xlink:href="#DejaVuSans-6d" transform="translate(159.033203 0)"/>
      <use xlink:href="#DejaVuSans-67" transform="translate(256.445312 0)"/>
      <use xlink:href="#DejaVuSans-20" transform="translate(319.921875 0)"/>
      <use xlink:href="#DejaVuSans-45" transform="translate(351.708984 0)"/>
      <use xlink:href="#DejaVuSans-6d" transform="translate(414.892578 0)"/>
      <use xlink:href="#DejaVuSans-70" transform="translate(512.304688 0)"/>
      <use xlink:href="#DejaVuSans-b1" transform="translate(575.78125 0)"/>
      <use xlink:href="#DejaVuSans-53" transform="translate(659.570312 0)"/>
      <use xlink:href="#DejaVuSans-44" transform="translate(723.046875 0)"/>
      <use xlink:href="#DejaVuSans-20" transform="translate(800.048828 0)"/>
      <use xlink:href="#DejaVuSans-28" transform="translate(831.835938 0)"/>
      <use xlink:href="#DejaVuSans-6e" transform="translate(870.849609 0)"/>
      <use xlink:href="#DejaVuSans-3d" transform="translate(934.228516 0)"/>
      <use xlink:href="#DejaVuSans-31" transform="translate(1018.017578 0)"/>
      <use xlink:href="#DejaVuSans-36" transform="translate(1081.640625 0)"/>
      <use xlink:href="#DejaVuSans-29" transform="translate(1145.263672 0)"/>
     </g>
    </g>
    <g id="line2d_68">
     <path d="M 727.94825 267.647344 
L 745.94825 267.647344 
" style="fill: none; stroke: #ff5722; stroke-width: 2; stroke-linecap: square"/>
    </g>
    <g id="line2d_69"/>
    <g id="text_46">
     <!-- 25 mg Emp -->
     <g transform="translate(753.14825 270.797344) scale(0.09 -0.09)">
      <use xlink:href="#DejaVuSans-32"/>
      <use xlink:href="#DejaVuSans-35" transform="translate(63.623047 0)"/>
      <use xlink:href="#DejaVuSans-20" transform="translate(127.246094 0)"/>
      <use xlink:href="#DejaVuSans-6d" transform="translate(159.033203 0)"/>
      <use xlink:href="#DejaVuSans-67" transform="translate(256.445312 0)"/>
      <use xlink:href="#DejaVuSans-20" transform="translate(319.921875 0)"/>
      <use xlink:href="#DejaVuSans-45" transform="translate(351.708984 0)"/>
      <use xlink:href="#DejaVuSans-6d" transform="translate(414.892578 0)"/>
      <use xlink:href="#DejaVuSans-70" transform="translate(512.304688 0)"/>
     </g>
    </g>
    <g id="LineCollection_13">
     <path d="M 736.94825 285.357656 
L 736.94825 276.357656 
" style="fill: none; stroke: #ff5722"/>
    </g>
    <g id="line2d_70"/>
    <g id="line2d_71">
     <g>
      <use xlink:href="#m86efdf9f6b" x="736.94825" y="280.857656" style="fill: #ff5722; stroke: #000000; stroke-linejoin: miter"/>
     </g>
    </g>
    <g id="text_47">
     <!-- 25 mg Emp±SD (n=16) -->
     <g transform="translate(753.14825 284.007656) scale(0.09 -0.09)">
      <use xlink:href="#DejaVuSans-32"/>
      <use xlink:href="#DejaVuSans-35" transform="translate(63.623047 0)"/>
      <use xlink:href="#DejaVuSans-20" transform="translate(127.246094 0)"/>
      <use xlink:href="#DejaVuSans-6d" transform="translate(159.033203 0)"/>
      <use xlink:href="#DejaVuSans-67" transform="translate(256.445312 0)"/>
      <use xlink:href="#DejaVuSans-20" transform="translate(319.921875 0)"/>
      <use xlink:href="#DejaVuSans-45" transform="translate(351.708984 0)"/>
      <use xlink:href="#DejaVuSans-6d" transform="translate(414.892578 0)"/>
      <use xlink:href="#DejaVuSans-70" transform="translate(512.304688 0)"/>
      <use xlink:href="#DejaVuSans-b1" transform="translate(575.78125 0)"/>
      <use xlink:href="#DejaVuSans-53" transform="translate(659.570312 0)"/>
      <use xlink:href="#DejaVuSans-44" transform="translate(723.046875 0)"/>
      <use xlink:href="#DejaVuSans-20" transform="translate(800.048828 0)"/>
      <use xlink:href="#DejaVuSans-28" transform="translate(831.835938 0)"/>
      <use xlink:href="#DejaVuSans-6e" transform="translate(870.849609 0)"/>
      <use xlink:href="#DejaVuSans-3d" transform="translate(934.228516 0)"/>
      <use xlink:href="#DejaVuSans-31" transform="translate(1018.017578 0)"/>
      <use xlink:href="#DejaVuSans-36" transform="translate(1081.640625 0)"/>
      <use xlink:href="#DejaVuSans-29" transform="translate(1145.263672 0)"/>
     </g>
    </g>
    <g id="line2d_72">
     <path d="M 727.94825 294.067969 
L 745.94825 294.067969 
" style="fill: none; stroke: #e53935; stroke-width: 2; stroke-linecap: square"/>
    </g>
    <g id="line2d_73"/>
    <g id="text_48">
     <!-- 100 mg Emp -->
     <g transform="translate(753.14825 297.217969) scale(0.09 -0.09)">
      <use xlink:href="#DejaVuSans-31"/>
      <use xlink:href="#DejaVuSans-30" transform="translate(63.623047 0)"/>
      <use xlink:href="#DejaVuSans-30" transform="translate(127.246094 0)"/>
      <use xlink:href="#DejaVuSans-20" transform="translate(190.869141 0)"/>
      <use xlink:href="#DejaVuSans-6d" transform="translate(222.65625 0)"/>
      <use xlink:href="#DejaVuSans-67" transform="translate(320.068359 0)"/>
      <use xlink:href="#DejaVuSans-20" transform="translate(383.544922 0)"/>
      <use xlink:href="#DejaVuSans-45" transform="translate(415.332031 0)"/>
      <use xlink:href="#DejaVuSans-6d" transform="translate(478.515625 0)"/>
      <use xlink:href="#DejaVuSans-70" transform="translate(575.927734 0)"/>
     </g>
    </g>
    <g id="LineCollection_14">
     <path d="M 736.94825 311.778281 
L 736.94825 302.778281 
" style="fill: none; stroke: #e53935"/>
    </g>
    <g id="line2d_74"/>
    <g id="line2d_75">
     <g>
      <use xlink:href="#m0f2e50af7b" x="736.94825" y="307.278281" style="fill: #e53935; stroke: #000000; stroke-linejoin: miter"/>
     </g>
    </g>
    <g id="text_49">
     <!-- 100 mg Emp±SD (n=30) -->
     <g transform="translate(753.14825 310.428281) scale(0.09 -0.09)">
      <use xlink:href="#DejaVuSans-31"/>
      <use xlink:href="#DejaVuSans-30" transform="translate(63.623047 0)"/>
      <use xlink:href="#DejaVuSans-30" transform="translate(127.246094 0)"/>
      <use xlink:href="#DejaVuSans-20" transform="translate(190.869141 0)"/>
      <use xlink:href="#DejaVuSans-6d" transform="translate(222.65625 0)"/>
      <use xlink:href="#DejaVuSans-67" transform="translate(320.068359 0)"/>
      <use xlink:href="#DejaVuSans-20" transform="translate(383.544922 0)"/>
      <use xlink:href="#DejaVuSans-45" transform="translate(415.332031 0)"/>
      <use xlink:href="#DejaVuSans-6d" transform="translate(478.515625 0)"/>
      <use xlink:href="#DejaVuSans-70" transform="translate(575.927734 0)"/>
      <use xlink:href="#DejaVuSans-b1" transform="translate(639.404297 0)"/>
      <use xlink:href="#DejaVuSans-53" transform="translate(723.193359 0)"/>
      <use xlink:href="#DejaVuSans-44" transform="translate(786.669922 0)"/>
      <use xlink:href="#DejaVuSans-20" transform="translate(863.671875 0)"/>
      <use xlink:href="#DejaVuSans-28" transform="translate(895.458984 0)"/>
      <use xlink:href="#DejaVuSans-6e" transform="translate(934.472656 0)"/>
      <use xlink:href="#DejaVuSans-3d" transform="translate(997.851562 0)"/>
      <use xlink:href="#DejaVuSans-33" transform="translate(1081.640625 0)"/>
      <use xlink:href="#DejaVuSans-30" transform="translate(1145.263672 0)"/>
      <use xlink:href="#DejaVuSans-29" transform="translate(1208.886719 0)"/>
     </g>
    </g>
   </g>
  </g>
  <g id="text_50">
   <!-- Heise2013a (T2DM) -->
   <g transform="translate(332.175672 26.196094) scale(0.25 -0.25)">
    <defs>
     <path id="DejaVuSans-Bold-48" d="M 588 4666 
L 1791 4666 
L 1791 2888 
L 3566 2888 
L 3566 4666 
L 4769 4666 
L 4769 0 
L 3566 0 
L 3566 1978 
L 1791 1978 
L 1791 0 
L 588 0 
L 588 4666 
z
" transform="scale(0.015625)"/>
     <path id="DejaVuSans-Bold-32" d="M 1844 884 
L 3897 884 
L 3897 0 
L 506 0 
L 506 884 
L 2209 2388 
Q 2438 2594 2547 2791 
Q 2656 2988 2656 3200 
Q 2656 3528 2436 3728 
Q 2216 3928 1850 3928 
Q 1569 3928 1234 3808 
Q 900 3688 519 3450 
L 519 4475 
Q 925 4609 1322 4679 
Q 1719 4750 2100 4750 
Q 2938 4750 3402 4381 
Q 3866 4013 3866 3353 
Q 3866 2972 3669 2642 
Q 3472 2313 2841 1759 
L 1844 884 
z
" transform="scale(0.015625)"/>
     <path id="DejaVuSans-Bold-30" d="M 2944 2338 
Q 2944 3213 2780 3570 
Q 2616 3928 2228 3928 
Q 1841 3928 1675 3570 
Q 1509 3213 1509 2338 
Q 1509 1453 1675 1090 
Q 1841 728 2228 728 
Q 2613 728 2778 1090 
Q 2944 1453 2944 2338 
z
M 4147 2328 
Q 4147 1169 3647 539 
Q 3147 -91 2228 -91 
Q 1306 -91 806 539 
Q 306 1169 306 2328 
Q 306 3491 806 4120 
Q 1306 4750 2228 4750 
Q 3147 4750 3647 4120 
Q 4147 3491 4147 2328 
z
" transform="scale(0.015625)"/>
     <path id="DejaVuSans-Bold-31" d="M 750 831 
L 1813 831 
L 1813 3847 
L 722 3622 
L 722 4441 
L 1806 4666 
L 2950 4666 
L 2950 831 
L 4013 831 
L 4013 0 
L 750 0 
L 750 831 
z
" transform="scale(0.015625)"/>
     <path id="DejaVuSans-Bold-33" d="M 2981 2516 
Q 3453 2394 3698 2092 
Q 3944 1791 3944 1325 
Q 3944 631 3412 270 
Q 2881 -91 1863 -91 
Q 1503 -91 1142 -33 
Q 781 25 428 141 
L 428 1069 
Q 766 900 1098 814 
Q 1431 728 1753 728 
Q 2231 728 2486 893 
Q 2741 1059 2741 1369 
Q 2741 1688 2480 1852 
Q 2219 2016 1709 2016 
L 1228 2016 
L 1228 2791 
L 1734 2791 
Q 2188 2791 2409 2933 
Q 2631 3075 2631 3366 
Q 2631 3634 2415 3781 
Q 2200 3928 1806 3928 
Q 1516 3928 1219 3862 
Q 922 3797 628 3669 
L 628 4550 
Q 984 4650 1334 4700 
Q 1684 4750 2022 4750 
Q 2931 4750 3382 4451 
Q 3834 4153 3834 3553 
Q 3834 3144 3618 2883 
Q 3403 2622 2981 2516 
z
" transform="scale(0.015625)"/>
     <path id="DejaVuSans-Bold-28" d="M 2413 -844 
L 1484 -844 
Q 1006 -72 778 623 
Q 550 1319 550 2003 
Q 550 2688 779 3389 
Q 1009 4091 1484 4856 
L 2413 4856 
Q 2013 4116 1813 3408 
Q 1613 2700 1613 2009 
Q 1613 1319 1811 609 
Q 2009 -100 2413 -844 
z
" transform="scale(0.015625)"/>
     <path id="DejaVuSans-Bold-44" d="M 1791 3756 
L 1791 909 
L 2222 909 
Q 2959 909 3348 1275 
Q 3738 1641 3738 2338 
Q 3738 3031 3350 3393 
Q 2963 3756 2222 3756 
L 1791 3756 
z
M 588 4666 
L 1856 4666 
Q 2919 4666 3439 4514 
Q 3959 4363 4331 4000 
Q 4659 3684 4818 3271 
Q 4978 2859 4978 2338 
Q 4978 1809 4818 1395 
Q 4659 981 4331 666 
Q 3956 303 3431 151 
Q 2906 0 1856 0 
L 588 0 
L 588 4666 
z
" transform="scale(0.015625)"/>
     <path id="DejaVuSans-Bold-29" d="M 513 -844 
Q 913 -100 1113 609 
Q 1313 1319 1313 2009 
Q 1313 2700 1113 3408 
Q 913 4116 513 4856 
L 1441 4856 
Q 1916 4091 2145 3389 
Q 2375 2688 2375 2003 
Q 2375 1319 2147 623 
Q 1919 -72 1441 -844 
L 513 -844 
z
" transform="scale(0.015625)"/>
    </defs>
    <use xlink:href="#DejaVuSans-Bold-48"/>
    <use xlink:href="#DejaVuSans-Bold-65" transform="translate(83.691406 0)"/>
    <use xlink:href="#DejaVuSans-Bold-69" transform="translate(151.513672 0)"/>
    <use xlink:href="#DejaVuSans-Bold-73" transform="translate(185.791016 0)"/>
    <use xlink:href="#DejaVuSans-Bold-65" transform="translate(245.3125 0)"/>
    <use xlink:href="#DejaVuSans-Bold-32" transform="translate(313.134766 0)"/>
    <use xlink:href="#DejaVuSans-Bold-30" transform="translate(382.714844 0)"/>
    <use xlink:href="#DejaVuSans-Bold-31" transform="translate(452.294922 0)"/>
    <use xlink:href="#DejaVuSans-Bold-33" transform="translate(521.875 0)"/>
    <use xlink:href="#DejaVuSans-Bold-61" transform="translate(591.455078 0)"/>
    <use xlink:href="#DejaVuSans-Bold-20" transform="translate(658.935547 0)"/>
    <use xlink:href="#DejaVuSans-Bold-28" transform="translate(693.75 0)"/>
    <use xlink:href="#DejaVuSans-Bold-54" transform="translate(739.453125 0)"/>
    <use xlink:href="#DejaVuSans-Bold-32" transform="translate(807.666016 0)"/>
    <use xlink:href="#DejaVuSans-Bold-44" transform="translate(877.246094 0)"/>
    <use xlink:href="#DejaVuSans-Bold-4d" transform="translate(960.253906 0)"/>
    <use xlink:href="#DejaVuSans-Bold-29" transform="translate(1059.765625 0)"/>
   </g>
  </g>
 </g>
 <defs>
  <clipPath id="p6f5cb5fd79">
   <rect x="92.361219" y="43.2" width="339.652174" height="277.2"/>
  </clipPath>
  <clipPath id="p1021ecaf83">
   <rect x="533.909045" y="43.2" width="339.652174" height="277.2"/>
  </clipPath>
 </defs>
</svg>
